# This file was created by meshio v5.3.5
442 3 0 0
0 8.9463099999999995e-01 -6.9843000000000002e-02 -9.0134599999999998e-01
1 7.1281300000000003e-01 -6.9843000000000002e-02 -1.0831640000000000e+00
2 7.1281300000000003e-01 -6.9843000000000002e-02 -9.0134599999999998e-01
3 8.9463099999999995e-01 -4.0317700000000001e-01 9.1683599999999998e-01
4 8.9463099999999995e-01 -5.6984299999999999e-01 7.3501799999999995e-01
5 8.9463099999999995e-01 -4.0317700000000001e-01 7.3501799999999995e-01
6 -1.1053690000000000e+00 -2.3651000000000000e-01 -1.0831640000000000e+00
7 -9.2355100000000001e-01 -6.9843000000000002e-02 -1.0831640000000000e+00
8 -9.2355100000000001e-01 -2.3651000000000000e-01 -1.0831640000000000e+00
9 -1.1053690000000000e+00 -2.3651000000000000e-01 9.1683599999999998e-01
10 -1.1053690000000000e+00 -6.9843000000000002e-02 7.3501799999999995e-01
11 -1.1053690000000000e+00 -2.3651000000000000e-01 7.3501799999999995e-01
12 7.1281300000000003e-01 -5.6984299999999999e-01 9.1683599999999998e-01
13 7.1281300000000003e-01 -4.0317700000000001e-01 9.1683599999999998e-01
14 -9.2355100000000001e-01 -5.6984299999999999e-01 9.1683599999999998e-01
15 -1.1053690000000000e+00 -5.6984299999999999e-01 7.3501799999999995e-01
16 -9.2355100000000001e-01 -5.6984299999999999e-01 7.3501799999999995e-01
17 -9.2355100000000001e-01 -6.9843000000000002e-02 -9.0134599999999998e-01
18 -1.1053690000000000e+00 -6.9843000000000002e-02 -1.0831640000000000e+00
19 -1.1053690000000000e+00 -6.9843000000000002e-02 -9.0134599999999998e-01
20 -7.4173299999999998e-01 -6.9843000000000002e-02 -9.0134599999999998e-01
21 -5.5991400000000002e-01 -6.9843000000000002e-02 -1.0831640000000000e+00
22 -7.4173299999999998e-01 -6.9843000000000002e-02 -1.0831640000000000e+00
23 -5.5991400000000002e-01 -6.9843000000000002e-02 -9.0134599999999998e-01
24 -3.7809599999999999e-01 -6.9843000000000002e-02 -1.0831640000000000e+00
25 -1.9627800000000001e-01 -6.9843000000000002e-02 -9.0134599999999998e-01
26 -3.7809599999999999e-01 -6.9843000000000002e-02 -9.0134599999999998e-01
27 -1.4460000000000001e-02 -6.9843000000000002e-02 -9.0134599999999998e-01
28 -1.9627800000000001e-01 -6.9843000000000002e-02 -1.0831640000000000e+00
29 1.6735800000000001e-01 -6.9843000000000002e-02 -9.0134599999999998e-01
30 -1.4460000000000001e-02 -6.9843000000000002e-02 -1.0831640000000000e+00
31 3.4917599999999999e-01 -6.9843000000000002e-02 -9.0134599999999998e-01
32 1.6735800000000001e-01 -6.9843000000000002e-02 -1.0831640000000000e+00
33 5.3099499999999999e-01 -6.9843000000000002e-02 -9.0134599999999998e-01
34 3.4917599999999999e-01 -6.9843000000000002e-02 -1.0831640000000000e+00
35 5.3099499999999999e-01 -6.9843000000000002e-02 -1.0831640000000000e+00
36 -9.2355100000000001e-01 -6.9843000000000002e-02 9.1683599999999998e-01
37 -1.1053690000000000e+00 -6.9843000000000002e-02 9.1683599999999998e-01
38 -9.2355100000000001e-01 -6.9843000000000002e-02 7.3501799999999995e-01
39 -1.1053690000000000e+00 -6.9843000000000002e-02 5.5319900000000000e-01
40 -9.2355100000000001e-01 -6.9843000000000002e-02 5.5319900000000000e-01
41 -1.1053690000000000e+00 -6.9843000000000002e-02 3.7138100000000002e-01
42 -9.2355100000000001e-01 -6.9843000000000002e-02 3.7138100000000002e-01
43 -1.1053690000000000e+00 -6.9843000000000002e-02 1.8956300000000001e-01
44 -9.2355100000000001e-01 -6.9843000000000002e-02 1.8956300000000001e-01
45 -1.1053690000000000e+00 -6.9843000000000002e-02 7.7450000000000001e-03
46 -9.2355100000000001e-01 -6.9843000000000002e-02 7.7450000000000001e-03
47 -1.1053690000000000e+00 -6.9843000000000002e-02 -1.7407300000000001e-01
48 -9.2355100000000001e-01 -6.9843000000000002e-02 -1.7407300000000001e-01
49 -1.1053690000000000e+00 -6.9843000000000002e-02 -3.5589100000000001e-01
50 -9.2355100000000001e-01 -6.9843000000000002e-02 -3.5589100000000001e-01
51 -1.1053690000000000e+00 -6.9843000000000002e-02 -5.3771000000000002e-01
52 -9.2355100000000001e-01 -6.9843000000000002e-02 -5.3771000000000002e-01
53 -1.1053690000000000e+00 -6.9843000000000002e-02 -7.1952799999999995e-01
54 -9.2355100000000001e-01 -6.9843000000000002e-02 -7.1952799999999995e-01
55 -7.4173299999999998e-01 -6.9843000000000002e-02 9.1683599999999998e-01
56 -7.4173299999999998e-01 -6.9843000000000002e-02 7.3501799999999995e-01
57 -7.4173299999999998e-01 -6.9843000000000002e-02 5.5319900000000000e-01
58 -7.4173299999999998e-01 -1.7782600000000001e-01 3.7138100000000002e-01
59 -7.4173299999999998e-01 -1.7782600000000001e-01 1.8956300000000001e-01
60 -7.4173299999999998e-01 -1.7782600000000001e-01 7.7450000000000001e-03
61 -7.4173299999999998e-01 -1.7782600000000001e-01 -1.7407300000000001e-01
62 -7.4173299999999998e-01 -6.9843000000000002e-02 -5.3771000000000002e-01
63 -7.4173299999999998e-01 -6.9843000000000002e-02 -7.1952799999999995e-01
64 -5.5991400000000002e-01 -6.9843000000000002e-02 9.1683599999999998e-01
65 -5.5991400000000002e-01 -6.9843000000000002e-02 7.3501799999999995e-01
66 -5.5991400000000002e-01 -6.9843000000000002e-02 5.5319900000000000e-01
67 -5.5991400000000002e-01 -1.7782600000000001e-01 3.7138100000000002e-01
68 -5.6554800000000005e-01 -2.5106600000000001e-01 1.8956300000000001e-01
69 -5.6554800000000005e-01 -2.5106600000000001e-01 7.7450000000000001e-03
70 -5.5991400000000002e-01 -1.7782600000000001e-01 -3.5589100000000001e-01
71 -7.4173299999999998e-01 -1.7782600000000001e-01 -3.5589100000000001e-01
72 -5.5991400000000002e-01 -6.9843000000000002e-02 -5.3771000000000002e-01
73 -5.5991400000000002e-01 -6.9843000000000002e-02 -7.1952799999999995e-01
74 -3.7809599999999999e-01 -6.9843000000000002e-02 9.1683599999999998e-01
75 -3.7809599999999999e-01 -6.9843000000000002e-02 7.3501799999999995e-01
76 -3.7809599999999999e-01 -6.9843000000000002e-02 5.5319900000000000e-01
77 -3.8373000000000002e-01 -2.5106600000000001e-01 1.8956300000000001e-01
78 -3.9499800000000002e-01 -2.9613699999999998e-01 7.7450000000000001e-03
79 -5.6554800000000005e-01 -2.5106600000000001e-01 -1.7407300000000001e-01
80 -3.8373000000000002e-01 -2.5106600000000001e-01 -1.7407300000000001e-01
81 -3.7809599999999999e-01 -1.7782600000000001e-01 -3.5589100000000001e-01
82 -3.7809599999999999e-01 -6.9843000000000002e-02 -5.3771000000000002e-01
83 -3.7809599999999999e-01 -6.9843000000000002e-02 -7.1952799999999995e-01
84 -1.9627800000000001e-01 -6.9843000000000002e-02 9.1683599999999998e-01
85 -1.9627800000000001e-01 -6.9843000000000002e-02 5.5319900000000000e-01
86 -3.7809599999999999e-01 -1.7782600000000001e-01 3.7138100000000002e-01
87 -2.0191200000000001e-01 -2.5106600000000001e-01 1.8956300000000001e-01
88 -2.0191200000000001e-01 -2.5106600000000001e-01 7.7450000000000001e-03
89 -2.0191200000000001e-01 -2.5106600000000001e-01 -1.7407300000000001e-01
90 -1.9627800000000001e-01 -1.7782600000000001e-01 -3.5589100000000001e-01
91 -1.9627800000000001e-01 -6.9843000000000002e-02 -5.3771000000000002e-01
92 -1.9627800000000001e-01 -6.9843000000000002e-02 -7.1952799999999995e-01
93 -1.4460000000000001e-02 -6.9843000000000002e-02 7.3501799999999995e-01
94 -1.9627800000000001e-01 -6.9843000000000002e-02 7.3501799999999995e-01
95 -1.4460000000000001e-02 -6.9843000000000002e-02 5.5319900000000000e-01
96 -1.9627800000000001e-01 -1.7782600000000001e-01 3.7138100000000002e-01
97 -1.4460000000000001e-02 -1.7782600000000001e-01 1.8956300000000001e-01
98 -1.4460000000000001e-02 -1.7782600000000001e-01 -1.7407300000000001e-01
99 -1.4460000000000001e-02 -1.7782600000000001e-01 -3.5589100000000001e-01
100 -1.4460000000000001e-02 -6.9843000000000002e-02 -5.3771000000000002e-01
101 -1.4460000000000001e-02 -6.9843000000000002e-02 9.1683599999999998e-01
102 1.6735800000000001e-01 -6.9843000000000002e-02 7.3501799999999995e-01
103 1.6735800000000001e-01 -6.9843000000000002e-02 3.7138100000000002e-01
104 -1.4460000000000001e-02 -1.7782600000000001e-01 3.7138100000000002e-01
105 1.6735800000000001e-01 -6.9843000000000002e-02 1.8956300000000001e-01
106 -1.4460000000000001e-02 -1.7782600000000001e-01 7.7450000000000001e-03
107 1.6735800000000001e-01 -6.9843000000000002e-02 -1.7407300000000001e-01
108 1.6735800000000001e-01 -6.9843000000000002e-02 -3.5589100000000001e-01
109 1.6735800000000001e-01 -6.9843000000000002e-02 -7.1952799999999995e-01
110 -1.4460000000000001e-02 -6.9843000000000002e-02 -7.1952799999999995e-01
111 3.4917599999999999e-01 -6.9843000000000002e-02 9.1683599999999998e-01
112 1.6735800000000001e-01 -6.9843000000000002e-02 9.1683599999999998e-01
113 3.4917599999999999e-01 -6.9843000000000002e-02 7.3501799999999995e-01
114 1.6735800000000001e-01 -6.9843000000000002e-02 5.5319900000000000e-01
115 3.4917599999999999e-01 -6.9843000000000002e-02 5.5319900000000000e-01
116 3.4917599999999999e-01 -6.9843000000000002e-02 3.7138100000000002e-01
117 3.4917599999999999e-01 -6.9843000000000002e-02 1.8956300000000001e-01
118 1.6735800000000001e-01 -6.9843000000000002e-02 7.7450000000000001e-03
119 3.4354299999999999e-01 -1.9139000000000000e-02 7.7450000000000001e-03
120 3.4354299999999999e-01 -1.9139000000000000e-02 -1.7407300000000001e-01
121 3.4917599999999999e-01 -6.9843000000000002e-02 -5.3771000000000002e-01
122 1.6735800000000001e-01 -6.9843000000000002e-02 -5.3771000000000002e-01
123 5.3099499999999999e-01 -6.9843000000000002e-02 9.1683599999999998e-01
124 5.3099499999999999e-01 -6.9843000000000002e-02 7.3501799999999995e-01
125 5.3099499999999999e-01 -6.9843000000000002e-02 5.5319900000000000e-01
126 5.3099499999999999e-01 -6.9843000000000002e-02 3.7138100000000002e-01
127 5.2536099999999997e-01 -1.9139000000000000e-02 7.7450000000000001e-03
128 5.1409300000000002e-01 2.5932000000000000e-02 -1.7407300000000001e-01
129 3.4354299999999999e-01 -1.9139000000000000e-02 -3.5589100000000001e-01
130 5.2536099999999997e-01 -1.9139000000000000e-02 -3.5589100000000001e-01
131 5.3099499999999999e-01 -6.9843000000000002e-02 -5.3771000000000002e-01
132 3.4917599999999999e-01 -6.9843000000000002e-02 -7.1952799999999995e-01
133 5.3099499999999999e-01 -6.9843000000000002e-02 -7.1952799999999995e-01
134 7.1281300000000003e-01 -6.9843000000000002e-02 9.1683599999999998e-01
135 7.1281300000000003e-01 -6.9843000000000002e-02 7.3501799999999995e-01
136 7.1281300000000003e-01 -6.9843000000000002e-02 5.5319900000000000e-01
137 7.1281300000000003e-01 -6.9843000000000002e-02 3.7138100000000002e-01
138 5.3099499999999999e-01 -6.9843000000000002e-02 1.8956300000000001e-01
139 7.0717900000000000e-01 -1.9139000000000000e-02 7.7450000000000001e-03
140 7.0717900000000000e-01 -1.9139000000000000e-02 -1.7407300000000001e-01
141 7.0717900000000000e-01 -1.9139000000000000e-02 -3.5589100000000001e-01
142 7.1281300000000003e-01 -6.9843000000000002e-02 -5.3771000000000002e-01
143 7.1281300000000003e-01 -6.9843000000000002e-02 -7.1952799999999995e-01
144 8.9463099999999995e-01 -6.9843000000000002e-02 9.1683599999999998e-01
145 8.9463099999999995e-01 -6.9843000000000002e-02 7.3501799999999995e-01
146 8.9463099999999995e-01 -6.9843000000000002e-02 5.5319900000000000e-01
147 8.9463099999999995e-01 -6.9843000000000002e-02 3.7138100000000002e-01
148 7.1281300000000003e-01 -6.9843000000000002e-02 1.8956300000000001e-01
149 8.9463099999999995e-01 -6.9843000000000002e-02 7.7450000000000001e-03
150 8.9463099999999995e-01 -6.9843000000000002e-02 -1.7407300000000001e-01
151 8.9463099999999995e-01 -6.9843000000000002e-02 -3.5589100000000001e-01
152 8.9463099999999995e-01 -6.9843000000000002e-02 -5.3771000000000002e-01
153 8.9463099999999995e-01 -6.9843000000000002e-02 -7.1952799999999995e-01
154 -9.2355100000000001e-01 -5.6984299999999999e-01 -9.0134599999999998e-01
155 -1.1053690000000000e+00 -5.6984299999999999e-01 -1.0831640000000000e+00
156 -9.2355100000000001e-01 -5.6984299999999999e-01 -1.0831640000000000e+00
157 -9.2355100000000001e-01 -5.6984299999999999e-01 -7.1952799999999995e-01
158 -1.1053690000000000e+00 -5.6984299999999999e-01 -9.0134599999999998e-01
159 -9.2355100000000001e-01 -5.6984299999999999e-01 -5.3771000000000002e-01
160 -1.1053690000000000e+00 -5.6984299999999999e-01 -7.1952799999999995e-01
161 -9.2355100000000001e-01 -5.6984299999999999e-01 -3.5589100000000001e-01
162 -1.1053690000000000e+00 -5.6984299999999999e-01 -5.3771000000000002e-01
163 -9.2355100000000001e-01 -5.6984299999999999e-01 -1.7407300000000001e-01
164 -1.1053690000000000e+00 -5.6984299999999999e-01 -3.5589100000000001e-01
165 -9.2355100000000001e-01 -5.6984299999999999e-01 7.7450000000000001e-03
166 -1.1053690000000000e+00 -5.6984299999999999e-01 -1.7407300000000001e-01
167 -9.2355100000000001e-01 -5.6984299999999999e-01 1.8956300000000001e-01
168 -1.1053690000000000e+00 -5.6984299999999999e-01 7.7450000000000001e-03
169 -9.2355100000000001e-01 -5.6984299999999999e-01 3.7138100000000002e-01
170 -1.1053690000000000e+00 -5.6984299999999999e-01 1.8956300000000001e-01
171 -9.2355100000000001e-01 -5.6984299999999999e-01 5.5319900000000000e-01
172 -1.1053690000000000e+00 -5.6984299999999999e-01 3.7138100000000002e-01
173 -1.1053690000000000e+00 -5.6984299999999999e-01 5.5319900000000000e-01
174 8.9463099999999995e-01 -5.6984299999999999e-01 -9.0134599999999998e-01
175 7.1281300000000003e-01 -5.6984299999999999e-01 -1.0831640000000000e+00
176 8.9463099999999995e-01 -5.6984299999999999e-01 -1.0831640000000000e+00
177 7.1281300000000003e-01 -5.6984299999999999e-01 -9.0134599999999998e-01
178 5.3099499999999999e-01 -5.6984299999999999e-01 -1.0831640000000000e+00
179 5.3099499999999999e-01 -5.6984299999999999e-01 -9.0134599999999998e-01
180 3.4917599999999999e-01 -5.6984299999999999e-01 -1.0831640000000000e+00
181 3.4917599999999999e-01 -5.6984299999999999e-01 -9.0134599999999998e-01
182 1.6735800000000001e-01 -5.6984299999999999e-01 -1.0831640000000000e+00
183 1.6735800000000001e-01 -5.6984299999999999e-01 -9.0134599999999998e-01
184 -1.4460000000000001e-02 -5.6984299999999999e-01 -1.0831640000000000e+00
185 -1.4460000000000001e-02 -5.6984299999999999e-01 -9.0134599999999998e-01
186 -1.9627800000000001e-01 -5.6984299999999999e-01 -1.0831640000000000e+00
187 -1.9627800000000001e-01 -5.6984299999999999e-01 -9.0134599999999998e-01
188 -3.7809599999999999e-01 -5.6984299999999999e-01 -1.0831640000000000e+00
189 -3.7809599999999999e-01 -5.6984299999999999e-01 -9.0134599999999998e-01
190 -5.5991400000000002e-01 -5.6984299999999999e-01 -1.0831640000000000e+00
191 -5.5991400000000002e-01 -5.6984299999999999e-01 -9.0134599999999998e-01
192 -7.4173299999999998e-01 -5.6984299999999999e-01 -1.0831640000000000e+00
193 -7.4173299999999998e-01 -5.6984299999999999e-01 -9.0134599999999998e-01
194 8.9463099999999995e-01 -5.6984299999999999e-01 -7.1952799999999995e-01
195 7.1281300000000003e-01 -5.6984299999999999e-01 -7.1952799999999995e-01
196 5.3099499999999999e-01 -5.6984299999999999e-01 -7.1952799999999995e-01
197 3.4917599999999999e-01 -5.6984299999999999e-01 -7.1952799999999995e-01
198 1.6735800000000001e-01 -5.6984299999999999e-01 -7.1952799999999995e-01
199 -1.4460000000000001e-02 -5.6984299999999999e-01 -7.1952799999999995e-01
200 -1.9627800000000001e-01 -5.6984299999999999e-01 -7.1952799999999995e-01
201 -3.7809599999999999e-01 -5.6984299999999999e-01 -7.1952799999999995e-01
202 -5.5991400000000002e-01 -5.6984299999999999e-01 -7.1952799999999995e-01
203 -7.4173299999999998e-01 -5.6984299999999999e-01 -7.1952799999999995e-01
204 8.9463099999999995e-01 -5.6984299999999999e-01 -5.3771000000000002e-01
205 7.1281300000000003e-01 -5.6984299999999999e-01 -5.3771000000000002e-01
206 5.3099499999999999e-01 -5.6984299999999999e-01 -5.3771000000000002e-01
207 3.4917599999999999e-01 -5.6984299999999999e-01 -5.3771000000000002e-01
208 1.6735800000000001e-01 -5.6984299999999999e-01 -5.3771000000000002e-01
209 -1.4460000000000001e-02 -5.6984299999999999e-01 -5.3771000000000002e-01
210 -1.9627800000000001e-01 -5.6984299999999999e-01 -5.3771000000000002e-01
211 -3.7809599999999999e-01 -5.6984299999999999e-01 -5.3771000000000002e-01
212 -5.5991400000000002e-01 -5.6984299999999999e-01 -5.3771000000000002e-01
213 -7.4173299999999998e-01 -5.6984299999999999e-01 -5.3771000000000002e-01
214 8.9463099999999995e-01 -5.6984299999999999e-01 -3.5589100000000001e-01
215 7.1281300000000003e-01 -5.6984299999999999e-01 -3.5589100000000001e-01
216 5.3099499999999999e-01 -5.6984299999999999e-01 -3.5589100000000001e-01
217 3.4917599999999999e-01 -5.6984299999999999e-01 -3.5589100000000001e-01
218 1.6735800000000001e-01 -5.6984299999999999e-01 -3.5589100000000001e-01
219 -1.4460000000000001e-02 -5.6984299999999999e-01 -3.5589100000000001e-01
220 -1.9627800000000001e-01 -5.6984299999999999e-01 -3.5589100000000001e-01
221 -3.7809599999999999e-01 -5.6984299999999999e-01 -3.5589100000000001e-01
222 -5.5991400000000002e-01 -5.6984299999999999e-01 -3.5589100000000001e-01
223 -7.4173299999999998e-01 -5.6984299999999999e-01 -3.5589100000000001e-01
224 8.9463099999999995e-01 -5.6984299999999999e-01 -1.7407300000000001e-01
225 7.1281300000000003e-01 -5.6984299999999999e-01 -1.7407300000000001e-01
226 5.3099499999999999e-01 -5.6984299999999999e-01 -1.7407300000000001e-01
227 3.4917599999999999e-01 -5.6984299999999999e-01 -1.7407300000000001e-01
228 1.6735800000000001e-01 -5.6984299999999999e-01 -1.7407300000000001e-01
229 -1.4460000000000001e-02 -5.6984299999999999e-01 -1.7407300000000001e-01
230 -1.9627800000000001e-01 -5.6984299999999999e-01 -1.7407300000000001e-01
231 -3.7809599999999999e-01 -5.6984299999999999e-01 -1.7407300000000001e-01
232 -5.5991400000000002e-01 -5.6984299999999999e-01 -1.7407300000000001e-01
233 -7.4173299999999998e-01 -5.6984299999999999e-01 -1.7407300000000001e-01
234 8.9463099999999995e-01 -5.6984299999999999e-01 7.7450000000000001e-03
235 7.1281300000000003e-01 -5.6984299999999999e-01 7.7450000000000001e-03
236 5.3099499999999999e-01 -5.6984299999999999e-01 7.7450000000000001e-03
237 3.4917599999999999e-01 -5.6984299999999999e-01 7.7450000000000001e-03
238 1.6735800000000001e-01 -5.6984299999999999e-01 7.7450000000000001e-03
239 -1.4460000000000001e-02 -5.6984299999999999e-01 7.7450000000000001e-03
240 -1.9627800000000001e-01 -5.6984299999999999e-01 7.7450000000000001e-03
241 -3.7809599999999999e-01 -5.6984299999999999e-01 7.7450000000000001e-03
242 -5.5991400000000002e-01 -5.6984299999999999e-01 7.7450000000000001e-03
243 -7.4173299999999998e-01 -5.6984299999999999e-01 7.7450000000000001e-03
244 8.9463099999999995e-01 -5.6984299999999999e-01 1.8956300000000001e-01
245 7.1281300000000003e-01 -5.6984299999999999e-01 1.8956300000000001e-01
246 5.3099499999999999e-01 -5.6984299999999999e-01 1.8956300000000001e-01
247 3.4917599999999999e-01 -5.6984299999999999e-01 1.8956300000000001e-01
248 1.6735800000000001e-01 -5.6984299999999999e-01 1.8956300000000001e-01
249 -1.4460000000000001e-02 -5.6984299999999999e-01 1.8956300000000001e-01
250 -1.9627800000000001e-01 -5.6984299999999999e-01 1.8956300000000001e-01
251 -3.7809599999999999e-01 -5.6984299999999999e-01 1.8956300000000001e-01
252 -5.5991400000000002e-01 -5.6984299999999999e-01 1.8956300000000001e-01
253 -7.4173299999999998e-01 -5.6984299999999999e-01 1.8956300000000001e-01
254 8.9463099999999995e-01 -5.6984299999999999e-01 3.7138100000000002e-01
255 7.1281300000000003e-01 -5.6984299999999999e-01 3.7138100000000002e-01
256 5.3099499999999999e-01 -5.6984299999999999e-01 3.7138100000000002e-01
257 3.4917599999999999e-01 -5.6984299999999999e-01 3.7138100000000002e-01
258 1.6735800000000001e-01 -5.6984299999999999e-01 3.7138100000000002e-01
259 -1.4460000000000001e-02 -5.6984299999999999e-01 3.7138100000000002e-01
260 -1.9627800000000001e-01 -5.6984299999999999e-01 3.7138100000000002e-01
261 -3.7809599999999999e-01 -5.6984299999999999e-01 3.7138100000000002e-01
262 -5.5991400000000002e-01 -5.6984299999999999e-01 3.7138100000000002e-01
263 -7.4173299999999998e-01 -5.6984299999999999e-01 3.7138100000000002e-01
264 8.9463099999999995e-01 -5.6984299999999999e-01 5.5319900000000000e-01
265 7.1281300000000003e-01 -5.6984299999999999e-01 5.5319900000000000e-01
266 5.3099499999999999e-01 -5.6984299999999999e-01 5.5319900000000000e-01
267 3.4917599999999999e-01 -5.6984299999999999e-01 5.5319900000000000e-01
268 1.6735800000000001e-01 -5.6984299999999999e-01 5.5319900000000000e-01
269 -1.4460000000000001e-02 -5.6984299999999999e-01 5.5319900000000000e-01
270 -1.9627800000000001e-01 -5.6984299999999999e-01 5.5319900000000000e-01
271 -3.7809599999999999e-01 -5.6984299999999999e-01 5.5319900000000000e-01
272 -5.5991400000000002e-01 -5.6984299999999999e-01 5.5319900000000000e-01
273 -7.4173299999999998e-01 -5.6984299999999999e-01 5.5319900000000000e-01
274 7.1281300000000003e-01 -5.6984299999999999e-01 7.3501799999999995e-01
275 5.3099499999999999e-01 -5.6984299999999999e-01 7.3501799999999995e-01
276 3.4917599999999999e-01 -5.6984299999999999e-01 7.3501799999999995e-01
277 1.6735800000000001e-01 -5.6984299999999999e-01 7.3501799999999995e-01
278 -1.4460000000000001e-02 -5.6984299999999999e-01 7.3501799999999995e-01
279 -1.9627800000000001e-01 -5.6984299999999999e-01 7.3501799999999995e-01
280 -3.7809599999999999e-01 -5.6984299999999999e-01 7.3501799999999995e-01
281 -5.5991400000000002e-01 -5.6984299999999999e-01 7.3501799999999995e-01
282 -7.4173299999999998e-01 -5.6984299999999999e-01 7.3501799999999995e-01
283 8.9463099999999995e-01 -5.6984299999999999e-01 9.1683599999999998e-01
284 5.3099499999999999e-01 -5.6984299999999999e-01 9.1683599999999998e-01
285 3.4917599999999999e-01 -5.6984299999999999e-01 9.1683599999999998e-01
286 1.6735800000000001e-01 -5.6984299999999999e-01 9.1683599999999998e-01
287 -1.4460000000000001e-02 -5.6984299999999999e-01 9.1683599999999998e-01
288 -1.9627800000000001e-01 -5.6984299999999999e-01 9.1683599999999998e-01
289 -3.7809599999999999e-01 -5.6984299999999999e-01 9.1683599999999998e-01
290 -5.5991400000000002e-01 -5.6984299999999999e-01 9.1683599999999998e-01
291 -7.4173299999999998e-01 -5.6984299999999999e-01 9.1683599999999998e-01
292 7.1281300000000003e-01 -2.3651000000000000e-01 9.1683599999999998e-01
293 8.9463099999999995e-01 -2.3651000000000000e-01 9.1683599999999998e-01
294 8.9463099999999995e-01 -2.3651000000000000e-01 7.3501799999999995e-01
295 5.3099499999999999e-01 -2.3651000000000000e-01 -1.0831640000000000e+00
296 8.9463099999999995e-01 -4.0317700000000001e-01 -1.0831640000000000e+00
297 5.3099499999999999e-01 -4.0317700000000001e-01 -1.0831640000000000e+00
298 -1.1053690000000000e+00 -2.3651000000000000e-01 -9.0134599999999998e-01
299 -1.1053690000000000e+00 -4.0317700000000001e-01 -1.0831640000000000e+00
300 -1.1053690000000000e+00 -4.0317700000000001e-01 -9.0134599999999998e-01
301 3.4917599999999999e-01 -2.3651000000000000e-01 -1.0831640000000000e+00
302 3.4917599999999999e-01 -4.0317700000000001e-01 -1.0831640000000000e+00
303 1.6735800000000001e-01 -2.3651000000000000e-01 -1.0831640000000000e+00
304 1.6735800000000001e-01 -4.0317700000000001e-01 -1.0831640000000000e+00
305 -1.4460000000000001e-02 -4.0317700000000001e-01 -1.0831640000000000e+00
306 -1.9627800000000001e-01 -4.0317700000000001e-01 -1.0831640000000000e+00
307 -1.4460000000000001e-02 -2.3651000000000000e-01 -1.0831640000000000e+00
308 -3.7809599999999999e-01 -2.3651000000000000e-01 -1.0831640000000000e+00
309 -3.7809599999999999e-01 -4.0317700000000001e-01 -1.0831640000000000e+00
310 -5.5991500000000005e-01 -2.3651000000000000e-01 -1.0831640000000000e+00
311 -5.5991400000000002e-01 -4.0317700000000001e-01 -1.0831640000000000e+00
312 -1.9627800000000001e-01 -2.3651000000000000e-01 -1.0831640000000000e+00
313 -7.4173299999999998e-01 -2.3651000000000000e-01 -1.0831640000000000e+00
314 -7.4173299999999998e-01 -4.0317700000000001e-01 -1.0831640000000000e+00
315 -9.2355100000000001e-01 -4.0317700000000001e-01 -1.0831640000000000e+00
316 -1.1053690000000000e+00 -2.3651000000000000e-01 -7.1952799999999995e-01
317 -1.1053690000000000e+00 -4.0317700000000001e-01 -7.1952799999999995e-01
318 -1.1053690000000000e+00 -2.3651000000000000e-01 -5.3771000000000002e-01
319 -1.1053690000000000e+00 -4.0317700000000001e-01 -5.3771000000000002e-01
320 -1.1053690000000000e+00 -2.3651000000000000e-01 -3.5589100000000001e-01
321 -1.1053690000000000e+00 -4.0317700000000001e-01 -3.5589100000000001e-01
322 -1.1053690000000000e+00 -4.0317700000000001e-01 -1.7407300000000001e-01
323 -1.1053690000000000e+00 -4.0317700000000001e-01 7.7450000000000001e-03
324 -1.1053690000000000e+00 -2.3651000000000000e-01 -1.7407300000000001e-01
325 -1.1053690000000000e+00 -2.3651000000000000e-01 1.8956300000000001e-01
326 -1.1053690000000000e+00 -4.0317700000000001e-01 1.8956300000000001e-01
327 -1.1053690000000000e+00 -2.3651000000000000e-01 3.7138100000000002e-01
328 -1.1053690000000000e+00 -4.0317700000000001e-01 3.7138100000000002e-01
329 -1.1053690000000000e+00 -2.3651000000000000e-01 7.7450000000000001e-03
330 -1.1053690000000000e+00 -2.3651000000000000e-01 5.5319900000000000e-01
331 -1.1053690000000000e+00 -4.0317700000000001e-01 5.5319900000000000e-01
332 -1.1053690000000000e+00 -4.0317700000000001e-01 7.3501799999999995e-01
333 -1.1053690000000000e+00 -4.0317700000000001e-01 9.1683599999999998e-01
334 -1.1053690000000000e+00 -5.6984299999999999e-01 9.1683599999999998e-01
335 -9.2355100000000001e-01 -2.3651000000000000e-01 9.1683599999999998e-01
336 -9.2355100000000001e-01 -4.0317700000000001e-01 9.1683599999999998e-01
337 -7.4173299999999998e-01 -2.3651000000000000e-01 9.1683599999999998e-01
338 -7.4173299999999998e-01 -4.0317700000000001e-01 9.1683599999999998e-01
339 -5.5991400000000002e-01 -2.3651000000000000e-01 9.1683599999999998e-01
340 -5.5991400000000002e-01 -4.0317700000000001e-01 9.1683599999999998e-01
341 -3.7809599999999999e-01 -2.3651000000000000e-01 9.1683599999999998e-01
342 -3.7809599999999999e-01 -4.0317700000000001e-01 9.1683599999999998e-01
343 -1.9627800000000001e-01 -2.3651000000000000e-01 9.1683599999999998e-01
344 -1.9627800000000001e-01 -4.0317700000000001e-01 9.1683599999999998e-01
345 -1.4460000000000001e-02 -2.3651000000000000e-01 9.1683599999999998e-01
346 -1.4460000000000001e-02 -4.0317700000000001e-01 9.1683599999999998e-01
347 1.6735800000000001e-01 -2.3651000000000000e-01 9.1683599999999998e-01
348 1.6735800000000001e-01 -4.0317700000000001e-01 9.1683599999999998e-01
349 3.4917599999999999e-01 -2.3651000000000000e-01 9.1683599999999998e-01
350 3.4917599999999999e-01 -4.0317700000000001e-01 9.1683599999999998e-01
351 5.3099499999999999e-01 -2.3651000000000000e-01 9.1683599999999998e-01
352 5.3099499999999999e-01 -4.0317700000000001e-01 9.1683599999999998e-01
353 8.9463099999999995e-01 -4.0317700000000001e-01 5.5319900000000000e-01
354 8.9463099999999995e-01 -2.3651000000000000e-01 5.5319900000000000e-01
355 8.9463099999999995e-01 -4.0317700000000001e-01 3.7138100000000002e-01
356 8.9463099999999995e-01 -2.3651000000000000e-01 3.7138100000000002e-01
357 8.9463099999999995e-01 -4.0317700000000001e-01 1.8956300000000001e-01
358 8.9463099999999995e-01 -2.3651000000000000e-01 1.8956300000000001e-01
359 8.9463099999999995e-01 -6.9843000000000002e-02 1.8956300000000001e-01
360 8.9463099999999995e-01 -4.0317700000000001e-01 7.7450000000000001e-03
361 8.9463099999999995e-01 -2.3651000000000000e-01 7.7450000000000001e-03
362 8.9463099999999995e-01 -4.0317700000000001e-01 -1.7407300000000001e-01
363 8.9463099999999995e-01 -2.3651000000000000e-01 -1.7407300000000001e-01
364 8.9463099999999995e-01 -4.0317700000000001e-01 -3.5589100000000001e-01
365 8.9463099999999995e-01 -2.3651000000000000e-01 -3.5589100000000001e-01
366 8.9463099999999995e-01 -4.0317700000000001e-01 -5.3771000000000002e-01
367 8.9463099999999995e-01 -2.3651000000000000e-01 -5.3771000000000002e-01
368 8.9463099999999995e-01 -4.0317700000000001e-01 -7.1952799999999995e-01
369 8.9463099999999995e-01 -2.3651000000000000e-01 -7.1952799999999995e-01
370 8.9463099999999995e-01 -4.0317700000000001e-01 -9.0134599999999998e-01
371 8.9463099999999995e-01 -2.3651000000000000e-01 -9.0134599999999998e-01
372 8.9463099999999995e-01 -2.3651000000000000e-01 -1.0831640000000000e+00
373 8.9463099999999995e-01 -6.9843000000000002e-02 -1.0831640000000000e+00
374 -4.6976004356322137e-01 -3.1416700668317460e-01 6.4864802761265050e-01
375 -6.5139885148822907e-01 -3.1877308495085294e-01 -8.5275999170530037e-01
376 -1.1336000232277299e-01 -3.2262072370900269e-01 6.9183524943713937e-01
377 5.3667265259494945e-01 -3.2070935613492119e-01 7.0590363975157222e-01
378 6.7277687975577849e-01 -3.1355388761805608e-01 -2.0417637169445130e-02
379 7.0216445790929261e-01 -3.2113445931302392e-01 4.5952523697433345e-01
380 3.0490434225574559e-01 -3.0329371347119521e-01 -9.4598501606395019e-02
381 6.8931730996850527e-01 -3.2309779481440110e-01 -8.4466612190924484e-01
382 4.7985475553578610e-01 -3.2259469605431584e-01 -6.4376372448150843e-01
383 -2.8552999274521806e-01 -3.1622704472696045e-01 -6.0346752235410817e-01
384 -8.5864767583162405e-01 -3.1274100853381726e-01 -6.2010079760164660e-01
385 6.7699912827493613e-01 -3.0346680678992694e-01 -4.7934069767542675e-01
386 -8.8019985564749603e-01 -3.2254240045812743e-01 6.9459539653752678e-01
387 3.3654457244861458e-01 -3.1170332459958028e-01 -3.7878960325744726e-01
388 -8.6406539312802577e-01 -3.3857146279299261e-01 4.6682809989787566e-01
389 -1.1847003531189192e-01 -3.4969450606113928e-01 4.8304781978762285e-01
390 7.4094441425871382e-01 -1.9622532762951889e-01 -2.8192593560935864e-01
391 7.5346605334708855e-02 -3.2207785025903096e-01 -8.3198014762160177e-01
392 2.5166069509977784e-01 -2.1831256695479337e-01 -6.9134017638238299e-01
393 1.9742579739535504e-01 -3.1277923121004431e-01 3.1572969465793949e-01
394 -2.5709198100826721e-02 -4.1309301233269696e-01 3.1486258275388795e-01
395 -6.0963613831684949e-01 -2.8117569784561380e-01 -6.0191826977250529e-01
396 4.3512606771113732e-01 -3.2352872054726622e-01 -8.6295194892436511e-01
397 2.6569304318178155e-01 -3.6478241378250703e-01 -8.6462507802937694e-01
398 -8.7613741594049765e-01 -3.1141245558531694e-01 -8.5500377804827665e-01
399 -1.0172634853418357e-01 -2.2053064634088415e-01 -7.0924158749865207e-01
400 5.0694138654197407e-01 -3.1330778555059047e-01 2.0358119938620808e-01
401 -5.4938819083120338e-01 -3.6706383780935409e-01 -4.5044551401848476e-01
402 -1.1198551074292741e-01 -3.5372360564601618e-01 -8.7078617522338608e-01
403 -6.4435398280703482e-01 -3.8630751014562859e-01 -2.6204639089417436e-01
404 1.5287649014283025e-01 -3.1946598290503725e-01 6.6291537868786987e-01
405 -7.1360241094104171e-01 -4.0431035157122519e-01 -8.3877847054665666e-02
406 -6.3530870983025578e-01 -3.9661051947207421e-01 9.4066102894490550e-02
407 3.6892551914950605e-01 -3.2766771375934062e-01 4.8124307851226750e-01
408 -7.9338747413870439e-02 -3.4178328216732973e-01 -4.7729713235939031e-01
409 -8.7512865691924435e-01 -3.4617700090190079e-01 -2.5658671524975485e-01
410 6.4469030921679327e-02 -2.3992197609131405e-01 -5.9825008271985192e-01
411 -4.9517261610761681e-01 -4.1147359690282803e-01 -8.2006231604525179e-02
412 5.2445037176230058e-01 -1.3856122816405900e-01 -2.0524686081460883e-01
413 -4.7252854253620236e-01 -3.8843521355428678e-01 -7.1691720794593972e-01
414 -6.6918863324314548e-01 -3.7960512447415451e-01 2.8534801319050807e-01
415 -4.7344427447811332e-01 -3.8558880443285398e-01 3.8864121165279908e-01
416 -8.7362113192816038e-01 -3.5344294610690730e-01 -4.3857981231069415e-01
417 -9.2318785717333007e-01 -3.0784489552230793e-01 -8.3602991642729232e-02
418 -6.6305210158822137e-01 -3.3037312689364012e-01 6.8828491100573863e-01
419 -8.9638990860684553e-01 -3.4301368764197188e-01 2.7771494624166460e-01
420 1.8699197308465690e-01 -4.1698160494356307e-01 -6.2791804082653724e-01
421 -2.8313055917743457e-01 -4.0313390676101374e-01 -3.3269037868964446e-01
422 -4.2766451321049914e-01 -3.9979325173743269e-01 -2.4447143575637309e-01
423 -8.7157107711844239e-01 -3.4874142592403684e-01 9.5548894044586136e-02
424 -2.8754877145715829e-01 -3.1392322156485364e-01 -8.5839717890676726e-01
425 -2.9789146352952184e-01 -3.9147501916070609e-01 2.9125932936778054e-01
426 -4.8917552595276353e-01 -4.2973429673552693e-01 2.4022009914633341e-01
427 -6.3675786681515278e-01 -3.5230932582788688e-01 4.7375471165837152e-01
428 -3.1121063464829979e-01 -4.2084898284822914e-01 5.1898524980101002e-01
429 5.8245443266071573e-01 -4.1984517015466588e-01 -2.4436119898863892e-01
430 2.2391146437881965e-01 -2.9398802039152705e-01 1.0192521386332956e-01
431 1.1718680943545914e-01 -4.4699545834048937e-01 -4.7914017293381989e-01
432 1.3628116479161242e-01 -2.4547138623305106e-01 -4.1450419092067259e-01
433 -2.8026215217137707e-01 -2.7453901919103840e-01 6.7173915534818895e-01
434 -4.6924072415428875e-01 -2.9253870830369944e-01 -9.0853745899645710e-01
435 -4.6392088617761673e-01 -4.1493308538524393e-01 9.3930355644487346e-02
436 6.9952055309076069e-02 -3.9940504337844962e-01 3.2526080996400565e-02
437 -2.9474393903828382e-02 -4.2892622489232946e-01 -6.4499237464201220e-01
438 -9.5892107958098979e-02 -3.9428661293446593e-01 1.1795198036778552e-02
439 -3.0435609948145975e-01 -4.1058993487334133e-01 -1.5535098187635491e-02
440 8.8870209223188470e-03 -3.7362558990861827e-01 -2.6048480377005973e-01
441 7.6448999999999989e-02 -5.6984299999999999e-01 -6.2861899999999993e-01
