# This file was created by meshio v5.3.5
1412 4 0
0 105 117 393 430
1 97 105 393 430
2 235 224 360 234
3 218 387 432 440
4 251 262 261 426
5 349 113 377 404
6 25 27 399 402
7 27 109 110 391
8 90 383 408 421
9 107 120 380 387
10 6 8 17 298
11 290 280 340 289
12 157 319 317 160
13 243 232 233 405
14 253 167 419 423
15 77 86 415 425
16 339 342 340 374
17 15 331 332 16
18 358 355 356 379
19 236 429 226 380
20 173 169 331 171
21 8 300 298 6
22 322 163 409 417
23 391 110 399 410
24 321 159 161 164
25 139 363 149 361
26 75 64 341 74
27 407 103 114 115
28 110 27 391 399
29 231 232 411 422
30 124 111 351 123
31 27 391 399 402
32 155 315 154 156
33 206 195 196 382
34 58 388 414 427
35 117 103 105 393
36 385 143 382 142
37 408 399 410 437
38 48 45 324 46
39 333 15 14 334
40 1 371 2 381
41 307 305 391 402
42 323 163 322 417
43 223 159 161 416
44 143 133 381 382
45 8 17 298 398
46 321 318 320 416
47 150 365 363 390
48 217 216 387 429
49 322 164 321 161
50 209 210 408 437
51 328 327 388 419
52 60 405 406 423
53 195 174 368 194
54 323 165 417 423
55 255 353 355 379
56 44 41 43 325
57 69 59 60 406
58 379 126 400 407
59 235 357 234 360
60 131 121 382 387
61 250 87 394 438
62 151 140 141 390
63 331 327 330 388
64 212 223 222 401
65 380 107 432 440
66 383 82 395 401
67 261 260 425 428
68 286 346 277 287
69 350 347 349 404
70 405 61 409 417
71 65 55 56 339
72 280 289 342 340
73 51 316 52 318
74 340 337 339 418
75 388 58 414 419
76 391 198 397 420
77 401 70 403 422
78 217 431 207 218
79 351 349 113 377
80 92 25 399 424
81 21 26 308 24
82 96 86 428 433
83 338 16 336 386
84 118 106 380 430
85 268 389 269 404
86 139 140 363 378
87 110 91 92 399
88 126 115 116 407
89 233 223 161 409
90 202 213 212 395
91 29 132 109 392
92 7 19 6 17
93 137 148 358 379
94 83 92 383 424
95 124 135 292 377
96 53 17 316 19
97 154 317 300 158
98 80 81 89 421
99 288 278 279 344
100 360 363 362 378
101 165 405 417 423
102 208 209 431 441
103 225 235 360 378
104 253 252 406 414
105 371 368 369 381
106 110 100 399 410
107 65 55 339 64
108 314 310 313 375
109 133 121 132 382
110 70 61 71 79
111 344 343 376 433
112 294 5 377 379
113 343 94 376 433
114 115 126 125 407
115 210 221 220 421
116 79 80 411 422
117 385 364 390 429
118 250 260 394 425
119 20 313 375 398
120 397 29 31 301
121 361 357 358 378
122 346 343 345 376
123 70 62 72 395
124 346 348 277 404
125 279 269 270 376
126 238 227 228 380
127 140 150 363 390
128 206 205 382 385
129 50 47 49 320
130 93 114 102 404
131 61 48 409 417
132 136 356 146 354
133 270 259 260 389
134 285 275 350 284
135 13 274 275 377
136 313 7 20 22
137 155 154 300 158
138 201 211 383 413
139 301 29 31 34
140 388 57 418 427
141 260 249 250 394
142 195 385 381 382
143 189 186 188 309
144 311 189 188 309
145 142 141 131 385
146 259 270 269 389
147 212 202 395 413
148 189 186 309 187
149 122 100 410 432
150 314 154 192 193
151 197 179 181 396
152 79 60 61 405
153 66 374 418 427
154 300 299 315 154
155 44 41 325 42
156 191 203 202 375
157 85 75 76 433
158 133 33 381 396
159 160 154 317 157
160 42 39 41 327
161 248 249 394 436
162 62 52 71 50
163 338 335 337 386
164 266 377 379 407
165 285 276 348 350
166 199 183 185 391
167 168 326 170 165
168 8 313 20 398
169 174 370 177 368
170 159 321 161 416
171 67 414 415 427
172 120 380 387 412
173 281 338 290 340
174 161 322 163 409
175 378 380 412 429
176 89 422 439 80
177 156 314 315 154
178 393 389 104 394
179 232 403 405 411
180 69 406 411 435
181 242 241 411 435
182 416 403 409 223
183 393 257 400 407
184 253 263 414 419
185 218 431 207 208
186 70 71 401 403
187 163 405 409 417
188 13 351 292 377
189 200 199 402 437
190 198 183 391 397
191 48 324 409 417
192 390 378 412 429
193 320 50 48 409
194 330 10 11 40
195 85 104 95 389
196 321 322 161 409
197 437 198 391 420
198 399 391 410 437
199 100 99 408 410
200 405 403 61 79
201 251 252 426 435
202 385 130 387 412
203 153 369 142 143
204 196 197 382 396
205 48 71 61 409
206 222 233 232 403
207 56 66 65 418
208 214 225 362 215
209 180 304 181 302
210 54 51 53 316
211 131 143 142 382
212 85 93 94 376
213 248 393 430 436
214 21 26 23 308
215 308 23 21 310
216 276 266 267 377
217 338 282 386 418
218 268 278 277 404
219 233 232 403 405
220 237 247 400 430
221 200 211 210 383
222 59 406 414 423
223 308 25 24 26
224 269 279 278 376
225 14 282 338 291
226 276 407 404 377
227 147 136 137 356
228 46 329 417 423
229 67 57 58 427
230 242 253 252 406
231 54 51 316 52
232 186 309 187 306
233 299 154 300 155
234 342 339 341 374
235 156 314 154 192
236 295 302 297 396
237 7 8 17 6
238 308 309 424 434
239 311 310 375 434
240 238 237 380 430
241 343 346 344 376
242 380 228 436 440
243 308 23 310 434
244 282 16 338 386
245 62 416 52 384
246 109 391 392 410
247 8 300 6 315
248 191 190 314 311
249 399 100 408 410
250 385 390 412 429
251 93 85 95 376
252 270 376 389 428
253 141 412 130 390
254 316 54 52 384
255 125 126 379 407
256 6 300 299 315
257 261 250 251 425
258 70 79 403 422
259 20 8 17 7
260 163 165 243 405
261 317 316 384 398
262 66 86 76 374
263 151 367 142 152
264 93 343 94 376
265 83 26 424 434
266 243 242 405 406
267 213 157 159 384
268 22 310 20 313
269 157 319 159 384
270 257 256 400 407
271 24 312 28 25
272 202 375 395 413
273 139 363 361 378
274 127 117 119 400
275 382 207 387 420
276 191 311 375 434
277 67 58 414 427
278 402 383 437 399
279 1 372 371 381
280 229 239 436 438
281 57 56 386 418
282 392 122 410 432
283 368 371 370 381
284 185 182 184 305
285 374 280 428 433
286 106 380 430 436
287 73 23 83 434
288 98 90 99 89
289 380 227 387 429
290 7 19 18 6
291 5 274 13 377
292 276 407 377 267
293 256 379 400 407
294 21 310 20 22
295 21 23 20 310
296 76 65 66 374
297 106 98 380 436
298 19 298 17 316
299 311 188 191 190
300 309 189 187 424
301 309 189 424 434
302 139 412 378 127
303 257 268 267 407
304 405 243 406 423
305 304 303 391 397
306 118 98 107 380
307 260 389 394 425
308 119 120 128 127
309 223 233 403 409
310 169 331 171 388
311 365 362 363 390
312 357 358 378 400
313 81 401 421 422
314 343 74 75 341
315 413 83 424 434
316 122 109 392 410
317 317 154 300 398
318 137 358 356 379
319 50 47 320 48
320 214 225 224 362
321 114 104 103 393
322 26 23 308 434
323 17 54 316 398
324 425 439 77 87
325 143 0 153 369
326 250 261 260 425
327 62 70 71 395
328 272 271 415 428
329 31 397 301 396
330 235 246 245 378
331 269 270 376 389
332 99 98 89 440
333 98 118 106 380
334 52 49 51 318
335 425 435 439 251
336 232 243 242 405
337 278 344 346 376
338 345 93 347 404
339 337 338 386 418
340 40 57 386 388
341 58 67 68 59
342 96 87 394 425
343 327 325 42 419
344 141 412 390 140
345 85 96 389 433
346 324 322 409 417
347 268 258 393 407
348 302 295 301 396
349 420 431 437 441
350 414 68 415 426
351 203 157 213 384
352 205 216 215 385
353 320 47 324 48
354 236 429 378 226
355 231 242 241 411
356 96 86 425 428
357 31 295 33 396
358 369 385 366 367
359 232 403 411 422
360 218 228 387 440
361 193 203 375 398
362 268 257 258 407
363 84 93 343 94
364 129 130 120 412
365 46 43 45 329
366 133 381 382 396
367 431 218 432 440
368 163 323 322 166
369 403 79 411 422
370 263 262 414 427
371 382 392 396 397
372 139 412 140 378
373 220 209 210 408
374 367 364 365 385
375 162 157 319 159
376 109 110 391 410
377 119 127 380 412
378 364 367 366 385
379 205 215 364 385
380 366 205 364 385
381 279 376 428 433
382 327 42 40 388
383 228 229 436 440
384 393 389 404 104
385 256 266 379 407
386 104 97 393 394
387 313 7 8 20
388 263 169 388 419
389 273 263 169 388
390 239 249 436 438
391 272 281 374 418
392 77 67 68 415
393 345 343 93 376
394 5 354 353 379
395 107 98 432 440
396 314 154 193 398
397 435 425 439 77
398 228 238 380 436
399 261 415 425 426
400 184 306 185 305
401 296 174 175 176
402 168 326 165 323
403 141 412 140 130
404 416 213 395 401
405 62 416 384 71
406 92 91 383 399
407 128 130 140 412
408 305 312 306 402
409 193 191 314 375
410 258 268 393 394
411 67 86 374 415
412 117 380 119 400
413 140 363 378 390
414 86 374 428 433
415 114 95 104 404
416 319 316 318 384
417 90 99 89 440
418 262 252 414 426
419 120 128 127 412
420 364 362 390 429
421 183 304 391 397
422 415 374 272 428
423 221 211 401 421
424 319 157 317 384
425 295 297 381 396
426 314 191 311 375
427 75 94 343 433
428 142 141 385 390
429 281 271 272 374
430 139 148 361 149
431 383 201 413 424
432 42 58 57 40
433 362 225 378 429
434 236 429 380 378
435 382 392 397 420
436 162 321 159 319
437 98 436 438 440
438 325 41 327 42
439 129 107 108 387
440 127 378 380 412
441 42 39 327 40
442 325 44 42 419
443 247 248 393 430
444 316 52 318 384
445 107 108 387 432
446 65 76 75 374
447 335 338 336 386
448 245 357 378 400
449 246 257 256 400
450 272 261 262 415
451 281 282 338 418
452 324 329 46 45
453 48 45 47 324
454 57 66 418 427
455 331 11 332 386
456 86 66 67 374
457 275 350 352 377
458 231 421 221 422
459 348 345 347 404
460 387 385 412 429
461 56 36 38 337
462 342 344 279 433
463 136 356 354 379
464 96 104 389 394
465 342 279 280 433
466 271 281 280 374
467 208 197 198 420
468 362 214 215 364
469 203 191 193 375
470 75 64 65 341
471 233 163 405 409
472 329 323 417 423
473 222 221 401 422
474 65 66 374 418
475 388 263 414 427
476 298 317 300 398
477 172 167 170 328
478 94 74 343 84
479 167 326 419 423
480 52 63 62 384
481 198 437 441 420
482 77 86 67 415
483 311 310 314 375
484 81 82 383 401
485 253 242 243 406
486 337 36 38 335
487 198 181 183 397
488 226 237 236 380
489 383 210 408 421
490 57 38 40 386
491 305 183 304 391
492 137 400 379 126
493 162 157 160 319
494 200 185 187 402
495 227 217 387 429
496 196 195 381 382
497 276 407 267 404
498 14 336 16 332
499 306 185 305 402
500 118 117 105 430
501 329 46 44 423
502 8 20 17 398
503 382 387 392 420
504 94 74 75 343
505 251 241 435 439
506 231 421 230 220
507 36 10 9 37
508 227 228 380 387
509 387 420 431 432
510 431 209 437 441
511 40 327 330 39
512 73 62 63 395
513 11 10 9 38
514 170 167 326 328
515 272 273 418 427
516 11 336 9 332
517 36 38 9 10
518 86 76 374 433
519 11 38 9 335
520 335 38 9 36
521 119 118 380 430
522 171 15 331 173
523 9 336 333 332
524 14 282 16 338
525 98 107 380 440
526 87 250 394 425
527 230 438 89 439
528 15 14 16 332
529 11 336 335 9
530 242 232 405 411
531 27 307 391 402
532 60 61 405 417
533 1 33 295 2
534 132 382 392 396
535 380 237 400 430
536 281 340 374 418
537 229 230 438 440
538 306 187 185 402
539 155 315 299 154
540 141 130 131 385
541 15 333 14 332
542 420 208 431 441
543 332 333 14 336
544 98 380 436 440
545 385 143 381 382
546 130 128 120 412
547 14 338 16 336
548 282 273 386 418
549 209 220 219 408
550 362 378 390 429
551 12 4 3 283
552 26 308 424 434
553 437 198 441 199
554 305 185 183 391
555 121 129 108 387
556 290 280 281 340
557 291 281 282 338
558 349 347 102 404
559 206 216 385 387
560 376 85 389 433
561 228 217 218 387
562 73 83 395 413
563 217 206 207 387
564 130 131 385 387
565 382 206 385 387
566 226 227 380 429
567 114 115 404 407
568 90 89 421 440
569 212 395 401 413
570 175 177 370 381
571 250 87 438 439
572 414 262 415 427
573 260 389 425 428
574 25 312 402 424
575 291 281 338 290
576 169 331 328 172
577 211 383 401 421
578 386 273 388 418
579 286 346 348 277
580 271 261 415 428
581 59 69 68 406
582 20 23 73 375
583 262 414 415 426
584 346 278 376 404
585 85 95 376 389
586 57 386 388 418
587 311 309 308 434
588 331 330 386 388
589 326 165 167 170
590 95 389 404 376
591 87 88 78 77
592 99 90 408 440
593 369 385 143 381
594 78 69 411 435
595 89 422 421 439
596 415 77 425 426
597 247 393 400 430
598 372 295 296 381
599 68 77 426 435
600 80 78 411 439
601 166 161 322 163
602 339 65 374 418
603 359 137 358 147
604 181 178 180 302
605 358 357 379 400
606 393 248 394 436
607 222 401 403 422
608 385 369 143 142
609 403 405 61 409
610 24 312 25 308
611 241 231 411 439
612 23 20 310 375
613 266 267 377 407
614 411 231 422 439
615 117 380 430 119
616 403 61 79 71
617 134 294 292 135
618 124 111 113 351
619 160 154 158 317
620 235 224 225 360
621 391 392 410 420
622 56 339 337 418
623 330 40 386 388
624 278 344 287 346
625 226 215 216 429
626 71 70 79 403
627 331 332 16 386
628 233 222 223 403
629 86 374 415 428
630 223 222 401 403
631 300 8 298 398
632 165 243 405 423
633 315 300 154 398
634 206 217 216 387
635 121 133 131 382
636 190 193 191 314
637 117 380 400 430
638 406 68 414 426
639 150 139 363 149
640 352 12 275 13
641 35 31 34 295
642 288 342 344 279
643 289 342 279 280
644 195 385 368 381
645 288 278 344 287
646 296 297 175 381
647 13 274 3 12
648 305 185 391 402
649 137 358 147 356
650 70 401 82 81
651 4 274 5 265
652 175 297 177 381
653 353 356 355 379
654 29 397 391 303
655 135 123 292 134
656 393 97 430 436
657 81 90 89 421
658 297 179 381 396
659 385 195 368 366
660 171 331 386 388
661 286 276 277 348
662 104 97 103 393
663 265 254 255 353
664 383 399 402 424
665 346 277 287 278
666 297 179 177 381
667 187 184 186 306
668 120 119 380 412
669 215 362 364 429
670 232 222 403 422
671 368 385 366 369
672 389 96 425 428
673 394 97 436 438
674 0 373 372 1
675 202 191 375 413
676 27 303 29 391
677 78 79 80 411
678 259 248 249 394
679 312 306 402 424
680 93 112 101 347
681 125 113 115 377
682 415 261 425 428
683 87 104 96 394
684 252 406 426 435
685 98 99 432 440
686 8 314 313 398
687 179 175 297 177
688 181 178 302 179
689 3 292 5 13
690 0 1 372 371
691 132 29 31 392
692 38 337 335 386
693 73 83 413 434
694 245 234 235 357
695 71 48 50 409
696 166 161 164 322
697 303 305 304 391
698 30 25 307 27
699 259 260 389 394
700 1 295 372 381
701 265 377 274 379
702 92 82 83 383
703 169 328 388 419
704 242 231 232 411
705 269 258 259 394
706 68 59 406 414
707 371 372 296 381
708 106 98 436 438
709 100 99 410 432
710 319 159 384 416
711 138 116 117 400
712 295 1 2 381
713 132 133 382 396
714 25 307 27 402
715 318 319 384 416
716 383 92 399 424
717 56 65 339 418
718 11 40 38 386
719 267 268 404 407
720 5 274 377 379
721 198 208 420 441
722 145 134 294 144
723 421 231 221 220
724 109 121 122 392
725 326 165 323 423
726 245 355 244 357
727 141 130 385 390
728 136 377 125 379
729 147 136 356 146
730 255 244 245 355
731 280 279 428 433
732 151 367 365 142
733 115 125 377 407
734 189 191 413 434
735 89 230 421 440
736 109 100 110 410
737 38 57 56 386
738 235 357 360 378
739 353 4 5 265
740 285 275 276 350
741 284 275 350 352
742 359 149 358 148
743 211 222 221 401
744 163 165 405 417
745 251 261 425 426
746 265 254 353 264
747 183 180 182 304
748 5 4 3 274
749 135 354 145 294
750 111 349 102 113
751 53 17 54 316
752 354 5 294 379
753 107 119 118 380
754 303 27 307 391
755 254 255 353 355
756 107 129 120 387
757 308 25 26 424
758 196 207 206 382
759 274 12 13 275
760 64 341 339 65
761 63 384 375 395
762 5 274 3 13
763 237 226 227 380
764 202 189 191 413
765 349 352 350 377
766 352 12 284 275
767 236 225 226 378
768 211 212 401 413
769 312 307 25 402
770 389 95 404 104
771 81 70 401 422
772 72 401 82 70
773 408 440 432 99
774 133 2 143 381
775 167 326 328 419
776 301 302 396 397
777 210 383 408 437
778 201 212 211 413
779 294 3 293 292
780 383 402 437 200
781 363 360 361 378
782 294 3 292 5
783 115 102 114 404
784 81 80 70 422
785 343 84 345 93
786 347 111 349 102
787 383 399 408 437
788 129 130 128 120
789 61 46 48 417
790 73 63 375 395
791 405 60 417 423
792 331 169 328 388
793 139 412 127 140
794 296 295 297 381
795 258 257 393 407
796 83 383 395 413
797 138 139 148 378
798 97 393 394 436
799 1 33 35 295
800 111 351 349 113
801 177 196 195 381
802 82 92 91 383
803 420 410 431 432
804 345 84 101 93
805 345 93 101 347
806 199 391 402 437
807 393 389 394 404
808 228 380 387 440
809 408 432 431 410
810 130 121 131 387
811 56 337 386 418
812 292 351 124 377
813 329 43 325 44
814 225 236 235 378
815 75 343 341 433
816 350 349 377 404
817 246 235 236 378
818 91 81 82 383
819 438 230 89 440
820 126 116 400 407
821 120 119 107 380
822 391 399 402 437
823 403 233 405 409
824 221 232 231 422
825 370 177 368 381
826 83 72 73 395
827 60 46 417 423
828 138 127 139 378
829 109 27 29 391
830 341 339 65 374
831 403 61 71 409
832 171 15 16 331
833 237 236 380 400
834 33 133 31 396
835 114 104 393 404
836 355 358 357 379
837 38 56 337 386
838 223 213 159 416
839 294 134 293 144
840 42 59 58 419
841 320 50 409 416
842 148 358 379 400
843 58 57 388 427
844 371 296 370 381
845 358 149 361 148
846 216 205 206 385
847 88 87 78 439
848 131 382 385 387
849 72 401 70 395
850 135 123 124 292
851 301 304 302 397
852 167 328 169 419
853 377 136 125 124
854 154 157 203 398
855 54 63 384 398
856 362 365 364 390
857 329 322 324 417
858 161 321 409 416
859 210 199 200 437
860 58 59 414 419
861 403 79 405 411
862 79 69 405 411
863 414 253 419 423
864 346 277 278 404
865 362 360 225 224
866 108 432 100 122
867 248 258 393 394
868 189 202 201 413
869 314 8 315 398
870 320 322 321 409
871 97 106 436 438
872 248 259 258 394
873 223 212 213 401
874 321 159 319 416
875 314 193 375 398
876 113 407 404 115
877 325 329 44 423
878 185 199 391 402
879 95 114 104 103
880 31 132 392 396
881 72 83 82 395
882 246 245 378 400
883 273 171 386 388
884 436 229 438 440
885 140 151 150 390
886 255 265 353 379
887 223 161 409 416
888 337 340 338 418
889 269 259 389 394
890 179 197 196 396
891 97 87 104 96
892 410 420 431 437
893 42 58 40 388
894 197 207 382 420
895 46 43 329 44
896 209 408 431 437
897 195 366 385 205
898 142 131 382 385
899 255 244 355 254
900 42 58 388 419
901 127 138 117 400
902 143 0 369 2
903 83 383 413 424
904 213 202 203 395
905 268 389 394 269
906 177 195 368 381
907 274 5 265 379
908 360 362 225 378
909 87 97 104 394
910 387 380 432 440
911 221 210 211 421
912 405 69 406 411
913 148 400 126 138
914 225 226 378 429
915 384 63 375 398
916 298 17 316 398
917 151 390 142 365
918 369 143 2 381
919 278 269 376 404
920 273 388 418 427
921 236 247 246 400
922 381 196 382 396
923 347 350 348 404
924 302 179 297 396
925 8 300 315 398
926 216 215 385 429
927 128 140 127 412
928 113 407 115 377
929 305 183 182 304
930 219 209 408 431
931 28 312 307 25
932 87 86 77 425
933 193 154 203 398
934 89 98 438 440
935 52 318 384 416
936 195 174 177 368
937 365 142 385 390
938 2 133 33 381
939 33 295 2 381
940 369 385 367 142
941 187 200 402 424
942 195 366 194 368
943 152 369 367 142
944 392 391 397 420
945 359 137 148 358
946 58 57 40 388
947 82 83 383 395
948 236 378 380 400
949 361 358 148 378
950 32 27 303 29
951 318 321 319 416
952 262 272 415 427
953 30 25 28 307
954 268 393 404 407
955 44 59 419 423
956 27 303 307 30
957 378 127 380 400
958 267 277 276 404
959 397 29 301 303
960 127 119 380 400
961 374 415 272 427
962 232 221 222 422
963 183 180 304 181
964 110 25 27 399
965 249 260 259 394
966 0 1 371 2
967 276 277 348 404
968 406 242 411 435
969 304 301 303 397
970 327 331 328 388
971 345 348 346 404
972 265 377 275 274
973 370 296 175 381
974 109 132 121 392
975 63 52 54 384
976 365 150 151 390
977 94 75 85 433
978 197 382 396 397
979 281 338 340 418
980 31 295 301 34
981 203 202 375 395
982 252 242 406 435
983 358 148 378 400
984 279 344 376 433
985 62 73 72 395
986 207 206 382 387
987 65 75 341 374
988 90 81 383 421
989 258 247 248 393
990 327 40 330 388
991 121 130 129 387
992 66 56 57 418
993 212 201 202 413
994 50 71 409 416
995 329 324 46 417
996 121 122 392 432
997 119 120 127 412
998 272 282 281 418
999 322 320 324 409
1000 17 20 63 398
1001 375 73 395 413
1002 275 352 13 377
1003 215 364 385 429
1004 235 245 357 378
1005 322 329 323 417
1006 100 90 91 408
1007 89 422 80 421
1008 276 350 377 404
1009 91 110 100 399
1010 113 125 124 377
1011 52 49 318 50
1012 66 67 374 427
1013 278 268 269 404
1014 378 140 390 412
1015 292 5 13 377
1016 263 167 169 419
1017 277 267 268 404
1018 342 280 340 374
1019 213 223 401 416
1020 114 93 95 404
1021 387 121 392 432
1022 52 71 50 416
1023 46 61 60 417
1024 403 71 416 409
1025 258 269 268 394
1026 71 403 416 401
1027 345 346 376 404
1028 207 387 420 431
1029 330 11 331 386
1030 159 213 384 416
1031 294 292 135 377
1032 90 100 99 408
1033 261 272 271 415
1034 406 253 414 423
1035 227 238 237 380
1036 197 208 207 420
1037 59 60 406 423
1038 29 397 392 391
1039 25 110 92 399
1040 60 79 69 405
1041 252 263 262 414
1042 163 233 161 409
1043 268 393 394 404
1044 324 48 46 417
1045 102 115 113 404
1046 326 325 419 423
1047 241 411 435 439
1048 108 121 387 432
1049 230 422 439 421
1050 86 415 425 428
1051 183 199 198 391
1052 29 109 391 392
1053 303 307 305 391
1054 219 218 431 440
1055 280 281 340 374
1056 242 405 406 411
1057 395 416 71 384
1058 383 81 401 421
1059 87 97 394 438
1060 347 93 102 404
1061 116 138 126 400
1062 341 342 374 433
1063 318 52 50 416
1064 80 81 421 422
1065 273 263 388 427
1066 130 385 390 412
1067 318 50 320 416
1068 401 221 421 422
1069 103 407 114 393
1070 317 298 316 398
1071 12 4 274 3
1072 216 227 226 429
1073 31 397 396 392
1074 113 124 351 377
1075 96 86 87 425
1076 263 252 253 414
1077 243 253 406 423
1078 213 416 395 384
1079 213 203 384 395
1080 266 276 275 377
1081 389 96 394 425
1082 165 326 167 423
1083 67 58 68 414
1084 203 375 384 395
1085 247 236 237 400
1086 225 362 215 429
1087 54 17 63 398
1088 314 315 154 398
1089 199 210 209 437
1090 31 133 132 396
1091 72 401 395 82
1092 185 200 199 402
1093 130 129 387 412
1094 292 294 5 377
1095 103 407 393 116
1096 312 305 307 402
1097 56 36 337 55
1098 393 114 404 407
1099 256 267 266 407
1100 357 245 379 400
1101 91 90 383 408
1102 172 167 328 169
1103 20 73 63 375
1104 295 31 301 396
1105 105 103 97 393
1106 179 175 178 297
1107 245 355 357 379
1108 80 79 70 422
1109 324 320 48 409
1110 117 116 393 400
1111 136 377 135 124
1112 163 323 165 417
1113 204 366 205 364
1114 383 211 401 413
1115 280 271 374 428
1116 257 247 393 400
1117 210 220 408 421
1118 5 353 265 379
1119 100 91 399 408
1120 282 272 273 418
1121 59 414 419 423
1122 245 234 357 244
1123 408 432 410 99
1124 369 2 371 381
1125 62 416 71 52
1126 103 407 116 115
1127 181 198 197 397
1128 408 410 431 437
1129 263 388 414 419
1130 187 184 306 185
1131 377 125 379 407
1132 400 245 256 246
1133 211 210 383 421
1134 91 383 399 408
1135 116 393 400 407
1136 241 252 251 435
1137 316 54 384 398
1138 364 365 385 390
1139 440 408 432 431
1140 236 246 378 400
1141 121 382 387 392
1142 247 258 257 393
1143 375 203 384 398
1144 376 389 428 433
1145 215 226 225 429
1146 63 62 384 395
1147 123 292 351 124
1148 203 157 384 398
1149 325 328 326 419
1150 93 345 376 404
1151 97 106 430 436
1152 11 336 332 386
1153 62 71 384 395
1154 32 301 34 29
1155 154 317 157 398
1156 267 256 257 407
1157 32 301 29 303
1158 313 314 375 398
1159 211 200 201 383
1160 268 389 404 394
1161 162 321 164 159
1162 103 117 116 393
1163 416 403 223 401
1164 340 339 374 418
1165 174 175 177 370
1166 35 31 295 33
1167 136 137 356 379
1168 304 183 181 397
1169 215 204 205 364
1170 218 387 431 432
1171 168 163 323 165
1172 137 400 148 379
1173 78 69 79 411
1174 181 197 396 397
1175 196 177 179 381
1176 255 400 379 245
1177 129 120 387 412
1178 325 44 419 423
1179 288 342 279 289
1180 374 67 415 427
1181 368 385 369 381
1182 437 198 199 391
1183 137 125 126 379
1184 327 42 388 419
1185 69 60 405 406
1186 40 10 11 38
1187 395 416 401 71
1188 135 354 294 379
1189 376 269 389 404
1190 135 136 354 379
1191 266 255 256 379
1192 380 387 412 429
1193 198 197 397 420
1194 389 96 428 433
1195 304 181 302 397
1196 125 137 136 379
1197 138 127 378 400
1198 29 397 31 392
1199 148 138 378 400
1200 336 11 335 386
1201 255 400 245 256
1202 33 295 381 396
1203 255 400 256 379
1204 245 255 355 379
1205 68 58 59 414
1206 255 266 265 379
1207 200 383 402 424
1208 216 385 387 429
1209 11 38 335 386
1210 179 196 381 396
1211 273 16 282 386
1212 252 406 414 426
1213 136 377 379 135
1214 210 200 383 437
1215 205 194 195 366
1216 209 199 437 441
1217 143 131 133 382
1218 296 174 370 175
1219 197 382 397 420
1220 265 377 266 275
1221 121 132 382 392
1222 146 135 136 354
1223 157 317 384 398
1224 342 280 374 433
1225 11 330 40 386
1226 377 265 266 379
1227 276 348 350 404
1228 145 134 135 294
1229 302 181 396 397
1230 238 248 430 436
1231 336 16 332 386
1232 222 211 212 401
1233 213 212 395 401
1234 349 102 113 404
1235 173 169 172 331
1236 435 425 426 251
1237 195 385 382 205
1238 312 25 308 424
1239 207 196 197 382
1240 68 67 414 415
1241 262 251 252 426
1242 271 272 374 428
1243 16 273 171 386
1244 217 228 227 387
1245 135 294 377 379
1246 63 20 375 398
1247 233 163 243 405
1248 330 10 40 39
1249 215 204 364 214
1250 310 20 313 375
1251 395 383 401 413
1252 353 4 265 264
1253 70 71 395 401
1254 275 276 350 377
1255 390 151 142 141
1256 185 182 305 183
1257 363 362 378 390
1258 278 279 344 376
1259 81 91 90 383
1260 68 77 415 426
1261 49 318 50 320
1262 294 134 292 293
1263 286 276 348 285
1264 356 353 354 379
1265 261 262 415 426
1266 321 320 409 416
1267 257 246 247 400
1268 357 361 360 378
1269 32 27 30 303
1270 195 206 205 382
1271 146 135 354 145
1272 95 93 376 404
1273 168 163 166 323
1274 171 273 169 388
1275 122 100 109 410
1276 190 193 314 192
1277 380 238 430 436
1278 93 112 347 102
1279 374 272 418 427
1280 152 369 142 153
1281 16 171 331 386
1282 150 139 140 363
1283 302 181 179 396
1284 410 391 420 437
1285 367 365 142 385
1286 339 55 56 337
1287 113 407 377 404
1288 137 400 126 148
1289 316 319 317 384
1290 19 6 17 298
1291 178 302 179 297
1292 148 139 361 378
1293 205 194 366 204
1294 351 13 352 377
1295 0 369 2 371
1296 347 111 102 112
1297 104 85 96 389
1298 393 117 400 430
1299 352 349 351 377
1300 432 108 100 99
1301 328 325 327 419
1302 252 241 242 435
1303 59 42 44 419
1304 263 253 167 419
1305 78 68 69 435
1306 406 68 426 435
1307 201 189 413 424
1308 435 425 77 426
1309 399 25 402 424
1310 165 253 243 423
1311 167 253 165 423
1312 44 60 59 423
1313 60 44 46 423
1314 329 325 323 423
1315 323 325 326 423
1316 309 187 306 424
1317 306 187 402 424
1318 200 201 383 424
1319 69 68 406 435
1320 26 25 83 424
1321 309 306 308 424
1322 201 187 189 424
1323 230 220 421 440
1324 83 25 92 424
1325 306 312 308 424
1326 187 201 200 424
1327 57 67 66 427
1328 262 273 272 427
1329 273 262 263 427
1330 375 73 413 434
1331 260 270 389 428
1332 23 73 375 434
1333 270 279 376 428
1334 189 413 424 434
1335 271 260 261 428
1336 280 270 271 428
1337 260 271 270 428
1338 310 23 375 434
1339 270 280 279 428
1340 191 375 413 434
1341 227 216 217 429
1342 97 118 105 430
1343 118 119 117 430
1344 118 97 106 430
1345 237 248 247 430
1346 248 237 238 430
1347 208 207 420 431
1348 249 250 394 438
1349 249 394 436 438
1350 408 90 421 440
1351 94 85 376 433
1352 208 219 218 431
1353 217 431 387 207
1354 219 208 209 431
1355 76 75 374 433
1356 217 431 218 387
1357 75 341 374 433
1358 380 107 387 432
1359 392 410 420 432
1360 387 392 420 432
1361 108 98 99 432
1362 108 122 121 432
1363 98 108 107 432
1364 344 341 343 433
1365 341 344 342 433
1366 76 96 85 433
1367 96 76 86 433
1368 310 311 308 434
1369 26 83 23 434
1370 189 311 434 309
1371 311 189 191 188
1372 311 189 434 191
1373 77 68 78 435
1374 408 219 431 440
1375 230 422 421 231
1376 80 411 422 439
1377 230 240 438 439
1378 87 88 438 439
1379 230 422 231 439
1380 249 238 239 436
1381 439 425 250 87
1382 240 250 438 439
1383 238 249 248 436
1384 411 78 435 439
1385 228 239 238 436
1386 230 89 421 439
1387 239 228 229 436
1388 88 89 438 439
1389 106 87 88 438
1390 250 239 240 438
1391 229 240 239 438
1392 88 98 106 438
1393 87 106 97 438
1394 239 250 249 438
1395 240 229 230 438
1396 88 89 98 438
1397 425 439 250 251
1398 78 87 77 439
1399 78 77 435 439
1400 230 241 240 439
1401 241 230 231 439
1402 78 80 88 439
1403 80 89 88 439
1404 251 240 241 439
1405 240 251 250 439
1406 220 408 421 440
1407 220 219 408 440
1408 229 218 219 440
1409 218 229 228 440
1410 219 230 229 440
1411 230 219 220 440
