# Generated by Visualization Toolkit
v 0.894631 -0.069843 -0.901346
v 0.712813 -0.069843 -0.719528
v 0.894631 -0.069843 -0.719528
v 0.894631 -0.23651 -0.719528
v 0.894631 -0.069843 -1.083164
v 0.712813 -0.069843 -1.083164
v 0.894631 -0.23651 -1.083164
v 0.894631 -0.23651 -0.901346
v 0.712813 -0.069843 -0.901346
v 0.530995 -0.069843 -0.901346
v 0.530995 -0.23651 -1.083164
v 0.530995 -0.069843 -1.083164
v 0.530995 -0.069843 -0.719528
v 0.894631 -0.403177 0.916836
v 0.712813 -0.569843 0.916836
v 0.894631 -0.569843 0.916836
v 0.894631 -0.569843 0.735018
v 0.712813 -0.403177 0.916836
v 0.712813 -0.23651 0.916836
v 0.894631 -0.403177 0.735018
v 0.894631 -0.23651 0.735018
v 0.894631 -0.23651 0.916836
v 0.712813 -0.569843 0.735018
v 0.712813 -0.569843 0.553199
v 0.894631 -0.403177 0.553199
v 0.894631 -0.569843 0.553199
v 0.894631 -0.23651 0.553199
v -1.105369 -0.23651 -1.083164
v -1.105369 -0.403177 -0.901346
v -1.105369 -0.23651 -0.901346
v -0.923551 -0.069843 -1.083164
v -0.923551 -0.23651 -1.083164
v -0.923551 -0.403177 -1.083164
v -1.105369 -0.403177 -1.083164
v -1.105369 -0.069843 -1.083164
v -1.105369 -0.069843 -0.901346
v -0.923551 -0.069843 -0.901346
v -0.741733 -0.069843 -1.083164
v -0.741733 -0.23651 -1.083164
v -0.741733 -0.069843 -0.901346
v -0.741733 -0.403177 -1.083164
v -1.105369 -0.23651 0.916836
v -0.923551 -0.069843 0.916836
v -1.105369 -0.069843 0.916836
v -1.105369 -0.069843 0.735018
v -1.105369 -0.23651 0.735018
v -1.105369 -0.403177 0.735018
v -0.923551 -0.23651 0.916836
v -1.105369 -0.403177 0.916836
v -0.923551 -0.403177 0.916836
v -1.105369 -0.23651 0.553199
v -0.923551 -0.069843 0.735018
v -0.923551 -0.069843 0.553199
v -1.105369 -0.069843 0.553199
v -1.105369 -0.403177 0.553199
v 0.530995 -0.403177 0.916836
v 0.530995 -0.569843 0.735018
v 0.530995 -0.569843 0.916836
v 0.530995 -0.23651 0.916836
v -0.923551 -0.569843 0.916836
v -1.105369 -0.569843 0.916836
v -1.105369 -0.569843 0.735018
v -0.741733 -0.569843 0.735018
v -0.741733 -0.569843 0.916836
v -0.741733 -0.403177 0.916836
v -0.923551 -0.569843 0.735018
v -1.105369 -0.569843 0.553199
v -0.923551 -0.569843 0.553199
v -0.741733 -0.569843 0.553199
v -1.105369 -0.069843 -0.719528
v -0.923551 -0.069843 -0.719528
v -0.741733 -0.069843 -0.719528
v -1.105369 -0.23651 -0.719528
v -0.559914 -0.069843 -1.083164
v -0.559914 -0.069843 -0.901346
v -0.559914 -0.069843 -0.719528
v -0.378096 -0.069843 -0.901346
v -0.378096 -0.069843 -1.083164
v -0.378096 -0.23651 -1.083164
v -0.559915 -0.23651 -1.083164
v -0.378096 -0.069843 -0.719528
v -0.196278 -0.069843 -0.901346
v -0.196278 -0.069843 -1.083164
v -0.196278 -0.23651 -1.083164
v -0.01446 -0.069843 -0.901346
v -0.01446 -0.069843 -1.083164
v -0.01446 -0.069843 -0.719528
v -0.196278 -0.069843 -0.719528
v 0.167358 -0.069843 -0.719528
v 0.167358 -0.069843 -0.901346
v 0.167358 -0.069843 -1.083164
v -0.01446 -0.23651 -1.083164
v 0.349176 -0.069843 -0.719528
v 0.349176 -0.069843 -0.901346
v 0.349176 -0.069843 -1.083164
v 0.167358 -0.23651 -1.083164
v 0.349176 -0.23651 -1.083164
v -0.741733 -0.069843 0.735018
v -0.741733 -0.23651 0.916836
v -0.741733 -0.069843 0.916836
v -0.741733 -0.069843 0.553199
v -0.923551 -0.069843 0.371381
v -1.105369 -0.069843 0.371381
v -1.105369 -0.23651 0.371381
v -0.923551 -0.069843 0.189563
v -1.105369 -0.069843 0.189563
v -1.105369 -0.23651 0.189563
v -0.741733 -0.177826 0.371381
v -0.741733 -0.177826 0.189563
v -0.923551 -0.069843 0.007745
v -1.105369 -0.069843 0.007745
v -1.105369 -0.23651 0.007745
v -0.741733 -0.177826 0.007745
v -0.923551 -0.069843 -0.174073
v -1.105369 -0.23651 -0.174073
v -1.105369 -0.069843 -0.174073
v -0.741733 -0.177826 -0.174073
v -0.923551 -0.069843 -0.355891
v -1.105369 -0.069843 -0.355891
v -1.105369 -0.23651 -0.355891
v -0.741733 -0.177826 -0.355891
v -0.923551 -0.069843 -0.53771
v -1.105369 -0.069843 -0.53771
v -1.105369 -0.23651 -0.53771
v -0.741733 -0.069843 -0.53771
v -0.559914 -0.069843 0.735018
v -0.559914 -0.069843 0.916836
v -0.559914 -0.23651 0.916836
v -0.559914 -0.069843 0.553199
v -0.559914 -0.177826 0.371381
v -0.565548 -0.251066 0.007745
v -0.565548 -0.251066 0.189563
v -0.565548 -0.251066 -0.174073
v -0.559914 -0.177826 -0.355891
v -0.559914 -0.069843 -0.53771
v -0.378096 -0.069843 0.916836
v -0.378096 -0.069843 0.735018
v -0.378096 -0.23651 0.916836
v -0.378096 -0.069843 0.553199
v -0.378096 -0.177826 0.371381
v -0.38373 -0.251066 0.189563
v -0.394998 -0.296137 0.007745
v -0.378096 -0.177826 -0.355891
v -0.378096 -0.069843 -0.53771
v -0.38373 -0.251066 -0.174073
v -0.196278 -0.23651 0.916836
v -0.196278 -0.069843 0.916836
v -0.196278 -0.069843 0.735018
v -0.196278 -0.069843 0.553199
v -0.196278 -0.177826 0.371381
v -0.201912 -0.251066 0.189563
v -0.201912 -0.251066 0.007745
v -0.201912 -0.251066 -0.174073
v -0.196278 -0.177826 -0.355891
v -0.196278 -0.069843 -0.53771
v -0.01446 -0.069843 0.735018
v -0.01446 -0.23651 0.916836
v -0.01446 -0.069843 0.916836
v -0.01446 -0.069843 0.553199
v -0.01446 -0.177826 0.371381
v -0.01446 -0.177826 0.189563
v -0.01446 -0.177826 0.007745
v -0.01446 -0.177826 -0.174073
v -0.01446 -0.177826 -0.355891
v -0.01446 -0.069843 -0.53771
v 0.167358 -0.069843 0.735018
v 0.167358 -0.069843 0.553199
v 0.167358 -0.069843 0.916836
v 0.167358 -0.069843 0.371381
v 0.167358 -0.069843 0.189563
v 0.167358 -0.069843 0.007745
v 0.167358 -0.069843 -0.174073
v 0.167358 -0.069843 -0.355891
v 0.167358 -0.069843 -0.53771
v 0.167358 -0.23651 0.916836
v 0.349176 -0.069843 0.916836
v 0.349176 -0.069843 0.735018
v 0.349176 -0.069843 0.553199
v 0.349176 -0.069843 0.189563
v 0.349176 -0.069843 0.371381
v 0.343543 -0.019139 -0.355891
v 0.343543 -0.019139 0.007745
v 0.343543 -0.019139 -0.174073
v 0.349176 -0.069843 -0.53771
v 0.530995 -0.069843 0.916836
v 0.530995 -0.069843 0.735018
v 0.349176 -0.23651 0.916836
v 0.530995 -0.069843 0.553199
v 0.530995 -0.069843 0.371381
v 0.530995 -0.069843 0.189563
v 0.525361 -0.019139 0.007745
v 0.514093 0.025932 -0.174073
v 0.530995 -0.069843 -0.53771
v 0.525361 -0.019139 -0.355891
v 0.712813 -0.069843 0.916836
v 0.712813 -0.069843 0.735018
v 0.712813 -0.069843 0.553199
v 0.712813 -0.069843 0.371381
v 0.712813 -0.069843 0.189563
v 0.707179 -0.019139 0.007745
v 0.707179 -0.019139 -0.174073
v 0.707179 -0.019139 -0.355891
v 0.712813 -0.069843 -0.53771
v 0.894631 -0.069843 0.916836
v 0.894631 -0.069843 0.735018
v 0.894631 -0.069843 0.553199
v 0.894631 -0.069843 0.371381
v 0.894631 -0.069843 0.189563
v 0.894631 -0.069843 0.007745
v 0.894631 -0.069843 -0.174073
v 0.894631 -0.069843 -0.355891
v 0.894631 -0.069843 -0.53771
v 0.894631 -0.23651 0.371381
v 0.894631 -0.23651 0.189563
v 0.894631 -0.23651 0.007745
v 0.894631 -0.23651 -0.174073
v 0.894631 -0.23651 -0.355891
v 0.894631 -0.23651 -0.53771
v -0.923551 -0.569843 -0.901346
v -1.105369 -0.569843 -1.083164
v -0.923551 -0.569843 -1.083164
v -1.105369 -0.569843 -0.901346
v -0.741733 -0.569843 -1.083164
v -0.741733 -0.569843 -0.901346
v -0.923551 -0.569843 -0.719528
v -1.105369 -0.569843 -0.719528
v -0.741733 -0.569843 -0.719528
v -0.741733 -0.569843 -0.53771
v -0.923551 -0.569843 -0.53771
v -1.105369 -0.569843 -0.53771
v -1.105369 -0.403177 -0.719528
v -0.923551 -0.569843 -0.355891
v -1.105369 -0.569843 -0.355891
v -0.741733 -0.569843 -0.355891
v -1.105369 -0.403177 -0.53771
v -0.741733 -0.569843 -0.174073
v -0.923551 -0.569843 -0.174073
v -1.105369 -0.569843 -0.174073
v -1.105369 -0.403177 -0.355891
v -0.741733 -0.569843 0.007745
v -0.923551 -0.569843 0.007745
v -1.105369 -0.569843 0.007745
v -1.105369 -0.403177 -0.174073
v -1.105369 -0.569843 0.189563
v -0.923551 -0.569843 0.189563
v -0.741733 -0.569843 0.189563
v -1.105369 -0.403177 0.007745
v -1.105369 -0.569843 0.371381
v -0.741733 -0.569843 0.371381
v -0.923551 -0.569843 0.371381
v -1.105369 -0.403177 0.189563
v -1.105369 -0.403177 0.371381
v 0.894631 -0.569843 -0.901346
v 0.894631 -0.569843 -0.719528
v 0.712813 -0.569843 -0.719528
v 0.894631 -0.403177 -0.719528
v 0.894631 -0.403177 -0.901346
v 0.894631 -0.569843 -1.083164
v 0.894631 -0.403177 -1.083164
v 0.712813 -0.569843 -1.083164
v 0.712813 -0.569843 -0.901346
v 0.530995 -0.403177 -1.083164
v 0.530995 -0.569843 -0.901346
v 0.530995 -0.569843 -1.083164
v 0.530995 -0.569843 -0.719528
v 0.349176 -0.569843 -0.901346
v 0.349176 -0.569843 -1.083164
v 0.349176 -0.403177 -1.083164
v 0.349176 -0.569843 -0.719528
v 0.167358 -0.403177 -1.083164
v 0.167358 -0.569843 -0.901346
v 0.167358 -0.569843 -1.083164
v 0.167358 -0.569843 -0.719528
v -0.01446 -0.569843 -0.901346
v -0.01446 -0.569843 -1.083164
v -0.01446 -0.403177 -1.083164
v -0.01446 -0.569843 -0.719528
v -0.196278 -0.403177 -1.083164
v -0.196278 -0.569843 -0.901346
v -0.196278 -0.569843 -1.083164
v -0.196278 -0.569843 -0.719528
v -0.378096 -0.569843 -0.901346
v -0.378096 -0.569843 -1.083164
v -0.378096 -0.403177 -1.083164
v -0.378096 -0.569843 -0.719528
v -0.559914 -0.403177 -1.083164
v -0.559914 -0.569843 -1.083164
v -0.559914 -0.569843 -0.901346
v -0.559914 -0.569843 -0.719528
v 0.894631 -0.403177 -0.53771
v 0.712813 -0.569843 -0.53771
v 0.894631 -0.569843 -0.53771
v 0.530995 -0.569843 -0.53771
v 0.349176 -0.569843 -0.53771
v 0.167358 -0.569843 -0.53771
v 0.07644899999999999 -0.569843 -0.6286189999999999
v -0.196278 -0.569843 -0.53771
v -0.01446 -0.569843 -0.53771
v -0.378096 -0.569843 -0.53771
v -0.559914 -0.569843 -0.53771
v 0.894631 -0.403177 -0.355891
v 0.712813 -0.569843 -0.355891
v 0.894631 -0.569843 -0.355891
v 0.530995 -0.569843 -0.355891
v 0.349176 -0.569843 -0.355891
v 0.167358 -0.569843 -0.355891
v -0.01446 -0.569843 -0.355891
v -0.196278 -0.569843 -0.355891
v -0.378096 -0.569843 -0.355891
v -0.559914 -0.569843 -0.355891
v 0.712813 -0.569843 -0.174073
v 0.894631 -0.569843 -0.174073
v 0.894631 -0.403177 -0.174073
v 0.530995 -0.569843 -0.174073
v 0.349176 -0.569843 -0.174073
v 0.167358 -0.569843 -0.174073
v -0.01446 -0.569843 -0.174073
v -0.196278 -0.569843 -0.174073
v -0.378096 -0.569843 -0.174073
v -0.559914 -0.569843 -0.174073
v 0.894631 -0.569843 0.007745
v 0.712813 -0.569843 0.007745
v 0.894631 -0.403177 0.007745
v 0.530995 -0.569843 0.007745
v 0.349176 -0.569843 0.007745
v 0.167358 -0.569843 0.007745
v -0.01446 -0.569843 0.007745
v -0.196278 -0.569843 0.007745
v -0.378096 -0.569843 0.007745
v -0.559914 -0.569843 0.007745
v 0.894631 -0.403177 0.189563
v 0.712813 -0.569843 0.189563
v 0.894631 -0.569843 0.189563
v 0.530995 -0.569843 0.189563
v 0.349176 -0.569843 0.189563
v 0.167358 -0.569843 0.189563
v -0.01446 -0.569843 0.189563
v -0.196278 -0.569843 0.189563
v -0.378096 -0.569843 0.189563
v -0.559914 -0.569843 0.189563
v 0.894631 -0.403177 0.371381
v 0.712813 -0.569843 0.371381
v 0.894631 -0.569843 0.371381
v 0.530995 -0.569843 0.371381
v 0.349176 -0.569843 0.371381
v 0.167358 -0.569843 0.371381
v -0.01446 -0.569843 0.371381
v -0.196278 -0.569843 0.371381
v -0.378096 -0.569843 0.371381
v -0.559914 -0.569843 0.371381
v 0.530995 -0.569843 0.553199
v 0.349176 -0.569843 0.553199
v 0.167358 -0.569843 0.553199
v -0.01446 -0.569843 0.553199
v -0.196278 -0.569843 0.553199
v -0.378096 -0.569843 0.553199
v -0.559914 -0.569843 0.553199
v 0.349176 -0.569843 0.735018
v 0.167358 -0.569843 0.735018
v -0.01446 -0.569843 0.735018
v -0.196278 -0.569843 0.735018
v -0.378096 -0.569843 0.735018
v -0.559914 -0.569843 0.735018
v 0.349176 -0.569843 0.916836
v 0.167358 -0.569843 0.916836
v -0.01446 -0.569843 0.916836
v -0.196278 -0.569843 0.916836
v -0.378096 -0.569843 0.916836
v -0.559914 -0.569843 0.916836
v 0.349176 -0.403177 0.916836
v 0.167358 -0.403177 0.916836
v -0.01446 -0.403177 0.916836
v -0.196278 -0.403177 0.916836
v -0.378096 -0.403177 0.916836
v -0.559914 -0.403177 0.916836
vn 0.7071067690849304 0.7071067690849304 0
vn 0 1 0
vn 0.5547001957893372 0.8320503234863281 0
vn 1 0 0
vn 0.5773502588272095 0.5773502588272095 -0.5773502588272095
vn 0 0.800000011920929 -0.6000000238418579
vn 0.7071068286895752 0 -0.7071068286895752
vn 1 0 0
vn 0 1 0
vn 0 1 0
vn 0 0 -1
vn 0 0.8320503234863281 -0.5547001957893372
vn 0 1 0
vn 0.7071067690849304 0 0.7071067690849304
vn 0 -0.7071067690849304 0.7071067690849304
vn 0.5773502588272095 -0.5773502588272095 0.5773502588272095
vn 0.7071067690849304 -0.7071067690849304 0
vn 0 0 1
vn 0 0 1
vn 1 0 0
vn 1 0 0
vn 0.5547001957893372 0 0.8320503234863281
vn 0 -1 0
vn 0 -1 0
vn 1 0 0
vn 0.7071067690849304 -0.7071067690849304 0
vn 1 0 0
vn -0.7071067690849304 0 -0.7071067690849304
vn -1 0 0
vn -1 0 0
vn 0 0.7071067690849304 -0.7071067690849304
vn 0 0 -1
vn 0 0 -1
vn -0.7071067690849304 0 -0.7071067690849304
vn -0.5773502588272095 0.5773502588272095 -0.5773502588272095
vn -0.800000011920929 0.6000000238418579 0
vn 0 1 0
vn 0 0.5547001957893372 -0.8320503234863281
vn 0 0 -1
vn 0 1 0
vn 0 0 -1
vn -0.7071067690849304 0 0.7071067690849304
vn 0 0.7071067690849304 0.7071067690849304
vn -0.5773502588272095 0.5773502588272095 0.5773502588272095
vn -0.7071067690849304 0.7071067690849304 0
vn -1 0 0
vn -1 0 0
vn 0 0 1
vn -0.7071068286895752 0 0.7071068286895752
vn 0 0 1
vn -1 0 0
vn 0 1 0
vn 0 1 0
vn -0.7071068286895752 0.7071068286895752 0
vn -1 0 0
vn 0 0 1
vn 0 -1 0
vn 0 -0.5547001957893372 0.8320503234863281
vn 0 0 1
vn 0 -0.7071067690849304 0.7071067690849304
vn -0.5773502588272095 -0.5773502588272095 0.5773502588272095
vn -0.7071067690849304 -0.7071067690849304 0
vn 0 -1 0
vn 0 -0.8320503234863281 0.5547001957893372
vn 0 0 1
vn 0 -1 0
vn -0.5547001957893372 -0.8320503234863281 0
vn 0 -1 0
vn 0 -1 0
vn -0.5547001957893372 0.8320503234863281 0
vn 0 1 0
vn 0 1 0
vn -1 0 0
vn 0 0.800000011920929 -0.6000000238418579
vn 0 1 0
vn 0 1 0
vn 0 1 0
vn 0 0.7071068286895752 -0.7071068286895752
vn 0 0 -1
vn 0 0 -1
vn 0 1 0
vn 0 1 0
vn 0 0.5547001957893372 -0.8320503234863281
vn 0 0 -1
vn 0 1 0
vn 0 0.7071068286895752 -0.7071068286895752
vn 0 1 0
vn 0 1 0
vn 0 1 0
vn 0 1 0
vn 0 0.7071068286895752 -0.7071068286895752
vn 0 0 -1
vn 0 1 0
vn 0 1 0
vn 0 0.7071068286895752 -0.7071068286895752
vn 0 0 -1
vn 0 0 -1
vn 0 1 0
vn 0 0 1
vn 0 0.7071068286895752 0.7071068286895752
vn 0.06821613758802414 0.9727927446365356 -0.22140665352344513
vn 0.22140665352344513 0.9727927446365356 -0.06821613758802414
vn -0.7071068286895752 0.7071068286895752 0
vn -1 0 0
vn 0.2647683322429657 0.9643120765686035 0
vn -0.7071068286895752 0.7071068286895752 0
vn -1 0 0
vn 0.25791165232658386 0.9311085343360901 -0.25791165232658386
vn 0.3888034522533417 0.9198282361030579 -0.05242028087377548
vn 0.2647683322429657 0.9643120765686035 0
vn -0.7071068286895752 0.7071068286895752 0
vn -1 0 0
vn 0.4483754336833954 0.8938453197479248 0
vn 0.2647683322429657 0.9643120765686035 0
vn -1 0 0
vn -0.7071068286895752 0.7071068286895752 0
vn 0.3895426392555237 0.9189605712890625 0.06138486787676811
vn 0.16860634088516235 0.9824783205986023 0.07942479848861694
vn -0.7071068286895752 0.7071068286895752 0
vn -1 0 0
vn 0.314761221408844 0.9265760779380798 0.2058691680431366
vn 0 1 0
vn -0.7071068286895752 0.7071068286895752 0
vn -1 0 0
vn 0.06821619719266891 0.9727929830551147 0.22140569984912872
vn 0 1 0
vn 0 0.7071068286895752 0.7071068286895752
vn 0 0 1
vn 0 0.9643120765686035 -0.2647683322429657
vn 0.05242164805531502 0.9210797548294067 -0.3858291804790497
vn 0.3332465589046478 0.9428397417068481 0
vn 0.2055141031742096 0.9579280018806458 -0.20034459233283997
vn 0.23720675706863403 0.9569986462593079 0.16699230670928955
vn 0.04578819125890732 0.9143840670585632 0.4022502303123474
vn 0 0.9773790836334229 0.21149510145187378
vn 0 0.7071068286895752 0.7071068286895752
vn 0 1 0
vn 0 0 1
vn 0 0.9643120765686035 -0.2647683322429657
vn 0 0.8963047862052917 -0.4434385299682617
vn -0.0374249592423439 0.9628841280937195 -0.26730799674987793
vn 0.011719968169927597 0.999931275844574 2.580531344165138e-09
vn 0 0.89630526304245 0.4434374272823334
vn 0 0.9643123149871826 0.2647671401500702
vn -0.0374249592423439 0.9628841280937195 0.26730799674987793
vn 0 0 1
vn 0 0.7071068286895752 0.7071068286895752
vn 0 1 0
vn 0 0.9739483594894409 -0.22676989436149597
vn -0.05853147804737091 0.9211934804916382 -0.38467705249786377
vn -0.184518963098526 0.9647054076194763 -0.18787290155887604
vn -0.22353680431842804 0.9746954441070557 0
vn -0.14587244391441345 0.963355541229248 0.22509421408176422
vn -0.05853147432208061 0.9211940765380859 0.3846759498119354
vn 0 0.9643123149871826 0.2647671401500702
vn 0 1 0
vn 0 0 1
vn 0 0.5547001957893372 0.8320503234863281
vn -0.09580225497484207 0.9744033217430115 -0.20337209105491638
vn -0.20587006211280823 0.9265758395195007 -0.3147611618041992
vn -0.4022667109966278 0.9141532778739929 -0.05005252733826637
vn -0.42396700382232666 0.9056776165962219 0
vn -0.39746567606925964 0.916577160358429 0.04367249459028244
vn -0.25791171193122864 0.9311087727546692 0.25791049003601074
vn -0.06821619719266891 0.9727929830551147 0.22140569984912872
vn 0 1 0
vn 0 1 0
vn 0 0.8320503234863281 0.5547001957893372
vn -0.19312459230422974 0.9793683290481567 -0.059502337127923965
vn -0.2647683322429657 0.964311957359314 0
vn -0.37804463505744934 0.9249666929244995 0.038972605019807816
vn -0.35717877745628357 0.9340360760688782 0
vn -0.3019353151321411 0.9529128074645996 0.02814522385597229
vn 0 1 0
vn 0 0 1
vn 0 0.7071067690849304 0.7071067690849304
vn 0 1 0
vn 0 1 0
vn -0.03860435634851456 0.9924505352973938 0.11641131341457367
vn 0 1 0
vn -0.182240292429924 0.9744219183921814 -0.1314934343099594
vn -0.18224026262760162 0.9744218587875366 0.13149391114711761
vn -0.26604628562927246 0.9639602899551392 0
vn -0.03374890238046646 0.9942354559898376 -0.10176914185285568
vn 0 0.7071068286895752 0.7071068286895752
vn 0 1 0
vn 0 0 1
vn 0 1 0
vn 0 1 0
vn 0 0.9907687902450562 0.13556265830993652
vn 0.03724818304181099 0.9763199687004089 0.21310067176818848
vn -0.011719967238605022 0.999931275844574 -2.580531122120533e-09
vn 0 0.9907689094543457 -0.1355619579553604
vn 0.03724817931652069 0.9763200879096985 -0.21309995651245117
vn 0 0.7071068286895752 0.7071068286895752
vn 0 1 0
vn 0 1 0
vn 0 1 0
vn 0.04263471066951752 0.995210587978363 0.08796708285808563
vn 0.13142286241054535 0.9822317957878113 0.13397221267223358
vn 0.1776464432477951 0.9840943813323975 0
vn 0.10448488593101501 0.9814664125442505 -0.16064469516277313
vn 0.04263472184538841 0.9952106475830078 -0.08796662092208862
vn 0.8164965510368347 0.40824827551841736 0.40824827551841736
vn 0.7071068286895752 0.7071068286895752 0
vn 0.7071068286895752 0.7071068286895752 0
vn 0.7071068286895752 0.7071068286895752 0
vn 0.5547001957893372 0.8320503234863281 0
vn 0.840449333190918 0.5398444533348083 0.04704049229621887
vn 0.7940740585327148 0.6078210473060608 0
vn 0.6979871988296509 0.7145850658416748 -0.04671351611614227
vn 0.8320503234863281 0.5547001957893372 0
vn 1 0 0
vn 1 0 0
vn 1 0 0
vn 1 0 0
vn 1 0 0
vn 1 0 0
vn 0 -1 0
vn -0.5773502588272095 -0.5773502588272095 -0.5773502588272095
vn 0 -0.5547001957893372 -0.8320503234863281
vn -0.8320503234863281 -0.5547001957893372 0
vn 0 -0.8320503234863281 -0.5547001957893372
vn 0 -1 0
vn 0 -1 0
vn -0.7071068286895752 -0.7071068286895752 0
vn 0 -1 0
vn 0 -1 0
vn 0 -1 0
vn -0.7071068286895752 -0.7071068286895752 0
vn -1 0 0
vn 0 -1 0
vn -0.7071068286895752 -0.7071068286895752 0
vn 0 -1 0
vn -1 0 0
vn 0 -1 0
vn 0 -1 0
vn -0.7071068286895752 -0.7071068286895752 0
vn -1 0 0
vn 0 -1 0
vn 0 -1 0
vn -0.7071068286895752 -0.7071068286895752 0
vn -1 0 0
vn -0.7071068286895752 -0.7071068286895752 0
vn 0 -1 0
vn 0 -1 0
vn -1 0 0
vn -0.7071068286895752 -0.7071068286895752 0
vn 0 -1 0
vn 0 -1 0
vn -1 0 0
vn -1 0 0
vn 0.7071067690849304 -0.7071067690849304 0
vn 0.7071068286895752 -0.7071068286895752 0
vn 0 -1 0
vn 1 0 0
vn 1 0 0
vn 0.5773502588272095 -0.5773502588272095 -0.5773502588272095
vn 0.7071067690849304 0 -0.7071067690849304
vn 0 -0.800000011920929 -0.6000000238418579
vn 0 -1 0
vn 0 0 -1
vn 0 -1 0
vn 0 -0.7071068286895752 -0.7071068286895752
vn 0 -1 0
vn 0 -1 0
vn 0 -0.7071068286895752 -0.7071068286895752
vn 0 0 -1
vn 0 -1 0
vn 0 0 -1
vn 0 -1 0
vn 0 -0.7071068286895752 -0.7071068286895752
vn 0 -1 0
vn 0 -1 0
vn 0 -0.7071068286895752 -0.7071068286895752
vn 0 0 -1
vn 0 -1 0
vn 0 0 -1
vn 0 -1 0
vn 0 -0.7071068286895752 -0.7071068286895752
vn 0 -1 0
vn 0 -1 0
vn 0 -0.7071068286895752 -0.7071068286895752
vn 0 0 -1
vn 0 -1 0
vn 0 0 -1
vn 0 -0.7071068286895752 -0.7071068286895752
vn 0 -1 0
vn 0 -1 0
vn 1 0 0
vn 0 -1 0
vn 0.7071068286895752 -0.7071068286895752 0
vn 0 -1 0
vn 0 -1 0
vn 0 -1 0
vn 0 -1 0
vn 0 -1 0
vn 0 -1 0
vn 0 -1 0
vn 0 -1 0
vn 1 0 0
vn 0 -1 0
vn 0.7071068286895752 -0.7071068286895752 0
vn 0 -1 0
vn 0 -1 0
vn 0 -1 0
vn 0 -1 0
vn 0 -1 0
vn 0 -1 0
vn 0 -1 0
vn 0 -1 0
vn 0.7071068286895752 -0.7071068286895752 0
vn 1 0 0
vn 0 -1 0
vn 0 -1 0
vn 0 -1 0
vn 0 -1 0
vn 0 -1 0
vn 0 -1 0
vn 0 -1 0
vn 0.7071068286895752 -0.7071068286895752 0
vn 0 -1 0
vn 1 0 0
vn 0 -1 0
vn 0 -1 0
vn 0 -1 0
vn 0 -1 0
vn 0 -1 0
vn 0 -1 0
vn 0 -1 0
vn 1 0 0
vn 0 -1 0
vn 0.7071068286895752 -0.7071068286895752 0
vn 0 -1 0
vn 0 -1 0
vn 0 -1 0
vn 0 -1 0
vn 0 -1 0
vn 0 -1 0
vn 0 -1 0
vn 1 0 0
vn 0 -1 0
vn 0.7071068286895752 -0.7071068286895752 0
vn 0 -1 0
vn 0 -1 0
vn 0 -1 0
vn 0 -1 0
vn 0 -1 0
vn 0 -1 0
vn 0 -1 0
vn 0 -1 0
vn 0 -1 0
vn 0 -1 0
vn 0 -1 0
vn 0 -1 0
vn 0 -1 0
vn 0 -1 0
vn 0 -1 0
vn 0 -1 0
vn 0 -1 0
vn 0 -1 0
vn 0 -1 0
vn 0 -1 0
vn 0 -0.7071068286895752 0.7071068286895752
vn 0 -0.7071068286895752 0.7071068286895752
vn 0 -0.7071068286895752 0.7071068286895752
vn 0 -0.7071068286895752 0.7071068286895752
vn 0 -0.7071068286895752 0.7071068286895752
vn 0 -0.7071068286895752 0.7071068286895752
vn 0 0 1
vn 0 0 1
vn 0 0 1
vn 0 0 1
vn 0 0 1
vn 0 0 1
f 1//1 2//2 3//3
f 1//1 3//3 4//4
f 1//1 5//5 6//6
f 1//1 7//7 5//5
f 1//1 8//8 7//7
f 1//1 9//9 2//2
f 1//1 6//6 9//9
f 1//1 4//4 8//8
f 6//6 10//10 9//9
f 6//6 5//5 7//7
f 6//6 7//7 11//11
f 6//6 12//12 10//10
f 6//6 11//11 12//12
f 9//9 13//13 2//2
f 9//9 10//10 13//13
f 14//14 15//15 16//16
f 14//14 16//16 17//17
f 14//14 18//18 15//15
f 14//14 19//19 18//18
f 14//14 17//17 20//20
f 14//14 21//21 22//22
f 14//14 22//22 19//19
f 14//14 20//20 21//21
f 17//17 16//16 15//15
f 17//17 23//23 24//24
f 17//17 25//25 20//20
f 17//17 15//15 23//23
f 17//17 26//26 25//25
f 17//17 24//24 26//26
f 20//20 25//25 27//27
f 20//20 27//27 21//21
f 28//28 29//29 30//30
f 28//28 31//31 32//32
f 28//28 32//32 33//33
f 28//28 34//34 29//29
f 28//28 33//33 34//34
f 28//28 35//35 31//31
f 28//28 36//36 35//35
f 28//28 30//30 36//36
f 31//31 36//36 37//37
f 31//31 38//38 39//39
f 31//31 40//40 38//38
f 31//31 37//37 40//40
f 31//31 35//35 36//36
f 31//31 39//39 32//32
f 32//32 39//39 41//41
f 32//32 41//41 33//33
f 42//42 43//43 44//44
f 42//42 44//44 45//45
f 42//42 45//45 46//46
f 42//42 46//46 47//47
f 42//42 48//48 43//43
f 42//42 49//49 50//50
f 42//42 47//47 49//49
f 42//42 50//50 48//48
f 45//45 51//51 46//46
f 45//45 44//44 43//43
f 45//45 43//43 52//52
f 45//45 52//52 53//53
f 45//45 54//54 51//51
f 45//45 53//53 54//54
f 46//46 55//55 47//47
f 46//46 51//51 55//55
f 15//15 18//18 56//56
f 15//15 57//57 23//23
f 15//15 56//56 58//58
f 15//15 58//58 57//57
f 18//18 19//19 59//59
f 18//18 59//59 56//56
f 60//60 49//49 61//61
f 60//60 61//61 62//62
f 60//60 63//63 64//64
f 60//60 64//64 65//65
f 60//60 66//66 63//63
f 60//60 62//62 66//66
f 60//60 50//50 49//49
f 60//60 65//65 50//50
f 62//62 47//47 55//55
f 62//62 61//61 49//49
f 62//62 67//67 68//68
f 62//62 55//55 67//67
f 62//62 49//49 47//47
f 62//62 68//68 66//66
f 66//66 69//69 63//63
f 66//66 68//68 69//69
f 37//37 36//36 70//70
f 37//37 70//70 71//71
f 37//37 72//72 40//40
f 37//37 71//71 72//72
f 36//36 73//73 70//70
f 36//36 30//30 73//73
f 40//40 74//74 38//38
f 40//40 75//75 74//74
f 40//40 76//76 75//75
f 40//40 72//72 76//76
f 74//74 77//77 78//78
f 74//74 78//78 79//79
f 74//74 75//75 77//77
f 74//74 79//79 80//80
f 74//74 80//80 38//38
f 38//38 80//80 39//39
f 75//75 76//76 81//81
f 75//75 81//81 77//77
f 78//78 77//77 82//82
f 78//78 83//83 84//84
f 78//78 82//82 83//83
f 78//78 84//84 79//79
f 82//82 85//85 86//86
f 82//82 86//86 83//83
f 82//82 87//87 85//85
f 82//82 88//88 87//87
f 82//82 77//77 81//81
f 82//82 81//81 88//88
f 85//85 87//87 89//89
f 85//85 89//89 90//90
f 85//85 90//90 91//91
f 85//85 91//91 86//86
f 83//83 92//92 84//84
f 83//83 86//86 92//92
f 90//90 89//89 93//93
f 90//90 94//94 95//95
f 90//90 93//93 94//94
f 90//90 95//95 91//91
f 86//86 96//96 92//92
f 86//86 91//91 96//96
f 94//94 12//12 95//95
f 94//94 13//13 10//10
f 94//94 93//93 13//13
f 94//94 10//10 12//12
f 91//91 95//95 97//97
f 91//91 97//97 96//96
f 95//95 12//12 11//11
f 95//95 11//11 97//97
f 43//43 98//98 52//52
f 43//43 48//48 99//99
f 43//43 100//100 98//98
f 43//43 99//99 100//100
f 52//52 101//101 53//53
f 52//52 98//98 101//101
f 54//54 102//102 103//103
f 54//54 103//103 104//104
f 54//54 53//53 102//102
f 54//54 104//104 51//51
f 53//53 101//101 102//102
f 103//103 105//105 106//106
f 103//103 106//106 107//107
f 103//103 102//102 105//105
f 103//103 107//107 104//104
f 102//102 101//101 108//108
f 102//102 108//108 109//109
f 102//102 109//109 105//105
f 106//106 110//110 111//111
f 106//106 111//111 112//112
f 106//106 112//112 107//107
f 106//106 105//105 110//110
f 105//105 109//109 113//113
f 105//105 113//113 110//110
f 111//111 110//110 114//114
f 111//111 115//115 112//112
f 111//111 114//114 116//116
f 111//111 116//116 115//115
f 110//110 117//117 114//114
f 110//110 113//113 117//117
f 116//116 118//118 119//119
f 116//116 119//119 120//120
f 116//116 114//114 118//118
f 116//116 120//120 115//115
f 114//114 117//117 121//121
f 114//114 121//121 118//118
f 119//119 122//122 123//123
f 119//119 123//123 124//124
f 119//119 118//118 122//122
f 119//119 124//124 120//120
f 118//118 125//125 122//122
f 118//118 121//121 125//125
f 123//123 73//73 124//124
f 123//123 71//71 70//70
f 123//123 70//70 73//73
f 123//123 122//122 71//71
f 122//122 125//125 72//72
f 122//122 72//72 71//71
f 100//100 126//126 98//98
f 100//100 127//127 126//126
f 100//100 128//128 127//127
f 100//100 99//99 128//128
f 98//98 126//126 129//129
f 98//98 129//129 101//101
f 101//101 130//130 108//108
f 101//101 129//129 130//130
f 108//108 130//130 109//109
f 109//109 131//131 113//113
f 109//109 130//130 132//132
f 109//109 132//132 131//131
f 113//113 133//133 117//117
f 113//113 131//131 133//133
f 117//117 133//133 134//134
f 117//117 134//134 121//121
f 125//125 134//134 135//135
f 125//125 121//121 134//134
f 125//125 76//76 72//72
f 125//125 135//135 76//76
f 127//127 136//136 137//137
f 127//127 138//138 136//136
f 127//127 137//137 126//126
f 127//127 128//128 138//138
f 126//126 139//139 129//129
f 126//126 137//137 139//139
f 129//129 139//139 140//140
f 129//129 140//140 130//130
f 130//130 141//141 132//132
f 130//130 140//140 141//141
f 132//132 142//142 131//131
f 132//132 141//141 142//142
f 131//131 142//142 133//133
f 134//134 143//143 144//144
f 134//134 144//144 135//135
f 134//134 145//145 143//143
f 134//134 133//133 145//145
f 135//135 81//81 76//76
f 135//135 144//144 81//81
f 136//136 138//138 146//146
f 136//136 147//147 148//148
f 136//136 146//146 147//147
f 136//136 148//148 137//137
f 137//137 149//149 139//139
f 137//137 148//148 149//149
f 139//139 149//149 150//150
f 139//139 150//150 140//140
f 141//141 151//151 152//152
f 141//141 152//152 142//142
f 141//141 140//140 151//151
f 142//142 145//145 133//133
f 142//142 152//152 145//145
f 145//145 153//153 143//143
f 145//145 152//152 153//153
f 143//143 153//153 154//154
f 143//143 155//155 144//144
f 143//143 154//154 155//155
f 144//144 88//88 81//81
f 144//144 155//155 88//88
f 147//147 156//156 148//148
f 147//147 146//146 157//157
f 147//147 157//157 158//158
f 147//147 158//158 156//156
f 149//149 159//159 160//160
f 149//149 148//148 156//156
f 149//149 156//156 159//159
f 149//149 160//160 150//150
f 140//140 150//150 151//151
f 151//151 150//150 161//161
f 151//151 162//162 152//152
f 151//151 161//161 162//162
f 152//152 162//162 163//163
f 152//152 163//163 153//153
f 153//153 163//163 154//154
f 154//154 163//163 164//164
f 154//154 165//165 155//155
f 154//154 164//164 165//165
f 155//155 87//87 88//88
f 155//155 165//165 87//87
f 156//156 166//166 167//167
f 156//156 158//158 168//168
f 156//156 167//167 159//159
f 156//156 168//168 166//166
f 159//159 167//167 169//169
f 159//159 169//169 160//160
f 150//150 160//160 161//161
f 161//161 160//160 169//169
f 161//161 169//169 170//170
f 161//161 170//170 171//171
f 161//161 171//171 162//162
f 163//163 171//171 172//172
f 163//163 162//162 171//171
f 163//163 173//173 164//164
f 163//163 172//172 173//173
f 164//164 173//173 165//165
f 165//165 89//89 87//87
f 165//165 173//173 174//174
f 165//165 174//174 89//89
f 158//158 175//175 168//168
f 158//158 157//157 175//175
f 166//166 176//176 177//177
f 166//166 178//178 167//167
f 166//166 177//177 178//178
f 166//166 168//168 176//176
f 169//169 167//167 178//178
f 169//169 179//179 170//170
f 169//169 178//178 180//180
f 169//169 180//180 179//179
f 170//170 179//179 171//171
f 172//172 181//181 173//173
f 172//172 171//171 182//182
f 172//172 183//183 181//181
f 172//172 182//182 183//183
f 173//173 181//181 184//184
f 173//173 184//184 174//174
f 89//89 174//174 184//184
f 89//89 184//184 93//93
f 176//176 185//185 186//186
f 176//176 59//59 185//185
f 176//176 186//186 177//177
f 176//176 175//175 187//187
f 176//176 187//187 59//59
f 176//176 168//168 175//175
f 177//177 188//188 178//178
f 177//177 186//186 188//188
f 178//178 189//189 180//180
f 178//178 188//188 189//189
f 180//180 190//190 179//179
f 180//180 189//189 190//190
f 179//179 191//191 182//182
f 179//179 190//190 191//191
f 179//179 182//182 171//171
f 182//182 192//192 183//183
f 182//182 191//191 192//192
f 183//183 192//192 181//181
f 184//184 13//13 93//93
f 184//184 193//193 13//13
f 184//184 194//194 193//193
f 184//184 181//181 194//194
f 185//185 195//195 196//196
f 185//185 19//19 195//195
f 185//185 196//196 186//186
f 185//185 59//59 19//19
f 186//186 197//197 188//188
f 186//186 196//196 197//197
f 188//188 198//198 189//189
f 188//188 197//197 198//198
f 189//189 199//199 190//190
f 189//189 198//198 199//199
f 191//191 200//200 201//201
f 191//191 190//190 200//200
f 191//191 201//201 192//192
f 192//192 201//201 194//194
f 192//192 194//194 181//181
f 194//194 201//201 202//202
f 194//194 202//202 193//193
f 193//193 202//202 203//203
f 193//193 203//203 2//2
f 193//193 2//2 13//13
f 195//195 204//204 205//205
f 195//195 22//22 204//204
f 195//195 205//205 196//196
f 195//195 19//19 22//22
f 196//196 206//206 197//197
f 196//196 205//205 206//206
f 197//197 207//207 198//198
f 197//197 206//206 207//207
f 198//198 207//207 208//208
f 198//198 208//208 199//199
f 190//190 199//199 200//200
f 200//200 199//199 209//209
f 200//200 209//209 210//210
f 200//200 210//210 201//201
f 201//201 211//211 202//202
f 201//201 210//210 211//211
f 202//202 211//211 203//203
f 203//203 3//3 2//2
f 203//203 211//211 212//212
f 203//203 212//212 3//3
f 204//204 21//21 205//205
f 204//204 22//22 21//21
f 205//205 21//21 27//27
f 205//205 27//27 206//206
f 206//206 27//27 213//213
f 206//206 213//213 207//207
f 207//207 214//214 208//208
f 207//207 213//213 214//214
f 199//199 208//208 209//209
f 209//209 215//215 216//216
f 209//209 216//216 210//210
f 209//209 208//208 214//214
f 209//209 214//214 215//215
f 210//210 216//216 217//217
f 210//210 217//217 211//211
f 211//211 218//218 212//212
f 211//211 217//217 218//218
f 212//212 218//218 4//4
f 212//212 4//4 3//3
f 219//219 220//220 221//221
f 219//219 222//222 220//220
f 219//219 223//223 224//224
f 219//219 225//225 226//226
f 219//219 221//221 223//223
f 219//219 226//226 222//222
f 219//219 227//227 225//225
f 219//219 224//224 227//227
f 220//220 33//33 221//221
f 220//220 222//222 29//29
f 220//220 29//29 34//34
f 220//220 34//34 33//33
f 221//221 33//33 41//41
f 221//221 41//41 223//223
f 225//225 228//228 229//229
f 225//225 227//227 228//228
f 225//225 229//229 230//230
f 225//225 230//230 226//226
f 222//222 231//231 29//29
f 222//222 226//226 231//231
f 229//229 232//232 233//233
f 229//229 234//234 232//232
f 229//229 228//228 234//234
f 229//229 233//233 230//230
f 226//226 235//235 231//231
f 226//226 230//230 235//235
f 232//232 234//234 236//236
f 232//232 237//237 238//238
f 232//232 238//238 233//233
f 232//232 236//236 237//237
f 230//230 239//239 235//235
f 230//230 233//233 239//239
f 237//237 240//240 241//241
f 237//237 241//241 242//242
f 237//237 236//236 240//240
f 237//237 242//242 238//238
f 233//233 243//243 239//239
f 233//233 238//238 243//243
f 241//241 244//244 242//242
f 241//241 245//245 244//244
f 241//241 240//240 246//246
f 241//241 246//246 245//245
f 238//238 247//247 243//243
f 238//238 242//242 247//247
f 245//245 248//248 244//244
f 245//245 249//249 250//250
f 245//245 250//250 248//248
f 245//245 246//246 249//249
f 242//242 244//244 251//251
f 242//242 251//251 247//247
f 250//250 68//68 67//67
f 250//250 249//249 69//69
f 250//250 67//67 248//248
f 250//250 69//69 68//68
f 244//244 248//248 252//252
f 244//244 252//252 251//251
f 248//248 55//55 252//252
f 248//248 67//67 55//55
f 253//253 254//254 255//255
f 253//253 256//256 254//254
f 253//253 257//257 256//256
f 253//253 258//258 259//259
f 253//253 260//260 258//258
f 253//253 255//255 261//261
f 253//253 261//261 260//260
f 253//253 259//259 257//257
f 260//260 259//259 258//258
f 260//260 262//262 259//259
f 260//260 261//261 263//263
f 260//260 263//263 264//264
f 260//260 264//264 262//262
f 261//261 255//255 265//265
f 261//261 265//265 263//263
f 264//264 266//266 267//267
f 264//264 267//267 268//268
f 264//264 263//263 266//266
f 264//264 268//268 262//262
f 263//263 269//269 266//266
f 263//263 265//265 269//269
f 267//267 270//270 268//268
f 267//267 271//271 272//272
f 267//267 272//272 270//270
f 267//267 266//266 271//271
f 266//266 273//273 271//271
f 266//266 269//269 273//273
f 272//272 274//274 275//275
f 272//272 275//275 276//276
f 272//272 276//276 270//270
f 272//272 271//271 274//274
f 271//271 277//277 274//274
f 271//271 273//273 277//277
f 275//275 278//278 276//276
f 275//275 279//279 280//280
f 275//275 280//280 278//278
f 275//275 274//274 279//279
f 274//274 281//281 279//279
f 274//274 277//277 281//281
f 280//280 282//282 283//283
f 280//280 283//283 284//284
f 280//280 279//279 282//282
f 280//280 284//284 278//278
f 279//279 285//285 282//282
f 279//279 281//281 285//285
f 283//283 286//286 284//284
f 283//283 287//287 286//286
f 283//283 288//288 287//287
f 283//283 282//282 288//288
f 282//282 289//289 288//288
f 282//282 285//285 289//289
f 287//287 41//41 286//286
f 287//287 288//288 224//224
f 287//287 224//224 223//223
f 287//287 223//223 41//41
f 288//288 289//289 227//227
f 288//288 227//227 224//224
f 254//254 256//256 290//290
f 254//254 291//291 255//255
f 254//254 292//292 291//291
f 254//254 290//290 292//292
f 255//255 293//293 265//265
f 255//255 291//291 293//293
f 265//265 293//293 294//294
f 265//265 294//294 269//269
f 269//269 295//295 273//273
f 269//269 294//294 295//295
f 273//273 296//296 277//277
f 273//273 295//295 296//296
f 277//277 297//297 281//281
f 277//277 298//298 297//297
f 277//277 296//296 298//298
f 281//281 297//297 299//299
f 281//281 299//299 285//285
f 285//285 299//299 300//300
f 285//285 300//300 289//289
f 289//289 300//300 228//228
f 289//289 228//228 227//227
f 292//292 290//290 301//301
f 292//292 302//302 291//291
f 292//292 303//303 302//302
f 292//292 301//301 303//303
f 291//291 302//302 304//304
f 291//291 304//304 293//293
f 293//293 305//305 294//294
f 293//293 304//304 305//305
f 294//294 305//305 306//306
f 294//294 306//306 295//295
f 295//295 298//298 296//296
f 295//295 306//306 307//307
f 295//295 307//307 298//298
f 298//298 308//308 297//297
f 298//298 307//307 308//308
f 297//297 308//308 309//309
f 297//297 309//309 299//299
f 299//299 309//309 310//310
f 299//299 310//310 300//300
f 300//300 310//310 234//234
f 300//300 234//234 228//228
f 303//303 311//311 302//302
f 303//303 312//312 311//311
f 303//303 313//313 312//312
f 303//303 301//301 313//313
f 302//302 314//314 304//304
f 302//302 311//311 314//314
f 304//304 314//314 315//315
f 304//304 315//315 305//305
f 305//305 316//316 306//306
f 305//305 315//315 316//316
f 306//306 317//317 307//307
f 306//306 316//316 317//317
f 307//307 317//317 318//318
f 307//307 318//318 308//308
f 308//308 318//318 319//319
f 308//308 319//319 309//309
f 309//309 319//319 320//320
f 309//309 320//320 310//310
f 310//310 320//320 236//236
f 310//310 236//236 234//234
f 312//312 321//321 322//322
f 312//312 323//323 321//321
f 312//312 322//322 311//311
f 312//312 313//313 323//323
f 311//311 324//324 314//314
f 311//311 322//322 324//324
f 314//314 324//324 325//325
f 314//314 325//325 315//315
f 315//315 326//326 316//316
f 315//315 325//325 326//326
f 316//316 326//326 327//327
f 316//316 327//327 317//317
f 317//317 327//327 328//328
f 317//317 328//328 318//318
f 318//318 328//328 329//329
f 318//318 329//329 319//319
f 319//319 329//329 330//330
f 319//319 330//330 320//320
f 320//320 240//240 236//236
f 320//320 330//330 240//240
f 321//321 323//323 331//331
f 321//321 332//332 322//322
f 321//321 333//333 332//332
f 321//321 331//331 333//333
f 322//322 332//332 334//334
f 322//322 334//334 324//324
f 324//324 334//334 335//335
f 324//324 335//335 325//325
f 325//325 335//335 336//336
f 325//325 336//336 326//326
f 326//326 337//337 327//327
f 326//326 336//336 337//337
f 327//327 338//338 328//328
f 327//327 337//337 338//338
f 328//328 339//339 329//329
f 328//328 338//338 339//339
f 329//329 339//339 340//340
f 329//329 340//340 330//330
f 330//330 340//340 246//246
f 330//330 246//246 240//240
f 333//333 331//331 341//341
f 333//333 342//342 332//332
f 333//333 343//343 342//342
f 333//333 341//341 343//343
f 332//332 344//344 334//334
f 332//332 342//342 344//344
f 334//334 344//344 345//345
f 334//334 345//345 335//335
f 335//335 346//346 336//336
f 335//335 345//345 346//346
f 336//336 347//347 337//337
f 336//336 346//346 347//347
f 337//337 348//348 338//338
f 337//337 347//347 348//348
f 338//338 349//349 339//339
f 338//338 348//348 349//349
f 339//339 349//349 350//350
f 339//339 350//350 340//340
f 340//340 350//350 249//249
f 340//340 249//249 246//246
f 343//343 24//24 342//342
f 343//343 26//26 24//24
f 343//343 25//25 26//26
f 343//343 341//341 25//25
f 342//342 351//351 344//344
f 342//342 24//24 351//351
f 344//344 351//351 352//352
f 344//344 352//352 345//345
f 345//345 352//352 353//353
f 345//345 353//353 346//346
f 346//346 354//354 347//347
f 346//346 353//353 354//354
f 347//347 355//355 348//348
f 347//347 354//354 355//355
f 348//348 356//356 349//349
f 348//348 355//355 356//356
f 349//349 357//357 350//350
f 349//349 356//356 357//357
f 350//350 357//357 69//69
f 350//350 69//69 249//249
f 24//24 23//23 57//57
f 24//24 57//57 351//351
f 351//351 358//358 352//352
f 351//351 57//57 358//358
f 352//352 358//358 359//359
f 352//352 359//359 353//353
f 353//353 359//359 360//360
f 353//353 360//360 354//354
f 354//354 361//361 355//355
f 354//354 360//360 361//361
f 355//355 362//362 356//356
f 355//355 361//361 362//362
f 356//356 363//363 357//357
f 356//356 362//362 363//363
f 357//357 363//363 63//63
f 357//357 63//63 69//69
f 57//57 58//58 364//364
f 57//57 364//364 358//358
f 358//358 365//365 359//359
f 358//358 364//364 365//365
f 359//359 365//365 366//366
f 359//359 366//366 360//360
f 360//360 367//367 361//361
f 360//360 366//366 367//367
f 361//361 368//368 362//362
f 361//361 367//367 368//368
f 362//362 368//368 369//369
f 362//362 369//369 363//363
f 363//363 64//64 63//63
f 363//363 369//369 64//64
f 58//58 370//370 364//364
f 58//58 56//56 370//370
f 364//364 370//370 371//371
f 364//364 371//371 365//365
f 365//365 372//372 366//366
f 365//365 371//371 372//372
f 366//366 372//372 373//373
f 366//366 373//373 367//367
f 367//367 373//373 374//374
f 367//367 374//374 368//368
f 368//368 375//375 369//369
f 368//368 374//374 375//375
f 369//369 375//375 65//65
f 369//369 65//65 64//64
f 11//11 262//262 268//268
f 11//11 268//268 97//97
f 11//11 7//7 259//259
f 11//11 259//259 262//262
f 259//259 7//7 8//8
f 259//259 8//8 257//257
f 30//30 29//29 231//231
f 30//30 231//231 73//73
f 97//97 268//268 270//270
f 97//97 270//270 96//96
f 96//96 270//270 276//276
f 96//96 276//276 92//92
f 276//276 278//278 84//84
f 276//276 84//84 92//92
f 278//278 284//284 79//79
f 278//278 79//79 84//84
f 79//79 284//284 286//286
f 79//79 286//286 80//80
f 80//80 41//41 39//39
f 80//80 286//286 41//41
f 73//73 235//235 124//124
f 73//73 231//231 235//235
f 124//124 239//239 120//120
f 124//124 235//235 239//239
f 120//120 239//239 243//243
f 120//120 243//243 115//115
f 243//243 112//112 115//115
f 243//243 247//247 112//112
f 247//247 107//107 112//112
f 247//247 251//251 107//107
f 107//107 251//251 252//252
f 107//107 252//252 104//104
f 104//104 55//55 51//51
f 104//104 252//252 55//55
f 48//48 65//65 99//99
f 48//48 50//50 65//65
f 99//99 375//375 128//128
f 99//99 65//65 375//375
f 128//128 375//375 374//374
f 128//128 374//374 138//138
f 138//138 373//373 146//146
f 138//138 374//374 373//373
f 146//146 372//372 157//157
f 146//146 373//373 372//372
f 157//157 371//371 175//175
f 157//157 372//372 371//371
f 175//175 370//370 187//187
f 175//175 371//371 370//370
f 187//187 370//370 56//56
f 187//187 56//56 59//59
f 25//25 341//341 213//213
f 25//25 213//213 27//27
f 341//341 214//214 213//213
f 341//341 331//331 214//214
f 331//331 215//215 214//214
f 331//331 323//323 215//215
f 323//323 313//313 216//216
f 323//323 216//216 215//215
f 313//313 217//217 216//216
f 313//313 301//301 217//217
f 301//301 218//218 217//217
f 301//301 290//290 218//218
f 290//290 4//4 218//218
f 290//290 256//256 4//4
f 256//256 8//8 4//4
f 256//256 257//257 8//8
