# Blender 5.1.2
# www.blender.org
o psm_tool_suction_irrigator_body
v 0.001750 -0.003031 -0.408798
v 0.002096 -0.003637 -0.408798
v -0.000000 -0.004200 -0.408798
v -0.000000 -0.004200 0.000000
v -0.000000 -0.004200 -0.408798
v 0.002096 -0.003637 -0.408798
v -0.000000 -0.003500 -0.408798
v -0.002096 -0.003637 -0.408798
v -0.001232 -0.004015 -0.000497
v -0.002096 -0.003637 -0.408798
v -0.000000 -0.004200 -0.408798
v -0.000117 -0.004198 -0.000024
v -0.000060 -0.004200 -0.000006
v -0.000000 -0.004200 0.000000
v 0.003031 -0.001750 -0.408798
v 0.003637 -0.002096 -0.408798
v 0.002244 -0.003550 -0.000927
v 0.003637 -0.002096 -0.408798
v 0.000060 -0.004200 -0.000006
v 0.000117 -0.004198 -0.000024
v 0.001232 -0.004015 -0.000497
v 0.003637 0.002096 -0.408798
v 0.004200 -0.000000 -0.408798
v 0.003699 -0.001989 -0.001544
v 0.004200 -0.000000 -0.408798
v 0.003500 -0.000000 -0.408798
v 0.003700 0.001988 -0.001544
v 0.003637 0.002096 -0.408798
v 0.004200 -0.000001 -0.001757
v 0.003031 0.001750 -0.408798
v 0.002096 0.003637 -0.408798
v 0.002244 0.003550 -0.000927
v 0.002096 0.003637 -0.408798
v 0.000000 0.003500 -0.408798
v 0.000000 0.004200 -0.408798
v 0.001232 0.004015 -0.000497
v 0.000000 0.004200 -0.408798
v 0.001750 0.003031 -0.408798
v -0.001750 0.003031 -0.408798
v -0.002096 0.003637 -0.408798
v 0.000000 0.004200 0.000000
v 0.000000 0.004200 -0.408798
v -0.002096 0.003637 -0.408798
v 0.000060 0.004200 -0.000006
v 0.000000 0.004200 0.000000
v 0.000117 0.004198 -0.000024
v -0.003031 0.001750 -0.408798
v -0.003637 0.002096 -0.408798
v -0.002244 0.003550 -0.000927
v -0.003637 0.002096 -0.408798
v -0.001232 0.004015 -0.000497
v -0.000117 0.004198 -0.000024
v -0.000060 0.004200 -0.000006
v -0.003637 -0.002096 -0.408798
v -0.004200 0.000000 -0.408798
v -0.003699 0.001989 -0.001544
v -0.004200 0.000000 -0.408798
v -0.003500 0.000000 -0.408798
v -0.003700 -0.001988 -0.001544
v -0.003637 -0.002096 -0.408798
v -0.004200 0.000001 -0.001757
v -0.003031 -0.001750 -0.408798
v -0.002244 -0.003550 -0.000927
v -0.001750 -0.003031 -0.408798
v -0.003500 0.000000 -0.001460
v -0.003500 0.000000 -0.408798
v -0.003031 0.001750 -0.408798
v -0.003086 -0.001652 -0.001284
v -0.003031 -0.001750 -0.408798
v -0.003500 0.000000 -0.408798
v -0.003500 0.000000 -0.001460
v -0.001881 0.002952 -0.000772
v -0.001750 0.003031 -0.408798
v -0.003086 0.001652 -0.001284
v -0.001042 0.003341 -0.000417
v 0.000000 0.003500 -0.408798
v 0.000000 0.003500 0.000000
v 0.001750 0.003031 -0.408798
v -0.000117 0.003498 -0.000024
v 0.001881 0.002952 -0.000772
v 0.003031 0.001750 -0.408798
v 0.001042 0.003341 -0.000417
v 0.000117 0.003498 -0.000024
v 0.003086 0.001652 -0.001284
v 0.003500 -0.000000 -0.408798
v 0.003500 -0.000000 -0.001460
v 0.003500 -0.000000 -0.408798
v 0.003031 -0.001750 -0.408798
v 0.003500 -0.000000 -0.001460
v 0.001881 -0.002952 -0.000772
v 0.001750 -0.003031 -0.408798
v 0.003086 -0.001652 -0.001284
v 0.001043 -0.003341 -0.000417
v -0.000000 -0.003500 -0.408798
v -0.000117 -0.003498 -0.000024
v -0.001750 -0.003031 -0.408798
v -0.000000 -0.003500 0.000000
v 0.000117 -0.003498 -0.000024
v -0.001881 -0.002952 -0.000772
v -0.001042 -0.003341 -0.000417
v -0.002244 0.003550 -0.000927
v -0.000117 0.004198 -0.000024
v -0.001232 0.004015 -0.000497
v -0.000117 0.003498 -0.000024
v 0.000000 0.003500 0.000000
v -0.000060 0.004200 -0.000006
v -0.000117 0.004198 -0.000024
v -0.000117 0.003498 -0.000024
v -0.001881 0.002952 -0.000772
v -0.003699 0.001989 -0.001544
v -0.001042 0.003341 -0.000417
v -0.003086 0.001652 -0.001284
v -0.004200 0.000001 -0.001757
v -0.003500 0.000000 -0.001460
v -0.003700 -0.001988 -0.001544
v -0.001881 -0.002952 -0.000772
v -0.002244 -0.003550 -0.000927
v -0.003086 -0.001652 -0.001284
v -0.000117 -0.003498 -0.000024
v -0.001232 -0.004015 -0.000497
v -0.001042 -0.003341 -0.000417
v -0.000117 -0.004198 -0.000024
v -0.000117 -0.003498 -0.000024
v -0.000117 -0.004198 -0.000024
v -0.000060 -0.004200 -0.000006
v -0.000000 -0.004200 0.000000
v -0.000000 -0.003500 0.000000
v 0.000060 -0.004200 -0.000006
v 0.000000 0.004200 0.000000
v 0.000060 0.004200 -0.000006
v 0.000117 -0.004198 -0.000024
v 0.002244 -0.003550 -0.000927
v 0.000117 -0.004198 -0.000024
v 0.001232 -0.004015 -0.000497
v 0.000117 -0.003498 -0.000024
v 0.000117 -0.003498 -0.000024
v 0.001881 -0.002952 -0.000772
v 0.003699 -0.001989 -0.001544
v 0.001043 -0.003341 -0.000417
v 0.003086 -0.001652 -0.001284
v 0.004200 -0.000001 -0.001757
v 0.003500 -0.000000 -0.001460
v 0.003700 0.001988 -0.001544
v 0.001881 0.002952 -0.000772
v 0.002244 0.003550 -0.000927
v 0.003086 0.001652 -0.001284
v 0.000117 0.003498 -0.000024
v 0.001232 0.004015 -0.000497
v 0.001042 0.003341 -0.000417
v 0.000117 0.004198 -0.000024
v 0.000117 0.003498 -0.000024
v 0.000117 0.004198 -0.000024
vn -0.0000 -0.0000 -1.0000
vn -0.0000 -1.0000 -0.0000
vn 0.5003 -0.8659 -0.0001
vn -0.2932 -0.9561 -0.0000
vn -0.5003 -0.8658 -0.0002
vn -0.0279 -0.9996 -0.0000
vn -0.0143 -0.9999 -0.0000
vn 0.5344 -0.8452 -0.0000
vn 0.8659 -0.5003 -0.0001
vn 0.0142 -0.9999 -0.0000
vn 0.0279 -0.9996 -0.0000
vn 0.2932 -0.9561 -0.0000
vn 0.8808 -0.4735 -0.0000
vn 1.0000 -0.0000 -0.0001
vn 0.8808 0.4734 -0.0000
vn 0.8659 0.5003 -0.0001
vn 1.0000 -0.0003 -0.0000
vn 0.5344 0.8452 -0.0000
vn 0.5003 0.8658 -0.0002
vn 0.2932 0.9561 -0.0000
vn -0.0000 1.0000 -0.0000
vn -0.5003 0.8659 -0.0001
vn 0.0142 0.9999 -0.0000
vn 0.0279 0.9996 -0.0000
vn -0.5344 0.8452 -0.0000
vn -0.8659 0.5003 -0.0001
vn -0.2932 0.9561 -0.0000
vn -0.0279 0.9996 -0.0000
vn -0.0142 0.9999 -0.0000
vn -0.8808 0.4735 -0.0000
vn -1.0000 -0.0000 -0.0001
vn -0.8808 -0.4734 -0.0000
vn -0.8659 -0.5003 -0.0001
vn -1.0000 0.0003 -0.0000
vn -0.5344 -0.8452 -0.0000
vn 1.0000 -0.0001 -0.0000
vn 0.8660 -0.5000 -0.0000
vn 0.8816 0.4720 -0.0000
vn 0.8660 0.5000 0.0001
vn 1.0000 0.0001 -0.0000
vn 0.5375 -0.8433 -0.0000
vn 0.5001 -0.8660 0.0002
vn 0.8816 -0.4720 -0.0000
vn 0.2978 -0.9546 -0.0000
vn -0.0001 -1.0000 0.0001
vn -0.5000 -0.8660 -0.0000
vn 0.0335 -0.9994 -0.0000
vn -0.5375 -0.8433 -0.0000
vn -0.8660 -0.5000 0.0001
vn -0.2978 -0.9546 -0.0000
vn -0.0335 -0.9994 -0.0000
vn -0.8816 -0.4720 -0.0000
vn -1.0000 -0.0001 -0.0000
vn -1.0000 0.0001 -0.0000
vn -0.8660 0.5000 -0.0000
vn -0.5375 0.8433 -0.0000
vn -0.5001 0.8660 0.0002
vn -0.8816 0.4720 -0.0000
vn -0.2978 0.9546 -0.0000
vn 0.0001 1.0000 0.0002
vn 0.0335 0.9994 -0.0000
vn 0.5000 0.8660 0.0001
vn -0.0335 0.9994 -0.0000
vn 0.5375 0.8433 -0.0000
vn 0.2978 0.9546 -0.0000
vn -0.3907 0.0001 0.9205
vn -0.3907 -0.0002 0.9205
vn -0.3907 -0.0000 0.9205
vn -0.3908 -0.0002 0.9205
vn -0.0000 -0.0000 1.0000
vn -0.1991 -0.0000 0.9800
vn -0.3907 -0.0001 0.9205
vn -0.3906 -0.0003 0.9206
vn -0.3906 0.0001 0.9206
vn -0.3905 0.0001 0.9206
vn -0.3906 0.0003 0.9206
vn -0.3907 0.0002 0.9205
vn -0.3905 -0.0000 0.9206
vn 0.0008 -0.0000 1.0000
vn 0.1992 -0.0000 0.9800
vn 0.3907 -0.0000 0.9205
vn 0.3907 0.0002 0.9205
vn 0.3908 -0.0001 0.9205
vn 0.3907 0.0001 0.9205
vn 0.3907 -0.0002 0.9205
vn 0.3906 0.0003 0.9206
vn 0.3906 -0.0001 0.9206
vn 0.3905 -0.0001 0.9206
vn 0.3906 -0.0003 0.9206
vn 0.3905 -0.0000 0.9206
vt 0.989851 0.030738
vt 0.989001 0.032284
vt 0.988211 0.022920
vt 0.014264 0.022920
vt 0.989193 0.022920
vt 0.989001 0.013555
vt 0.013969 0.016245
vt 0.014262 0.022286
vt 0.014264 0.022597
vt 0.991650 0.036461
vt 0.991163 0.039168
vt 0.013191 0.035110
vt 0.014264 0.023243
vt 0.014262 0.023553
vt 0.013969 0.029594
vt 0.997048 0.039168
vt 0.994105 0.041682
vt 0.010538 0.043083
vt 0.994105 0.038556
vt 0.003727 0.043084
vt 0.007133 0.045839
vt 0.996561 0.036461
vt 0.999210 0.032284
vt 0.001073 0.035111
vt 0.999018 0.022920
vt 1.000000 0.022920
vt 0.000295 0.029594
vt 0.998360 0.030738
vt 0.998360 0.015101
vt 0.999210 0.013555
vt 0.000000 0.022920
vt 0.000000 0.023242
vt 0.000002 0.023553
vt 0.996561 0.009378
vt 0.997048 0.006671
vt 0.001073 0.010729
vt 0.000295 0.016245
vt 0.000002 0.022286
vt 0.000000 0.022597
vt 0.991163 0.006671
vt 0.994105 0.004157
vt 0.003727 0.002756
vt 0.994105 0.007284
vt 0.010537 0.002755
vt 0.007131 0.000000
vt 0.991650 0.009378
vt 0.013191 0.010728
vt 0.989851 0.015101
vt 0.007132 0.003850
vt 0.009957 0.006124
vt 0.002099 0.012709
vt 0.004307 0.006124
vt 0.001445 0.017272
vt 0.001188 0.022920
vt 0.001191 0.022286
vt 0.002099 0.033130
vt 0.001445 0.028567
vt 0.001191 0.023553
vt 0.004307 0.039715
vt 0.007132 0.041989
vt 0.012166 0.033130
vt 0.009957 0.039715
vt 0.012819 0.028567
vt 0.013073 0.022286
vt 0.013076 0.022921
vt 0.013073 0.023553
vt 0.012166 0.012709
vt 0.012819 0.017272
s 1
f 1/1/1 2/2/1 3/3/1
f 4/4/2 5/3/2 6/2/3
f 7/5/1 3/3/1 8/6/1
f 9/7/4 10/6/5 11/3/2
f 7/5/1 1/1/1 3/3/1
f 12/8/6 9/7/4 11/3/2
f 13/9/7 12/8/6 11/3/2
f 14/4/2 13/9/7 11/3/2
f 15/10/1 16/11/1 2/2/1
f 17/12/8 6/2/3 18/11/9
f 1/1/1 15/10/1 2/2/1
f 19/13/10 4/4/2 6/2/3
f 20/14/11 19/13/10 6/2/3
f 21/15/12 20/14/11 6/2/3
f 17/12/8 21/15/12 6/2/3
f 22/16/1 23/17/1 16/11/1
f 24/18/13 18/11/9 25/17/14
f 26/19/1 22/16/1 16/11/1
f 15/10/1 26/19/1 16/11/1
f 24/18/13 17/12/8 18/11/9
f 27/20/15 25/17/14 28/16/16
f 29/21/17 24/18/13 25/17/14
f 27/20/15 29/21/17 25/17/14
f 30/22/1 31/23/1 22/16/1
f 32/24/18 28/16/16 33/23/19
f 26/19/1 30/22/1 22/16/1
f 32/24/18 27/20/15 28/16/16
f 34/25/1 35/26/1 31/23/1
f 36/27/20 33/23/19 37/26/21
f 38/28/1 34/25/1 31/23/1
f 30/22/1 38/28/1 31/23/1
f 36/27/20 32/24/18 33/23/19
f 39/29/1 40/30/1 35/26/1
f 41/31/21 42/26/21 43/30/22
f 34/25/1 39/29/1 35/26/1
f 44/32/23 37/26/21 45/31/21
f 46/33/24 36/27/20 37/26/21
f 44/32/23 46/33/24 37/26/21
f 47/34/1 48/35/1 40/30/1
f 49/36/25 43/30/22 50/35/26
f 39/29/1 47/34/1 40/30/1
f 51/37/27 52/38/28 43/30/22
f 53/39/29 43/30/22 52/38/28
f 49/36/25 51/37/27 43/30/22
f 53/39/29 41/31/21 43/30/22
f 54/40/1 55/41/1 48/35/1
f 56/42/30 50/35/26 57/41/31
f 58/43/1 54/40/1 48/35/1
f 47/34/1 58/43/1 48/35/1
f 56/42/30 49/36/25 50/35/26
f 59/44/32 57/41/31 60/40/33
f 61/45/34 56/42/30 57/41/31
f 59/44/32 61/45/34 57/41/31
f 62/46/1 8/6/1 54/40/1
f 63/47/35 60/40/33 10/6/5
f 62/46/1 54/40/1 58/43/1
f 63/47/35 59/44/32 60/40/33
f 64/48/1 7/5/1 8/6/1
f 62/46/1 64/48/1 8/6/1
f 9/7/4 63/47/35 10/6/5
f 65/49/36 66/43/36 67/34/37
f 68/50/38 69/46/39 70/43/40
f 68/50/38 70/43/40 71/49/40
f 72/51/41 67/34/37 73/29/42
f 74/52/43 65/49/36 67/34/37
f 74/52/43 67/34/37 72/51/41
f 75/53/44 73/29/42 76/25/45
f 72/51/41 73/29/42 75/53/44
f 77/54/2 76/25/45 78/28/46
f 75/53/44 76/25/45 79/55/47
f 77/54/2 79/55/47 76/25/45
f 80/56/48 78/28/46 81/22/49
f 82/57/50 83/58/51 78/28/46
f 77/54/2 78/28/46 83/58/51
f 82/57/50 78/28/46 80/56/48
f 84/59/52 81/22/49 85/19/53
f 80/56/48 81/22/49 84/59/52
f 86/60/54 87/19/54 88/10/55
f 84/59/52 85/19/53 89/60/53
f 90/61/56 88/10/55 91/1/57
f 92/62/58 88/10/55 90/61/56
f 86/60/54 88/10/55 92/62/58
f 93/63/59 91/1/57 94/5/60
f 90/61/56 91/1/57 93/63/59
f 95/64/61 94/5/60 96/48/62
f 97/65/21 94/5/60 95/64/61
f 93/63/59 94/5/60 98/66/63
f 97/65/21 98/66/63 94/5/60
f 99/67/64 96/48/62 69/46/39
f 100/68/65 96/48/62 99/67/64
f 95/64/61 96/48/62 100/68/65
f 99/67/64 69/46/39 68/50/38
f 101/36/66 102/38/67 103/37/68
f 104/55/69 102/38/67 101/36/66
f 105/54/70 106/39/71 107/38/68
f 105/54/70 107/38/68 108/55/68
f 109/51/66 101/36/66 110/42/72
f 111/53/68 104/55/69 101/36/66
f 109/51/66 111/53/68 101/36/66
f 112/52/73 110/42/72 113/45/74
f 112/52/73 109/51/66 110/42/72
f 114/49/75 113/45/74 115/44/74
f 112/52/73 113/45/74 114/49/75
f 116/67/72 115/44/74 117/47/68
f 118/50/68 114/49/75 115/44/74
f 116/67/72 118/50/68 115/44/74
f 119/64/76 117/47/68 120/7/77
f 121/68/68 116/67/72 117/47/68
f 119/64/76 121/68/68 117/47/68
f 119/64/76 120/7/77 122/8/78
f 123/64/68 124/8/68 125/9/71
f 123/64/68 125/9/71 126/4/70
f 127/65/79 126/4/70 128/13/80
f 127/65/79 123/64/68 126/4/70
f 105/54/70 129/31/70 106/39/71
f 105/54/70 130/32/80 129/31/70
f 127/65/79 128/13/80 131/14/81
f 132/12/81 133/14/82 134/15/81
f 135/66/83 133/14/82 132/12/81
f 127/65/79 131/14/81 136/66/81
f 137/61/81 132/12/81 138/18/84
f 139/63/85 135/66/83 132/12/81
f 137/61/81 139/63/85 132/12/81
f 140/62/86 138/18/84 141/21/87
f 140/62/86 137/61/81 138/18/84
f 142/60/88 141/21/87 143/20/87
f 142/60/88 140/62/86 141/21/87
f 144/56/84 143/20/87 145/24/81
f 146/59/81 142/60/88 143/20/87
f 144/56/84 146/59/81 143/20/87
f 147/58/89 145/24/81 148/27/85
f 149/57/81 145/24/81 147/58/89
f 149/57/81 144/56/84 145/24/81
f 147/58/89 148/27/85 150/33/90
f 151/58/81 152/33/81 130/32/80
f 105/54/70 151/58/81 130/32/80
