# Blender 5.1.2
# www.blender.org
o Main_Insertion_Link_3_Main_Insertion_Link.003
v 0.000000 -0.004193 -0.375899
v -0.002100 -0.003566 -0.009099
v -0.002100 -0.003630 -0.375899
v -0.003637 -0.002028 -0.009100
v -0.003637 -0.002093 -0.375900
v -0.004200 0.000072 -0.009100
v -0.004200 0.000007 -0.375900
v -0.003637 0.002172 -0.009100
v -0.003637 0.002107 -0.375900
v -0.002100 0.003709 -0.009101
v -0.002100 0.003644 -0.375901
v 0.000000 0.004272 -0.009101
v 0.000000 0.004207 -0.375901
v 0.002100 0.003709 -0.009101
v 0.002100 0.003644 -0.375901
v 0.003637 0.002172 -0.009100
v 0.003637 0.002107 -0.375900
v 0.004200 0.000072 -0.009100
v 0.004200 0.000007 -0.375900
v 0.003637 -0.002028 -0.009100
v 0.003637 -0.002093 -0.375900
v 0.002100 -0.003566 -0.009099
v 0.002100 -0.003630 -0.375899
v 0.000000 -0.004128 -0.009099
v 0.000000 0.000072 -0.009100
v 0.000000 -0.005693 -0.377399
v -0.002850 -0.004930 -0.377399
v -0.004936 -0.002843 -0.377400
v -0.005700 0.000007 -0.377400
v -0.004936 0.002857 -0.377401
v -0.002850 0.004943 -0.377401
v 0.000000 0.005707 -0.377401
v 0.002850 0.004943 -0.377401
v 0.004936 0.002857 -0.377401
v 0.005700 0.000007 -0.377400
v 0.004936 -0.002843 -0.377400
v 0.002850 -0.004930 -0.377399
vn -0.2589 -0.9659 0.0002
vn -0.2585 -0.9660 0.0002
vn -0.2590 -0.9659 0.0002
vn -0.7071 -0.7071 0.0001
vn -0.7073 -0.7069 0.0001
vn -0.9659 -0.2590 -0.0000
vn -0.9659 0.2590 -0.0000
vn -0.7071 0.7071 -0.0001
vn -0.2590 0.9659 -0.0002
vn 0.2590 0.9659 -0.0002
vn 0.7071 0.7071 -0.0001
vn 0.9659 0.2590 -0.0000
vn 0.9659 -0.2590 -0.0000
vn 0.7071 -0.7071 0.0001
vn 0.7073 -0.7069 0.0001
vn 0.2589 -0.9659 0.0002
vn 0.2585 -0.9660 0.0002
vn 0.2590 -0.9659 0.0002
vn -0.0001 0.0002 1.0000
vn -0.0001 0.0003 1.0000
vn -0.0000 0.0002 1.0000
vn 0.0001 0.0003 1.0000
vn -0.0002 -0.0000 1.0000
vn 0.0001 0.0002 1.0000
vn -0.0000 -0.0000 1.0000
vn 0.0002 -0.0000 1.0000
vn -0.1860 -0.6946 0.6950
vn -0.5087 -0.5083 0.6949
vn -0.5089 -0.5083 0.6948
vn -0.6947 -0.1863 0.6948
vn -0.6947 -0.1862 0.6947
vn -0.6947 0.1863 0.6947
vn -0.6949 0.1865 0.6945
vn -0.5085 0.5090 0.6945
vn -0.5086 0.5086 0.6947
vn -0.1863 0.6947 0.6948
vn -0.1862 0.6947 0.6947
vn 0.1862 0.6947 0.6947
vn 0.1862 0.6947 0.6948
vn 0.5083 0.5088 0.6948
vn 0.5088 0.5088 0.6945
vn 0.6949 0.1863 0.6945
vn 0.6947 0.1865 0.6947
vn 0.6947 -0.1863 0.6947
vn 0.6947 -0.1862 0.6947
vn 0.5088 -0.5083 0.6948
vn 0.5088 -0.5082 0.6949
vn 0.1862 -0.6945 0.6950
vn 0.1860 -0.6948 0.6948
vn -0.1863 -0.6947 0.6947
vt 0.032255 0.995925
vt 0.037365 -0.000000
vt 0.037367 0.995925
vt 0.043269 0.000002
vt 0.043269 0.995927
vt 0.048382 0.000001
vt 0.048382 0.995926
vt 0.016127 0.995926
vt 0.016127 0.000001
vt 0.021240 0.000000
vt 0.021240 0.995925
vt 0.027142 0.000002
vt 0.027142 0.995927
vt 0.032255 0.000002
vt 0.032255 0.995926
vt 0.048382 0.995926
vt 0.048382 0.000002
vt 0.053495 0.000002
vt 0.053495 0.995927
vt 0.059396 0.000000
vt 0.059396 0.995925
vt 0.064509 0.000001
vt 0.064509 0.995926
vt 0.000000 0.995926
vt 0.000000 0.000001
vt 0.005113 0.000002
vt 0.005113 0.995927
vt 0.011016 -0.000000
vt 0.011015 0.995925
vt 0.016127 0.000000
vt 0.016127 0.995925
vt 0.032255 0.000000
vt 0.083586 0.019082
vt 0.078474 0.022032
vt 0.075524 0.011017
vt 0.072571 0.022032
vt 0.067459 0.019079
vt 0.083589 0.002953
vt 0.086539 0.008067
vt 0.086539 0.013970
vt 0.067462 0.002953
vt 0.072574 -0.000000
vt 0.078477 0.000003
vt 0.064509 0.013968
vt 0.064509 0.008064
vt 0.070111 0.045247
vt 0.064509 0.039545
vt 0.068039 0.037509
vt 0.036312 0.999998
vt 0.044324 1.000000
vt 0.066584 0.052985
vt 0.070111 0.055021
vt 0.068582 0.060723
vt 0.064509 0.060723
vt 0.070111 0.066425
vt 0.066584 0.068462
vt 0.020187 1.000000
vt 0.028196 0.999999
vt 0.068036 0.083938
vt 0.064509 0.081902
vt 0.066038 0.076200
vt 0.070111 0.076200
vt 0.064509 0.070498
vt 0.068036 0.068462
vt 0.052440 0.999999
vt 0.060450 1.000000
vt 0.068036 0.037509
vt 0.064509 0.035472
vt 0.066038 0.029770
vt 0.070111 0.029770
vt 0.064509 0.024068
vt 0.068036 0.022032
vt 0.004058 1.000000
vt 0.012070 0.999998
vt 0.068039 0.052985
vt 0.064509 0.050949
vt 0.066038 0.045247
s 1
f 1/1/1 2/2/2 3/3/3
f 3/3/4 2/2/5 4/4/5
f 3/3/4 4/4/5 5/5/4
f 5/5/6 4/4/6 6/6/6
f 5/5/6 6/6/6 7/7/6
f 7/8/7 6/9/7 8/10/7
f 7/8/7 8/10/7 9/11/7
f 9/11/8 8/10/8 10/12/8
f 9/11/8 10/12/8 11/13/8
f 11/13/9 10/12/9 12/14/9
f 11/13/9 12/14/9 13/15/9
f 13/16/10 12/17/10 14/18/10
f 13/16/10 14/18/10 15/19/10
f 15/19/11 14/18/11 16/20/11
f 15/19/11 16/20/11 17/21/11
f 17/21/12 16/20/12 18/22/12
f 17/21/12 18/22/12 19/23/12
f 19/24/13 18/25/13 20/26/13
f 19/24/13 20/26/13 21/27/13
f 21/27/14 20/26/15 22/28/15
f 21/27/14 22/28/15 23/29/14
f 23/29/16 22/28/17 24/30/17
f 23/29/16 24/30/17 1/31/18
f 1/1/1 24/32/2 2/2/2
f 16/33/19 14/34/20 25/35/21
f 25/35/21 14/34/20 12/36/21
f 25/35/21 12/36/21 10/37/22
f 22/38/23 20/39/24 25/35/21
f 25/35/21 20/39/24 18/40/25
f 25/35/21 18/40/25 16/33/19
f 4/41/19 2/42/26 25/35/21
f 25/35/21 2/42/26 24/43/21
f 25/35/21 24/43/21 22/38/23
f 10/37/22 8/44/24 25/35/21
f 25/35/21 8/44/24 6/45/25
f 25/35/21 6/45/25 4/41/19
f 26/46/27 3/47/27 27/48/27
f 27/49/28 3/3/28 5/5/28
f 27/49/29 5/5/29 28/50/29
f 28/51/30 5/52/30 7/53/30
f 28/51/31 7/53/31 29/54/31
f 29/54/32 7/53/32 9/55/32
f 29/54/33 9/55/33 30/56/33
f 30/57/34 9/11/34 11/13/34
f 30/57/35 11/13/35 31/58/35
f 31/59/36 11/60/36 13/61/36
f 31/59/37 13/61/37 32/62/37
f 32/62/38 13/61/38 15/63/38
f 32/62/39 15/63/39 33/64/39
f 33/65/40 15/19/40 17/21/40
f 33/65/41 17/21/41 34/66/41
f 34/67/42 17/68/42 19/69/42
f 34/67/43 19/69/43 35/70/43
f 35/70/44 19/69/44 21/71/44
f 35/70/45 21/71/45 36/72/45
f 36/73/46 21/27/46 23/29/46
f 36/73/47 23/29/47 37/74/47
f 37/75/48 23/76/48 1/77/48
f 37/75/49 1/77/49 26/46/49
f 26/46/50 1/77/50 3/47/50
o tool_roll_link
v 0.002658 -0.003200 -0.000749
v 0.002650 -0.003207 -0.000749
v 0.002658 -0.003201 -0.003599
v 0.002572 -0.003272 -0.009099
v 0.003144 -0.002725 -0.003600
v 0.002633 -0.003221 -0.000451
v 0.002581 -0.003263 -0.000160
v 0.003144 -0.002726 -0.009100
v 0.003603 -0.002082 -0.009100
v 0.003603 -0.002081 -0.003600
v 0.003931 -0.001362 -0.009100
v 0.003931 -0.001361 -0.003600
v 0.004118 -0.000594 -0.009100
v 0.004118 -0.000593 -0.003600
v 0.004155 0.000196 -0.009100
v 0.004155 0.000197 -0.003600
v 0.004043 0.000979 -0.009100
v 0.004043 0.000980 -0.003600
v 0.003784 0.001727 -0.009100
v 0.003784 0.001728 -0.003600
v 0.003389 0.002411 -0.009100
v 0.003389 0.002412 -0.003600
v 0.002871 0.003009 -0.009101
v 0.002871 0.003010 -0.003601
v 0.002249 0.003498 -0.009101
v 0.002388 0.003407 0.000399
v 0.002500 0.003325 0.000128
v 0.002584 0.003260 -0.000161
v 0.002633 0.003221 -0.000452
v 0.002650 0.003207 -0.000751
v 0.002658 0.003200 -0.000751
v 0.002658 0.003199 -0.003601
v 0.001546 0.003860 -0.009101
v 0.001545 0.003860 0.001395
v 0.001652 0.003818 0.001321
v 0.001874 0.003714 0.001123
v 0.002072 0.003608 0.000902
v 0.002249 0.003500 0.000651
v 0.001353 0.003934 0.001528
v 0.000787 0.004083 -0.009101
v 0.001150 0.003998 0.001637
v 0.000631 0.004112 -0.000304
v 0.000682 0.004104 -0.000156
v 0.000304 0.004149 -0.000631
v 0.000437 0.004137 -0.000548
v 0.000547 0.004124 -0.000437
v 0.000700 0.004101 -0.000001
v 0.000787 0.004085 0.001780
v 0.000682 0.004104 0.000155
v 0.000631 0.004112 0.000303
v 0.000547 0.004124 0.000436
v -0.000630 0.004112 0.000303
v -0.000682 0.004104 0.000155
v -0.000787 0.004085 0.001780
v -0.000547 0.004124 0.000436
v 0.000436 0.004137 0.000547
v 0.000304 0.004149 0.000630
v 0.000590 0.004118 0.001833
v 0.000156 0.004157 0.000682
v 0.000261 0.004152 0.001886
v 0.000000 0.004160 0.000699
v 0.000000 0.004158 0.001896
v -0.000075 0.004160 0.001898
v -0.000156 0.004157 0.000682
v -0.000299 0.004150 0.001882
v -0.000590 0.004118 0.001833
v -0.000304 0.004149 0.000630
v -0.000437 0.004137 0.000546
v -0.000700 0.004101 -0.000001
v -0.000682 0.004104 -0.000156
v -0.000787 0.004083 -0.009101
v -0.000631 0.004112 -0.000305
v -0.000547 0.004124 -0.000437
v -0.000437 0.004137 -0.000548
v -0.000304 0.004149 -0.000631
v -0.000156 0.004157 -0.000683
v 0.000000 0.004158 -0.009101
v 0.000000 0.004160 -0.000701
v 0.000156 0.004157 -0.000683
v -0.001546 0.003860 -0.009101
v -0.001546 0.003862 0.001402
v -0.001354 0.003934 0.001528
v -0.001150 0.003998 0.001637
v -0.002249 0.003498 -0.009101
v -0.002249 0.003500 0.000651
v -0.002072 0.003608 0.000902
v -0.001875 0.003714 0.001122
v -0.001647 0.003817 0.001315
v -0.002658 0.003200 -0.000751
v -0.002650 0.003207 -0.000751
v -0.002658 0.003199 -0.003601
v -0.002871 0.003010 -0.003601
v -0.002633 0.003221 -0.000452
v -0.002584 0.003260 -0.000161
v -0.002500 0.003325 0.000127
v -0.002388 0.003407 0.000399
v -0.002871 0.003009 -0.009101
v -0.003389 0.002411 -0.009100
v -0.003389 0.002412 -0.003600
v -0.003784 0.001727 -0.009100
v -0.003784 0.001728 -0.003600
v -0.004043 0.000979 -0.009100
v -0.004043 0.000980 -0.003600
v -0.004155 0.000196 -0.009100
v -0.004155 0.000197 -0.003600
v -0.004118 -0.000594 -0.009100
v -0.004118 -0.000593 -0.003600
v -0.003931 -0.001362 -0.009100
v -0.003931 -0.001361 -0.003600
v -0.003603 -0.002082 -0.009100
v -0.003603 -0.002081 -0.003600
v -0.003144 -0.002726 -0.009100
v -0.003144 -0.002725 -0.003600
v -0.002650 -0.003207 -0.000749
v -0.002658 -0.003200 -0.000749
v -0.002658 -0.003201 -0.003599
v -0.002572 -0.003272 -0.009099
v -0.001906 -0.003699 -0.009099
v -0.002072 -0.003607 0.000903
v -0.002244 -0.003503 0.000660
v -0.002388 -0.003407 0.000400
v -0.002492 -0.003331 0.000153
v -0.002571 -0.003270 -0.000118
v -0.002584 -0.003261 -0.000160
v -0.002633 -0.003221 -0.000451
v -0.001172 -0.003991 0.001627
v -0.001421 -0.003909 0.001487
v -0.001172 -0.003993 -0.009099
v -0.001652 -0.003818 0.001323
v -0.001906 -0.003697 0.001092
v -0.000547 -0.004124 -0.000436
v -0.000395 -0.004141 -0.000577
v -0.000395 -0.004143 -0.009099
v -0.000304 -0.004149 -0.000630
v -0.000700 -0.004101 0.000000
v -0.000682 -0.004104 -0.000155
v -0.000631 -0.004112 -0.000303
v -0.000682 -0.004104 0.000156
v -0.000631 -0.004112 0.000305
v -0.000547 -0.004124 0.000437
v -0.000395 -0.004141 0.001871
v -0.000590 -0.004118 0.001834
v -0.000395 -0.004141 0.000578
v -0.000877 -0.004066 0.001751
v -0.001149 -0.003997 0.001637
v -0.000304 -0.004149 0.000631
v -0.000156 -0.004157 0.000683
v 0.000000 -0.004160 0.001901
v 0.000000 -0.004160 0.000701
v 0.000395 -0.004141 0.001871
v 0.000156 -0.004157 0.000683
v 0.000304 -0.004149 0.000631
v 0.000395 -0.004141 0.000578
v 0.000590 -0.004118 0.001834
v 0.000878 -0.004066 0.001751
v 0.000682 -0.004104 0.000156
v 0.000700 -0.004101 0.000001
v 0.001172 -0.003990 0.001626
v 0.001150 -0.003998 0.001638
v 0.000547 -0.004124 0.000437
v 0.000630 -0.004112 0.000305
v 0.000682 -0.004104 -0.000155
v 0.001172 -0.003993 -0.009099
v 0.001421 -0.003910 0.001488
v 0.000395 -0.004141 -0.000577
v 0.000395 -0.004143 -0.009099
v 0.000547 -0.004124 -0.000436
v 0.000631 -0.004112 -0.000303
v 0.001906 -0.003699 -0.009099
v 0.001906 -0.003697 0.001092
v 0.001652 -0.003818 0.001323
v 0.002388 -0.003407 0.000400
v 0.002243 -0.003503 0.000661
v 0.002072 -0.003607 0.000903
v 0.002572 -0.003270 -0.000109
v 0.002492 -0.003331 0.000153
v 0.000304 -0.004149 -0.000630
v 0.000156 -0.004157 -0.000682
v 0.000000 -0.004162 -0.009099
v 0.000000 -0.004160 -0.000699
v -0.000156 -0.004157 -0.000682
v 0.000000 -0.000002 -0.009100
v 0.000304 0.003200 -0.000631
v 0.000000 0.003200 -0.000701
v -0.000304 0.003200 0.000630
v 0.000000 0.003200 0.000699
v 0.000000 0.003200 0.001899
v 0.000547 0.003200 0.000436
v 0.000682 0.003200 0.000155
v 0.002650 0.003200 -0.000751
v 0.000682 0.003200 -0.000156
v 0.000547 0.003200 -0.000437
v -0.002650 0.003200 -0.000751
v -0.000304 0.003200 -0.000631
v 0.000590 0.003200 0.001833
v 0.000304 0.003200 0.000630
v 0.001150 0.003200 0.001637
v -0.000547 0.003200 -0.000437
v -0.000682 0.003200 -0.000156
v -0.002584 0.003200 -0.000161
v -0.000682 0.003200 0.000155
v -0.000547 0.003200 0.000436
v -0.002072 0.003200 0.000902
v -0.002388 0.003200 0.000399
v -0.000590 0.003200 0.001833
v -0.001150 0.003200 0.001637
v -0.001652 0.003200 0.001321
v 0.002584 0.003200 -0.000161
v 0.002388 0.003200 0.000399
v 0.002072 0.003200 0.000902
v 0.001652 0.003200 0.001321
v 0.002650 -0.003200 -0.000749
v -0.002584 -0.003200 -0.000160
v -0.002388 -0.003200 0.000400
v -0.002650 -0.003200 -0.000749
v -0.002072 -0.003200 0.000903
v -0.001652 -0.003200 0.001322
v -0.001150 -0.003200 0.001638
v -0.000590 -0.003200 0.001834
v 0.000000 -0.003200 0.001901
v -0.000547 -0.003200 0.000437
v -0.000304 -0.003200 0.000631
v 0.000000 -0.003200 0.000701
v 0.000304 -0.003200 0.000631
v -0.000682 -0.003200 0.000156
v -0.000682 -0.003200 -0.000155
v -0.000547 -0.003200 -0.000436
v -0.000304 -0.003200 -0.000630
v 0.000682 -0.003200 -0.000155
v 0.002584 -0.003200 -0.000160
v 0.000682 -0.003200 0.000156
v 0.000000 -0.003200 -0.000699
v 0.000304 -0.003200 -0.000630
v 0.000547 -0.003200 -0.000436
v 0.000547 -0.003200 0.000437
v 0.002072 -0.003200 0.000903
v 0.002388 -0.003200 0.000400
v 0.000590 -0.003200 0.001834
v 0.001150 -0.003200 0.001638
v 0.001652 -0.003200 0.001322
vn 0.6380 -0.7700 0.0003
vn 0.6278 -0.7784 -0.0003
vn 0.6361 -0.7716 0.0001
vn 0.6272 -0.7788 0.0001
vn 0.6997 -0.7144 -0.0017
vn 0.6973 -0.7168 -0.0014
vn 0.6927 -0.7213 -0.0005
vn 0.6212 -0.7837 -0.0012
vn 0.6253 -0.7804 -0.0004
vn 0.6901 -0.7237 0.0001
vn 0.8146 -0.5800 0.0001
vn 0.8145 -0.5801 0.0001
vn 0.9097 -0.4153 0.0001
vn 0.9096 -0.4154 0.0001
vn 0.9718 -0.2359 -0.0000
vn 0.9718 -0.2357 -0.0000
vn 0.9718 -0.2358 -0.0000
vn 0.9989 -0.0476 -0.0000
vn 0.9989 -0.0477 -0.0000
vn 0.9989 -0.0475 -0.0000
vn 0.9898 0.1424 -0.0000
vn 0.9898 0.1423 -0.0000
vn 0.9898 0.1425 -0.0000
vn 0.9450 0.3272 -0.0001
vn 0.8660 0.5001 -0.0001
vn 0.7556 0.6550 -0.0001
vn 0.7555 0.6551 -0.0001
vn 0.5866 0.8099 -0.0008
vn 0.6230 0.7822 -0.0013
vn 0.6380 0.7700 -0.0001
vn 0.6650 0.7469 -0.0001
vn 0.6180 0.7861 -0.0032
vn 0.5928 0.8053 -0.0004
vn 0.6130 0.7901 -0.0019
vn 0.5990 0.8007 -0.0057
vn 0.3617 0.9323 -0.0000
vn 0.3615 0.9324 -0.0000
vn 0.3617 0.9323 0.0001
vn 0.4237 0.9058 -0.0007
vn 0.4723 0.8814 -0.0025
vn 0.4581 0.8889 -0.0016
vn 0.5195 0.8544 -0.0002
vn 0.5574 0.8303 -0.0001
vn 0.2819 0.9594 -0.0016
vn 0.2997 0.9540 -0.0026
vn 0.1585 0.9874 -0.0004
vn 0.0905 0.9959 -0.0025
vn 0.1192 0.9929 -0.0013
vn 0.1426 0.9898 -0.0007
vn 0.1673 0.9859 -0.0004
vn 0.1715 0.9852 -0.0003
vn 0.1712 0.9852 -0.0003
vn 0.1788 0.9839 -0.0002
vn 0.2330 0.9725 -0.0002
vn 0.1700 0.9854 0.0003
vn 0.1628 0.9867 0.0005
vn 0.1676 0.9859 0.0003
vn 0.1608 0.9870 0.0009
vn 0.1458 0.9893 0.0025
vn -0.1608 0.9870 0.0009
vn -0.1459 0.9893 0.0025
vn 0.1247 0.9922 0.0064
vn 0.0979 0.9951 0.0141
vn 0.1621 0.9867 -0.0134
vn 0.0593 0.9982 0.0114
vn 0.1020 0.9948 -0.0048
vn 0.0202 0.9998 0.0023
vn 0.0195 0.9998 0.0025
vn 0.0221 0.9998 0.0018
vn 0.0224 0.9997 0.0018
vn -0.0189 0.9998 -0.0010
vn -0.0449 0.9990 0.0009
vn -0.1058 0.9944 -0.0063
vn -0.0593 0.9982 0.0114
vn -0.1621 0.9867 -0.0134
vn -0.0979 0.9951 0.0141
vn -0.1248 0.9922 0.0064
vn -0.1673 0.9859 -0.0004
vn -0.1606 0.9870 -0.0003
vn -0.1649 0.9863 -0.0003
vn -0.1584 0.9874 -0.0004
vn -0.1426 0.9898 -0.0007
vn -0.1192 0.9929 -0.0013
vn -0.0905 0.9959 -0.0025
vn -0.0568 0.9984 -0.0045
vn -0.0949 0.9955 -0.0016
vn -0.0193 0.9998 -0.0002
vn 0.0949 0.9955 -0.0002
vn 0.0196 0.9998 -0.0073
vn 0.0567 0.9984 -0.0045
vn -0.2819 0.9594 -0.0002
vn -0.3458 0.9383 -0.0052
vn -0.1700 0.9854 0.0003
vn -0.1734 0.9848 0.0001
vn -0.1730 0.9849 0.0001
vn -0.1788 0.9839 -0.0002
vn -0.2330 0.9725 -0.0002
vn -0.2998 0.9540 -0.0026
vn -0.4581 0.8889 -0.0002
vn -0.5142 0.8577 -0.0053
vn -0.4724 0.8814 -0.0025
vn -0.4114 0.9114 -0.0002
vn -0.4115 0.9114 -0.0002
vn -0.6380 0.7700 -0.0003
vn -0.6380 0.7700 -0.0001
vn -0.5928 0.8053 -0.0004
vn -0.6648 0.7470 -0.0089
vn -0.6230 0.7822 -0.0013
vn -0.5991 0.8007 -0.0056
vn -0.6129 0.7901 -0.0019
vn -0.5866 0.8099 -0.0008
vn -0.5574 0.8303 -0.0001
vn -0.6180 0.7861 -0.0001
vn -0.7555 0.6551 -0.0001
vn -0.7556 0.6550 -0.0001
vn -0.8660 0.5001 -0.0001
vn -0.9450 0.3272 -0.0001
vn -0.9898 0.1423 -0.0000
vn -0.9898 0.1424 -0.0000
vn -0.9989 -0.0475 -0.0000
vn -0.9989 -0.0476 -0.0000
vn -0.9718 -0.2358 -0.0000
vn -0.9718 -0.2357 -0.0000
vn -0.9097 -0.4153 0.0001
vn -0.9096 -0.4154 0.0001
vn -0.8145 -0.5801 0.0001
vn -0.8146 -0.5800 0.0001
vn -0.8143 -0.5804 0.0001
vn -0.6380 -0.7701 0.0001
vn -0.6997 -0.7144 0.0001
vn -0.6973 -0.7168 -0.0003
vn -0.6927 -0.7213 -0.0011
vn -0.6901 -0.7237 -0.0015
vn -0.6301 -0.7765 0.0001
vn -0.6294 -0.7770 0.0001
vn -0.6287 -0.7776 0.0001
vn -0.5180 -0.8554 -0.0007
vn -0.5536 -0.8328 -0.0024
vn -0.5796 -0.8149 -0.0043
vn -0.5407 -0.8412 -0.0008
vn -0.6101 -0.7923 0.0002
vn -0.6263 -0.7796 0.0002
vn -0.5977 -0.8017 -0.0056
vn -0.6230 -0.7822 -0.0010
vn -0.3120 -0.9501 0.0002
vn -0.3695 -0.9292 -0.0013
vn -0.3686 -0.9296 -0.0013
vn -0.3704 -0.9289 -0.0014
vn -0.3718 -0.9283 -0.0015
vn -0.4280 -0.9038 0.0002
vn -0.4782 -0.8782 0.0002
vn -0.1193 -0.9928 -0.0064
vn -0.1896 -0.9819 0.0002
vn -0.0840 -0.9965 0.0002
vn -0.2619 -0.9650 -0.0110
vn -0.2233 -0.9747 0.0002
vn -0.1668 -0.9860 -0.0031
vn -0.1486 -0.9889 -0.0042
vn -0.2094 -0.9778 0.0054
vn -0.1900 -0.9817 0.0118
vn -0.1717 -0.9850 0.0196
vn -0.1184 -0.9930 0.0002
vn -0.1741 -0.9847 -0.0086
vn -0.1243 -0.9922 0.0123
vn -0.2395 -0.9707 -0.0174
vn -0.2393 -0.9708 -0.0175
vn -0.2394 -0.9708 -0.0176
vn -0.0539 -0.9985 0.0028
vn -0.0560 -0.9984 0.0023
vn -0.0494 -0.9988 0.0038
vn -0.0480 -0.9988 0.0039
vn -0.0188 -0.9998 0.0002
vn 0.0476 -0.9989 0.0002
vn 0.0199 -0.9998 0.0096
vn 0.0560 -0.9984 0.0023
vn 0.0840 -0.9965 0.0002
vn 0.1184 -0.9930 0.0002
vn 0.1740 -0.9847 -0.0086
vn 0.2101 -0.9777 0.0053
vn 0.2308 -0.9725 -0.0327
vn 0.1427 -0.9892 0.0323
vn 0.2868 -0.9570 -0.0434
vn 0.1723 -0.9848 0.0199
vn 0.1907 -0.9816 0.0120
vn 0.2641 -0.9644 -0.0113
vn 0.2245 -0.9745 0.0002
vn 0.3092 -0.9510 0.0002
vn 0.1132 -0.9936 0.0002
vn 0.1896 -0.9819 -0.0012
vn 0.1480 -0.9890 -0.0043
vn 0.1668 -0.9860 -0.0031
vn 0.3718 -0.9283 0.0002
vn 0.4246 -0.9054 -0.0043
vn 0.3685 -0.9296 -0.0013
vn 0.5535 -0.8328 -0.0024
vn 0.5180 -0.8554 -0.0007
vn 0.4782 -0.8782 0.0002
vn 0.6256 -0.7802 0.0001
vn 0.5405 -0.8413 0.0001
vn 0.5962 -0.8028 -0.0058
vn 0.5796 -0.8149 -0.0043
vn 0.0533 -0.9986 -0.0002
vn 0.0554 -0.9985 -0.0001
vn 0.0493 -0.9988 -0.0004
vn 0.0480 -0.9988 -0.0003
vn 0.0189 -0.9998 0.0002
vn -0.0477 -0.9989 0.0002
vn -0.0189 -0.9998 -0.0012
vn -0.0554 -0.9985 -0.0001
vn -0.0000 -0.0002 -1.0000
vn 0.0001 -0.0002 -1.0000
vn -0.0000 -0.0000 -1.0000
vn -0.0001 -0.0002 -1.0000
vn -0.0001 -0.0000 1.0000
vn 0.0001 0.0003 1.0000
vn -0.0000 0.0002 1.0000
vn -0.0000 -0.0000 1.0000
vn -0.0000 0.0003 1.0000
vn -0.0001 0.0001 1.0000
vn -0.0001 0.0004 1.0000
vn -0.0002 -0.0001 1.0000
vn -0.0002 -0.0000 1.0000
vn -0.0001 -1.0000 0.0003
vn 0.0001 -1.0000 0.0004
vn -0.0000 -1.0000 0.0003
vn -0.0000 -1.0000 -0.0000
vn -0.0001 -1.0000 0.0002
vn -0.0000 -1.0000 0.0004
vn -0.0000 -1.0000 0.0002
vn -0.0000 1.0000 -0.0000
vn -0.0000 1.0000 -0.0004
vn -0.0000 1.0000 -0.0002
vn -0.0000 1.0000 -0.0003
vn -0.0001 1.0000 -0.0002
vn -0.0001 1.0000 -0.0003
vn 0.0001 1.0000 -0.0004
vn -0.9218 0.0001 0.3878
vn 0.9984 -0.0000 0.0570
vn 0.7729 0.6286 0.0870
vn 0.9842 -0.0460 0.1709
vn 0.9516 0.0544 0.3025
vn 0.9365 0.1249 0.3277
vn 0.9218 0.0001 0.3878
vn 0.8751 0.0001 0.4839
vn 0.8454 0.0549 0.5312
vn 0.8155 0.0001 0.5788
vn 0.7513 -0.0000 0.6599
vn 0.7067 0.0328 0.7067
vn 0.6728 0.0002 0.7398
vn 0.5806 0.0002 0.8142
vn 0.5319 0.0236 0.8465
vn 0.4858 0.0002 0.8741
vn 0.3303 0.0194 0.9437
vn 0.3832 0.0002 0.9236
vn 0.1121 0.0159 0.9936
vn 0.1861 0.0001 0.9825
vn 0.2773 0.0002 0.9608
vn -0.1122 0.0159 0.9936
vn -0.0748 0.0002 0.9972
vn 0.0748 0.0002 0.9972
vn -0.3303 0.0190 0.9437
vn -0.2773 0.0002 0.9608
vn -0.1861 0.0001 0.9825
vn -0.4895 0.0019 0.8720
vn -0.3880 -0.0016 0.9217
vn -0.3877 -0.0016 0.9218
vn -0.5688 0.0430 0.8214
vn -0.5320 0.0001 0.8467
vn -0.6728 0.0002 0.7398
vn -0.7067 0.0328 0.7067
vn -0.7513 -0.0000 0.6599
vn -0.8468 -0.0000 0.5320
vn -0.8588 0.0832 0.5054
vn -0.8156 0.0001 0.5786
vn -0.9374 0.1568 0.3110
vn -0.9434 0.0312 0.3301
vn -0.9594 -0.0000 0.2821
vn -0.9858 -0.0000 0.1679
vn -0.7730 0.6284 0.0870
vn -0.9984 -0.0000 0.0570
vn 0.9237 0.0001 0.3832
vn -0.9984 -0.0002 0.0563
vn -0.7729 -0.6285 0.0872
vn -0.9608 0.0001 0.2774
vn -0.9356 -0.1323 0.3274
vn -0.9237 0.0001 0.3831
vn -0.8761 0.0001 0.4822
vn -0.8454 -0.0555 0.5312
vn -0.8167 0.0001 0.5771
vn -0.7457 0.0001 0.6662
vn -0.7067 -0.0323 0.7067
vn -0.6507 0.0123 0.7592
vn -0.6508 0.0123 0.7592
vn -0.5337 -0.0182 0.8455
vn -0.5320 -0.0173 0.8466
vn -0.5399 -0.0232 0.8414
vn -0.5409 -0.0248 0.8407
vn -0.3303 -0.0170 0.9437
vn -0.3665 -0.0000 0.9304
vn -0.4728 0.0002 0.8812
vn 0.0352 0.0041 0.9994
vn -0.0705 -0.0043 0.9975
vn -0.1118 -0.0174 0.9936
vn -0.1678 0.0002 0.9858
vn -0.2598 -0.0000 0.9657
vn 0.1118 -0.0171 0.9936
vn 0.3303 -0.0170 0.9437
vn 0.2598 -0.0000 0.9657
vn 0.1609 0.0002 0.9870
vn 0.5598 -0.0319 0.8280
vn 0.5597 -0.0319 0.8281
vn 0.4726 0.0003 0.8813
vn 0.3665 -0.0000 0.9304
vn 0.5598 -0.0318 0.8280
vn 0.5320 0.0001 0.8467
vn 0.6663 0.0001 0.7457
vn 0.7068 -0.0323 0.7067
vn 0.7456 0.0001 0.6664
vn 0.8468 -0.0000 0.5320
vn 0.8591 -0.0859 0.5045
vn 0.8167 0.0001 0.5771
vn 0.9353 -0.1729 0.3086
vn 0.9439 -0.0000 0.3304
vn 0.9858 -0.0000 0.1679
vn 0.7731 -0.6282 0.0872
vn 0.9984 -0.0000 0.0563
vn 0.9937 -0.0000 0.1122
vn 0.3302 0.0002 0.9439
vn 0.2225 -0.0182 0.9748
vn 0.5009 0.0002 0.8655
vn 0.6235 -0.0165 0.7817
vn 0.6809 0.0001 0.7324
vn 0.9010 0.0001 0.4338
vn 0.9426 -0.0379 0.3318
vn 0.8467 0.0001 0.5320
vn 0.9929 -0.0388 -0.1124
vn 1.0000 -0.0000 -0.0000
vn 0.9438 -0.0001 -0.3304
vn 0.9008 -0.0193 -0.4338
vn 0.8467 -0.0001 -0.5321
vn 0.6809 -0.0001 -0.7324
vn 0.6234 -0.0168 -0.7817
vn 0.5009 -0.0002 -0.8655
vn 0.3305 -0.0002 -0.9438
vn 0.2225 -0.0185 -0.9747
vn 0.1122 -0.0002 -0.9937
vn -0.1121 -0.0002 -0.9937
vn -0.2225 -0.0185 -0.9747
vn -0.3304 -0.0002 -0.9438
vn -0.5009 -0.0002 -0.8655
vn -0.6234 -0.0168 -0.7817
vn -0.6809 -0.0001 -0.7324
vn -0.9998 -0.0200 -0.0000
vn -0.9937 -0.0000 -0.1119
vn -0.9010 -0.0001 -0.4339
vn -0.9424 -0.0378 -0.3323
vn -0.8466 -0.0000 -0.5323
vn -0.9008 -0.0193 0.4337
vn -0.9438 0.0001 0.3305
vn -0.9937 -0.0000 0.1121
vn -0.6235 -0.0165 0.7817
vn -0.6809 0.0001 0.7324
vn -0.8466 0.0001 0.5323
vn 0.1119 0.0002 0.9937
vn -0.1123 0.0002 0.9937
vn -0.2225 -0.0182 0.9748
vn -0.3306 0.0002 0.9438
vn -0.5008 0.0002 0.8655
vn -0.9937 -0.0000 0.1122
vn -0.3301 0.0002 0.9439
vn -0.2225 0.0185 0.9747
vn -0.5321 0.0001 0.8467
vn -0.6234 0.0189 0.7817
vn -0.7072 0.0001 0.7070
vn -0.9010 0.0001 0.4339
vn -0.9426 0.0380 0.3317
vn -0.8467 0.0001 0.5320
vn -0.9929 0.0387 -0.1124
vn -1.0000 -0.0000 -0.0000
vn -0.9438 -0.0001 -0.3304
vn -0.9008 0.0192 -0.4338
vn -0.8467 -0.0001 -0.5321
vn -0.7071 -0.0000 -0.7071
vn -0.6234 0.0186 -0.7817
vn -0.5319 -0.0001 -0.8468
vn -0.3305 -0.0002 -0.9438
vn -0.2225 0.0182 -0.9748
vn -0.1122 -0.0002 -0.9937
vn 0.1121 -0.0002 -0.9937
vn 0.2225 0.0182 -0.9748
vn 0.5323 -0.0001 -0.8466
vn 0.6235 0.0186 -0.7816
vn 0.7071 -0.0000 -0.7071
vn 0.9998 0.0200 -0.0000
vn 0.9937 -0.0000 -0.1119
vn 0.9010 -0.0001 -0.4338
vn 0.9424 0.0377 -0.3323
vn 0.8465 -0.0001 -0.5323
vn 0.9008 0.0193 0.4338
vn 0.9438 0.0001 0.3305
vn 0.9937 -0.0000 0.1121
vn 0.6234 0.0189 0.7817
vn 0.7073 0.0001 0.7069
vn 0.8466 0.0001 0.5322
vn -0.1119 0.0002 0.9937
vn 0.1123 0.0002 0.9937
vn 0.2225 0.0185 0.9747
vn 0.3306 0.0002 0.9438
vn 0.5322 0.0001 0.8466
vt 0.352032 0.410202
vt 0.352116 0.410202
vt 0.352032 0.440419
vt 0.352940 0.498732
vt 0.346904 0.440434
vt 0.352296 0.407042
vt 0.352845 0.403957
vt 0.346904 0.498748
vt 0.501821 0.409294
vt 0.559773 0.409294
vt 0.560320 0.416074
vt 0.502369 0.416074
vt 0.560714 0.423674
vt 0.502762 0.423674
vt 0.560942 0.431797
vt 0.502990 0.431797
vt 0.560993 0.440168
vt 0.503042 0.440168
vt 0.560869 0.448481
vt 0.502917 0.448481
vt 0.560570 0.456438
vt 0.502619 0.456438
vt 0.560111 0.463731
vt 0.502159 0.463731
vt 0.559516 0.470124
vt 0.501565 0.470124
vt 0.467857 0.586742
vt 0.469331 0.486019
vt 0.470518 0.488893
vt 0.471409 0.491957
vt 0.471928 0.495042
vt 0.472108 0.498212
vt 0.472193 0.498212
vt 0.472193 0.528429
vt 0.474451 0.528430
vt 0.474451 0.586743
vt 0.460404 0.586741
vt 0.460393 0.475458
vt 0.461528 0.476243
vt 0.463881 0.478342
vt 0.465981 0.480686
vt 0.467857 0.483347
vt 0.458358 0.474048
vt 0.452357 0.586741
vt 0.456206 0.472892
vt 0.450703 0.493471
vt 0.451244 0.491902
vt 0.447236 0.496938
vt 0.448646 0.496058
vt 0.449813 0.494881
vt 0.451435 0.490259
vt 0.452357 0.471376
vt 0.451244 0.488605
vt 0.450703 0.487035
vt 0.449813 0.485625
vt 0.437333 0.487035
vt 0.436782 0.488605
vt 0.435669 0.471376
vt 0.438213 0.485625
vt 0.448636 0.484448
vt 0.447236 0.483568
vt 0.450268 0.470814
vt 0.445667 0.483017
vt 0.446780 0.470252
vt 0.444013 0.482837
vt 0.444013 0.470146
vt 0.443218 0.470124
vt 0.442359 0.483017
vt 0.440843 0.470294
vt 0.437758 0.470814
vt 0.440790 0.483568
vt 0.439380 0.484459
vt 0.436591 0.490259
vt 0.436782 0.491902
vt 0.435669 0.586741
vt 0.437323 0.493482
vt 0.438213 0.494881
vt 0.439380 0.496058
vt 0.440790 0.496938
vt 0.442359 0.497489
vt 0.444013 0.586741
vt 0.444013 0.497680
vt 0.445667 0.497489
vt 0.427621 0.586741
vt 0.427621 0.475384
vt 0.429657 0.474048
vt 0.431820 0.472892
vt 0.420167 0.586742
vt 0.420167 0.483347
vt 0.422044 0.480686
vt 0.424133 0.478353
vt 0.426550 0.476306
vt 0.415830 0.498212
vt 0.415915 0.498212
vt 0.415830 0.528429
vt 0.413572 0.528430
vt 0.416095 0.495042
vt 0.416615 0.491957
vt 0.417506 0.488903
vt 0.418693 0.486019
vt 0.413572 0.586743
vt 0.413572 0.559590
vt 0.355635 0.559590
vt 0.355032 0.553166
vt 0.412969 0.553166
vt 0.354568 0.545850
vt 0.412505 0.545850
vt 0.354269 0.537878
vt 0.412206 0.537878
vt 0.354147 0.529559
vt 0.412084 0.529559
vt 0.354205 0.521190
vt 0.412142 0.521190
vt 0.354443 0.513079
vt 0.412379 0.513079
vt 0.354849 0.505500
vt 0.412786 0.505500
vt 0.355412 0.498748
vt 0.413349 0.498748
vt 0.408308 0.410202
vt 0.408394 0.410202
vt 0.408394 0.440419
vt 0.413572 0.440434
vt 0.413572 0.498747
vt 0.407478 0.498732
vt 0.400394 0.498728
vt 0.402159 0.392683
vt 0.403988 0.395260
vt 0.405520 0.398018
vt 0.406627 0.400637
vt 0.407467 0.403511
vt 0.407606 0.403956
vt 0.408127 0.407042
vt 0.392596 0.385003
vt 0.395241 0.386488
vt 0.392596 0.498725
vt 0.397695 0.388228
vt 0.400394 0.390678
vt 0.385963 0.406875
vt 0.384350 0.408369
vt 0.384350 0.498724
vt 0.383385 0.408931
vt 0.387586 0.402252
vt 0.387395 0.403896
vt 0.386854 0.405465
vt 0.387395 0.400598
vt 0.386854 0.399018
vt 0.385963 0.397619
vt 0.384350 0.382415
vt 0.386419 0.382807
vt 0.384350 0.396124
vt 0.389464 0.383688
vt 0.392352 0.384897
vt 0.383385 0.395562
vt 0.381815 0.395010
vt 0.380161 0.382096
vt 0.380161 0.394819
vt 0.375974 0.382415
vt 0.378507 0.395010
vt 0.376939 0.395562
vt 0.375974 0.396124
vt 0.373908 0.382807
vt 0.370857 0.383688
vt 0.372933 0.400598
vt 0.372743 0.402242
vt 0.367744 0.385014
vt 0.367977 0.384886
vt 0.374364 0.397619
vt 0.373484 0.399018
vt 0.372933 0.403896
vt 0.367744 0.498725
vt 0.365109 0.386478
vt 0.375974 0.408369
vt 0.375974 0.498724
vt 0.374364 0.406875
vt 0.373474 0.405465
vt 0.359978 0.498728
vt 0.359978 0.390678
vt 0.362664 0.388228
vt 0.354883 0.398018
vt 0.356415 0.395250
vt 0.358223 0.392683
vt 0.352940 0.403416
vt 0.353785 0.400637
vt 0.376939 0.408931
vt 0.378507 0.409483
vt 0.380161 0.498723
vt 0.380161 0.409663
vt 0.381815 0.409483
vt 0.498608 0.409689
vt 0.499978 0.413647
vt 0.457671 0.426105
vt 0.486539 0.392780
vt 0.492325 0.398835
vt 0.496864 0.405881
vt 0.463938 0.382480
vt 0.472084 0.384450
vt 0.479712 0.387918
vt 0.439344 0.386042
vt 0.447265 0.383289
vt 0.455559 0.382096
vt 0.420566 0.402312
vt 0.425741 0.395730
vt 0.432081 0.390233
vt 0.413572 0.426147
vt 0.414363 0.417808
vt 0.416724 0.409764
vt 0.420573 0.449961
vt 0.416733 0.442521
vt 0.414369 0.434488
vt 0.439357 0.466209
vt 0.432093 0.462024
vt 0.425759 0.456542
vt 0.463953 0.469719
vt 0.455571 0.470124
vt 0.447283 0.468941
vt 0.486549 0.459381
vt 0.479728 0.464249
vt 0.472100 0.467730
vt 0.499988 0.438484
vt 0.496870 0.446262
vt 0.492341 0.453315
vt 0.501565 0.421877
vt 0.501565 0.430252
vt 0.493960 0.472499
vt 0.502102 0.470517
vt 0.540303 0.544616
vt 0.533963 0.550108
vt 0.526711 0.554296
vt 0.479498 0.480843
vt 0.474451 0.542357
vt 0.474451 0.485996
vt 0.479498 0.547510
vt 0.486326 0.475977
vt 0.542307 0.485996
vt 0.542307 0.542358
vt 0.540303 0.483738
vt 0.533963 0.478246
vt 0.526711 0.474058
vt 0.510478 0.470124
vt 0.518780 0.471312
vt 0.502102 0.557837
vt 0.493960 0.555854
vt 0.486326 0.552376
vt 0.518780 0.557041
vt 0.510478 0.558229
vt 0.382168 0.586414
vt 0.385391 0.587156
vt 0.357210 0.617904
vt 0.388614 0.573044
vt 0.385391 0.572313
vt 0.385391 0.559590
vt 0.379591 0.575101
vt 0.378160 0.578081
vt 0.357295 0.587687
vt 0.378160 0.581378
vt 0.379591 0.584357
vt 0.413572 0.587686
vt 0.413572 0.617903
vt 0.413487 0.587686
vt 0.388614 0.586414
vt 0.379135 0.560290
vt 0.382168 0.573044
vt 0.373198 0.562368
vt 0.357210 0.587687
vt 0.391190 0.584357
vt 0.392622 0.581378
vt 0.412787 0.581431
vt 0.392622 0.578081
vt 0.391190 0.575101
vt 0.407359 0.570160
vt 0.410709 0.575493
vt 0.391646 0.560290
vt 0.397583 0.562368
vt 0.402906 0.565718
vt 0.357994 0.581431
vt 0.360072 0.575494
vt 0.363423 0.570161
vt 0.367876 0.565718
vt 0.530814 0.586325
vt 0.530814 0.616542
vt 0.530729 0.586325
vt 0.474451 0.616542
vt 0.475236 0.580081
vt 0.477314 0.574143
vt 0.474536 0.586325
vt 0.480664 0.568810
vt 0.485117 0.564368
vt 0.490440 0.561017
vt 0.496377 0.558939
vt 0.502632 0.558229
vt 0.496833 0.573751
vt 0.499409 0.571694
vt 0.502632 0.570952
vt 0.505856 0.571694
vt 0.495402 0.576730
vt 0.495402 0.580028
vt 0.496833 0.583007
vt 0.474451 0.586325
vt 0.499409 0.585064
vt 0.509863 0.580028
vt 0.530029 0.580081
vt 0.509863 0.576730
vt 0.502632 0.585795
vt 0.505856 0.585064
vt 0.508432 0.583007
vt 0.508432 0.573751
vt 0.524601 0.568810
vt 0.527951 0.574143
vt 0.508888 0.558939
vt 0.514825 0.561017
vt 0.520148 0.564368
vt 0.353336 0.498748
vt 0.353336 0.498832
vt 0.353261 0.498748
vt 0.506635 0.399604
vt 0.505837 0.396879
vt 0.508032 0.396875
vt 0.347020 0.545691
vt 0.346946 0.545691
vt 0.347175 0.542532
vt 0.346956 0.539407
vt 0.347624 0.539405
vt 0.347698 0.538857
vt 0.348345 0.536003
vt 0.346952 0.533276
vt 0.349147 0.533279
vt 0.350157 0.530360
vt 0.346935 0.527603
vt 0.351250 0.527610
vt 0.352193 0.525424
vt 0.346904 0.522693
vt 0.353456 0.522693
vt 0.545932 0.507532
vt 0.552484 0.507532
vt 0.544957 0.509970
vt 0.552485 0.512833
vt 0.544109 0.512600
vt 0.552485 0.518756
vt 0.543303 0.515709
vt 0.544024 0.512833
vt 0.552485 0.525007
vt 0.542508 0.520821
vt 0.542752 0.518756
vt 0.552485 0.531267
vt 0.542508 0.529197
vt 0.542307 0.525007
vt 0.552485 0.537218
vt 0.543303 0.534315
vt 0.542752 0.531267
vt 0.544967 0.540102
vt 0.544098 0.537452
vt 0.544035 0.537207
vt 0.545932 0.542562
vt 0.552484 0.542562
vt 0.501565 0.386277
vt 0.508116 0.386277
vt 0.502815 0.389014
vt 0.508064 0.391196
vt 0.503750 0.391203
vt 0.504833 0.393968
vt 0.507279 0.402553
vt 0.508020 0.403010
vt 0.507374 0.403011
vt 0.507800 0.406135
vt 0.508031 0.409294
vt 0.507956 0.409294
vt 0.354073 0.498811
vt 0.354017 0.498860
vt 0.354017 0.498748
vt 0.353206 0.498811
vt 0.353261 0.498860
vt 0.348283 0.513251
vt 0.348257 0.510137
vt 0.350368 0.510739
vt 0.508349 0.409303
vt 0.508274 0.409304
vt 0.508456 0.406132
vt 0.508197 0.403010
vt 0.508833 0.403002
vt 0.509493 0.399859
vt 0.508144 0.396875
vt 0.510338 0.396849
vt 0.511307 0.394015
vt 0.508116 0.391197
vt 0.512441 0.391144
vt 0.513562 0.388575
vt 0.547756 0.507532
vt 0.542307 0.505154
vt 0.548848 0.505102
vt 0.549326 0.504025
vt 0.542307 0.499810
vt 0.550089 0.501980
vt 0.542307 0.493859
vt 0.551691 0.495951
vt 0.550768 0.499810
vt 0.552465 0.487599
vt 0.552486 0.488394
vt 0.542308 0.487599
vt 0.552380 0.490770
vt 0.552041 0.493859
vt 0.542307 0.481348
vt 0.552401 0.484832
vt 0.542307 0.475425
vt 0.551691 0.479263
vt 0.552041 0.481348
vt 0.549304 0.471254
vt 0.550089 0.473280
vt 0.550768 0.475425
vt 0.548859 0.470124
vt 0.542307 0.470124
vt 0.353206 0.500543
vt 0.347341 0.501314
vt 0.351897 0.505276
vt 0.347737 0.504090
vt 0.348071 0.507153
vt 0.348089 0.516465
vt 0.348701 0.516639
vt 0.347632 0.519583
vt 0.346976 0.522693
vt 0.346904 0.522672
vt 0.354073 0.498748
vt 0.354147 0.498748
vt 0.354073 0.498832
vt 0.533128 0.402854
vt 0.533160 0.404508
vt 0.523576 0.404508
vt 0.513678 0.395303
vt 0.513593 0.393738
vt 0.523740 0.395303
vt 0.523740 0.392085
vt 0.513763 0.396264
vt 0.523740 0.397866
vt 0.533577 0.409293
vt 0.523586 0.407628
vt 0.533383 0.407628
vt 0.533248 0.406128
vt 0.533163 0.401231
vt 0.523579 0.401231
vt 0.533255 0.399722
vt 0.523596 0.398430
vt 0.533393 0.398430
vt 0.356828 0.571176
vt 0.347031 0.571176
vt 0.357008 0.569497
vt 0.347031 0.568507
vt 0.357093 0.568507
vt 0.357178 0.566914
vt 0.347032 0.565253
vt 0.357210 0.565253
vt 0.357178 0.563609
vt 0.347031 0.562068
vt 0.357093 0.562068
vt 0.357008 0.561130
vt 0.347031 0.559590
vt 0.356828 0.559590
vt 0.523576 0.404503
vt 0.514024 0.402838
vt 0.523570 0.401227
vt 0.513987 0.401227
vt 0.523543 0.398430
vt 0.513891 0.399720
vt 0.513748 0.398430
vt 0.523559 0.407626
vt 0.513902 0.406124
vt 0.513992 0.404503
vt 0.523740 0.388857
vt 0.513763 0.387888
vt 0.523740 0.386267
vt 0.513561 0.409294
vt 0.513764 0.407626
vt 0.513562 0.392085
vt 0.513593 0.390430
vt 0.513678 0.388857
vt 0.543495 0.390703
vt 0.543524 0.392357
vt 0.533941 0.392341
vt 0.533802 0.388857
vt 0.533887 0.390429
vt 0.523740 0.388857
vt 0.523740 0.392085
vt 0.533675 0.387441
vt 0.523740 0.386267
vt 0.543834 0.396782
vt 0.533919 0.395463
vt 0.543714 0.395480
vt 0.543601 0.393978
vt 0.543524 0.389081
vt 0.533941 0.389065
vt 0.543601 0.387584
vt 0.533919 0.386267
vt 0.543714 0.386284
vt 0.531195 0.558229
vt 0.540992 0.558229
vt 0.531057 0.559350
vt 0.540992 0.560707
vt 0.530930 0.560707
vt 0.530845 0.562248
vt 0.540992 0.563892
vt 0.530814 0.563892
vt 0.530845 0.565553
vt 0.540992 0.567146
vt 0.530930 0.567146
vt 0.531057 0.568596
vt 0.540992 0.569815
vt 0.531195 0.569815
vt 0.543485 0.404508
vt 0.533931 0.402864
vt 0.543485 0.401231
vt 0.533901 0.401242
vt 0.543499 0.398430
vt 0.533822 0.399744
vt 0.533703 0.398440
vt 0.543499 0.407628
vt 0.533822 0.406149
vt 0.533901 0.404519
vt 0.523740 0.395303
vt 0.533675 0.396707
vt 0.523741 0.397866
vt 0.533577 0.408938
vt 0.533703 0.407639
vt 0.533919 0.392085
vt 0.533887 0.393737
vt 0.533802 0.395303
s 1
f 38/78/51 39/79/52 40/80/53
f 40/80/53 39/79/52 41/81/54
f 40/80/55 41/81/56 42/82/57
f 39/79/52 43/83/58 44/84/59
f 41/81/56 45/85/60 42/82/57
f 42/86/61 45/87/61 46/88/62
f 42/86/61 46/88/62 47/89/61
f 47/89/63 46/88/64 48/90/63
f 47/89/63 48/90/63 49/91/63
f 49/91/65 48/90/65 50/92/66
f 49/91/65 50/92/66 51/93/67
f 51/93/68 50/92/69 52/94/70
f 51/93/68 52/94/70 53/95/68
f 53/95/71 52/94/72 54/96/71
f 53/95/71 54/96/71 55/97/73
f 55/97/74 54/96/74 56/98/74
f 55/97/74 56/98/74 57/99/74
f 57/99/75 56/98/75 58/100/75
f 57/99/75 58/100/75 59/101/75
f 59/101/76 58/100/77 60/102/77
f 59/101/76 60/102/77 61/103/77
f 62/104/78 63/105/78 64/106/78
f 65/107/79 66/108/79 67/109/79
f 67/109/80 68/110/80 69/111/80
f 61/112/81 60/113/81 69/111/81
f 69/111/82 60/113/82 62/104/82
f 69/111/83 62/104/83 67/109/83
f 67/109/84 62/104/84 64/106/84
f 67/109/85 64/106/85 65/107/85
f 70/114/86 71/115/87 72/116/88
f 72/116/89 73/117/89 70/114/89
f 70/114/90 73/117/90 74/118/90
f 70/114/91 74/118/91 62/104/91
f 62/104/92 74/118/92 75/119/92
f 62/104/93 75/119/93 63/105/93
f 71/115/87 70/114/86 76/120/88
f 76/120/94 70/114/94 77/121/94
f 76/120/95 77/121/95 78/122/95
f 79/123/96 80/124/96 77/121/96
f 81/125/97 82/126/97 77/121/97
f 77/121/98 82/126/98 83/127/98
f 77/121/99 83/127/99 79/123/99
f 80/124/100 84/128/101 77/121/102
f 77/121/102 84/128/101 85/129/103
f 77/121/104 85/129/104 78/122/104
f 84/128/105 86/130/106 85/129/107
f 85/129/107 86/130/106 87/131/108
f 85/129/109 87/131/109 88/132/109
f 89/133/110 90/134/110 91/135/110
f 89/133/111 91/135/111 92/136/111
f 88/132/112 93/137/112 85/129/112
f 85/129/113 93/137/113 94/138/113
f 85/129/114 94/138/114 95/139/114
f 95/139/115 94/138/115 96/140/115
f 95/139/116 96/140/116 97/141/116
f 97/141/117 96/140/118 98/142/119
f 97/141/117 98/142/119 99/143/120
f 99/143/120 98/142/119 100/144/120
f 100/144/121 98/142/121 101/145/121
f 100/144/122 101/145/122 102/146/122
f 102/146/123 101/145/123 103/147/123
f 103/147/124 101/145/124 104/148/124
f 103/147/125 104/148/125 91/135/125
f 91/135/126 104/148/126 105/149/126
f 91/135/127 105/149/127 92/136/127
f 106/150/128 107/151/129 108/152/130
f 107/151/129 109/153/131 108/152/130
f 108/152/132 109/153/132 110/154/132
f 108/152/133 110/154/133 111/155/133
f 111/155/134 112/156/134 108/152/134
f 108/152/135 112/156/135 113/157/135
f 108/152/136 113/157/136 114/158/136
f 114/158/137 113/157/137 115/159/137
f 114/158/138 115/159/138 77/121/138
f 77/121/139 115/159/139 116/160/139
f 77/121/140 116/160/140 81/125/140
f 117/161/141 118/162/141 108/152/141
f 108/152/142 118/162/142 119/163/142
f 90/134/143 106/150/144 91/135/145
f 91/135/145 106/150/144 108/152/146
f 91/135/147 108/152/147 120/164/147
f 120/164/148 108/152/148 119/163/148
f 121/165/149 122/166/149 117/161/149
f 117/161/150 122/166/150 123/167/150
f 123/167/151 124/168/151 117/161/151
f 117/161/152 124/168/153 125/169/153
f 117/161/152 125/169/153 118/162/153
f 126/170/154 127/171/155 128/172/155
f 128/172/156 127/171/156 121/165/156
f 128/172/157 121/165/157 129/173/157
f 130/174/158 131/175/158 127/171/158
f 127/171/159 131/175/159 132/176/159
f 127/171/160 132/176/160 121/165/160
f 121/165/161 132/176/161 133/177/161
f 121/165/162 133/177/162 122/166/162
f 121/165/163 134/178/163 129/173/163
f 129/179/164 134/180/164 135/181/165
f 129/179/164 135/181/165 136/182/164
f 136/182/166 135/181/166 137/183/166
f 136/182/166 137/183/166 138/184/166
f 138/184/167 137/183/167 139/185/167
f 138/184/167 139/185/167 140/186/167
f 140/186/168 139/185/169 141/187/169
f 140/186/168 141/187/169 142/188/168
f 142/188/170 141/187/171 143/189/170
f 142/188/170 143/189/170 144/190/170
f 144/190/172 143/189/173 145/191/172
f 144/190/172 145/191/172 146/192/172
f 146/192/174 145/191/175 147/193/175
f 146/192/174 147/193/175 148/194/174
f 148/194/176 147/193/177 149/195/177
f 148/194/176 149/195/177 150/196/178
f 151/197/179 152/198/179 153/199/179
f 150/200/180 149/201/181 153/199/182
f 153/199/182 149/201/181 154/202/183
f 153/199/184 154/202/185 151/197/186
f 155/203/187 156/204/187 157/205/187
f 157/205/188 158/206/188 155/203/188
f 155/203/189 158/206/189 159/207/189
f 155/203/190 159/207/190 154/202/190
f 154/202/191 159/207/191 160/208/191
f 154/202/185 160/208/192 151/197/186
f 151/197/193 160/208/193 161/209/193
f 151/197/194 161/209/194 162/210/194
f 163/211/195 164/212/195 165/213/195
f 165/213/196 164/212/197 166/214/198
f 165/213/196 166/214/198 155/203/199
f 155/203/200 166/214/200 167/215/200
f 155/203/201 167/215/201 156/204/201
f 168/216/202 165/213/202 169/217/202
f 169/217/203 165/213/203 170/218/203
f 169/217/204 170/218/204 171/219/204
f 172/220/205 163/211/205 173/221/205
f 173/221/206 163/211/206 165/213/206
f 173/221/207 165/213/207 174/222/207
f 174/222/208 165/213/208 168/216/208
f 172/220/209 175/223/209 163/211/209
f 163/211/210 175/223/210 176/224/210
f 163/211/211 176/224/211 177/225/211
f 178/226/212 179/227/212 180/228/212
f 180/228/213 179/227/213 181/229/213
f 180/228/214 181/229/214 177/225/214
f 177/225/215 181/229/216 182/230/217
f 177/225/215 182/230/217 163/211/217
f 180/228/204 183/231/204 178/226/204
f 178/226/218 183/231/219 184/232/220
f 178/226/218 184/232/220 185/233/221
f 185/233/222 184/232/222 186/234/222
f 185/233/223 186/234/223 187/235/223
f 187/235/224 186/234/224 188/236/224
f 188/236/225 189/237/225 187/235/225
f 187/235/226 189/237/226 190/238/226
f 187/235/227 190/238/227 191/239/227
f 191/239/228 190/238/228 192/240/228
f 193/241/229 194/242/229 195/243/229
f 192/240/230 190/238/230 196/244/230
f 196/244/231 190/238/231 197/245/231
f 196/244/232 197/245/232 195/243/232
f 195/243/233 197/245/233 198/246/233
f 195/243/234 198/246/234 193/241/234
f 194/242/235 199/247/235 195/243/235
f 195/243/236 199/247/236 200/248/236
f 195/243/237 200/248/237 201/249/237
f 202/250/238 203/251/238 204/252/238
f 204/252/239 203/251/239 200/248/239
f 204/252/240 200/248/240 205/253/240
f 205/253/241 200/248/241 199/247/241
f 206/254/242 207/255/242 200/248/242
f 200/248/243 207/255/243 208/256/243
f 200/248/244 208/256/244 201/249/244
f 209/257/245 210/258/245 206/254/245
f 206/254/246 210/258/246 211/259/246
f 206/254/247 211/259/247 207/255/247
f 39/79/52 44/84/59 41/81/54
f 41/81/54 44/84/59 212/260/248
f 41/81/249 212/260/249 206/254/249
f 206/254/250 212/260/250 213/261/250
f 206/254/251 213/261/251 209/257/251
f 202/250/226 214/262/226 203/251/226
f 203/251/252 214/262/253 215/263/254
f 203/251/252 215/263/254 216/264/255
f 216/264/256 215/263/256 217/265/256
f 216/264/257 217/265/257 170/218/257
f 170/218/258 217/265/258 218/266/258
f 170/218/259 218/266/259 171/219/259
f 216/267/260 170/268/260 219/269/260
f 206/270/261 200/271/261 219/269/260
f 219/269/260 200/271/261 203/272/260
f 219/269/260 203/272/260 216/267/260
f 46/273/262 45/274/260 219/269/260
f 219/269/260 45/274/260 41/275/260
f 219/269/260 41/275/260 206/270/261
f 52/276/262 50/277/262 219/269/260
f 219/269/260 50/277/262 48/278/262
f 219/269/260 48/278/262 46/273/262
f 58/279/260 56/280/262 219/269/260
f 219/269/260 56/280/262 54/281/262
f 219/269/260 54/281/262 52/276/262
f 70/282/263 62/283/263 219/269/260
f 219/269/260 62/283/263 60/284/260
f 219/269/260 60/284/260 58/279/260
f 108/285/260 114/286/260 219/269/260
f 219/269/260 114/286/260 77/287/260
f 219/269/260 77/287/260 70/282/263
f 134/288/260 121/289/261 219/269/260
f 219/269/260 121/289/261 117/290/261
f 219/269/260 117/290/261 108/285/260
f 139/291/262 137/292/262 219/269/260
f 219/269/260 137/292/262 135/293/260
f 219/269/260 135/293/260 134/288/260
f 145/294/262 143/295/262 219/269/260
f 219/269/260 143/295/262 141/296/262
f 219/269/260 141/296/262 139/291/262
f 154/297/260 149/298/260 219/269/260
f 219/269/260 149/298/260 147/299/262
f 219/269/260 147/299/262 145/294/262
f 170/268/260 165/300/263 219/269/260
f 219/269/260 165/300/263 155/301/263
f 219/269/260 155/301/263 154/297/260
f 49/302/264 51/303/264 129/304/265
f 136/305/266 138/306/267 42/307/268
f 153/308/266 40/309/266 150/310/266
f 150/310/266 40/309/266 42/307/268
f 136/305/266 42/307/268 129/304/265
f 129/304/265 42/307/268 47/311/269
f 129/304/265 47/311/269 49/302/264
f 69/312/267 128/313/267 61/314/266
f 61/314/266 128/313/267 129/304/265
f 61/314/266 129/304/265 59/315/270
f 59/315/270 129/304/265 57/316/271
f 51/303/264 53/317/264 129/304/265
f 129/304/265 53/317/264 55/318/272
f 129/304/265 55/318/272 57/316/271
f 144/319/267 146/320/267 42/307/268
f 42/307/268 146/320/267 148/321/267
f 42/307/268 148/321/267 150/310/266
f 138/306/267 140/322/267 42/307/268
f 42/307/268 140/322/267 142/323/267
f 42/307/268 142/323/267 144/319/267
f 220/324/273 221/325/274 69/326/275
f 222/327/276 223/328/276 224/329/276
f 225/330/276 226/331/276 227/332/275
f 227/332/275 226/331/276 228/333/276
f 227/332/275 228/333/276 229/334/277
f 126/335/276 128/336/278 230/337/279
f 230/337/279 128/336/278 69/326/275
f 230/337/279 69/326/275 231/338/275
f 231/338/275 69/326/275 221/325/274
f 224/329/276 223/328/276 232/339/276
f 232/339/276 223/328/276 233/340/276
f 232/339/276 233/340/276 234/341/276
f 68/342/276 227/332/275 69/326/275
f 69/326/275 227/332/275 229/334/277
f 69/326/275 229/334/277 220/324/273
f 231/338/275 235/343/276 230/337/279
f 230/337/279 235/343/276 236/344/276
f 230/337/279 236/344/276 237/345/276
f 237/345/276 236/344/276 238/346/276
f 239/347/276 240/348/276 238/346/276
f 238/346/276 240/348/276 241/349/276
f 238/346/276 241/349/276 237/345/276
f 224/329/276 242/350/276 222/327/276
f 222/327/276 242/350/276 243/351/276
f 222/327/276 243/351/276 239/347/276
f 239/347/276 243/351/276 244/352/276
f 239/347/276 244/352/276 240/348/276
f 225/330/276 227/332/275 233/340/276
f 233/340/276 227/332/275 245/353/276
f 233/340/276 245/353/276 246/354/276
f 246/354/276 247/355/276 233/340/276
f 233/340/276 247/355/276 248/356/276
f 233/340/276 248/356/276 234/341/276
f 38/357/280 40/358/281 249/359/282
f 249/359/282 40/358/281 153/360/283
f 250/361/280 251/362/280 252/363/283
f 252/363/283 251/362/280 253/364/280
f 252/363/283 253/364/280 254/365/280
f 254/365/280 255/366/280 252/363/283
f 252/363/283 255/366/280 256/367/280
f 252/363/283 256/367/280 257/368/280
f 258/369/280 252/363/283 259/370/280
f 259/370/280 252/363/283 257/368/280
f 259/370/280 257/368/280 260/371/280
f 260/371/280 257/368/280 261/372/280
f 258/369/280 262/373/280 252/363/283
f 252/363/283 262/373/280 263/374/280
f 252/363/283 263/374/280 264/375/284
f 152/376/280 252/363/283 153/360/283
f 153/360/283 252/363/283 264/375/284
f 153/360/283 264/375/284 265/377/285
f 249/359/282 266/378/280 267/379/280
f 267/379/280 266/378/280 268/380/280
f 265/377/285 269/381/286 153/360/283
f 153/360/283 269/381/286 270/382/283
f 153/360/283 270/382/283 249/359/282
f 249/359/282 270/382/283 271/383/280
f 249/359/282 271/383/280 266/378/280
f 272/384/280 273/385/280 268/380/280
f 268/380/280 273/385/280 274/386/280
f 268/380/280 274/386/280 267/379/280
f 257/368/280 275/387/280 261/372/280
f 261/372/280 275/387/280 276/388/280
f 261/372/280 276/388/280 272/384/280
f 272/384/280 276/388/280 277/389/280
f 272/384/280 277/389/280 273/385/280
f 252/390/267 152/391/267 151/392/267
f 159/393/287 158/394/287 251/395/287
f 39/396/288 249/397/288 43/398/288
f 43/398/289 249/397/289 267/399/289
f 43/398/290 267/399/290 44/400/290
f 44/400/290 267/399/290 212/401/290
f 212/401/291 267/399/291 213/402/291
f 213/402/292 267/399/292 274/403/292
f 213/402/293 274/403/293 209/404/293
f 209/404/294 274/403/294 210/405/294
f 210/405/295 274/403/295 273/406/295
f 210/405/296 273/406/296 211/407/296
f 211/407/297 273/406/297 207/408/297
f 207/408/298 273/406/298 277/409/298
f 207/408/299 277/409/299 208/410/299
f 208/411/300 277/412/300 201/413/300
f 201/413/301 277/412/301 276/414/301
f 201/413/302 276/414/302 195/415/302
f 275/416/303 192/417/303 276/414/303
f 276/414/304 192/417/304 196/418/304
f 276/414/302 196/418/302 195/415/302
f 257/419/305 187/420/305 275/416/305
f 275/416/306 187/420/306 191/421/306
f 275/416/307 191/421/307 192/417/307
f 256/422/308 178/423/308 257/419/308
f 257/419/309 178/423/309 185/424/309
f 257/419/310 185/424/310 187/420/310
f 255/425/311 181/426/311 256/422/311
f 256/422/312 181/426/312 179/427/312
f 256/422/313 179/427/313 178/423/313
f 164/428/314 163/429/314 255/425/314
f 255/425/315 163/429/316 182/430/316
f 255/425/315 182/430/316 181/426/316
f 164/428/317 255/425/317 166/431/317
f 166/431/318 255/425/318 254/432/318
f 166/433/319 254/434/319 167/435/319
f 167/435/320 254/434/320 253/436/320
f 167/435/321 253/436/321 156/437/321
f 251/395/322 158/394/322 253/436/322
f 253/436/323 158/394/323 157/438/323
f 253/436/324 157/438/324 156/437/324
f 159/393/325 251/395/325 160/439/325
f 160/439/326 251/395/326 250/440/326
f 160/439/327 250/440/327 161/441/327
f 161/441/328 250/440/328 162/442/328
f 162/442/329 250/440/329 252/443/329
f 162/442/330 252/443/330 151/444/330
f 249/445/267 39/446/267 38/447/267
f 227/448/267 68/392/267 67/449/267
f 64/450/331 63/451/331 246/452/331
f 127/453/332 230/454/332 130/455/332
f 130/455/333 230/454/333 237/456/333
f 130/455/328 237/456/328 131/457/328
f 131/457/334 237/456/334 132/458/334
f 132/458/335 237/456/335 241/459/335
f 132/458/336 241/459/336 133/460/336
f 133/460/337 241/459/337 122/461/337
f 122/461/338 241/459/338 240/462/338
f 122/461/339 240/462/339 123/463/339
f 123/463/340 240/462/340 124/464/340
f 124/464/341 240/462/341 244/434/341
f 124/465/342 244/466/343 125/467/342
f 125/467/342 244/466/343 118/468/342
f 118/468/344 244/466/345 243/469/346
f 118/468/344 243/469/346 119/470/347
f 242/471/348 91/472/348 243/469/348
f 243/469/349 91/472/349 120/473/349
f 243/469/350 120/473/350 119/470/350
f 99/474/351 100/475/351 224/476/351
f 224/476/352 100/475/352 102/477/352
f 224/476/353 102/477/353 242/471/353
f 242/471/354 102/477/354 103/478/354
f 242/471/355 103/478/355 91/472/355
f 232/479/356 97/480/356 224/476/356
f 224/476/351 97/480/351 99/474/351
f 234/481/357 85/482/357 232/479/357
f 232/479/358 85/482/358 95/483/358
f 232/479/359 95/483/359 97/480/359
f 71/484/360 76/485/361 234/481/361
f 234/481/362 76/485/362 78/486/362
f 234/481/363 78/486/363 85/482/363
f 71/484/360 234/481/361 72/487/364
f 72/487/365 234/481/365 248/488/365
f 72/85/366 248/489/366 73/490/366
f 73/490/367 248/489/367 247/491/367
f 73/490/368 247/491/368 74/492/368
f 246/452/369 63/451/369 247/491/369
f 247/491/370 63/451/370 75/493/370
f 247/491/371 75/493/371 74/492/371
f 64/450/372 246/452/372 65/494/372
f 65/494/373 246/452/373 245/495/373
f 65/494/374 245/495/374 66/496/374
f 66/496/375 245/495/375 227/497/375
f 66/496/376 227/497/376 67/498/376
f 230/499/267 127/500/267 126/501/267
f 172/502/377 173/503/377 263/504/377
f 171/505/378 218/506/378 265/507/378
f 265/507/379 218/506/379 269/508/379
f 171/505/380 265/507/380 169/509/380
f 169/509/381 265/507/381 264/510/381
f 169/511/382 264/512/382 168/513/382
f 263/504/383 173/503/383 264/512/383
f 264/512/384 173/503/384 174/514/384
f 264/512/385 174/514/385 168/513/385
f 172/502/386 263/504/386 175/515/386
f 175/515/387 263/504/387 262/516/387
f 175/515/388 262/516/388 176/517/388
f 176/517/389 262/516/389 258/518/389
f 176/517/390 258/518/390 177/519/390
f 177/520/391 258/521/391 180/522/391
f 180/522/392 258/521/392 259/523/392
f 180/522/393 259/523/393 183/524/393
f 183/524/394 259/523/394 184/525/394
f 184/525/395 259/523/395 260/526/395
f 184/525/396 260/526/396 186/527/396
f 186/527/397 260/526/397 188/528/397
f 188/528/398 260/526/398 261/529/398
f 188/528/399 261/529/399 189/530/399
f 189/530/400 261/529/400 190/531/400
f 190/531/401 261/529/401 272/532/401
f 190/531/402 272/532/402 197/533/402
f 266/534/403 194/535/403 268/536/403
f 268/536/404 194/535/404 193/537/404
f 268/536/405 193/537/405 272/538/405
f 272/538/406 193/537/406 198/539/406
f 272/538/407 198/539/407 197/540/407
f 271/541/408 205/542/408 266/534/408
f 266/534/409 205/542/409 199/543/409
f 266/534/410 199/543/410 194/535/410
f 270/544/411 202/545/411 271/546/411
f 271/541/412 202/547/412 204/548/412
f 271/541/413 204/548/413 205/542/413
f 218/506/414 217/549/414 269/508/414
f 269/508/415 217/549/415 215/550/415
f 269/508/416 215/550/416 270/544/416
f 270/544/417 215/550/417 214/551/417
f 270/544/418 214/551/418 202/545/418
f 84/552/419 80/553/419 228/554/419
f 81/555/420 116/556/420 220/557/420
f 220/557/421 116/556/421 221/558/421
f 81/555/422 220/557/422 82/559/422
f 82/559/423 220/557/423 229/560/423
f 82/561/424 229/562/424 83/563/424
f 228/554/425 80/553/425 229/562/425
f 229/562/426 80/553/426 79/564/426
f 229/562/427 79/564/427 83/563/427
f 84/552/428 228/554/428 86/565/428
f 86/565/429 228/554/429 226/566/429
f 86/565/430 226/566/430 87/567/430
f 87/567/431 226/566/431 225/568/431
f 87/567/432 225/568/432 88/569/432
f 88/570/433 225/571/433 93/572/433
f 93/572/434 225/571/434 233/573/434
f 93/572/435 233/573/435 94/574/435
f 94/574/436 233/573/436 96/575/436
f 96/575/437 233/573/437 223/576/437
f 96/575/438 223/576/438 98/577/438
f 98/577/439 223/576/439 101/578/439
f 101/578/440 223/576/440 222/579/440
f 101/578/394 222/579/394 104/580/394
f 104/580/441 222/579/441 105/581/441
f 105/581/442 222/579/442 239/582/442
f 105/581/443 239/582/443 92/583/443
f 236/584/444 106/585/444 238/586/444
f 238/586/445 106/585/445 90/587/445
f 238/586/446 90/587/446 239/588/446
f 239/588/447 90/587/447 89/589/447
f 239/588/448 89/589/448 92/590/448
f 235/591/449 109/592/449 236/584/449
f 236/584/450 109/592/450 107/593/450
f 236/584/451 107/593/451 106/585/451
f 231/594/452 111/595/452 235/596/452
f 235/591/453 111/597/453 110/598/453
f 235/591/454 110/598/454 109/592/454
f 116/556/455 115/599/455 221/558/455
f 221/558/456 115/599/456 113/600/456
f 221/558/457 113/600/457 231/594/457
f 231/594/458 113/600/458 112/601/458
f 231/594/459 112/601/459 111/595/459
