# Blender 5.2.0 LTS
# www.blender.org
o Main_Insertion_Link_3_Main_Insertion_Link.003
v 0.000000 -0.004193 -0.375899
v -0.002100 -0.003566 -0.009099
v -0.002100 -0.003630 -0.375899
v -0.003637 -0.002028 -0.009100
v -0.003637 -0.002093 -0.375900
v -0.004200 0.000072 -0.009100
v -0.004200 0.000007 -0.375900
v -0.003637 0.002172 -0.009100
v -0.003637 0.002107 -0.375900
v -0.002100 0.003709 -0.009101
v -0.002100 0.003644 -0.375901
v 0.000000 0.004272 -0.009101
v 0.000000 0.004207 -0.375901
v 0.002100 0.003709 -0.009101
v 0.002100 0.003644 -0.375901
v 0.003637 0.002172 -0.009100
v 0.003637 0.002107 -0.375900
v 0.004200 0.000072 -0.009100
v 0.004200 0.000007 -0.375900
v 0.003637 -0.002028 -0.009100
v 0.003637 -0.002093 -0.375900
v 0.002100 -0.003566 -0.009099
v 0.002100 -0.003630 -0.375899
v 0.000000 -0.004128 -0.009099
v 0.000000 0.000072 -0.009100
v 0.000000 -0.005693 -0.377399
v -0.002850 -0.004930 -0.377399
v -0.004936 -0.002843 -0.377400
v -0.005700 0.000007 -0.377400
v -0.004936 0.002857 -0.377401
v -0.002850 0.004943 -0.377401
v 0.000000 0.005707 -0.377401
v 0.002850 0.004943 -0.377401
v 0.004936 0.002857 -0.377401
v 0.005700 0.000007 -0.377400
v 0.004936 -0.002843 -0.377400
v 0.002850 -0.004930 -0.377399
vn 0.0001 0.9134 -0.4071
vn 0.4568 0.7910 -0.4071
vn 0.3786 0.6555 -0.6534
vn 0.6558 0.3784 -0.6532
vn 0.7910 0.4567 -0.4071
vn 0.7572 -0.0000 -0.6532
vn 0.9134 -0.0000 -0.4070
vn 0.6556 -0.3787 -0.6533
vn 0.7911 -0.4570 -0.4067
vn 0.3786 -0.6559 -0.6530
vn 0.4568 -0.7911 -0.4069
vn -0.0000 -0.7573 -0.6531
vn -0.0000 -0.9135 -0.4069
vn -0.3786 -0.6559 -0.6530
vn -0.4567 -0.7911 -0.4069
vn -0.6556 -0.3787 -0.6533
vn -0.7911 -0.4569 -0.4067
vn -0.7572 -0.0000 -0.6532
vn -0.9135 -0.0000 -0.4069
vn -0.6558 0.3784 -0.6532
vn -0.7910 0.4567 -0.4070
vn -0.3786 0.6556 -0.6533
vn -0.4569 0.7909 -0.4071
vn -0.0000 0.7570 -0.6534
vn -0.0000 -0.0002 -1.0000
vn 0.0001 0.7071 -0.7072
vn 0.3536 0.6122 -0.7073
vn 0.6125 0.3534 -0.7071
vn 0.7072 -0.0001 -0.7071
vn 0.6124 -0.3539 -0.7069
vn 0.3536 -0.6124 -0.7071
vn -0.0000 -0.7071 -0.7071
vn -0.3536 -0.6124 -0.7070
vn -0.6125 -0.3538 -0.7069
vn -0.7071 -0.0001 -0.7071
vn -0.6124 0.3534 -0.7071
vn -0.3536 0.6122 -0.7073
vt 0.032255 0.995925
vt 0.037367 0.995925
vt 0.037365 -0.000000
vt 0.043269 0.000002
vt 0.043269 0.995927
vt 0.048382 0.000001
vt 0.048382 0.995926
vt 0.016127 0.995926
vt 0.021240 0.000000
vt 0.016127 0.000001
vt 0.021240 0.995925
vt 0.027142 0.000002
vt 0.027142 0.995927
vt 0.032255 0.000002
vt 0.032255 0.995926
vt 0.048382 0.995926
vt 0.053495 0.000002
vt 0.048382 0.000002
vt 0.053495 0.995927
vt 0.059396 0.000000
vt 0.059396 0.995925
vt 0.064509 0.000001
vt 0.064509 0.995926
vt 0.000000 0.995926
vt 0.005113 0.000002
vt 0.000000 0.000001
vt 0.005113 0.995927
vt 0.011016 -0.000000
vt 0.011015 0.995925
vt 0.016127 0.000000
vt 0.016127 0.995925
vt 0.032255 0.000000
vt 0.083586 0.019082
vt 0.075524 0.011017
vt 0.078474 0.022032
vt 0.072571 0.022032
vt 0.067459 0.019079
vt 0.083589 0.002953
vt 0.086539 0.008067
vt 0.086539 0.013970
vt 0.067462 0.002953
vt 0.072574 -0.000000
vt 0.078477 0.000003
vt 0.064509 0.013968
vt 0.064509 0.008064
vt 0.070111 0.045247
vt 0.068039 0.037509
vt 0.064509 0.039545
vt 0.036312 0.999998
vt 0.044324 1.000000
vt 0.066584 0.052985
vt 0.068582 0.060723
vt 0.070111 0.055021
vt 0.064509 0.060723
vt 0.070111 0.066425
vt 0.066584 0.068462
vt 0.020187 1.000000
vt 0.028196 0.999999
vt 0.068036 0.083938
vt 0.066038 0.076200
vt 0.064509 0.081902
vt 0.070111 0.076200
vt 0.064509 0.070498
vt 0.068036 0.068462
vt 0.052440 0.999999
vt 0.060450 1.000000
vt 0.068036 0.037509
vt 0.066038 0.029770
vt 0.064509 0.035472
vt 0.070111 0.029770
vt 0.064509 0.024068
vt 0.068036 0.022032
vt 0.004058 1.000000
vt 0.012070 0.999998
vt 0.068039 0.052985
vt 0.066038 0.045247
vt 0.064509 0.050949
s 1
f 1/1/1 3/2/2 2/3/3
f 3/2/2 4/4/4 2/3/3
f 3/2/2 5/5/5 4/4/4
f 5/5/5 6/6/6 4/4/4
f 5/5/5 7/7/7 6/6/6
f 7/8/7 8/9/8 6/10/6
f 7/8/7 9/11/9 8/9/8
f 9/11/9 10/12/10 8/9/8
f 9/11/9 11/13/11 10/12/10
f 11/13/11 12/14/12 10/12/10
f 11/13/11 13/15/13 12/14/12
f 13/16/13 14/17/14 12/18/12
f 13/16/13 15/19/15 14/17/14
f 15/19/15 16/20/16 14/17/14
f 15/19/15 17/21/17 16/20/16
f 17/21/17 18/22/18 16/20/16
f 17/21/17 19/23/19 18/22/18
f 19/24/19 20/25/20 18/26/18
f 19/24/19 21/27/21 20/25/20
f 21/27/21 22/28/22 20/25/20
f 21/27/21 23/29/23 22/28/22
f 23/29/23 24/30/24 22/28/22
f 23/29/23 1/31/1 24/30/24
f 1/1/1 2/3/3 24/32/24
f 16/33/16 25/34/25 14/35/14
f 25/34/25 12/36/12 14/35/14
f 25/34/25 10/37/10 12/36/12
f 22/38/22 25/34/25 20/39/20
f 25/34/25 18/40/18 20/39/20
f 25/34/25 16/33/16 18/40/18
f 4/41/4 25/34/25 2/42/3
f 25/34/25 24/43/24 2/42/3
f 25/34/25 22/38/22 24/43/24
f 10/37/10 25/34/25 8/44/8
f 25/34/25 6/45/6 8/44/8
f 25/34/25 4/41/4 6/45/6
f 26/46/26 27/47/27 3/48/2
f 27/49/27 5/5/5 3/2/2
f 27/49/27 28/50/28 5/5/5
f 28/51/28 7/52/7 5/53/5
f 28/51/28 29/54/29 7/52/7
f 29/54/29 9/55/9 7/52/7
f 29/54/29 30/56/30 9/55/9
f 30/57/30 11/13/11 9/11/9
f 30/57/30 31/58/31 11/13/11
f 31/59/31 13/60/13 11/61/11
f 31/59/31 32/62/32 13/60/13
f 32/62/32 15/63/15 13/60/13
f 32/62/32 33/64/33 15/63/15
f 33/65/33 17/21/17 15/19/15
f 33/65/33 34/66/34 17/21/17
f 34/67/34 19/68/19 17/69/17
f 34/67/34 35/70/35 19/68/19
f 35/70/35 21/71/21 19/68/19
f 35/70/35 36/72/36 21/71/21
f 36/73/36 23/29/23 21/27/21
f 36/73/36 37/74/37 23/29/23
f 37/75/37 1/76/1 23/77/23
f 37/75/37 26/46/26 1/76/1
f 26/46/26 3/48/2 1/76/1
o tool_roll_link
v 0.002658 -0.003200 -0.000749
v 0.002650 -0.003207 -0.000749
v 0.002658 -0.003201 -0.003599
v 0.002572 -0.003272 -0.009099
v 0.003144 -0.002725 -0.003600
v 0.002633 -0.003221 -0.000451
v 0.002581 -0.003263 -0.000160
v 0.003144 -0.002726 -0.009100
v 0.003603 -0.002082 -0.009100
v 0.003603 -0.002081 -0.003600
v 0.003931 -0.001362 -0.009100
v 0.003931 -0.001361 -0.003600
v 0.004118 -0.000594 -0.009100
v 0.004118 -0.000593 -0.003600
v 0.004155 0.000196 -0.009100
v 0.004155 0.000197 -0.003600
v 0.004043 0.000979 -0.009100
v 0.004043 0.000980 -0.003600
v 0.003784 0.001727 -0.009100
v 0.003784 0.001728 -0.003600
v 0.003389 0.002411 -0.009100
v 0.003389 0.002412 -0.003600
v 0.002871 0.003009 -0.009101
v 0.002871 0.003010 -0.003601
v 0.002249 0.003498 -0.009101
v 0.002388 0.003407 0.000399
v 0.002500 0.003325 0.000128
v 0.002584 0.003260 -0.000161
v 0.002633 0.003221 -0.000452
v 0.002650 0.003207 -0.000751
v 0.002658 0.003200 -0.000751
v 0.002658 0.003199 -0.003601
v 0.001546 0.003860 -0.009101
v 0.001545 0.003860 0.001395
v 0.001652 0.003818 0.001321
v 0.001874 0.003714 0.001123
v 0.002072 0.003608 0.000902
v 0.002249 0.003500 0.000651
v 0.001353 0.003934 0.001528
v 0.000787 0.004083 -0.009101
v 0.001150 0.003998 0.001637
v 0.000631 0.004112 -0.000304
v 0.000682 0.004104 -0.000156
v 0.000304 0.004149 -0.000631
v 0.000437 0.004137 -0.000548
v 0.000547 0.004124 -0.000437
v 0.000700 0.004101 -0.000001
v 0.000787 0.004085 0.001780
v 0.000682 0.004104 0.000155
v 0.000631 0.004112 0.000303
v 0.000547 0.004124 0.000436
v -0.000630 0.004112 0.000303
v -0.000682 0.004104 0.000155
v -0.000787 0.004085 0.001780
v -0.000547 0.004124 0.000436
v 0.000436 0.004137 0.000547
v 0.000304 0.004149 0.000630
v 0.000590 0.004118 0.001833
v 0.000156 0.004157 0.000682
v 0.000261 0.004152 0.001886
v 0.000000 0.004160 0.000699
v 0.000000 0.004158 0.001896
v -0.000075 0.004160 0.001898
v -0.000156 0.004157 0.000682
v -0.000299 0.004150 0.001882
v -0.000590 0.004118 0.001833
v -0.000304 0.004149 0.000630
v -0.000437 0.004137 0.000546
v -0.000700 0.004101 -0.000001
v -0.000682 0.004104 -0.000156
v -0.000787 0.004083 -0.009101
v -0.000631 0.004112 -0.000305
v -0.000547 0.004124 -0.000437
v -0.000437 0.004137 -0.000548
v -0.000304 0.004149 -0.000631
v -0.000156 0.004157 -0.000683
v 0.000000 0.004158 -0.009101
v 0.000000 0.004160 -0.000701
v 0.000156 0.004157 -0.000683
v -0.001546 0.003860 -0.009101
v -0.001546 0.003862 0.001402
v -0.001354 0.003934 0.001528
v -0.001150 0.003998 0.001637
v -0.002249 0.003498 -0.009101
v -0.002249 0.003500 0.000651
v -0.002072 0.003608 0.000902
v -0.001875 0.003714 0.001122
v -0.001647 0.003817 0.001315
v -0.002658 0.003200 -0.000751
v -0.002650 0.003207 -0.000751
v -0.002658 0.003199 -0.003601
v -0.002871 0.003010 -0.003601
v -0.002633 0.003221 -0.000452
v -0.002584 0.003260 -0.000161
v -0.002500 0.003325 0.000127
v -0.002388 0.003407 0.000399
v -0.002871 0.003009 -0.009101
v -0.003389 0.002411 -0.009100
v -0.003389 0.002412 -0.003600
v -0.003784 0.001727 -0.009100
v -0.003784 0.001728 -0.003600
v -0.004043 0.000979 -0.009100
v -0.004043 0.000980 -0.003600
v -0.004155 0.000196 -0.009100
v -0.004155 0.000197 -0.003600
v -0.004118 -0.000594 -0.009100
v -0.004118 -0.000593 -0.003600
v -0.003931 -0.001362 -0.009100
v -0.003931 -0.001361 -0.003600
v -0.003603 -0.002082 -0.009100
v -0.003603 -0.002081 -0.003600
v -0.003144 -0.002726 -0.009100
v -0.003144 -0.002725 -0.003600
v -0.002650 -0.003207 -0.000749
v -0.002658 -0.003200 -0.000749
v -0.002658 -0.003201 -0.003599
v -0.002572 -0.003272 -0.009099
v -0.001906 -0.003699 -0.009099
v -0.002072 -0.003607 0.000903
v -0.002244 -0.003503 0.000660
v -0.002388 -0.003407 0.000400
v -0.002492 -0.003331 0.000153
v -0.002571 -0.003270 -0.000118
v -0.002584 -0.003261 -0.000160
v -0.002633 -0.003221 -0.000451
v -0.001172 -0.003991 0.001627
v -0.001421 -0.003909 0.001487
v -0.001172 -0.003993 -0.009099
v -0.001652 -0.003818 0.001323
v -0.001906 -0.003697 0.001092
v -0.000547 -0.004124 -0.000436
v -0.000395 -0.004141 -0.000577
v -0.000395 -0.004143 -0.009099
v -0.000304 -0.004149 -0.000630
v -0.000700 -0.004101 0.000000
v -0.000682 -0.004104 -0.000155
v -0.000631 -0.004112 -0.000303
v -0.000682 -0.004104 0.000156
v -0.000631 -0.004112 0.000305
v -0.000547 -0.004124 0.000437
v -0.000395 -0.004141 0.001871
v -0.000590 -0.004118 0.001834
v -0.000395 -0.004141 0.000578
v -0.000877 -0.004066 0.001751
v -0.001149 -0.003997 0.001637
v -0.000304 -0.004149 0.000631
v -0.000156 -0.004157 0.000683
v 0.000000 -0.004160 0.001901
v 0.000000 -0.004160 0.000701
v 0.000395 -0.004141 0.001871
v 0.000156 -0.004157 0.000683
v 0.000304 -0.004149 0.000631
v 0.000395 -0.004141 0.000578
v 0.000590 -0.004118 0.001834
v 0.000878 -0.004066 0.001751
v 0.000682 -0.004104 0.000156
v 0.000700 -0.004101 0.000001
v 0.001172 -0.003990 0.001626
v 0.001150 -0.003998 0.001638
v 0.000547 -0.004124 0.000437
v 0.000630 -0.004112 0.000305
v 0.000682 -0.004104 -0.000155
v 0.001172 -0.003993 -0.009099
v 0.001421 -0.003910 0.001488
v 0.000395 -0.004141 -0.000577
v 0.000395 -0.004143 -0.009099
v 0.000547 -0.004124 -0.000436
v 0.000631 -0.004112 -0.000303
v 0.001906 -0.003699 -0.009099
v 0.001906 -0.003697 0.001092
v 0.001652 -0.003818 0.001323
v 0.002388 -0.003407 0.000400
v 0.002243 -0.003503 0.000661
v 0.002072 -0.003607 0.000903
v 0.002572 -0.003270 -0.000109
v 0.002492 -0.003331 0.000153
v 0.000304 -0.004149 -0.000630
v 0.000156 -0.004157 -0.000682
v 0.000000 -0.004162 -0.009099
v 0.000000 -0.004160 -0.000699
v -0.000156 -0.004157 -0.000682
v 0.000000 -0.000002 -0.009100
v 0.000304 0.003200 -0.000631
v 0.000000 0.003200 -0.000701
v -0.000304 0.003200 0.000630
v 0.000000 0.003200 0.000699
v 0.000000 0.003200 0.001899
v 0.000547 0.003200 0.000436
v 0.000682 0.003200 0.000155
v 0.002650 0.003200 -0.000751
v 0.000682 0.003200 -0.000156
v 0.000547 0.003200 -0.000437
v -0.002650 0.003200 -0.000751
v -0.000304 0.003200 -0.000631
v 0.000590 0.003200 0.001833
v 0.000304 0.003200 0.000630
v 0.001150 0.003200 0.001637
v -0.000547 0.003200 -0.000437
v -0.000682 0.003200 -0.000156
v -0.002584 0.003200 -0.000161
v -0.000682 0.003200 0.000155
v -0.000547 0.003200 0.000436
v -0.002072 0.003200 0.000902
v -0.002388 0.003200 0.000399
v -0.000590 0.003200 0.001833
v -0.001150 0.003200 0.001637
v -0.001652 0.003200 0.001321
v 0.002584 0.003200 -0.000161
v 0.002388 0.003200 0.000399
v 0.002072 0.003200 0.000902
v 0.001652 0.003200 0.001321
v 0.002650 -0.003200 -0.000749
v -0.002584 -0.003200 -0.000160
v -0.002388 -0.003200 0.000400
v -0.002650 -0.003200 -0.000749
v -0.002072 -0.003200 0.000903
v -0.001652 -0.003200 0.001322
v -0.001150 -0.003200 0.001638
v -0.000590 -0.003200 0.001834
v 0.000000 -0.003200 0.001901
v -0.000547 -0.003200 0.000437
v -0.000304 -0.003200 0.000631
v 0.000000 -0.003200 0.000701
v 0.000304 -0.003200 0.000631
v -0.000682 -0.003200 0.000156
v -0.000682 -0.003200 -0.000155
v -0.000547 -0.003200 -0.000436
v -0.000304 -0.003200 -0.000630
v 0.000682 -0.003200 -0.000155
v 0.002584 -0.003200 -0.000160
v 0.000682 -0.003200 0.000156
v 0.000000 -0.003200 -0.000699
v 0.000304 -0.003200 -0.000630
v 0.000547 -0.003200 -0.000436
v 0.000547 -0.003200 0.000437
v 0.002072 -0.003200 0.000903
v 0.002388 -0.003200 0.000400
v 0.000590 -0.003200 0.001834
v 0.001150 -0.003200 0.001638
v 0.001652 -0.003200 0.001322
vn 0.6579 -0.7530 0.0093
vn 0.6320 -0.7750 -0.0002
vn 0.6551 -0.7555 0.0018
vn 0.6208 -0.7839 -0.0010
vn 0.7592 -0.6508 0.0008
vn 0.6208 -0.7840 0.0031
vn 0.6142 -0.7891 0.0086
vn 0.7556 -0.6550 -0.0003
vn 0.8662 -0.4997 -0.0002
vn 0.8660 -0.5000 0.0004
vn 0.9451 -0.3268 0.0004
vn 0.9449 -0.3272 -0.0003
vn 0.9899 -0.1420 -0.0004
vn 0.9898 -0.1425 0.0004
vn 0.9989 0.0477 -0.0004
vn 0.9989 0.0476 0.0004
vn 0.9718 0.2357 -0.0002
vn 0.9719 0.2354 0.0001
vn 0.9096 0.4155 -0.0001
vn 0.8145 0.5801 0.0002
vn 0.8146 0.5801 -0.0000
vn 0.6909 0.7229 -0.0022
vn 0.7118 0.7023 -0.0009
vn 0.5399 0.8417 -0.0036
vn 0.5625 0.8268 0.0005
vn 0.5921 0.8059 -0.0045
vn 0.6054 0.7959 -0.0074
vn 0.6179 0.7862 -0.0087
vn 0.6162 0.7876 0.0003
vn 0.8666 0.3929 0.3077
vn 0.7916 -0.2973 0.5339
vn 1.0000 0.0023 0.0026
vn 0.6204 0.7843 0.0008
vn 0.3711 0.9286 -0.0016
vn 0.3618 0.9323 -0.0001
vn 0.3839 0.9234 -0.0007
vn 0.4375 0.8992 -0.0009
vn 0.4818 0.8763 -0.0012
vn 0.5272 0.8498 -0.0015
vn 0.3193 0.9477 -0.0013
vn 0.1870 0.9824 -0.0011
vn 0.2581 0.9661 -0.0010
vn 0.1556 0.9878 0.0011
vn 0.1642 0.9864 0.0002
vn 0.0771 0.9970 -0.0018
vn 0.1091 0.9940 -0.0002
vn 0.1356 0.9908 0.0004
vn 0.1793 0.9838 0.0049
vn 0.1877 0.9822 -0.0039
vn 0.1644 0.9864 0.0012
vn 0.1560 0.9878 0.0037
vn 0.1381 0.9904 0.0042
vn -0.1526 0.9883 -0.0002
vn -0.1667 0.9860 -0.0011
vn -0.1866 0.9824 -0.0032
vn -0.1397 0.9902 0.0025
vn 0.1134 0.9935 0.0101
vn 0.0837 0.9964 0.0110
vn 0.1314 0.9913 -0.0083
vn 0.0428 0.9991 0.0057
vn 0.0610 0.9981 -0.0001
vn 0.0030 1.0000 -0.0009
vn 0.0223 0.9997 0.0023
vn -0.0104 0.9999 0.0034
vn -0.0464 0.9989 0.0043
vn -0.0761 0.9971 -0.0021
vn -0.1324 0.9912 -0.0086
vn -0.0834 0.9965 0.0109
vn -0.1138 0.9935 0.0088
vn -0.1829 0.9831 -0.0046
vn -0.1609 0.9870 0.0003
vn -0.1914 0.9815 -0.0011
vn -0.1547 0.9880 -0.0036
vn -0.1351 0.9908 0.0010
vn -0.1101 0.9939 -0.0037
vn -0.0771 0.9970 -0.0018
vn -0.0401 0.9992 -0.0025
vn 0.0004 1.0000 -0.0009
vn 0.0026 1.0000 -0.0025
vn 0.0385 0.9992 -0.0046
vn -0.3719 0.9283 -0.0008
vn -0.3673 0.9301 -0.0004
vn -0.3165 0.9486 -0.0019
vn -0.2576 0.9662 -0.0002
vn -0.5406 0.8413 -0.0016
vn -0.5211 0.8535 -0.0035
vn -0.4831 0.8756 -0.0026
vn -0.4283 0.9037 0.0001
vn -0.4055 0.9141 0.0016
vn -0.7816 -0.2852 0.5547
vn -0.8641 0.4029 0.3016
vn -1.0000 0.0023 0.0045
vn -0.6201 0.7845 0.0011
vn -0.6159 0.7878 0.0007
vn -0.7092 0.7050 -0.0038
vn -0.9896 0.1241 0.0727
vn -0.9745 0.0205 0.2235
vn -0.6053 0.7960 -0.0008
vn -0.5899 0.8075 0.0016
vn -0.5628 0.8266 0.0010
vn -0.6902 0.7236 -0.0004
vn -0.8146 0.5800 0.0002
vn -0.8144 0.5802 -0.0001
vn -0.9096 0.4155 -0.0001
vn -0.9719 0.2353 -0.0000
vn -0.9719 0.2354 0.0002
vn -0.9989 0.0471 -0.0000
vn -0.9988 0.0481 -0.0000
vn -0.9898 -0.1422 -0.0004
vn -0.9899 -0.1419 -0.0002
vn -0.9451 -0.3267 -0.0003
vn -0.9452 -0.3265 0.0001
vn -0.8662 -0.4997 -0.0004
vn -0.8663 -0.4995 -0.0000
vn -0.7568 -0.6537 -0.0037
vn -0.7601 -0.6498 0.0002
vn -0.6465 -0.7628 0.0134
vn -0.6591 -0.7520 -0.0088
vn -0.6578 -0.7532 0.0004
vn -0.6170 -0.7870 -0.0020
vn -0.4570 -0.8894 -0.0020
vn -0.4870 -0.8734 0.0004
vn -0.5245 -0.8514 -0.0025
vn -0.5585 -0.8295 -0.0021
vn -0.5868 -0.8098 -0.0047
vn -0.6146 -0.7886 -0.0178
vn -0.5514 -0.8342 -0.0066
vn -0.6280 -0.7782 -0.0076
vn -0.2637 -0.9646 -0.0058
vn -0.3294 -0.9442 -0.0013
vn -0.2804 -0.9599 -0.0012
vn -0.3857 -0.9226 0.0015
vn -0.4431 -0.8965 -0.0008
vn -0.1405 -0.9901 -0.0035
vn -0.1089 -0.9940 -0.0030
vn -0.1184 -0.9930 -0.0000
vn -0.0732 -0.9973 0.0015
vn -0.2601 -0.9656 -0.0073
vn -0.2164 -0.9763 0.0002
vn -0.1636 -0.9865 -0.0026
vn -0.2035 -0.9791 0.0065
vn -0.1856 -0.9825 0.0172
vn -0.1608 -0.9869 0.0137
vn -0.0831 -0.9965 0.0032
vn -0.1458 -0.9893 -0.0039
vn -0.1137 -0.9935 0.0064
vn -0.2041 -0.9789 -0.0117
vn -0.2436 -0.9698 -0.0154
vn -0.0731 -0.9973 -0.0005
vn -0.0378 -0.9993 0.0007
vn 0.0012 -1.0000 0.0023
vn 0.0030 -1.0000 0.0025
vn 0.0795 -0.9968 0.0016
vn 0.0385 -0.9992 0.0045
vn 0.0731 -0.9973 -0.0005
vn 0.1313 -0.9913 0.0122
vn 0.1440 -0.9896 -0.0041
vn 0.2037 -0.9788 -0.0206
vn 0.2048 -0.9788 0.0066
vn 0.2630 -0.9647 -0.0130
vn 0.2940 -0.9556 -0.0215
vn 0.2647 -0.9637 -0.0347
vn 0.1597 -0.9870 0.0176
vn 0.1853 -0.9826 0.0141
vn 0.2176 -0.9760 0.0009
vn 0.2830 -0.9591 -0.0013
vn 0.3278 -0.9447 0.0011
vn 0.1016 -0.9948 -0.0000
vn 0.1207 -0.9927 -0.0020
vn 0.1396 -0.9902 -0.0038
vn 0.1609 -0.9870 -0.0056
vn 0.4593 -0.8883 0.0001
vn 0.4383 -0.8988 -0.0021
vn 0.3869 -0.9221 -0.0010
vn 0.5562 -0.8310 -0.0000
vn 0.5234 -0.8521 0.0001
vn 0.4873 -0.8732 0.0009
vn 0.5984 -0.8012 -0.0062
vn 0.5855 -0.8107 -0.0028
vn 0.0733 -0.9973 0.0014
vn 0.0364 -0.9993 0.0003
vn -0.0001 -1.0000 -0.0001
vn -0.0002 -1.0000 0.0013
vn -0.0396 -0.9992 -0.0019
vn -0.0000 -0.0003 -1.0000
vn -0.0008 -0.0003 -1.0000
vn 0.0001 -0.0002 -1.0000
vn -0.0014 -0.0008 -1.0000
vn -0.0004 -0.0011 -1.0000
vn -0.0018 -0.0016 -1.0000
vn 0.0002 -0.0001 -1.0000
vn 0.0001 -0.0005 -1.0000
vn -0.0004 -0.0005 -1.0000
vn -0.0041 0.0008 -1.0000
vn -0.0019 -0.0033 -1.0000
vn 0.0004 -0.0001 -1.0000
vn 0.0004 -0.0004 -1.0000
vn -0.0000 -0.0002 -1.0000
vn -0.0004 -0.0001 -1.0000
vn -0.0001 -0.0003 -1.0000
vn 0.0002 -0.0007 -1.0000
vn -0.0000 -0.0000 -1.0000
vn 0.0002 -0.0002 -1.0000
vn 0.0002 -0.0004 -1.0000
vn 0.0006 0.0008 -1.0000
vn 0.0005 -0.0001 -1.0000
vn 0.0017 -0.0000 -1.0000
vn 0.0017 -0.0007 -1.0000
vn -0.0003 -0.0003 -1.0000
vn -0.0003 0.0010 -1.0000
vn 0.0002 0.0004 -1.0000
vn 0.0001 0.0001 -1.0000
vn -0.0001 -0.0006 -1.0000
vn -0.0002 -0.0004 -1.0000
vn -0.0004 -0.0002 -1.0000
vn 0.0001 0.0005 -1.0000
vn -0.0010 -0.0006 -1.0000
vn -0.0011 -0.0032 -1.0000
vn -0.0003 -0.0004 -1.0000
vn -0.0012 -0.0003 -1.0000
vn -0.0015 -0.0004 -1.0000
vn -0.0004 0.0004 1.0000
vn 0.0003 0.0002 1.0000
vn -0.0000 0.0004 1.0000
vn 0.0002 0.0003 1.0000
vn -0.0000 -0.0000 1.0000
vn 0.0014 0.0001 1.0000
vn 0.0039 0.0013 1.0000
vn 0.0018 0.0035 1.0000
vn 0.0001 0.0004 1.0000
vn 0.0003 0.0001 1.0000
vn -0.0007 0.0026 1.0000
vn -0.0037 -0.0026 1.0000
vn -0.0011 0.0012 1.0000
vn -0.0000 0.0003 1.0000
vn -0.0002 -0.0001 1.0000
vn 0.0003 -0.0000 1.0000
vn -0.0000 0.0001 1.0000
vn 0.0003 -0.0003 1.0000
vn 0.0002 -0.0005 1.0000
vn 0.0002 -0.0002 1.0000
vn -0.0002 0.0002 1.0000
vn -0.0000 -0.0004 1.0000
vn -0.0012 -1.0000 -0.0000
vn -0.0013 -1.0000 -0.0000
vn 0.0026 -1.0000 0.0002
vn 0.0005 -1.0000 0.0002
vn 0.0013 -1.0000 -0.0006
vn 0.0001 -1.0000 0.0005
vn -0.0000 -1.0000 -0.0006
vn 0.0004 -1.0000 -0.0011
vn -0.0001 -1.0000 0.0020
vn -0.0000 -1.0000 -0.0012
vn -0.0017 -1.0000 -0.0000
vn -0.5580 -0.5784 0.5951
vn -0.0006 -1.0000 -0.0018
vn 0.0045 -1.0000 -0.0002
vn 0.0001 -1.0000 0.0012
vn -0.0000 -1.0000 0.0003
vn 0.0002 -1.0000 -0.0000
vn 0.0001 -1.0000 0.0004
vn 0.5599 -0.5794 0.5922
vn 0.0013 -1.0000 0.0014
vn 0.0012 -1.0000 0.0011
vn -0.0028 -1.0000 0.0030
vn 0.0003 -1.0000 0.0003
vn -0.0002 -1.0000 0.0006
vn -0.0012 -1.0000 0.0014
vn -0.0000 -1.0000 0.0004
vn -0.0002 -1.0000 0.0019
vn -0.0005 -1.0000 -0.0003
vn 0.0016 -1.0000 0.0036
vn -0.0000 -1.0000 0.0011
vn 0.0004 -1.0000 0.0006
vn -0.0005 -1.0000 0.0003
vn 0.0109 0.9102 0.4139
vn -0.0000 1.0000 0.0020
vn 0.5578 0.5789 0.5948
vn 0.0012 1.0000 -0.0020
vn -0.0023 1.0000 -0.0007
vn -0.0010 1.0000 0.0035
vn -0.0026 1.0000 0.0084
vn 0.0010 1.0000 0.0019
vn -0.0002 1.0000 0.0010
vn 0.0003 1.0000 0.0004
vn 0.0004 1.0000 -0.0006
vn 0.0001 1.0000 0.0005
vn 0.0001 1.0000 0.0002
vn 0.0003 1.0000 -0.0001
vn 0.0009 1.0000 -0.0012
vn 0.0001 1.0000 -0.0009
vn -0.0011 1.0000 -0.0009
vn -0.0006 1.0000 -0.0006
vn 0.0010 1.0000 -0.0013
vn 0.0009 1.0000 -0.0007
vn 0.0011 1.0000 -0.0001
vn 0.0102 0.9074 0.4201
vn -0.5596 0.5795 0.5925
vn -0.0000 1.0000 0.0036
vn 0.0007 1.0000 0.0002
vn 0.0003 1.0000 0.0012
vn 0.0036 1.0000 -0.0009
vn 0.0005 1.0000 0.0004
vn -0.0001 1.0000 0.0013
vn 0.0004 1.0000 0.0004
vn 0.0001 1.0000 0.0008
vn -0.0003 1.0000 -0.0003
vn 0.0007 1.0000 -0.0001
vn 0.0007 1.0000 -0.0002
vn 0.0002 1.0000 -0.0001
vn 0.0006 1.0000 -0.0001
vn -0.0004 1.0000 -0.0007
vn -0.8661 -0.0131 0.4998
vn -0.9362 0.1222 0.3294
vn -0.8829 0.0152 0.4694
vn -0.8929 0.0182 0.4499
vn 0.8625 0.0079 0.5059
vn 0.8112 0.5779 0.0896
vn 0.9770 0.0147 0.2130
vn 0.9861 -0.0459 0.1598
vn 0.9617 0.0276 0.2726
vn 0.9361 0.0919 0.3394
vn 0.8965 0.0324 0.4419
vn 0.8958 -0.0018 0.4445
vn 0.8414 0.0276 0.5397
vn 0.7787 0.0258 0.6269
vn 0.7784 -0.0011 0.6278
vn 0.7045 0.0115 0.7096
vn 0.6217 0.0192 0.7831
vn 0.6190 0.0005 0.7854
vn 0.5252 0.0053 0.8510
vn 0.4324 0.0171 0.9015
vn 0.4857 -0.0037 0.8741
vn 0.2217 0.0146 0.9750
vn 0.3242 0.0036 0.9460
vn 0.4308 -0.0032 0.9025
vn -0.0003 0.0117 0.9999
vn 0.1286 0.0021 0.9917
vn 0.2285 0.0001 0.9735
vn -0.2222 0.0146 0.9749
vn -0.1264 0.0013 0.9920
vn -0.0001 -0.0006 1.0000
vn -0.4377 0.0130 0.8991
vn -0.3248 0.0029 0.9458
vn -0.2275 -0.0008 0.9738
vn -0.5322 0.0248 0.8463
vn -0.4396 -0.0029 0.8982
vn -0.3925 -0.0053 0.9198
vn -0.6031 0.0132 0.7975
vn -0.6163 0.0104 0.7875
vn -0.7028 0.0115 0.7112
vn -0.7818 0.0239 0.6230
vn -0.7778 -0.0011 0.6285
vn -0.8440 0.0525 0.5337
vn -0.9413 0.0251 0.3366
vn -0.9718 0.0302 0.2340
vn -0.9729 -0.0274 0.2297
vn -0.8083 0.5800 0.1010
vn 0.9350 -0.1323 0.3292
vn 0.8843 -0.0157 0.4666
vn 0.8930 -0.0170 0.4498
vn -0.9734 -0.0373 0.2263
vn -0.9380 -0.0940 0.3337
vn -0.8981 -0.0321 0.4386
vn -0.8974 0.0021 0.4412
vn -0.8417 -0.0272 0.5392
vn -0.7788 -0.0249 0.6267
vn -0.7748 0.0009 0.6322
vn -0.6916 -0.0047 0.7223
vn -0.6203 -0.0160 0.7842
vn -0.6556 0.0112 0.7550
vn -0.5797 -0.0062 0.8148
vn -0.4341 -0.0163 0.9007
vn -0.5079 -0.0113 0.8613
vn -0.2222 -0.0147 0.9749
vn -0.3081 -0.0016 0.9513
vn -0.4116 0.0008 0.9113
vn 0.0351 0.0036 0.9994
vn -0.0229 0.0016 0.9997
vn -0.0000 -0.0145 0.9999
vn -0.1154 -0.0042 0.9933
vn -0.2102 0.0004 0.9777
vn 0.2221 -0.0143 0.9749
vn 0.0989 -0.0007 0.9951
vn 0.4374 -0.0114 0.8992
vn 0.3069 -0.0016 0.9517
vn 0.2047 0.0002 0.9788
vn 0.5601 -0.0317 0.8278
vn 0.5178 -0.0154 0.8554
vn 0.4119 0.0001 0.9112
vn 0.5959 -0.0108 0.8030
vn 0.6165 -0.0108 0.7873
vn 0.6974 -0.0096 0.7166
vn 0.7814 -0.0234 0.6236
vn 0.7746 0.0013 0.6324
vn 0.8450 -0.0556 0.5318
vn 0.9656 -0.0137 0.2595
vn 0.9694 -0.0204 0.2448
vn 0.8106 -0.5768 0.1009
vn 0.9996 -0.0221 -0.0152
vn 0.9714 -0.0189 0.2365
vn 0.9748 -0.0015 0.2233
vn 0.4147 -0.0018 0.9099
vn 0.2194 -0.0006 0.9756
vn 0.4337 -0.0157 0.9009
vn 0.0002 -0.0157 0.9999
vn 0.5907 -0.0033 0.8069
vn 0.7847 -0.0085 0.6198
vn 0.7660 -0.0003 0.6429
vn 0.9049 -0.0193 0.4252
vn 0.9772 -0.0174 -0.2117
vn 0.9766 -0.0082 -0.2147
vn 0.8984 0.0001 -0.4392
vn 0.7816 -0.0152 -0.6235
vn 0.7644 -0.0012 -0.6448
vn 0.5897 -0.0028 -0.8076
vn 0.4357 -0.0153 -0.8999
vn 0.4149 -0.0018 -0.9099
vn 0.2200 -0.0030 -0.9755
vn 0.0012 -0.0161 -0.9999
vn 0.0002 -0.0012 -1.0000
vn -0.2228 -0.0030 -0.9749
vn -0.4352 -0.0154 -0.9002
vn -0.4149 -0.0018 -0.9099
vn -0.5910 -0.0033 -0.8067
vn -0.7852 -0.0088 -0.6192
vn -0.7677 -0.0059 -0.6408
vn -0.9751 -0.0184 0.2210
vn -1.0000 -0.0017 0.0021
vn -0.9735 -0.0097 -0.2284
vn -0.9711 -0.0172 -0.2382
vn -0.9041 -0.0200 -0.4269
vn -0.7819 -0.0160 0.6232
vn -0.8987 -0.0012 0.4387
vn -0.9748 -0.0032 0.2231
vn -0.4348 -0.0161 0.9004
vn -0.5894 -0.0024 0.8078
vn -0.7644 -0.0000 0.6447
vn -0.0003 -0.0016 1.0000
vn -0.2165 -0.0024 0.9763
vn -0.4147 -0.0017 0.9099
vn -0.9995 0.0254 -0.0173
vn -0.9714 0.0181 0.2367
vn -0.9747 0.0025 0.2234
vn -0.4290 0.0016 0.9033
vn -0.2213 0.0032 0.9752
vn -0.4337 0.0172 0.9009
vn 0.0012 0.0173 0.9998
vn -0.6193 0.0039 0.7851
vn -0.7851 0.0100 0.6193
vn -0.7791 0.0017 0.6269
vn -0.9050 0.0203 0.4249
vn -0.9767 0.0187 -0.2139
vn -0.9766 0.0094 -0.2149
vn -0.8987 0.0010 -0.4386
vn -0.7823 0.0173 -0.6227
vn -0.7770 0.0004 -0.6295
vn -0.6186 0.0017 -0.7857
vn -0.4337 0.0173 -0.9009
vn -0.4301 0.0008 -0.9028
vn -0.2178 0.0025 -0.9760
vn -0.0013 0.0169 -0.9999
vn -0.0017 0.0013 -1.0000
vn 0.2202 0.0017 -0.9754
vn 0.4331 0.0171 -0.9012
vn 0.4310 0.0010 -0.9024
vn 0.6200 0.0027 -0.7846
vn 0.7854 0.0103 -0.6190
vn 0.7794 0.0012 -0.6265
vn 0.9751 0.0171 0.2211
vn 1.0000 0.0019 0.0046
vn 0.9735 0.0089 -0.2286
vn 0.9713 0.0165 -0.2373
vn 0.9042 0.0222 -0.4266
vn 0.7822 0.0163 0.6228
vn 0.8982 -0.0000 0.4396
vn 0.9746 0.0051 0.2239
vn 0.4350 0.0164 0.9003
vn 0.6186 0.0005 0.7857
vn 0.7781 0.0024 0.6281
vn -0.0001 0.0010 1.0000
vn 0.2210 0.0022 0.9753
vn 0.4290 0.0015 0.9033
vt 0.352032 0.410202
vt 0.352116 0.410202
vt 0.352032 0.440419
vt 0.352940 0.498732
vt 0.346904 0.440434
vt 0.352296 0.407042
vt 0.352845 0.403957
vt 0.346904 0.498748
vt 0.501821 0.409294
vt 0.559773 0.409294
vt 0.560320 0.416074
vt 0.502369 0.416074
vt 0.560714 0.423674
vt 0.502762 0.423674
vt 0.560942 0.431797
vt 0.502990 0.431797
vt 0.560993 0.440168
vt 0.503042 0.440168
vt 0.560869 0.448481
vt 0.502917 0.448481
vt 0.560570 0.456438
vt 0.502619 0.456438
vt 0.560111 0.463731
vt 0.502159 0.463731
vt 0.559516 0.470124
vt 0.501565 0.470124
vt 0.467857 0.586742
vt 0.469331 0.486019
vt 0.470518 0.488893
vt 0.471409 0.491957
vt 0.471928 0.495042
vt 0.472108 0.498212
vt 0.472193 0.498212
vt 0.472193 0.528429
vt 0.474451 0.528430
vt 0.474451 0.586743
vt 0.460404 0.586741
vt 0.460393 0.475458
vt 0.461528 0.476243
vt 0.463881 0.478342
vt 0.465981 0.480686
vt 0.467857 0.483347
vt 0.458358 0.474048
vt 0.452357 0.586741
vt 0.456206 0.472892
vt 0.450703 0.493471
vt 0.451244 0.491902
vt 0.447236 0.496938
vt 0.448646 0.496058
vt 0.449813 0.494881
vt 0.451435 0.490259
vt 0.452357 0.471376
vt 0.451244 0.488605
vt 0.450703 0.487035
vt 0.449813 0.485625
vt 0.437333 0.487035
vt 0.436782 0.488605
vt 0.435669 0.471376
vt 0.438213 0.485625
vt 0.448636 0.484448
vt 0.447236 0.483568
vt 0.450268 0.470814
vt 0.445667 0.483017
vt 0.446780 0.470252
vt 0.444013 0.482837
vt 0.444013 0.470146
vt 0.443218 0.470124
vt 0.442359 0.483017
vt 0.440843 0.470294
vt 0.437758 0.470814
vt 0.440790 0.483568
vt 0.439380 0.484459
vt 0.436591 0.490259
vt 0.436782 0.491902
vt 0.435669 0.586741
vt 0.437323 0.493482
vt 0.438213 0.494881
vt 0.439380 0.496058
vt 0.440790 0.496938
vt 0.442359 0.497489
vt 0.444013 0.586741
vt 0.444013 0.497680
vt 0.445667 0.497489
vt 0.427621 0.586741
vt 0.427621 0.475384
vt 0.429657 0.474048
vt 0.431820 0.472892
vt 0.420167 0.586742
vt 0.420167 0.483347
vt 0.422044 0.480686
vt 0.424133 0.478353
vt 0.426550 0.476306
vt 0.415830 0.498212
vt 0.415915 0.498212
vt 0.415830 0.528429
vt 0.413572 0.528430
vt 0.416095 0.495042
vt 0.416615 0.491957
vt 0.417506 0.488903
vt 0.418693 0.486019
vt 0.413572 0.586743
vt 0.413572 0.559590
vt 0.355635 0.559590
vt 0.355032 0.553166
vt 0.412969 0.553166
vt 0.354568 0.545850
vt 0.412505 0.545850
vt 0.354269 0.537878
vt 0.412206 0.537878
vt 0.354147 0.529559
vt 0.412084 0.529559
vt 0.354205 0.521190
vt 0.412142 0.521190
vt 0.354443 0.513079
vt 0.412379 0.513079
vt 0.354849 0.505500
vt 0.412786 0.505500
vt 0.355412 0.498748
vt 0.413349 0.498748
vt 0.408308 0.410202
vt 0.408394 0.410202
vt 0.408394 0.440419
vt 0.413572 0.440434
vt 0.413572 0.498747
vt 0.407478 0.498732
vt 0.400394 0.498728
vt 0.402159 0.392683
vt 0.403988 0.395260
vt 0.405520 0.398018
vt 0.406627 0.400637
vt 0.407467 0.403511
vt 0.407606 0.403956
vt 0.408127 0.407042
vt 0.392596 0.385003
vt 0.395241 0.386488
vt 0.392596 0.498725
vt 0.397695 0.388228
vt 0.400394 0.390678
vt 0.385963 0.406875
vt 0.384350 0.408369
vt 0.384350 0.498724
vt 0.383385 0.408931
vt 0.387586 0.402252
vt 0.387395 0.403896
vt 0.386854 0.405465
vt 0.387395 0.400598
vt 0.386854 0.399018
vt 0.385963 0.397619
vt 0.384350 0.382415
vt 0.386419 0.382807
vt 0.384350 0.396124
vt 0.389464 0.383688
vt 0.392352 0.384897
vt 0.383385 0.395562
vt 0.381815 0.395010
vt 0.380161 0.382096
vt 0.380161 0.394819
vt 0.375974 0.382415
vt 0.378507 0.395010
vt 0.376939 0.395562
vt 0.375974 0.396124
vt 0.373908 0.382807
vt 0.370857 0.383688
vt 0.372933 0.400598
vt 0.372743 0.402242
vt 0.367744 0.385014
vt 0.367977 0.384886
vt 0.374364 0.397619
vt 0.373484 0.399018
vt 0.372933 0.403896
vt 0.367744 0.498725
vt 0.365109 0.386478
vt 0.375974 0.408369
vt 0.375974 0.498724
vt 0.374364 0.406875
vt 0.373474 0.405465
vt 0.359978 0.498728
vt 0.359978 0.390678
vt 0.362664 0.388228
vt 0.354883 0.398018
vt 0.356415 0.395250
vt 0.358223 0.392683
vt 0.352940 0.403416
vt 0.353785 0.400637
vt 0.376939 0.408931
vt 0.378507 0.409483
vt 0.380161 0.498723
vt 0.380161 0.409663
vt 0.381815 0.409483
vt 0.498608 0.409689
vt 0.499978 0.413647
vt 0.457671 0.426105
vt 0.486539 0.392780
vt 0.492325 0.398835
vt 0.496864 0.405881
vt 0.463938 0.382480
vt 0.472084 0.384450
vt 0.479712 0.387918
vt 0.439344 0.386042
vt 0.447265 0.383289
vt 0.455559 0.382096
vt 0.420566 0.402312
vt 0.425741 0.395730
vt 0.432081 0.390233
vt 0.413572 0.426147
vt 0.414363 0.417808
vt 0.416724 0.409764
vt 0.420573 0.449961
vt 0.416733 0.442521
vt 0.414369 0.434488
vt 0.439357 0.466209
vt 0.432093 0.462024
vt 0.425759 0.456542
vt 0.463953 0.469719
vt 0.455571 0.470124
vt 0.447283 0.468941
vt 0.486549 0.459381
vt 0.479728 0.464249
vt 0.472100 0.467730
vt 0.499988 0.438484
vt 0.496870 0.446262
vt 0.492341 0.453315
vt 0.501565 0.421877
vt 0.501565 0.430252
vt 0.493960 0.472499
vt 0.502102 0.470517
vt 0.540303 0.544616
vt 0.533963 0.550108
vt 0.526711 0.554296
vt 0.479498 0.480843
vt 0.474451 0.542357
vt 0.474451 0.485996
vt 0.479498 0.547510
vt 0.486326 0.475977
vt 0.542307 0.485996
vt 0.542307 0.542358
vt 0.540303 0.483738
vt 0.533963 0.478246
vt 0.526711 0.474058
vt 0.510478 0.470124
vt 0.518780 0.471312
vt 0.502102 0.557837
vt 0.493960 0.555854
vt 0.486326 0.552376
vt 0.518780 0.557041
vt 0.510478 0.558229
vt 0.382168 0.586414
vt 0.385391 0.587156
vt 0.357210 0.617904
vt 0.388614 0.573044
vt 0.385391 0.572313
vt 0.385391 0.559590
vt 0.379591 0.575101
vt 0.378160 0.578081
vt 0.357295 0.587687
vt 0.378160 0.581378
vt 0.379591 0.584357
vt 0.413572 0.587686
vt 0.413572 0.617903
vt 0.413487 0.587686
vt 0.388614 0.586414
vt 0.379135 0.560290
vt 0.382168 0.573044
vt 0.373198 0.562368
vt 0.357210 0.587687
vt 0.391190 0.584357
vt 0.392622 0.581378
vt 0.412787 0.581431
vt 0.392622 0.578081
vt 0.391190 0.575101
vt 0.407359 0.570160
vt 0.410709 0.575493
vt 0.391646 0.560290
vt 0.397583 0.562368
vt 0.402906 0.565718
vt 0.357994 0.581431
vt 0.360072 0.575494
vt 0.363423 0.570161
vt 0.367876 0.565718
vt 0.530814 0.586325
vt 0.530814 0.616542
vt 0.530729 0.586325
vt 0.474451 0.616542
vt 0.475236 0.580081
vt 0.477314 0.574143
vt 0.474536 0.586325
vt 0.480664 0.568810
vt 0.485117 0.564368
vt 0.490440 0.561017
vt 0.496377 0.558939
vt 0.502632 0.558229
vt 0.496833 0.573751
vt 0.499409 0.571694
vt 0.502632 0.570952
vt 0.505856 0.571694
vt 0.495402 0.576730
vt 0.495402 0.580028
vt 0.496833 0.583007
vt 0.474451 0.586325
vt 0.499409 0.585064
vt 0.509863 0.580028
vt 0.530029 0.580081
vt 0.509863 0.576730
vt 0.502632 0.585795
vt 0.505856 0.585064
vt 0.508432 0.583007
vt 0.508432 0.573751
vt 0.524601 0.568810
vt 0.527951 0.574143
vt 0.508888 0.558939
vt 0.514825 0.561017
vt 0.520148 0.564368
vt 0.353336 0.498748
vt 0.353336 0.498832
vt 0.353261 0.498748
vt 0.506635 0.399604
vt 0.505837 0.396879
vt 0.508032 0.396875
vt 0.347020 0.545691
vt 0.346946 0.545691
vt 0.347175 0.542532
vt 0.346956 0.539407
vt 0.347624 0.539405
vt 0.347698 0.538857
vt 0.348345 0.536003
vt 0.346952 0.533276
vt 0.349147 0.533279
vt 0.350157 0.530360
vt 0.346935 0.527603
vt 0.351250 0.527610
vt 0.352193 0.525424
vt 0.346904 0.522693
vt 0.353456 0.522693
vt 0.545932 0.507532
vt 0.552484 0.507532
vt 0.544957 0.509970
vt 0.552485 0.512833
vt 0.544109 0.512600
vt 0.552485 0.518756
vt 0.543303 0.515709
vt 0.544024 0.512833
vt 0.552485 0.525007
vt 0.542508 0.520821
vt 0.542752 0.518756
vt 0.552485 0.531267
vt 0.542508 0.529197
vt 0.542307 0.525007
vt 0.552485 0.537218
vt 0.543303 0.534315
vt 0.542752 0.531267
vt 0.544967 0.540102
vt 0.544098 0.537452
vt 0.544035 0.537207
vt 0.545932 0.542562
vt 0.552484 0.542562
vt 0.501565 0.386277
vt 0.508116 0.386277
vt 0.502815 0.389014
vt 0.508064 0.391196
vt 0.503750 0.391203
vt 0.504833 0.393968
vt 0.507279 0.402553
vt 0.508020 0.403010
vt 0.507374 0.403011
vt 0.507800 0.406135
vt 0.508031 0.409294
vt 0.507956 0.409294
vt 0.354073 0.498811
vt 0.354017 0.498860
vt 0.354017 0.498748
vt 0.353206 0.498811
vt 0.353261 0.498860
vt 0.348283 0.513251
vt 0.348257 0.510137
vt 0.350368 0.510739
vt 0.508349 0.409303
vt 0.508274 0.409304
vt 0.508456 0.406132
vt 0.508197 0.403010
vt 0.508833 0.403002
vt 0.509493 0.399859
vt 0.508144 0.396875
vt 0.510338 0.396849
vt 0.511307 0.394015
vt 0.508116 0.391197
vt 0.512441 0.391144
vt 0.513562 0.388575
vt 0.547756 0.507532
vt 0.542307 0.505154
vt 0.548848 0.505102
vt 0.549326 0.504025
vt 0.542307 0.499810
vt 0.550089 0.501980
vt 0.542307 0.493859
vt 0.551691 0.495951
vt 0.550768 0.499810
vt 0.552465 0.487599
vt 0.552486 0.488394
vt 0.542308 0.487599
vt 0.552380 0.490770
vt 0.552041 0.493859
vt 0.542307 0.481348
vt 0.552401 0.484832
vt 0.542307 0.475425
vt 0.551691 0.479263
vt 0.552041 0.481348
vt 0.549304 0.471254
vt 0.550089 0.473280
vt 0.550768 0.475425
vt 0.548859 0.470124
vt 0.542307 0.470124
vt 0.353206 0.500543
vt 0.347341 0.501314
vt 0.351897 0.505276
vt 0.347737 0.504090
vt 0.348071 0.507153
vt 0.348089 0.516465
vt 0.348701 0.516639
vt 0.347632 0.519583
vt 0.346976 0.522693
vt 0.346904 0.522672
vt 0.354073 0.498748
vt 0.354147 0.498748
vt 0.354073 0.498832
vt 0.533128 0.402854
vt 0.533160 0.404508
vt 0.523576 0.404508
vt 0.513678 0.395303
vt 0.513593 0.393738
vt 0.523740 0.395303
vt 0.523740 0.392085
vt 0.513763 0.396264
vt 0.523740 0.397866
vt 0.533577 0.409293
vt 0.523586 0.407628
vt 0.533383 0.407628
vt 0.533248 0.406128
vt 0.533163 0.401231
vt 0.523579 0.401231
vt 0.533255 0.399722
vt 0.523596 0.398430
vt 0.533393 0.398430
vt 0.356828 0.571176
vt 0.347031 0.571176
vt 0.357008 0.569497
vt 0.347031 0.568507
vt 0.357093 0.568507
vt 0.357178 0.566914
vt 0.347032 0.565253
vt 0.357210 0.565253
vt 0.357178 0.563609
vt 0.347031 0.562068
vt 0.357093 0.562068
vt 0.357008 0.561130
vt 0.347031 0.559590
vt 0.356828 0.559590
vt 0.523576 0.404503
vt 0.514024 0.402838
vt 0.523570 0.401227
vt 0.513987 0.401227
vt 0.523543 0.398430
vt 0.513891 0.399720
vt 0.513748 0.398430
vt 0.523559 0.407626
vt 0.513902 0.406124
vt 0.513992 0.404503
vt 0.523740 0.388857
vt 0.513763 0.387888
vt 0.523740 0.386267
vt 0.513561 0.409294
vt 0.513764 0.407626
vt 0.513562 0.392085
vt 0.513593 0.390430
vt 0.513678 0.388857
vt 0.543495 0.390703
vt 0.543524 0.392357
vt 0.533941 0.392341
vt 0.533802 0.388857
vt 0.533887 0.390429
vt 0.523740 0.388857
vt 0.523740 0.392085
vt 0.533675 0.387441
vt 0.523740 0.386267
vt 0.543834 0.396782
vt 0.533919 0.395463
vt 0.543714 0.395480
vt 0.543601 0.393978
vt 0.543524 0.389081
vt 0.533941 0.389065
vt 0.543601 0.387584
vt 0.533919 0.386267
vt 0.543714 0.386284
vt 0.531195 0.558229
vt 0.540992 0.558229
vt 0.531057 0.559350
vt 0.540992 0.560707
vt 0.530930 0.560707
vt 0.530845 0.562248
vt 0.540992 0.563892
vt 0.530814 0.563892
vt 0.530845 0.565553
vt 0.540992 0.567146
vt 0.530930 0.567146
vt 0.531057 0.568596
vt 0.540992 0.569815
vt 0.531195 0.569815
vt 0.543485 0.404508
vt 0.533931 0.402864
vt 0.543485 0.401231
vt 0.533901 0.401242
vt 0.543499 0.398430
vt 0.533822 0.399744
vt 0.533703 0.398440
vt 0.543499 0.407628
vt 0.533822 0.406149
vt 0.533901 0.404519
vt 0.523740 0.395303
vt 0.533675 0.396707
vt 0.523741 0.397866
vt 0.533577 0.408938
vt 0.533703 0.407639
vt 0.533919 0.392085
vt 0.533887 0.393737
vt 0.533802 0.395303
s 1
f 38/78/38 39/79/39 40/80/40
f 40/80/40 39/79/39 41/81/41
f 40/80/40 41/81/41 42/82/42
f 39/79/39 43/83/43 44/84/44
f 41/81/41 45/85/45 42/82/42
f 42/86/42 45/87/45 46/88/46
f 42/86/42 46/88/46 47/89/47
f 47/89/47 46/88/46 48/90/48
f 47/89/47 48/90/48 49/91/49
f 49/91/49 48/90/48 50/92/50
f 49/91/49 50/92/50 51/93/51
f 51/93/51 50/92/50 52/94/52
f 51/93/51 52/94/52 53/95/53
f 53/95/53 52/94/52 54/96/54
f 53/95/53 54/96/54 55/97/55
f 55/97/55 54/96/54 56/98/56
f 55/97/55 56/98/56 57/99/56
f 57/99/56 56/98/56 58/100/57
f 57/99/56 58/100/57 59/101/58
f 59/101/58 58/100/57 60/102/59
f 59/101/58 60/102/59 61/103/60
f 62/104/61 63/105/62 64/106/63
f 65/107/64 66/108/65 67/109/66
f 67/109/67 68/110/68 69/111/69
f 61/112/60 60/113/59 69/111/70
f 69/111/70 60/113/59 62/104/61
f 69/111/70 62/104/61 67/109/66
f 67/109/66 62/104/61 64/106/63
f 67/109/66 64/106/63 65/107/64
f 70/114/71 71/115/72 72/116/73
f 72/116/73 73/117/74 70/114/71
f 70/114/71 73/117/74 74/118/75
f 70/114/71 74/118/75 62/104/61
f 62/104/61 74/118/75 75/119/76
f 62/104/61 75/119/76 63/105/62
f 71/115/72 70/114/71 76/120/77
f 76/120/77 70/114/71 77/121/78
f 76/120/77 77/121/78 78/122/79
f 79/123/80 80/124/81 77/121/78
f 81/125/82 82/126/83 77/121/78
f 77/121/78 82/126/83 83/127/84
f 77/121/78 83/127/84 79/123/80
f 80/124/81 84/128/85 77/121/78
f 77/121/78 84/128/85 85/129/86
f 77/121/78 85/129/86 78/122/79
f 84/128/85 86/130/87 85/129/86
f 85/129/86 86/130/87 87/131/88
f 85/129/86 87/131/88 88/132/89
f 89/133/90 90/134/91 91/135/92
f 89/133/90 91/135/92 92/136/93
f 88/132/89 93/137/94 85/129/86
f 85/129/86 93/137/94 94/138/95
f 85/129/86 94/138/95 95/139/96
f 95/139/96 94/138/95 96/140/97
f 95/139/96 96/140/97 97/141/98
f 97/141/98 96/140/97 98/142/99
f 97/141/98 98/142/99 99/143/100
f 99/143/100 98/142/99 100/144/101
f 100/144/101 98/142/99 101/145/102
f 100/144/101 101/145/102 102/146/103
f 102/146/103 101/145/102 103/147/104
f 103/147/104 101/145/102 104/148/105
f 103/147/104 104/148/105 91/135/92
f 91/135/92 104/148/105 105/149/106
f 91/135/92 105/149/106 92/136/93
f 106/150/107 107/151/108 108/152/109
f 107/151/108 109/153/110 108/152/109
f 108/152/109 109/153/110 110/154/111
f 108/152/109 110/154/111 111/155/112
f 111/155/112 112/156/113 108/152/109
f 108/152/109 112/156/113 113/157/114
f 108/152/109 113/157/114 114/158/115
f 114/158/115 113/157/114 115/159/116
f 114/158/115 115/159/116 77/121/78
f 77/121/78 115/159/116 116/160/117
f 77/121/78 116/160/117 81/125/82
f 117/161/118 118/162/119 108/152/109
f 108/152/109 118/162/119 119/163/120
f 90/134/91 106/150/107 91/135/92
f 91/135/92 106/150/107 108/152/109
f 91/135/92 108/152/109 120/164/121
f 120/164/121 108/152/109 119/163/120
f 121/165/122 122/166/123 117/161/118
f 117/161/118 122/166/123 123/167/124
f 123/167/124 124/168/125 117/161/118
f 117/161/118 124/168/125 125/169/126
f 117/161/118 125/169/126 118/162/119
f 126/170/127 127/171/128 128/172/129
f 128/172/130 127/171/131 121/165/122
f 128/172/130 121/165/122 129/173/132
f 130/174/133 131/175/134 127/171/128
f 127/171/131 131/175/135 132/176/136
f 127/171/131 132/176/136 121/165/122
f 121/165/122 132/176/136 133/177/137
f 121/165/122 133/177/137 122/166/123
f 121/165/122 134/178/138 129/173/132
f 129/179/132 134/180/138 135/181/139
f 129/179/132 135/181/139 136/182/140
f 136/182/140 135/181/139 137/183/141
f 136/182/140 137/183/141 138/184/141
f 138/184/141 137/183/141 139/185/142
f 138/184/141 139/185/142 140/186/143
f 140/186/143 139/185/142 141/187/144
f 140/186/143 141/187/144 142/188/145
f 142/188/145 141/187/144 143/189/146
f 142/188/145 143/189/146 144/190/147
f 144/190/147 143/189/146 145/191/148
f 144/190/147 145/191/148 146/192/149
f 146/192/149 145/191/148 147/193/150
f 146/192/149 147/193/150 148/194/151
f 148/194/151 147/193/150 149/195/152
f 148/194/151 149/195/152 150/196/153
f 151/197/154 152/198/155 153/199/156
f 150/200/153 149/201/152 153/199/156
f 153/199/156 149/201/152 154/202/157
f 153/199/156 154/202/157 151/197/154
f 155/203/158 156/204/159 157/205/160
f 157/205/160 158/206/161 155/203/158
f 155/203/158 158/206/161 159/207/162
f 155/203/158 159/207/162 154/202/157
f 154/202/157 159/207/162 160/208/163
f 154/202/157 160/208/163 151/197/154
f 151/197/154 160/208/163 161/209/164
f 151/197/154 161/209/164 162/210/165
f 163/211/166 164/212/167 165/213/168
f 165/213/168 164/212/167 166/214/169
f 165/213/168 166/214/169 155/203/158
f 155/203/158 166/214/169 167/215/170
f 155/203/158 167/215/170 156/204/159
f 168/216/171 165/213/168 169/217/172
f 169/217/172 165/213/168 170/218/173
f 169/217/172 170/218/173 171/219/174
f 172/220/175 163/211/166 173/221/176
f 173/221/176 163/211/166 165/213/168
f 173/221/176 165/213/168 174/222/177
f 174/222/177 165/213/168 168/216/171
f 172/220/175 175/223/178 163/211/166
f 163/211/166 175/223/178 176/224/179
f 163/211/166 176/224/179 177/225/180
f 178/226/181 179/227/182 180/228/183
f 180/228/183 179/227/182 181/229/184
f 180/228/183 181/229/184 177/225/180
f 177/225/180 181/229/184 182/230/185
f 177/225/180 182/230/185 163/211/166
f 180/228/183 183/231/186 178/226/181
f 178/226/181 183/231/186 184/232/187
f 178/226/181 184/232/187 185/233/188
f 185/233/188 184/232/187 186/234/189
f 185/233/188 186/234/189 187/235/190
f 187/235/190 186/234/189 188/236/191
f 188/236/191 189/237/192 187/235/190
f 187/235/190 189/237/192 190/238/193
f 187/235/190 190/238/193 191/239/194
f 191/239/194 190/238/193 192/240/195
f 193/241/196 194/242/197 195/243/198
f 192/240/195 190/238/193 196/244/199
f 196/244/199 190/238/193 197/245/200
f 196/244/199 197/245/200 195/243/198
f 195/243/198 197/245/200 198/246/201
f 195/243/198 198/246/201 193/241/196
f 194/242/197 199/247/202 195/243/198
f 195/243/198 199/247/202 200/248/203
f 195/243/198 200/248/203 201/249/204
f 202/250/205 203/251/206 204/252/207
f 204/252/207 203/251/206 200/248/203
f 204/252/207 200/248/203 205/253/208
f 205/253/208 200/248/203 199/247/202
f 206/254/209 207/255/210 200/248/203
f 200/248/203 207/255/210 208/256/211
f 200/248/203 208/256/211 201/249/204
f 209/257/212 210/258/213 206/254/209
f 206/254/209 210/258/213 211/259/214
f 206/254/209 211/259/214 207/255/210
f 39/79/39 44/84/44 41/81/41
f 41/81/41 44/84/44 212/260/215
f 41/81/41 212/260/215 206/254/209
f 206/254/209 212/260/215 213/261/216
f 206/254/209 213/261/216 209/257/212
f 202/250/205 214/262/217 203/251/206
f 203/251/206 214/262/217 215/263/218
f 203/251/206 215/263/218 216/264/219
f 216/264/219 215/263/218 217/265/220
f 216/264/219 217/265/220 170/218/173
f 170/218/173 217/265/220 218/266/221
f 170/218/173 218/266/221 171/219/174
f 216/267/222 170/268/223 219/269/224
f 206/270/225 200/271/226 219/269/224
f 219/269/224 200/271/226 203/272/227
f 219/269/224 203/272/227 216/267/222
f 46/273/228 45/274/229 219/269/230
f 219/269/230 45/274/229 41/275/231
f 219/269/224 41/275/232 206/270/225
f 52/276/233 50/277/234 219/269/235
f 219/269/235 50/277/234 48/278/236
f 219/269/235 48/278/236 46/273/237
f 58/279/238 56/280/239 219/269/235
f 219/269/235 56/280/239 54/281/240
f 219/269/235 54/281/240 52/276/233
f 70/282/241 62/283/242 219/269/235
f 219/269/235 62/283/242 60/284/243
f 219/269/235 60/284/243 58/279/238
f 108/285/244 114/286/235 219/269/235
f 219/269/235 114/286/235 77/287/245
f 219/269/235 77/287/245 70/282/241
f 134/288/246 121/289/247 219/269/235
f 219/269/235 121/289/247 117/290/248
f 219/269/235 117/290/248 108/285/244
f 139/291/249 137/292/239 219/269/224
f 219/269/235 137/292/239 135/293/250
f 219/269/235 135/293/250 134/288/246
f 145/294/251 143/295/252 219/269/224
f 219/269/224 143/295/252 141/296/253
f 219/269/224 141/296/253 139/291/249
f 154/297/254 149/298/255 219/269/224
f 219/269/224 149/298/255 147/299/256
f 219/269/224 147/299/256 145/294/251
f 170/268/223 165/300/257 219/269/224
f 219/269/224 165/300/257 155/301/258
f 219/269/224 155/301/258 154/297/254
f 49/302/259 51/303/260 129/304/261
f 136/305/262 138/306/263 42/307/264
f 153/308/265 40/309/266 150/310/267
f 150/310/267 40/309/266 42/307/264
f 136/305/262 42/307/264 129/304/261
f 129/304/261 42/307/264 47/311/268
f 129/304/261 47/311/268 49/302/259
f 69/312/269 128/313/270 61/314/271
f 61/314/271 128/313/270 129/304/261
f 61/314/271 129/304/261 59/315/272
f 59/315/272 129/304/261 57/316/273
f 51/303/260 53/317/274 129/304/261
f 129/304/261 53/317/274 55/318/275
f 129/304/261 55/318/275 57/316/273
f 144/319/276 146/320/277 42/307/264
f 42/307/264 146/320/277 148/321/278
f 42/307/264 148/321/278 150/310/267
f 138/306/263 140/322/279 42/307/264
f 42/307/264 140/322/279 142/323/280
f 42/307/264 142/323/280 144/319/276
f 220/324/281 221/325/282 69/326/283
f 222/327/284 223/328/285 224/329/286
f 225/330/287 226/331/288 227/332/289
f 227/332/289 226/331/288 228/333/290
f 227/332/289 228/333/290 229/334/291
f 126/335/127 128/336/129 230/337/292
f 230/337/293 128/336/294 69/326/283
f 230/337/293 69/326/283 231/338/295
f 231/338/295 69/326/283 221/325/282
f 224/329/286 223/328/285 232/339/296
f 232/339/296 223/328/285 233/340/297
f 232/339/296 233/340/297 234/341/298
f 68/342/68 227/332/299 69/326/69
f 69/326/283 227/332/289 229/334/291
f 69/326/283 229/334/291 220/324/281
f 231/338/295 235/343/300 230/337/293
f 230/337/293 235/343/300 236/344/301
f 230/337/293 236/344/301 237/345/302
f 237/345/302 236/344/301 238/346/303
f 239/347/284 240/348/304 238/346/303
f 238/346/303 240/348/304 241/349/305
f 238/346/303 241/349/305 237/345/302
f 224/329/286 242/350/306 222/327/284
f 222/327/284 242/350/306 243/351/307
f 222/327/284 243/351/307 239/347/284
f 239/347/284 243/351/307 244/352/308
f 239/347/284 244/352/308 240/348/304
f 225/330/287 227/332/289 233/340/297
f 233/340/297 227/332/289 245/353/309
f 233/340/297 245/353/309 246/354/310
f 246/354/310 247/355/311 233/340/297
f 233/340/297 247/355/311 248/356/312
f 233/340/297 248/356/312 234/341/298
f 38/357/313 40/358/314 249/359/315
f 249/359/316 40/358/317 153/360/318
f 250/361/319 251/362/320 252/363/321
f 252/363/321 251/362/320 253/364/322
f 252/363/321 253/364/322 254/365/323
f 254/365/323 255/366/324 252/363/321
f 252/363/321 255/366/324 256/367/325
f 252/363/321 256/367/325 257/368/326
f 258/369/327 252/363/321 259/370/328
f 259/370/328 252/363/321 257/368/326
f 259/370/328 257/368/326 260/371/329
f 260/371/329 257/368/326 261/372/330
f 258/369/327 262/373/331 252/363/321
f 252/363/321 262/373/331 263/374/332
f 252/363/321 263/374/332 264/375/333
f 152/376/334 252/363/335 153/360/336
f 153/360/318 252/363/321 264/375/333
f 153/360/318 264/375/333 265/377/337
f 249/359/316 266/378/338 267/379/339
f 267/379/339 266/378/338 268/380/340
f 265/377/337 269/381/341 153/360/318
f 153/360/318 269/381/341 270/382/342
f 153/360/318 270/382/342 249/359/316
f 249/359/316 270/382/342 271/383/343
f 249/359/316 271/383/343 266/378/338
f 272/384/344 273/385/345 268/380/340
f 268/380/340 273/385/345 274/386/346
f 268/380/340 274/386/346 267/379/339
f 257/368/326 275/387/347 261/372/330
f 261/372/330 275/387/347 276/388/348
f 261/372/330 276/388/348 272/384/344
f 272/384/344 276/388/348 277/389/349
f 272/384/344 277/389/349 273/385/345
f 252/390/335 152/391/334 151/392/350
f 159/393/351 158/394/352 251/395/353
f 39/396/354 249/397/315 43/398/355
f 43/398/355 249/397/315 267/399/356
f 43/398/355 267/399/356 44/400/357
f 44/400/357 267/399/356 212/401/358
f 212/401/358 267/399/356 213/402/359
f 213/402/359 267/399/356 274/403/360
f 213/402/359 274/403/360 209/404/361
f 209/404/361 274/403/360 210/405/362
f 210/405/362 274/403/360 273/406/363
f 210/405/362 273/406/363 211/407/364
f 211/407/364 273/406/363 207/408/365
f 207/408/365 273/406/363 277/409/366
f 207/408/365 277/409/366 208/410/367
f 208/411/367 277/412/366 201/413/368
f 201/413/368 277/412/366 276/414/369
f 201/413/368 276/414/369 195/415/370
f 275/416/371 192/417/372 276/414/369
f 276/414/369 192/417/372 196/418/373
f 276/414/369 196/418/373 195/415/370
f 257/419/374 187/420/375 275/416/371
f 275/416/371 187/420/375 191/421/376
f 275/416/371 191/421/376 192/417/372
f 256/422/377 178/423/378 257/419/374
f 257/419/374 178/423/378 185/424/379
f 257/419/374 185/424/379 187/420/375
f 255/425/380 181/426/381 256/422/377
f 256/422/377 181/426/381 179/427/382
f 256/422/377 179/427/382 178/423/378
f 164/428/383 163/429/384 255/425/380
f 255/425/380 163/429/384 182/430/385
f 255/425/380 182/430/385 181/426/381
f 164/428/383 255/425/380 166/431/386
f 166/431/386 255/425/380 254/432/387
f 166/433/386 254/434/387 167/435/388
f 167/435/388 254/434/387 253/436/389
f 167/435/388 253/436/389 156/437/390
f 251/395/353 158/394/352 253/436/389
f 253/436/389 158/394/352 157/438/391
f 253/436/389 157/438/391 156/437/390
f 159/393/351 251/395/353 160/439/392
f 160/439/392 251/395/353 250/440/393
f 160/439/392 250/440/393 161/441/394
f 161/441/394 250/440/393 162/442/395
f 162/442/395 250/440/393 252/443/335
f 162/442/395 252/443/335 151/444/350
f 249/445/315 39/446/354 38/447/313
f 227/448/299 68/392/68 67/449/67
f 64/450/396 63/451/397 246/452/398
f 127/453/128 230/454/292 130/455/133
f 130/455/133 230/454/292 237/456/399
f 130/455/133 237/456/399 131/457/134
f 131/457/134 237/456/399 132/458/400
f 132/458/400 237/456/399 241/459/401
f 132/458/400 241/459/401 133/460/402
f 133/460/402 241/459/401 122/461/403
f 122/461/403 241/459/401 240/462/404
f 122/461/403 240/462/404 123/463/405
f 123/463/405 240/462/404 124/464/406
f 124/464/406 240/462/404 244/434/407
f 124/465/406 244/466/407 125/467/408
f 125/467/408 244/466/407 118/468/409
f 118/468/409 244/466/407 243/469/410
f 118/468/409 243/469/410 119/470/411
f 242/471/412 91/472/413 243/469/410
f 243/469/410 91/472/413 120/473/414
f 243/469/410 120/473/414 119/470/411
f 99/474/415 100/475/416 224/476/417
f 224/476/417 100/475/416 102/477/418
f 224/476/417 102/477/418 242/471/412
f 242/471/412 102/477/418 103/478/419
f 242/471/412 103/478/419 91/472/413
f 232/479/420 97/480/421 224/476/417
f 224/476/417 97/480/421 99/474/415
f 234/481/422 85/482/423 232/479/420
f 232/479/420 85/482/423 95/483/424
f 232/479/420 95/483/424 97/480/421
f 71/484/425 76/485/426 234/481/422
f 234/481/422 76/485/426 78/486/427
f 234/481/422 78/486/427 85/482/423
f 71/484/425 234/481/422 72/487/428
f 72/487/428 234/481/422 248/488/429
f 72/85/428 248/489/429 73/490/430
f 73/490/430 248/489/429 247/491/431
f 73/490/430 247/491/431 74/492/432
f 246/452/398 63/451/397 247/491/431
f 247/491/431 63/451/397 75/493/433
f 247/491/431 75/493/433 74/492/432
f 64/450/396 246/452/398 65/494/434
f 65/494/434 246/452/398 245/495/435
f 65/494/434 245/495/435 66/496/436
f 66/496/436 245/495/435 227/497/299
f 66/496/436 227/497/299 67/498/67
f 230/499/292 127/500/128 126/501/127
f 172/502/437 173/503/438 263/504/439
f 171/505/440 218/506/441 265/507/442
f 265/507/442 218/506/441 269/508/443
f 171/505/440 265/507/442 169/509/444
f 169/509/444 265/507/442 264/510/445
f 169/511/444 264/512/445 168/513/446
f 263/504/439 173/503/438 264/512/445
f 264/512/445 173/503/438 174/514/447
f 264/512/445 174/514/447 168/513/446
f 172/502/437 263/504/439 175/515/448
f 175/515/448 263/504/439 262/516/449
f 175/515/448 262/516/449 176/517/450
f 176/517/450 262/516/449 258/518/451
f 176/517/450 258/518/451 177/519/452
f 177/520/452 258/521/451 180/522/453
f 180/522/453 258/521/451 259/523/454
f 180/522/453 259/523/454 183/524/455
f 183/524/455 259/523/454 184/525/456
f 184/525/456 259/523/454 260/526/457
f 184/525/456 260/526/457 186/527/458
f 186/527/458 260/526/457 188/528/459
f 188/528/459 260/526/457 261/529/460
f 188/528/459 261/529/460 189/530/461
f 189/530/461 261/529/460 190/531/462
f 190/531/462 261/529/460 272/532/463
f 190/531/462 272/532/463 197/533/464
f 266/534/465 194/535/466 268/536/467
f 268/536/467 194/535/466 193/537/468
f 268/536/467 193/537/468 272/538/463
f 272/538/463 193/537/468 198/539/469
f 272/538/463 198/539/469 197/540/464
f 271/541/470 205/542/471 266/534/465
f 266/534/465 205/542/471 199/543/472
f 266/534/465 199/543/472 194/535/466
f 270/544/473 202/545/474 271/546/470
f 271/541/470 202/547/474 204/548/475
f 271/541/470 204/548/475 205/542/471
f 218/506/441 217/549/476 269/508/443
f 269/508/443 217/549/476 215/550/477
f 269/508/443 215/550/477 270/544/473
f 270/544/473 215/550/477 214/551/478
f 270/544/473 214/551/478 202/545/474
f 84/552/479 80/553/480 228/554/481
f 81/555/482 116/556/483 220/557/484
f 220/557/484 116/556/483 221/558/485
f 81/555/482 220/557/484 82/559/486
f 82/559/486 220/557/484 229/560/487
f 82/561/486 229/562/487 83/563/488
f 228/554/481 80/553/480 229/562/487
f 229/562/487 80/553/480 79/564/489
f 229/562/487 79/564/489 83/563/488
f 84/552/479 228/554/481 86/565/490
f 86/565/490 228/554/481 226/566/491
f 86/565/490 226/566/491 87/567/492
f 87/567/492 226/566/491 225/568/493
f 87/567/492 225/568/493 88/569/494
f 88/570/494 225/571/493 93/572/495
f 93/572/495 225/571/493 233/573/496
f 93/572/495 233/573/496 94/574/497
f 94/574/497 233/573/496 96/575/498
f 96/575/498 233/573/496 223/576/499
f 96/575/498 223/576/499 98/577/500
f 98/577/500 223/576/499 101/578/501
f 101/578/501 223/576/499 222/579/502
f 101/578/501 222/579/502 104/580/503
f 104/580/503 222/579/502 105/581/504
f 105/581/504 222/579/502 239/582/505
f 105/581/504 239/582/505 92/583/506
f 236/584/507 106/585/508 238/586/509
f 238/586/509 106/585/508 90/587/510
f 238/586/509 90/587/510 239/588/505
f 239/588/505 90/587/510 89/589/511
f 239/588/505 89/589/511 92/590/506
f 235/591/512 109/592/513 236/584/507
f 236/584/507 109/592/513 107/593/514
f 236/584/507 107/593/514 106/585/508
f 231/594/515 111/595/516 235/596/512
f 235/591/512 111/597/516 110/598/517
f 235/591/512 110/598/517 109/592/513
f 116/556/483 115/599/518 221/558/485
f 221/558/485 115/599/518 113/600/519
f 221/558/485 113/600/519 231/594/515
f 231/594/515 113/600/519 112/601/520
f 231/594/515 112/601/520 111/595/516
