# Blender 5.1.2
# www.blender.org
o psm_tool_suction_irrigator_pitch
v 0.000026 0.000000 0.004200
v 0.000026 0.000000 0.004200
v 0.000026 0.000000 0.004200
v 0.004217 0.000000 0.004200
v 0.004217 0.000000 0.004200
v 0.004217 0.000000 0.004200
v 0.004271 -0.001025 0.004073
v 0.004271 -0.001025 0.004073
v 0.004431 -0.001995 0.003696
v 0.004431 -0.001995 0.003696
v 0.004694 -0.002858 0.003076
v 0.004694 -0.002858 0.003076
v 0.005050 -0.003552 0.002238
v 0.005050 -0.003552 0.002238
v 0.005478 -0.004015 0.001230
v 0.005478 -0.004015 0.001230
v 0.005950 -0.004198 0.000117
v 0.005950 -0.004198 0.000117
v 0.005950 -0.004198 0.000117
v 0.005974 -0.004200 -0.000001
v 0.005974 -0.004200 -0.000001
v 0.005950 -0.004198 -0.000117
v 0.005950 -0.004198 -0.000117
v 0.005950 -0.004198 -0.000117
v 0.005478 -0.004015 -0.001230
v 0.005478 -0.004015 -0.001230
v 0.005050 -0.003552 -0.002238
v 0.005050 -0.003552 -0.002238
v 0.004694 -0.002858 -0.003076
v 0.004694 -0.002858 -0.003076
v 0.004431 -0.001995 -0.003696
v 0.004431 -0.001995 -0.003696
v 0.004271 -0.001025 -0.004073
v 0.004271 -0.001025 -0.004073
v 0.004217 0.000000 -0.004200
v 0.004217 0.000000 -0.004200
v 0.004217 0.000000 -0.004200
v 0.000026 0.000000 -0.004200
v 0.000026 0.000000 -0.004200
v 0.000026 0.000000 -0.004200
v 0.000032 -0.000060 -0.004200
v 0.000032 -0.000060 -0.004200
v 0.000050 -0.000117 -0.004198
v 0.000050 -0.000117 -0.004198
v 0.000050 -0.000117 -0.004198
v 0.000313 -0.000736 -0.004133
v 0.000313 -0.000736 -0.004133
v 0.000562 -0.001324 -0.003986
v 0.000562 -0.001324 -0.003986
v 0.000800 -0.001886 -0.003752
v 0.000800 -0.001886 -0.003752
v 0.001021 -0.002405 -0.003443
v 0.001021 -0.002405 -0.003443
v 0.001387 -0.003268 -0.002638
v 0.001387 -0.003268 -0.002638
v 0.001639 -0.003862 -0.001651
v 0.001639 -0.003862 -0.001651
v 0.001767 -0.004162 -0.000562
v 0.001767 -0.004162 -0.000562
v 0.001767 -0.004162 0.000562
v 0.001767 -0.004162 0.000562
v 0.001639 -0.003862 0.001651
v 0.001639 -0.003862 0.001651
v 0.001387 -0.003268 0.002638
v 0.001387 -0.003268 0.002638
v 0.001021 -0.002405 0.003443
v 0.001021 -0.002405 0.003443
v 0.000800 -0.001886 0.003752
v 0.000800 -0.001886 0.003752
v 0.000562 -0.001324 0.003986
v 0.000562 -0.001324 0.003986
v 0.000313 -0.000736 0.004133
v 0.000313 -0.000736 0.004133
v 0.000050 -0.000117 0.004198
v 0.000050 -0.000117 0.004198
v 0.000050 -0.000117 0.004198
v 0.000032 -0.000060 0.004200
v 0.000032 -0.000060 0.004200
v 0.000050 0.000117 0.004198
v 0.000050 0.000117 0.004198
v 0.000050 0.000117 0.004198
v 0.000313 0.000736 0.004133
v 0.000313 0.000736 0.004133
v 0.000562 0.001324 0.003986
v 0.000562 0.001324 0.003986
v 0.000800 0.001886 0.003752
v 0.000800 0.001886 0.003752
v 0.001021 0.002405 0.003443
v 0.001021 0.002405 0.003443
v 0.001387 0.003268 0.002638
v 0.001387 0.003268 0.002638
v 0.001639 0.003862 0.001651
v 0.001639 0.003862 0.001651
v 0.001767 0.004162 0.000562
v 0.001767 0.004162 0.000562
v 0.001767 0.004162 -0.000562
v 0.001767 0.004162 -0.000562
v 0.001639 0.003862 -0.001651
v 0.001639 0.003862 -0.001651
v 0.001387 0.003268 -0.002638
v 0.001387 0.003268 -0.002638
v 0.001021 0.002405 -0.003443
v 0.001021 0.002405 -0.003443
v 0.000800 0.001886 -0.003752
v 0.000800 0.001886 -0.003752
v 0.000562 0.001324 -0.003986
v 0.000562 0.001324 -0.003986
v 0.000313 0.000736 -0.004133
v 0.000313 0.000736 -0.004133
v 0.000050 0.000117 -0.004198
v 0.000050 0.000117 -0.004198
v 0.000050 0.000117 -0.004198
v 0.000032 0.000060 -0.004200
v 0.000032 0.000060 -0.004200
v 0.004271 0.001025 -0.004073
v 0.004271 0.001025 -0.004073
v 0.004431 0.001995 -0.003696
v 0.004431 0.001995 -0.003696
v 0.004694 0.002858 -0.003076
v 0.004694 0.002858 -0.003076
v 0.005050 0.003552 -0.002238
v 0.005050 0.003552 -0.002238
v 0.005478 0.004015 -0.001230
v 0.005478 0.004015 -0.001230
v 0.005950 0.004198 -0.000117
v 0.005950 0.004198 -0.000117
v 0.005950 0.004198 -0.000117
v 0.005974 0.004200 0.000001
v 0.005974 0.004200 0.000001
v 0.005950 0.004198 0.000117
v 0.005950 0.004198 0.000117
v 0.005950 0.004198 0.000117
v 0.005478 0.004015 0.001230
v 0.005478 0.004015 0.001230
v 0.005050 0.003552 0.002238
v 0.005050 0.003552 0.002238
v 0.004694 0.002858 0.003076
v 0.004694 0.002858 0.003076
v 0.004431 0.001995 0.003696
v 0.004431 0.001995 0.003696
v 0.004271 0.001025 0.004073
v 0.004271 0.001025 0.004073
v 0.000032 0.000060 0.004200
v 0.000032 0.000060 0.004200
v 0.000050 0.000117 0.003498
v 0.000050 0.000117 0.003498
v 0.000050 0.000117 0.003498
v 0.000292 0.000687 0.003427
v 0.000292 0.000687 0.003427
v 0.000516 0.001217 0.003280
v 0.000516 0.001217 0.003280
v 0.000920 0.002168 0.002744
v 0.000920 0.002168 0.002744
v 0.001230 0.002897 0.001962
v 0.001230 0.002897 0.001962
v 0.001421 0.003348 0.001020
v 0.001421 0.003348 0.001020
v 0.001486 0.003500 -0.000001
v 0.001486 0.003500 -0.000001
v 0.001421 0.003348 -0.001021
v 0.001421 0.003348 -0.001021
v 0.001230 0.002897 -0.001963
v 0.001230 0.002897 -0.001963
v 0.000920 0.002168 -0.002744
v 0.000920 0.002168 -0.002744
v 0.000516 0.001216 -0.003280
v 0.000516 0.001216 -0.003280
v 0.000292 0.000687 -0.003427
v 0.000292 0.000687 -0.003427
v 0.000050 0.000117 -0.003498
v 0.000050 0.000117 -0.003498
v 0.000050 0.000117 -0.003498
v 0.000050 -0.000117 -0.003498
v 0.000050 -0.000117 -0.003498
v 0.000050 -0.000117 -0.003498
v 0.000292 -0.000687 -0.003427
v 0.000292 -0.000687 -0.003427
v 0.000516 -0.001217 -0.003280
v 0.000516 -0.001217 -0.003280
v 0.000920 -0.002168 -0.002744
v 0.000920 -0.002168 -0.002744
v 0.001230 -0.002897 -0.001962
v 0.001230 -0.002897 -0.001962
v 0.001421 -0.003348 -0.001020
v 0.001421 -0.003348 -0.001020
v 0.001486 -0.003500 0.000001
v 0.001486 -0.003500 0.000001
v 0.001421 -0.003348 0.001021
v 0.001421 -0.003348 0.001021
v 0.001230 -0.002897 0.001963
v 0.001230 -0.002897 0.001963
v 0.000920 -0.002168 0.002744
v 0.000920 -0.002168 0.002744
v 0.000516 -0.001216 0.003280
v 0.000516 -0.001216 0.003280
v 0.000292 -0.000687 0.003427
v 0.000292 -0.000687 0.003427
v 0.000050 -0.000117 0.003498
v 0.000050 -0.000117 0.003498
v 0.000050 -0.000117 0.003498
v 0.004514 0.000000 -0.003500
v 0.004514 0.000000 -0.003500
v 0.004514 0.000000 -0.003500
v 0.004579 0.001020 -0.003348
v 0.004579 0.001020 -0.003348
v 0.004770 0.001962 -0.002899
v 0.004770 0.001962 -0.002899
v 0.005079 0.002746 -0.002170
v 0.005079 0.002746 -0.002170
v 0.005485 0.003283 -0.001213
v 0.005485 0.003283 -0.001213
v 0.005710 0.003431 -0.000682
v 0.005710 0.003431 -0.000682
v 0.005950 0.003498 -0.000117
v 0.005950 0.003498 -0.000117
v 0.005950 0.003498 -0.000117
v 0.005950 -0.003498 -0.000117
v 0.005950 -0.003498 -0.000117
v 0.005950 -0.003498 -0.000117
v 0.005710 -0.003431 -0.000682
v 0.005710 -0.003431 -0.000682
v 0.005485 -0.003283 -0.001213
v 0.005485 -0.003283 -0.001213
v 0.005079 -0.002746 -0.002170
v 0.005079 -0.002746 -0.002170
v 0.004770 -0.001962 -0.002899
v 0.004770 -0.001962 -0.002899
v 0.004579 -0.001020 -0.003348
v 0.004579 -0.001020 -0.003348
v 0.005950 -0.003498 0.000117
v 0.005950 -0.003498 0.000117
v 0.005950 -0.003498 0.000117
v 0.005950 0.003498 0.000117
v 0.005950 0.003498 0.000117
v 0.005950 0.003498 0.000117
v 0.005710 0.003431 0.000682
v 0.005710 0.003431 0.000682
v 0.005485 0.003283 0.001213
v 0.005485 0.003283 0.001213
v 0.005079 0.002746 0.002170
v 0.005079 0.002746 0.002170
v 0.004770 0.001962 0.002899
v 0.004770 0.001962 0.002899
v 0.004579 0.001020 0.003348
v 0.004579 0.001020 0.003348
v 0.004514 0.000000 0.003500
v 0.004514 0.000000 0.003500
v 0.004514 0.000000 0.003500
v 0.004579 -0.001020 0.003348
v 0.004579 -0.001020 0.003348
v 0.004770 -0.001962 0.002899
v 0.004770 -0.001962 0.002899
v 0.005079 -0.002746 0.002170
v 0.005079 -0.002746 0.002170
v 0.005485 -0.003283 0.001213
v 0.005485 -0.003283 0.001213
v 0.005710 -0.003431 0.000682
v 0.005710 -0.003431 0.000682
v 0.000026 0.000000 0.003500
v 0.000026 0.000000 0.003500
v 0.000026 0.000000 0.003500
v 0.000032 0.000060 0.003499
v 0.000032 0.000060 0.003499
v 0.000032 -0.000060 0.003499
v 0.000032 -0.000060 0.003499
v 0.000032 0.000059 -0.003499
v 0.000032 0.000059 -0.003499
v 0.000026 0.000000 -0.003500
v 0.000026 0.000000 -0.003500
v 0.000026 0.000000 -0.003500
v 0.000032 -0.000060 -0.003499
v 0.000032 -0.000060 -0.003499
v 0.005974 -0.003500 0.000001
v 0.005974 -0.003500 0.000001
v 0.005974 0.003500 -0.000000
v 0.005974 0.003500 -0.000000
vn -0.0000 -0.0143 0.9999
vn -0.0000 -0.0000 1.0000
vn -0.0000 0.2433 0.9700
vn -0.9801 -0.1985 -0.0000
vn -0.9800 -0.1990 -0.0000
vn -1.0000 -0.0000 -0.0000
vn -0.0000 0.0142 0.9999
vn -0.9799 0.1993 -0.0000
vn -0.0000 -0.1739 0.9848
vn -0.0000 -0.2432 0.9700
vn 0.9205 -0.0001 0.3907
vn 0.9204 0.0002 0.3910
vn -0.0000 -0.0279 0.9996
vn 0.9204 -0.0002 0.3909
vn 0.9204 -0.0000 0.3911
vn -0.0000 -0.4491 0.8935
vn -0.0000 -0.4747 0.8802
vn 0.9205 -0.0000 0.3907
vn 0.9205 -0.0001 0.3908
vn -0.0000 -0.3152 0.9490
vn 0.9205 0.0001 0.3908
vn -0.0000 -0.5725 0.8199
vn -0.0000 -0.6806 0.7326
vn 0.9204 -0.0004 0.3910
vn -0.0000 -0.7782 0.6280
vn -0.0002 -0.8463 0.5327
vn 0.9205 -0.0002 0.3907
vn 0.9205 0.0003 0.3907
vn -0.0000 -0.9195 0.3932
vn -0.0000 -0.9564 0.2920
vn 0.9206 0.0003 0.3905
vn 0.9205 0.0001 0.3907
vn -0.0000 -0.9910 0.1337
vn -0.0000 -0.9996 0.0279
vn 0.9206 -0.0000 0.3904
vn -0.0000 -0.9910 -0.1337
vn -0.0000 -1.0000 -0.0001
vn 1.0000 0.0003 -0.0019
vn -0.0000 -0.9996 -0.0279
vn 1.0000 -0.0000 0.0039
vn 0.9205 -0.0000 -0.3907
vn 0.9205 0.0001 -0.3907
vn 0.9206 0.0001 -0.3906
vn -0.0000 -0.9564 -0.2920
vn 0.9206 0.0002 -0.3906
vn -0.0000 -0.9195 -0.3932
vn -0.0000 -0.8462 -0.5328
vn -0.0000 -0.7782 -0.6280
vn -0.0000 -0.6806 -0.7326
vn 0.9204 -0.0004 -0.3910
vn -0.0000 -0.5725 -0.8199
vn -0.0000 -0.4747 -0.8801
vn 0.9205 -0.0001 -0.3907
vn 0.9205 -0.0001 -0.3908
vn -0.0000 -0.3152 -0.9490
vn -0.0000 -0.2433 -0.9700
vn 0.9204 -0.0000 -0.3911
vn -0.0000 -0.4491 -0.8935
vn -0.0000 -0.0000 -1.0000
vn 0.9204 0.0002 -0.3909
vn -0.0000 -0.0142 -0.9999
vn -0.0000 -0.0279 -0.9996
vn -0.0000 -0.1739 -0.9848
vn -0.0000 0.0143 -0.9999
vn -0.0000 0.0279 -0.9996
vn -0.0000 0.1739 -0.9848
vn -0.0000 0.2432 -0.9700
vn 0.9204 -0.0002 -0.3910
vn -1.0000 0.0001 -0.0000
vn -1.0000 -0.0000 0.0001
vn -0.9799 -0.1996 -0.0000
vn -0.9802 0.1982 -0.0000
vn -0.9800 0.1990 -0.0000
vn -0.9205 -0.3907 -0.0000
vn -0.9205 -0.3907 -0.0001
vn -0.9206 -0.3906 -0.0002
vn -0.9205 -0.3907 0.0001
vn -0.9207 -0.3904 0.0003
vn -0.9205 -0.3908 -0.0001
vn -0.9206 -0.3906 0.0003
vn -0.9206 -0.3904 0.0003
vn -0.9206 -0.3905 0.0002
vn -0.9205 -0.3907 0.0002
vn -0.9204 -0.3909 0.0003
vn -0.9204 -0.3909 -0.0000
vn -0.9204 -0.3909 -0.0003
vn -0.9205 -0.3907 -0.0002
vn -0.9206 -0.3905 -0.0002
vn -0.9206 -0.3904 -0.0003
vn -0.9206 -0.3905 -0.0003
vn -0.9205 -0.3908 0.0003
vn -0.9205 -0.3908 0.0001
vn -0.9204 -0.3910 -0.0000
vn -0.9205 0.3907 0.0001
vn -0.9206 0.3906 0.0002
vn -0.9205 0.3907 -0.0000
vn -0.0000 0.1739 0.9848
vn -0.0000 0.0279 0.9996
vn -0.9205 0.3907 -0.0001
vn -0.9207 0.3904 -0.0003
vn -0.0000 0.3152 0.9490
vn -0.0000 0.4747 0.8801
vn -0.0000 0.4491 0.8935
vn -0.0000 0.5725 0.8199
vn -0.9205 0.3908 0.0001
vn -0.0000 0.6806 0.7326
vn -0.0000 0.7782 0.6280
vn -0.9206 0.3906 -0.0003
vn -0.0000 0.8462 0.5328
vn -0.0000 0.9195 0.3932
vn -0.9206 0.3904 -0.0003
vn -0.9206 0.3905 -0.0002
vn -0.0000 0.9564 0.2920
vn -0.0000 0.9910 0.1337
vn -0.9205 0.3907 -0.0002
vn -0.9204 0.3909 -0.0003
vn -0.0000 0.9996 -0.0279
vn -0.0000 0.9910 -0.1337
vn -0.9204 0.3909 -0.0000
vn -0.9204 0.3909 0.0003
vn -0.0000 1.0000 0.0001
vn -0.0000 0.9996 0.0279
vn -0.0000 0.9564 -0.2920
vn -0.0000 0.9195 -0.3932
vn -0.9205 0.3907 0.0002
vn -0.9206 0.3905 0.0002
vn -0.0002 0.8463 -0.5327
vn -0.0000 0.7782 -0.6280
vn -0.9206 0.3904 0.0003
vn -0.9206 0.3905 0.0003
vn -0.0000 0.6806 -0.7326
vn -0.0000 0.5725 -0.8199
vn -0.9205 0.3908 -0.0003
vn -0.9205 0.3908 -0.0001
vn -0.0000 0.4747 -0.8802
vn -0.0000 0.4491 -0.8935
vn -0.0000 0.3152 -0.9490
vn -0.9204 0.3910 -0.0000
vn 0.9205 0.0001 -0.3908
vn 0.9204 0.0004 -0.3910
vn 0.9205 0.0002 -0.3907
vn 0.9205 -0.0003 -0.3907
vn 0.9206 -0.0003 -0.3905
vn 0.9206 -0.0000 -0.3904
vn 1.0000 -0.0001 0.0018
vn 1.0000 -0.0000 0.0007
vn 0.9206 -0.0001 0.3906
vn 0.9206 -0.0002 0.3906
vn 0.9204 0.0004 0.3910
vn -0.0000 -0.0335 -0.9994
vn -0.0000 -0.1928 -0.9812
vn -0.0000 -0.0170 -0.9999
vn -0.0000 -0.2915 -0.9566
vn -0.0000 -0.3459 -0.9383
vn -0.0000 -0.5605 -0.8281
vn -0.0000 -0.6197 -0.7848
vn -0.0000 -0.7846 -0.6200
vn -0.0000 -0.8283 -0.5602
vn -0.0000 -0.9381 -0.3465
vn -0.0000 -0.9569 -0.2904
vn -0.0000 -0.9812 -0.1931
vn -0.0000 -1.0000 0.0002
vn -0.0000 -0.9994 0.0335
vn -0.0000 -0.9568 0.2909
vn -0.0000 -1.0000 -0.0000
vn -0.0000 -0.9994 -0.0335
vn -0.0000 -0.9381 0.3465
vn -0.0000 -0.8282 0.5604
vn -0.0000 -0.9812 0.1931
vn -0.0000 -0.7846 0.6200
vn -0.0000 -0.6196 0.7849
vn -0.0000 -0.5605 0.8282
vn -0.0000 -0.3459 0.9383
vn -0.0000 -0.2915 0.9566
vn -0.0000 -0.1927 0.9813
vn -0.0000 -0.0335 0.9994
vn -0.0000 -0.0170 0.9999
vn -0.0000 0.0335 0.9994
vn -0.0000 0.1928 0.9812
vn -0.0000 0.0170 0.9999
vn -0.0000 0.2915 0.9566
vn -0.0000 0.3459 0.9383
vn -0.0000 0.5605 0.8281
vn -0.0000 0.6197 0.7848
vn -0.0000 0.7846 0.6200
vn -0.0000 0.8283 0.5602
vn -0.0000 0.9381 0.3465
vn -0.0000 0.9569 0.2904
vn -0.0000 0.9812 0.1931
vn -0.0000 1.0000 -0.0002
vn -0.0000 1.0000 -0.0003
vn -0.0000 0.9568 -0.2909
vn -0.0000 0.9994 0.0335
vn -0.0000 0.9381 -0.3465
vn -0.0000 0.8282 -0.5604
vn -0.0000 0.9812 -0.1931
vn -0.0000 0.9994 -0.0335
vn -0.0000 0.7846 -0.6200
vn -0.0000 0.6196 -0.7849
vn -0.0000 0.5605 -0.8282
vn -0.0000 0.3459 -0.9383
vn -0.0000 0.2915 -0.9566
vn -0.0000 0.1927 -0.9813
vn -0.0000 0.0335 -0.9994
vn -0.0000 0.0170 -0.9999
vt 0.000457 0.493921
vt 0.249668 0.500000
vt 0.000000 0.500000
vt 0.256576 0.573508
vt 0.000940 0.492724
vt 0.000458 0.506087
vt 0.000394 0.500000
vt 0.022144 0.424840
vt 0.256574 0.426499
vt 0.289246 0.500000
vt 0.001816 0.488066
vt 0.298242 0.576093
vt 0.065201 0.304650
vt 0.277849 0.357657
vt 0.325497 0.355478
vt 0.042786 0.364144
vt 0.298240 0.423916
vt 0.090122 0.247727
vt 0.314623 0.298582
vt 0.370962 0.302712
vt 0.152763 0.144482
vt 0.366675 0.255646
vt 0.430469 0.273853
vt 0.247840 0.060221
vt 0.429428 0.234540
vt 0.493705 0.272794
vt 0.462003 0.270006
vt 0.401638 0.007527
vt 0.493705 0.237308
vt 0.598362 0.007527
vt 0.500032 0.237996
vt 0.506295 0.237308
vt 0.499935 0.273399
vt 0.633326 0.255646
vt 0.570574 0.234540
vt 0.506295 0.272794
vt 0.752160 0.060221
vt 0.847237 0.144482
vt 0.685376 0.298580
vt 0.537999 0.270006
vt 0.909878 0.247727
vt 0.722148 0.357652
vt 0.629039 0.302713
vt 0.569533 0.273854
vt 0.957214 0.364144
vt 0.743424 0.426492
vt 0.674501 0.355475
vt 0.934799 0.304650
vt 1.000000 0.500000
vt 0.750332 0.500000
vt 0.701758 0.423907
vt 0.999541 0.493908
vt 0.998184 0.488066
vt 0.977856 0.424840
vt 0.999543 0.506079
vt 0.998184 0.511934
vt 0.977856 0.575160
vt 0.743426 0.573501
vt 0.710754 0.500000
vt 0.999606 0.500000
vt 0.999062 0.507262
vt 0.999058 0.492708
vt 0.997426 0.485679
vt 0.952071 0.349840
vt 0.974856 0.415739
vt 0.823056 0.116674
vt 0.898564 0.225100
vt 0.698858 0.034197
vt 0.499826 0.000000
vt 0.300929 0.034281
vt 0.176869 0.116752
vt 0.101415 0.225141
vt 0.002574 0.485679
vt 0.047924 0.349854
vt 0.025142 0.415744
vt 0.042786 0.635856
vt 0.001816 0.511934
vt 0.022144 0.575160
vt 0.065201 0.695350
vt 0.002574 0.514321
vt 0.000944 0.507305
vt 0.277852 0.642348
vt 0.090122 0.752273
vt 0.314624 0.701420
vt 0.152763 0.855518
vt 0.047929 0.650160
vt 0.025144 0.584261
vt 0.366674 0.744354
vt 0.247840 0.939779
vt 0.176944 0.883326
vt 0.101436 0.774900
vt 0.429426 0.765460
vt 0.401638 0.992473
vt 0.301142 0.965803
vt 0.506295 0.762692
vt 0.598362 0.992473
vt 0.500174 1.000000
vt 0.499968 0.762004
vt 0.493705 0.762692
vt 0.570572 0.765460
vt 0.752160 0.939779
vt 0.699071 0.965719
vt 0.633325 0.744354
vt 0.847237 0.855518
vt 0.823131 0.883248
vt 0.685377 0.701418
vt 0.909878 0.752273
vt 0.898585 0.774859
vt 0.722151 0.642343
vt 0.934799 0.695350
vt 0.997426 0.514321
vt 0.952076 0.650146
vt 0.974858 0.584256
vt 0.957214 0.635856
vt 0.674503 0.644522
vt 0.701760 0.576084
vt 0.629038 0.697288
vt 0.569531 0.726147
vt 0.506295 0.727206
vt 0.537997 0.729994
vt 0.499988 0.726600
vt 0.493705 0.727206
vt 0.462001 0.729994
vt 0.370961 0.697287
vt 0.430467 0.726146
vt 0.325499 0.644525
s 1
f 77/1/1 4/2/2 1/3/2
f 141/4/3 2/3/2 5/2/2
f 264/5/4 78/1/5 3/3/6
f 143/6/7 2/3/2 141/4/3
f 259/7/6 3/3/6 144/6/8
f 264/5/4 3/3/6 259/7/6
f 72/8/9 7/9/10 4/2/2
f 246/10/11 6/2/11 8/9/12
f 74/11/13 72/8/9 4/2/2
f 77/1/1 74/11/13 4/2/2
f 244/12/14 142/4/15 6/2/11
f 246/10/11 244/12/14 6/2/11
f 68/13/16 9/14/17 7/9/10
f 251/15/18 8/9/12 10/14/19
f 70/16/20 68/13/16 7/9/10
f 72/8/9 70/16/20 7/9/10
f 249/17/21 246/10/11 8/9/12
f 251/15/18 249/17/21 8/9/12
f 66/18/22 11/19/23 9/14/17
f 253/20/11 10/14/19 12/19/24
f 68/13/16 66/18/22 9/14/17
f 253/20/11 251/15/18 10/14/19
f 64/21/25 13/22/26 11/19/23
f 255/23/27 12/19/24 14/22/28
f 66/18/22 64/21/25 11/19/23
f 255/23/27 253/20/11 12/19/24
f 62/24/29 15/25/30 13/22/26
f 230/26/31 14/22/28 16/25/32
f 64/21/25 62/24/29 13/22/26
f 257/27/18 14/22/28 230/26/31
f 257/27/18 255/23/27 14/22/28
f 60/28/33 17/29/34 15/25/30
f 230/26/31 16/25/32 18/29/35
f 62/24/29 60/28/33 15/25/30
f 58/30/36 20/31/37 17/29/34
f 231/26/18 19/29/18 21/31/38
f 60/28/33 58/30/36 17/29/34
f 58/30/36 22/32/39 20/31/37
f 273/33/40 21/31/38 24/32/41
f 273/33/40 231/26/18 21/31/38
f 28/34/42 23/32/43 26/35/41
f 58/30/36 25/35/44 22/32/39
f 217/36/45 23/32/43 28/34/42
f 273/33/40 24/32/41 218/36/41
f 56/37/46 27/34/47 25/35/44
f 58/30/36 56/37/46 25/35/44
f 54/38/48 29/39/49 27/34/47
f 220/40/41 28/34/42 30/39/50
f 56/37/46 54/38/48 27/34/47
f 220/40/41 217/36/45 28/34/42
f 52/41/51 31/42/52 29/39/49
f 224/43/53 30/39/50 32/42/54
f 54/38/48 52/41/51 29/39/49
f 222/44/41 220/40/41 30/39/50
f 224/43/53 222/44/41 30/39/50
f 48/45/55 33/46/56 31/42/52
f 226/47/54 32/42/54 34/46/57
f 50/48/58 48/45/55 31/42/52
f 52/41/51 50/48/58 31/42/52
f 226/47/54 224/43/53 32/42/54
f 38/49/59 35/50/59 33/46/56
f 228/51/60 34/46/57 37/50/42
f 41/52/61 38/49/59 33/46/56
f 43/53/62 41/52/61 33/46/56
f 46/54/63 43/53/62 33/46/56
f 48/45/55 46/54/63 33/46/56
f 228/51/60 226/47/54 34/46/57
f 113/55/64 36/50/59 39/49/59
f 110/56/65 108/57/66 36/50/59
f 115/58/67 36/50/59 108/57/66
f 113/55/64 110/56/65 36/50/59
f 201/59/42 37/50/42 116/58/68
f 228/51/60 37/50/42 201/59/42
f 268/60/69 40/49/70 42/52/71
f 266/61/72 114/55/73 40/49/70
f 268/60/69 266/61/72 40/49/70
f 271/62/5 42/52/71 45/53/74
f 271/62/5 268/60/69 42/52/71
f 49/45/75 44/53/76 47/54/74
f 51/48/77 44/53/76 49/45/75
f 173/63/78 44/53/76 51/48/77
f 271/62/5 45/53/74 174/63/74
f 173/63/78 51/48/77 53/41/79
f 178/64/74 53/41/79 55/38/80
f 176/65/77 173/63/78 53/41/79
f 178/64/74 176/65/77 53/41/79
f 182/66/81 55/38/80 57/37/82
f 180/67/77 178/64/74 55/38/80
f 182/66/81 180/67/77 55/38/80
f 184/68/83 57/37/82 59/30/84
f 184/68/83 182/66/81 57/37/82
f 186/69/85 59/30/84 61/28/86
f 186/69/85 184/68/83 59/30/84
f 188/70/87 61/28/86 63/24/88
f 188/70/87 186/69/85 61/28/86
f 190/71/89 63/24/88 65/21/90
f 190/71/89 188/70/87 63/24/88
f 192/72/91 65/21/90 67/18/92
f 192/72/91 190/71/89 65/21/90
f 198/73/77 67/18/92 69/13/74
f 194/74/74 192/72/91 67/18/92
f 196/75/74 194/74/74 67/18/92
f 198/73/77 196/75/74 67/18/92
f 198/73/77 69/13/74 71/16/74
f 198/73/77 71/16/74 73/8/74
f 198/73/77 73/8/74 75/11/93
f 199/73/74 76/11/74 78/1/5
f 264/5/4 199/73/74 78/1/5
f 85/76/94 80/77/95 83/78/96
f 141/4/3 82/78/97 79/77/98
f 87/79/99 80/77/95 85/76/94
f 145/80/100 80/77/95 87/79/99
f 143/6/7 141/4/3 79/77/98
f 262/81/8 144/6/8 81/77/96
f 262/81/8 81/77/96 146/80/96
f 141/4/3 84/76/101 82/78/97
f 139/82/102 86/79/103 84/76/101
f 141/4/3 139/82/102 84/76/101
f 139/82/102 88/83/104 86/79/103
f 145/80/100 87/79/99 89/83/105
f 137/84/106 90/85/107 88/83/104
f 150/86/96 89/83/105 91/85/108
f 139/82/102 137/84/106 88/83/104
f 148/87/99 145/80/100 89/83/105
f 150/86/96 148/87/99 89/83/105
f 135/88/109 92/89/110 90/85/107
f 154/90/111 91/85/108 93/89/112
f 137/84/106 135/88/109 90/85/107
f 152/91/99 150/86/96 91/85/108
f 154/90/111 152/91/99 91/85/108
f 133/92/113 94/93/114 92/89/110
f 156/94/115 93/89/112 95/93/116
f 135/88/109 133/92/113 92/89/110
f 156/94/115 154/90/111 93/89/112
f 125/95/117 96/96/118 94/93/114
f 158/97/119 95/93/116 97/96/120
f 128/98/121 125/95/117 94/93/114
f 130/99/122 128/98/121 94/93/114
f 133/92/113 130/99/122 94/93/114
f 158/97/119 156/94/115 95/93/116
f 123/100/123 98/101/124 96/96/118
f 160/102/125 97/96/120 99/101/126
f 125/95/117 123/100/123 96/96/118
f 160/102/125 158/97/119 97/96/120
f 121/103/127 100/104/128 98/101/124
f 162/105/129 99/101/126 101/104/130
f 123/100/123 121/103/127 98/101/124
f 162/105/129 160/102/125 99/101/126
f 119/106/131 102/107/132 100/104/128
f 164/108/133 101/104/130 103/107/134
f 121/103/127 119/106/131 100/104/128
f 164/108/133 162/105/129 101/104/130
f 117/109/135 104/110/136 102/107/132
f 170/111/99 103/107/134 105/110/96
f 119/106/131 117/109/135 102/107/132
f 166/112/96 164/108/133 103/107/134
f 168/113/96 166/112/96 103/107/134
f 170/111/99 168/113/96 103/107/134
f 115/58/67 106/114/137 104/110/136
f 170/111/99 105/110/96 107/114/96
f 117/109/135 115/58/67 104/110/136
f 115/58/67 108/57/66 106/114/137
f 170/111/99 107/114/96 109/57/96
f 170/111/99 109/57/96 111/56/138
f 171/111/96 112/56/96 114/55/73
f 266/61/72 171/111/96 114/55/73
f 206/115/41 116/58/68 118/109/139
f 204/116/54 201/59/42 116/58/68
f 206/115/41 204/116/54 116/58/68
f 208/117/42 118/109/139 120/106/140
f 208/117/42 206/115/41 118/109/139
f 210/118/141 120/106/140 122/103/142
f 210/118/141 208/117/42 120/106/140
f 214/119/143 122/103/142 124/100/53
f 212/120/41 210/118/141 122/103/142
f 214/119/143 212/120/41 122/103/142
f 214/119/143 124/100/53 126/95/144
f 215/119/41 127/95/41 129/98/145
f 275/121/146 129/98/145 132/99/18
f 275/121/146 215/119/41 129/98/145
f 136/88/11 131/99/147 134/92/18
f 233/122/148 131/99/147 136/88/11
f 275/121/146 132/99/18 234/122/18
f 236/123/18 136/88/11 138/84/149
f 236/123/18 233/122/148 136/88/11
f 240/124/32 138/84/149 140/82/21
f 238/125/18 236/123/18 138/84/149
f 240/124/32 238/125/18 138/84/149
f 242/126/21 140/82/21 142/4/15
f 242/126/21 240/124/32 140/82/21
f 244/12/14 242/126/21 142/4/15
f 262/81/8 259/7/6 144/6/8
f 248/10/59 147/80/150 149/87/151
f 263/81/152 147/80/150 248/10/59
f 245/12/153 149/87/151 151/86/154
f 248/10/59 149/87/151 245/12/153
f 243/126/155 151/86/154 153/91/156
f 245/12/153 151/86/154 243/126/155
f 241/124/157 153/91/156 155/90/158
f 243/126/155 153/91/156 241/124/157
f 239/125/159 155/90/158 157/94/160
f 241/124/157 155/90/158 239/125/159
f 237/123/161 157/94/160 159/97/162
f 239/125/159 157/94/160 237/123/161
f 216/119/163 159/97/162 161/102/164
f 276/121/165 159/97/162 216/119/163
f 237/123/161 159/97/162 235/122/166
f 276/121/165 235/122/166 159/97/162
f 211/118/167 161/102/164 163/105/168
f 213/120/169 161/102/164 211/118/167
f 216/119/163 161/102/164 213/120/169
f 209/117/170 163/105/168 165/108/171
f 211/118/167 163/105/168 209/117/170
f 207/115/172 165/108/171 167/112/173
f 209/117/170 165/108/171 207/115/172
f 205/116/174 167/112/173 169/113/175
f 207/115/172 167/112/173 205/116/174
f 205/116/174 169/113/175 172/111/176
f 267/61/177 205/116/174 172/111/176
f 202/59/2 175/63/178 177/65/179
f 272/62/180 175/63/178 202/59/2
f 229/51/181 177/65/179 179/64/182
f 229/51/181 202/59/2 177/65/179
f 227/47/183 179/64/182 181/67/184
f 229/51/181 179/64/182 227/47/183
f 225/43/185 181/67/184 183/66/186
f 227/47/183 181/67/184 225/43/185
f 223/44/187 183/66/186 185/68/188
f 225/43/185 183/66/186 223/44/187
f 221/40/189 185/68/188 187/69/190
f 223/44/187 185/68/188 221/40/189
f 274/33/191 187/69/190 189/70/192
f 221/40/189 187/69/190 219/36/193
f 274/33/191 219/36/193 187/69/190
f 256/23/194 189/70/192 191/71/195
f 258/27/196 232/26/197 189/70/192
f 274/33/191 189/70/192 232/26/197
f 258/27/196 189/70/192 256/23/194
f 254/20/198 191/71/195 193/72/199
f 256/23/194 191/71/195 254/20/198
f 252/15/200 193/72/199 195/74/201
f 254/20/198 193/72/199 252/15/200
f 250/17/202 195/74/201 197/75/203
f 252/15/200 195/74/201 250/17/202
f 250/17/202 197/75/203 200/73/204
f 265/5/205 250/17/202 200/73/204
f 270/60/2 203/59/2 205/116/174
f 272/62/180 202/59/2 269/60/2
f 270/60/2 205/116/174 267/61/177
f 260/7/59 247/10/59 250/17/202
f 263/81/152 248/10/59 261/7/59
f 265/5/205 260/7/59 250/17/202
