# Blender 5.1.2
# www.blender.org
o Plane
v -1.105369 -0.069843 0.916836
v 0.894631 -0.069843 0.916836
v -1.105369 -0.069843 -1.083164
v 0.894631 -0.069843 -1.083164
v 0.894631 -0.569843 -1.083164
v -1.105369 -0.569843 -1.083164
v -1.105369 -0.569843 0.916836
v 0.894631 -0.569843 0.916836
v -1.105369 -0.069843 -0.901346
v -1.105369 -0.069843 -0.719528
v -1.105369 -0.069843 -0.537710
v -1.105369 -0.069843 -0.355891
v -1.105369 -0.069843 -0.174073
v -1.105369 -0.069843 0.007745
v -1.105369 -0.069843 0.189563
v -1.105369 -0.069843 0.371381
v -1.105369 -0.069843 0.553199
v -1.105369 -0.069843 0.735018
v -0.923551 -0.069843 0.916836
v -0.741733 -0.069843 0.916836
v -0.559914 -0.069843 0.916836
v -0.378096 -0.069843 0.916836
v -0.196278 -0.069843 0.916836
v -0.014460 -0.069843 0.916836
v 0.167358 -0.069843 0.916836
v 0.349176 -0.069843 0.916836
v 0.530995 -0.069843 0.916836
v 0.712813 -0.069843 0.916836
v 0.894631 -0.069843 0.735018
v 0.894631 -0.069843 0.553199
v 0.894631 -0.069843 0.371381
v 0.894631 -0.069843 0.189563
v 0.894631 -0.069843 0.007745
v 0.894631 -0.069843 -0.174073
v 0.894631 -0.069843 -0.355891
v 0.894631 -0.069843 -0.537710
v 0.894631 -0.069843 -0.719528
v 0.894631 -0.069843 -0.901346
v 0.712813 -0.069843 -1.083164
v 0.530995 -0.069843 -1.083164
v 0.349176 -0.069843 -1.083164
v 0.167358 -0.069843 -1.083164
v -0.014460 -0.069843 -1.083164
v -0.196278 -0.069843 -1.083164
v -0.378096 -0.069843 -1.083164
v -0.559914 -0.069843 -1.083164
v -0.741733 -0.069843 -1.083164
v -0.923551 -0.069843 -1.083164
v -0.923551 -0.069843 0.735018
v -0.923551 -0.069843 0.553199
v -0.923551 -0.069843 0.371381
v -0.923551 -0.069843 0.189563
v -0.923551 -0.069843 0.007745
v -0.923551 -0.069843 -0.174073
v -0.923551 -0.069843 -0.355891
v -0.923551 -0.069843 -0.537710
v -0.923551 -0.069843 -0.719528
v -0.923551 -0.069843 -0.901346
v -0.741733 -0.069843 0.735018
v -0.741733 -0.069843 0.553199
v -0.741733 -0.177826 0.371381
v -0.741733 -0.177826 0.189563
v -0.741733 -0.177826 0.007745
v -0.741733 -0.177826 -0.174073
v -0.741733 -0.177826 -0.355891
v -0.741733 -0.069843 -0.537710
v -0.741733 -0.069843 -0.719528
v -0.741733 -0.069843 -0.901346
v -0.559914 -0.069843 0.735018
v -0.559914 -0.069843 0.553199
v -0.559914 -0.177826 0.371381
v -0.565548 -0.251066 0.189563
v -0.565548 -0.251066 0.007745
v -0.565548 -0.251066 -0.174073
v -0.559914 -0.177826 -0.355891
v -0.559914 -0.069843 -0.537710
v -0.559914 -0.069843 -0.719528
v -0.559914 -0.069843 -0.901346
v -0.378096 -0.069843 0.735018
v -0.378096 -0.069843 0.553199
v -0.378096 -0.177826 0.371381
v -0.383730 -0.251066 0.189563
v -0.394998 -0.296137 0.007745
v -0.383730 -0.251066 -0.174073
v -0.378096 -0.177826 -0.355891
v -0.378096 -0.069843 -0.537710
v -0.378096 -0.069843 -0.719528
v -0.378096 -0.069843 -0.901346
v -0.196278 -0.069843 0.735018
v -0.196278 -0.069843 0.553199
v -0.196278 -0.177826 0.371381
v -0.201912 -0.251066 0.189563
v -0.201912 -0.251066 0.007745
v -0.201912 -0.251066 -0.174073
v -0.196278 -0.177826 -0.355891
v -0.196278 -0.069843 -0.537710
v -0.196278 -0.069843 -0.719528
v -0.196278 -0.069843 -0.901346
v -0.014460 -0.069843 0.735018
v -0.014460 -0.069843 0.553199
v -0.014460 -0.177826 0.371381
v -0.014460 -0.177826 0.189563
v -0.014460 -0.177826 0.007745
v -0.014460 -0.177826 -0.174073
v -0.014460 -0.177826 -0.355891
v -0.014460 -0.069843 -0.537710
v -0.014460 -0.069843 -0.719528
v -0.014460 -0.069843 -0.901346
v 0.167358 -0.069843 0.735018
v 0.167358 -0.069843 0.553199
v 0.167358 -0.069843 0.371381
v 0.167358 -0.069843 0.189563
v 0.167358 -0.069843 0.007745
v 0.167358 -0.069843 -0.174073
v 0.167358 -0.069843 -0.355891
v 0.167358 -0.069843 -0.537710
v 0.167358 -0.069843 -0.719528
v 0.167358 -0.069843 -0.901346
v 0.349176 -0.069843 0.735018
v 0.349176 -0.069843 0.553199
v 0.349176 -0.069843 0.371381
v 0.349176 -0.069843 0.189563
v 0.343543 -0.019139 0.007745
v 0.343543 -0.019139 -0.174073
v 0.343543 -0.019139 -0.355891
v 0.349176 -0.069843 -0.537710
v 0.349176 -0.069843 -0.719528
v 0.349176 -0.069843 -0.901346
v 0.530995 -0.069843 0.735018
v 0.530995 -0.069843 0.553199
v 0.530995 -0.069843 0.371381
v 0.530995 -0.069843 0.189563
v 0.525361 -0.019139 0.007745
v 0.514093 0.025932 -0.174073
v 0.525361 -0.019139 -0.355891
v 0.530995 -0.069843 -0.537710
v 0.530995 -0.069843 -0.719528
v 0.530995 -0.069843 -0.901346
v 0.712813 -0.069843 0.735018
v 0.712813 -0.069843 0.553199
v 0.712813 -0.069843 0.371381
v 0.712813 -0.069843 0.189563
v 0.707179 -0.019139 0.007745
v 0.707179 -0.019139 -0.174073
v 0.707179 -0.019139 -0.355891
v 0.712813 -0.069843 -0.537710
v 0.712813 -0.069843 -0.719528
v 0.712813 -0.069843 -0.901346
v 0.894631 -0.569843 0.735018
v 0.894631 -0.569843 0.553199
v 0.894631 -0.569843 0.371381
v 0.894631 -0.569843 0.189563
v 0.894631 -0.569843 0.007745
v 0.894631 -0.569843 -0.174073
v 0.894631 -0.569843 -0.355891
v 0.894631 -0.569843 -0.537710
v 0.894631 -0.569843 -0.719528
v 0.894631 -0.569843 -0.901346
v -0.923551 -0.569843 -1.083164
v -0.741733 -0.569843 -1.083164
v -0.559914 -0.569843 -1.083164
v -0.378096 -0.569843 -1.083164
v -0.196278 -0.569843 -1.083164
v -0.014460 -0.569843 -1.083164
v 0.167358 -0.569843 -1.083164
v 0.349176 -0.569843 -1.083164
v 0.530995 -0.569843 -1.083164
v 0.712813 -0.569843 -1.083164
v -1.105369 -0.569843 0.735018
v -1.105369 -0.569843 0.553199
v -1.105369 -0.569843 0.371381
v -1.105369 -0.569843 0.189563
v -1.105369 -0.569843 0.007745
v -1.105369 -0.569843 -0.174073
v -1.105369 -0.569843 -0.355891
v -1.105369 -0.569843 -0.537710
v -1.105369 -0.569843 -0.719528
v -1.105369 -0.569843 -0.901346
v 0.712813 -0.569843 0.916836
v 0.530995 -0.569843 0.916836
v 0.349176 -0.569843 0.916836
v 0.167358 -0.569843 0.916836
v -0.014460 -0.569843 0.916836
v -0.196278 -0.569843 0.916836
v -0.378096 -0.569843 0.916836
v -0.559914 -0.569843 0.916836
v -0.741733 -0.569843 0.916836
v -0.923551 -0.569843 0.916836
v 0.712813 -0.569843 -0.901346
v 0.530995 -0.569843 -0.901346
v 0.349176 -0.569843 -0.901346
v 0.167358 -0.569843 -0.901346
v -0.014460 -0.569843 -0.901346
v -0.196278 -0.569843 -0.901346
v -0.378096 -0.569843 -0.901346
v -0.559914 -0.569843 -0.901346
v -0.741733 -0.569843 -0.901346
v -0.923551 -0.569843 -0.901346
v 0.712813 -0.569843 -0.719528
v 0.530995 -0.569843 -0.719528
v 0.349176 -0.569843 -0.719528
v 0.167358 -0.569843 -0.719528
v -0.014460 -0.569843 -0.719528
v -0.196278 -0.569843 -0.719528
v -0.378096 -0.569843 -0.719528
v -0.559914 -0.569843 -0.719528
v -0.741733 -0.569843 -0.719528
v -0.923551 -0.569843 -0.719528
v 0.712813 -0.569843 -0.537710
v 0.530995 -0.569843 -0.537710
v 0.349176 -0.569843 -0.537710
v 0.167358 -0.569843 -0.537710
v -0.014460 -0.569843 -0.537710
v -0.196278 -0.569843 -0.537710
v -0.378096 -0.569843 -0.537710
v -0.559914 -0.569843 -0.537710
v -0.741733 -0.569843 -0.537710
v -0.923551 -0.569843 -0.537710
v 0.712813 -0.569843 -0.355891
v 0.530995 -0.569843 -0.355891
v 0.349176 -0.569843 -0.355891
v 0.167358 -0.569843 -0.355891
v -0.014460 -0.569843 -0.355891
v -0.196278 -0.569843 -0.355891
v -0.378096 -0.569843 -0.355891
v -0.559914 -0.569843 -0.355891
v -0.741733 -0.569843 -0.355891
v -0.923551 -0.569843 -0.355891
v 0.712813 -0.569843 -0.174073
v 0.530995 -0.569843 -0.174073
v 0.349176 -0.569843 -0.174073
v 0.167358 -0.569843 -0.174073
v -0.014460 -0.569843 -0.174073
v -0.196278 -0.569843 -0.174073
v -0.378096 -0.569843 -0.174073
v -0.559914 -0.569843 -0.174073
v -0.741733 -0.569843 -0.174073
v -0.923551 -0.569843 -0.174073
v 0.712813 -0.569843 0.007745
v 0.530995 -0.569843 0.007745
v 0.349176 -0.569843 0.007745
v 0.167358 -0.569843 0.007745
v -0.014460 -0.569843 0.007745
v -0.196278 -0.569843 0.007745
v -0.378096 -0.569843 0.007745
v -0.559914 -0.569843 0.007745
v -0.741733 -0.569843 0.007745
v -0.923551 -0.569843 0.007745
v 0.712813 -0.569843 0.189563
v 0.530995 -0.569843 0.189563
v 0.349176 -0.569843 0.189563
v 0.167358 -0.569843 0.189563
v -0.014460 -0.569843 0.189563
v -0.196278 -0.569843 0.189563
v -0.378096 -0.569843 0.189563
v -0.559914 -0.569843 0.189563
v -0.741733 -0.569843 0.189563
v -0.923551 -0.569843 0.189563
v 0.712813 -0.569843 0.371381
v 0.530995 -0.569843 0.371381
v 0.349176 -0.569843 0.371381
v 0.167358 -0.569843 0.371381
v -0.014460 -0.569843 0.371381
v -0.196278 -0.569843 0.371381
v -0.378096 -0.569843 0.371381
v -0.559914 -0.569843 0.371381
v -0.741733 -0.569843 0.371381
v -0.923551 -0.569843 0.371381
v 0.712813 -0.569843 0.553199
v 0.530995 -0.569843 0.553199
v 0.349176 -0.569843 0.553199
v 0.167358 -0.569843 0.553199
v -0.014460 -0.569843 0.553199
v -0.196278 -0.569843 0.553199
v -0.378096 -0.569843 0.553199
v -0.559914 -0.569843 0.553199
v -0.741733 -0.569843 0.553199
v -0.923551 -0.569843 0.553199
v 0.712813 -0.569843 0.735018
v 0.530995 -0.569843 0.735018
v 0.349176 -0.569843 0.735018
v 0.167358 -0.569843 0.735018
v -0.014460 -0.569843 0.735018
v -0.196278 -0.569843 0.735018
v -0.378096 -0.569843 0.735018
v -0.559914 -0.569843 0.735018
v -0.741733 -0.569843 0.735018
v -0.923551 -0.569843 0.735018
v 0.894631 -0.403177 -1.083164
v 0.894631 -0.236510 -1.083164
v -1.105369 -0.403177 -1.083164
v -1.105369 -0.236510 -1.083164
v -1.105369 -0.403177 0.916836
v -1.105369 -0.236510 0.916836
v 0.894631 -0.236510 0.916836
v 0.894631 -0.403177 0.916836
v -1.105369 -0.236510 0.916836
v 0.894631 -0.236510 0.916836
v 0.530995 -0.403177 -1.083164
v 0.530995 -0.236510 -1.083164
v 0.349176 -0.403177 -1.083164
v 0.349176 -0.236510 -1.083164
v 0.167358 -0.403177 -1.083164
v 0.167358 -0.236510 -1.083164
v -0.014460 -0.403177 -1.083164
v -0.014460 -0.236510 -1.083164
v -0.196278 -0.403177 -1.083164
v -0.196278 -0.236510 -1.083164
v -0.378096 -0.403177 -1.083164
v -0.378096 -0.236510 -1.083164
v -0.559914 -0.403177 -1.083164
v -0.559915 -0.236510 -1.083164
v -0.741733 -0.403177 -1.083164
v -0.741733 -0.236510 -1.083164
v -0.923551 -0.403177 -1.083164
v -0.923551 -0.236510 -1.083164
v -1.105369 -0.403177 -0.901346
v -1.105369 -0.236510 -0.901346
v -1.105369 -0.403177 -0.719528
v -1.105369 -0.236510 -0.719528
v -1.105369 -0.403177 -0.537710
v -1.105369 -0.236510 -0.537710
v -1.105369 -0.403177 -0.355891
v -1.105369 -0.236510 -0.355891
v -1.105369 -0.403177 -0.174073
v -1.105369 -0.236510 -0.174073
v -1.105369 -0.403177 0.007745
v -1.105369 -0.236510 0.007745
v -1.105369 -0.403177 0.189563
v -1.105369 -0.236510 0.189563
v -1.105369 -0.403177 0.371381
v -1.105369 -0.236510 0.371381
v -1.105369 -0.403177 0.553199
v -1.105369 -0.236510 0.553199
v -1.105369 -0.403177 0.735018
v -1.105369 -0.236510 0.735018
v -0.923551 -0.403177 0.916836
v -0.923551 -0.236510 0.916836
v -0.741733 -0.403177 0.916836
v -0.741733 -0.236510 0.916836
v -0.559914 -0.403177 0.916836
v -0.559914 -0.236510 0.916836
v -0.378096 -0.403177 0.916836
v -0.378096 -0.236510 0.916836
v -0.196278 -0.403177 0.916836
v -0.196278 -0.236510 0.916836
v -0.014460 -0.403177 0.916836
v -0.014460 -0.236510 0.916836
v 0.167358 -0.403177 0.916836
v 0.167358 -0.236510 0.916836
v 0.349176 -0.403177 0.916836
v 0.349176 -0.236510 0.916836
v 0.530995 -0.403177 0.916836
v 0.530995 -0.236510 0.916836
v 0.712813 -0.403177 0.916836
v 0.712813 -0.236510 0.916836
v 0.894631 -0.403177 0.735018
v 0.894631 -0.236510 0.735018
v 0.894631 -0.403177 0.553199
v 0.894631 -0.236510 0.553199
v 0.894631 -0.403177 0.371381
v 0.894631 -0.236510 0.371381
v 0.894631 -0.403177 0.189563
v 0.894631 -0.236510 0.189563
v 0.894631 -0.403177 0.007745
v 0.894631 -0.236510 0.007745
v 0.894631 -0.403177 -0.174073
v 0.894631 -0.236510 -0.174073
v 0.894631 -0.403177 -0.355891
v 0.894631 -0.236510 -0.355891
v 0.894631 -0.403177 -0.537710
v 0.894631 -0.236510 -0.537710
v 0.894631 -0.403177 -0.719528
v 0.894631 -0.236510 -0.719528
v 0.894631 -0.403177 -0.901346
v 0.894631 -0.236510 -0.901346
vn -0.0000 1.0000 -0.0000
vn 1.0000 -0.0000 -0.0000
vn -0.0000 -0.0000 -1.0000
vn -1.0000 -0.0000 -0.0000
vn -0.0000 -0.0000 1.0000
vn -0.0000 -1.0000 -0.0000
vn 0.5106 0.8598 -0.0000
vn -0.0000 0.8598 -0.5106
vn 0.3839 0.9234 -0.0000
vn -0.0000 0.8598 0.5106
vn -0.0000 0.9276 -0.3736
vn 0.2555 0.9668 -0.0000
vn -0.0000 0.9276 0.3736
vn -0.2217 0.9496 -0.2217
vn -0.2217 0.9496 0.2217
vn -0.3420 0.8753 -0.3420
vn -0.3639 0.9314 -0.0000
vn -0.3420 0.8753 0.3420
vn -0.4548 0.7657 -0.4548
vn -0.5106 0.8598 -0.0000
vn -0.4548 0.7657 0.4548
vn -0.2766 0.9610 -0.0000
vn -0.0000 0.9632 0.2686
vn -0.2555 0.9668 -0.0000
vn -0.0000 0.9632 -0.2686
vn 0.2217 0.9496 0.2217
vn 0.2217 0.9496 -0.2217
vn 0.2526 0.9340 0.2526
vn 0.2611 0.9653 -0.0000
vn 0.2526 0.9340 -0.2526
vn 0.4548 0.7657 -0.4548
vn 0.4548 0.7657 0.4548
vn 0.3584 0.8621 -0.3584
vn 0.3584 0.8621 0.3584
vn -0.0000 0.9706 -0.2406
vn -0.0000 0.9706 0.2406
vn -0.2666 0.9262 0.2666
vn -0.2666 0.9262 -0.2666
vt 1.000000 0.909091
vt 0.909091 1.000000
vt 0.909091 0.909091
vt 0.333333 0.000000
vt 0.000000 0.000000
vt 0.333333 0.030303
vt 0.000000 0.666667
vt 0.090909 1.000000
vt 0.060606 0.666667
vt 0.000000 0.090909
vt 0.000000 0.060606
vt 0.303030 0.000000
vt 0.090909 0.909091
vt 0.000000 1.000000
vt 0.000000 0.909091
vt 0.181818 0.909091
vt 0.272727 1.000000
vt 0.181818 1.000000
vt 0.272727 0.909091
vt 0.363636 1.000000
vt 0.454545 0.909091
vt 0.363636 0.909091
vt 0.545455 0.909091
vt 0.454545 1.000000
vt 0.636364 0.909091
vt 0.545455 1.000000
vt 0.727273 0.909091
vt 0.636364 1.000000
vt 0.818182 0.909091
vt 0.727273 1.000000
vt 0.818182 1.000000
vt 0.090909 0.000000
vt 0.090909 0.090909
vt 0.000000 0.181818
vt 0.090909 0.181818
vt 0.000000 0.272727
vt 0.090909 0.272727
vt 0.000000 0.363636
vt 0.090909 0.363636
vt 0.000000 0.454545
vt 0.090909 0.454545
vt 0.000000 0.545455
vt 0.090909 0.545455
vt 0.000000 0.636364
vt 0.090909 0.636364
vt 0.000000 0.727273
vt 0.090909 0.727273
vt 0.000000 0.818182
vt 0.090909 0.818182
vt 0.181818 0.000000
vt 0.181818 0.090909
vt 0.181818 0.181818
vt 0.181818 0.272727
vt 0.181818 0.363636
vt 0.181818 0.454545
vt 0.181818 0.545455
vt 0.181818 0.727273
vt 0.181818 0.818182
vt 0.272727 0.000000
vt 0.272727 0.090909
vt 0.272727 0.181818
vt 0.272727 0.272727
vt 0.272727 0.363636
vt 0.272727 0.454545
vt 0.272727 0.636364
vt 0.181818 0.636364
vt 0.272727 0.727273
vt 0.272727 0.818182
vt 0.363636 0.000000
vt 0.363636 0.090909
vt 0.363636 0.181818
vt 0.363636 0.363636
vt 0.363636 0.454545
vt 0.272727 0.545455
vt 0.363636 0.545455
vt 0.363636 0.636364
vt 0.363636 0.727273
vt 0.363636 0.818182
vt 0.454545 0.000000
vt 0.454545 0.181818
vt 0.363636 0.272727
vt 0.454545 0.363636
vt 0.454545 0.454545
vt 0.454545 0.545455
vt 0.454545 0.636364
vt 0.454545 0.727273
vt 0.454545 0.818182
vt 0.545455 0.090909
vt 0.454545 0.090909
vt 0.545455 0.181818
vt 0.454545 0.272727
vt 0.545455 0.363636
vt 0.545455 0.545455
vt 0.545455 0.636364
vt 0.545455 0.727273
vt 0.545455 0.000000
vt 0.636364 0.090909
vt 0.636364 0.272727
vt 0.545455 0.272727
vt 0.636364 0.363636
vt 0.545455 0.454545
vt 0.636364 0.545455
vt 0.636364 0.636364
vt 0.636364 0.818182
vt 0.545455 0.818182
vt 0.727273 0.000000
vt 0.636364 0.000000
vt 0.727273 0.090909
vt 0.636364 0.181818
vt 0.727273 0.181818
vt 0.727273 0.272727
vt 0.727273 0.363636
vt 0.636364 0.454545
vt 0.727273 0.454545
vt 0.727273 0.545455
vt 0.727273 0.727273
vt 0.636364 0.727273
vt 0.818182 0.000000
vt 0.818182 0.090909
vt 0.818182 0.181818
vt 0.818182 0.272727
vt 0.818182 0.454545
vt 0.818182 0.545455
vt 0.727273 0.636364
vt 0.818182 0.636364
vt 0.818182 0.727273
vt 0.727273 0.818182
vt 0.818182 0.818182
vt 0.909091 0.000000
vt 0.909091 0.090909
vt 0.909091 0.181818
vt 0.909091 0.272727
vt 0.818182 0.363636
vt 0.909091 0.454545
vt 0.909091 0.545455
vt 0.909091 0.636364
vt 0.909091 0.727273
vt 0.909091 0.818182
vt 1.000000 0.000000
vt 1.000000 0.090909
vt 1.000000 0.181818
vt 1.000000 0.272727
vt 0.909091 0.363636
vt 1.000000 0.454545
vt 1.000000 0.545455
vt 1.000000 0.636364
vt 1.000000 0.727273
vt 1.000000 0.818182
vt 0.606061 0.000000
vt 0.666667 0.000000
vt 0.666667 0.060606
vt 0.545455 0.666667
vt 0.333333 0.333333
vt 0.272727 0.333333
vt 0.000000 0.606061
vt 0.000000 0.333333
vt 0.000000 0.303030
vt 0.484848 0.666667
vt 0.242424 0.333333
vt 0.424242 0.666667
vt 0.212121 0.333333
vt 0.181818 0.333333
vt 0.151515 0.333333
vt 0.363636 0.666667
vt 0.242424 0.666667
vt 0.121212 0.333333
vt 0.181818 0.666667
vt 0.090909 0.333333
vt 0.303030 0.666667
vt 0.121212 0.666667
vt 0.060606 0.333333
vt 0.030303 0.333333
vt 0.000000 0.484848
vt 0.000000 0.242424
vt 0.000000 0.424242
vt 0.000000 0.212121
vt 0.000000 0.181818
vt 0.000000 0.151515
vt 0.000000 0.363636
vt 0.000000 0.242424
vt 0.000000 0.121212
vt 0.000000 0.090909
vt 0.000000 0.121212
vt 0.000000 0.060606
vt 0.000000 0.030303
vt 0.060606 0.000000
vt 0.030303 0.000000
vt 0.121212 0.000000
vt 0.060606 0.000000
vt 0.242424 0.000000
vt 0.121212 0.000000
vt 0.303030 0.000000
vt 0.151515 0.000000
vt 0.181818 0.000000
vt 0.424242 0.000000
vt 0.212121 0.000000
vt 0.484848 0.000000
vt 0.242424 0.000000
vt 0.545455 0.000000
vt 0.272727 0.000000
vt 0.333333 0.060606
vt 0.666667 0.121212
vt 0.333333 0.090909
vt 0.666667 0.181818
vt 0.333333 0.121212
vt 0.666667 0.242424
vt 1.000000 0.363636
vt 0.333333 0.151515
vt 0.666667 0.303030
vt 0.333333 0.181818
vt 0.666667 0.363636
vt 0.333333 0.212121
vt 0.666667 0.424242
vt 0.333333 0.242424
vt 0.666667 0.484848
vt 0.333333 0.272727
vt 0.666667 0.545455
vt 0.333333 0.303030
vt 0.666667 0.606061
vt 0.666667 0.666667
vt 1.000000 1.000000
s 0
f 38/1/1 39/2/1 148/3/1
f 296/4/2 149/5/2 357/6/2
f 292/7/3 48/8/3 316/9/3
f 294/5/4 18/10/4 336/11/4
f 179/5/5 296/4/5 355/12/5
f 188/5/6 169/5/6 288/5/6
f 58/13/1 3/14/1 9/15/1
f 68/16/1 48/8/1 58/13/1
f 68/16/1 46/17/1 47/18/1
f 78/19/1 45/20/1 46/17/1
f 98/21/1 45/20/1 88/22/1
f 108/23/1 44/24/1 98/21/1
f 118/25/1 43/26/1 108/23/1
f 128/27/1 42/28/1 118/25/1
f 138/29/1 41/30/1 128/27/1
f 148/3/1 40/31/1 138/29/1
f 19/32/1 18/10/1 1/5/1
f 49/33/1 17/34/1 18/10/1
f 50/35/1 16/36/1 17/34/1
f 51/37/1 15/38/1 16/36/1
f 52/39/1 14/40/1 15/38/1
f 53/41/1 13/42/1 14/40/1
f 54/43/1 12/44/1 13/42/1
f 55/45/1 11/46/1 12/44/1
f 56/47/1 10/48/1 11/46/1
f 57/49/1 9/15/1 10/48/1
f 20/50/1 49/33/1 19/32/1
f 59/51/1 50/35/1 49/33/1
f 60/52/1 51/37/1 50/35/1
f 61/53/7 52/39/7 51/37/7
f 62/54/7 53/41/7 52/39/7
f 63/55/7 54/43/7 53/41/7
f 64/56/7 55/45/7 54/43/7
f 55/45/1 66/57/1 56/47/1
f 66/57/1 57/49/1 56/47/1
f 67/58/1 58/13/1 57/49/1
f 21/59/1 59/51/1 20/50/1
f 69/60/1 60/52/1 59/51/1
f 70/61/8 61/53/8 60/52/8
f 71/62/1 62/54/1 61/53/1
f 72/63/9 63/55/9 62/54/9
f 73/64/9 64/56/9 63/55/9
f 64/56/1 75/65/1 65/66/1
f 75/65/10 66/57/10 65/66/10
f 76/67/1 67/58/1 66/57/1
f 77/68/1 68/16/1 67/58/1
f 22/69/1 69/60/1 21/59/1
f 79/70/1 70/61/1 69/60/1
f 80/71/8 71/62/8 70/61/8
f 71/62/11 82/72/11 72/63/11
f 72/63/12 83/73/12 73/64/12
f 83/73/12 74/74/12 73/64/12
f 84/75/13 75/65/13 74/74/13
f 85/76/10 76/67/10 75/65/10
f 86/77/1 77/68/1 76/67/1
f 87/78/1 78/19/1 77/68/1
f 23/79/1 79/70/1 22/69/1
f 79/70/1 90/80/1 80/71/1
f 90/80/8 81/81/8 80/71/8
f 81/81/11 92/82/11 82/72/11
f 82/72/14 93/83/14 83/73/14
f 93/83/15 84/75/15 83/73/15
f 94/84/13 85/76/13 84/75/13
f 95/85/10 86/77/10 85/76/10
f 96/86/1 87/78/1 86/77/1
f 97/87/1 88/22/1 87/78/1
f 23/79/1 99/88/1 89/89/1
f 89/89/1 100/90/1 90/80/1
f 100/90/8 91/91/8 90/80/8
f 91/91/16 102/92/16 92/82/16
f 102/92/17 93/83/17 92/82/17
f 93/83/17 104/93/17 94/84/17
f 104/93/18 95/85/18 94/84/18
f 105/94/10 96/86/10 95/85/10
f 106/95/1 97/87/1 96/86/1
f 97/87/1 108/23/1 98/21/1
f 24/96/1 109/97/1 99/88/1
f 109/97/1 100/90/1 99/88/1
f 100/90/19 111/98/19 101/99/19
f 111/98/20 102/92/20 101/99/20
f 112/100/20 103/101/20 102/92/20
f 103/101/20 114/102/20 104/93/20
f 114/102/20 105/94/20 104/93/20
f 115/103/21 106/95/21 105/94/21
f 106/95/1 117/104/1 107/105/1
f 117/104/1 108/23/1 107/105/1
f 26/106/1 109/97/1 25/107/1
f 119/108/1 110/109/1 109/97/1
f 120/110/1 111/98/1 110/109/1
f 121/111/1 112/100/1 111/98/1
f 122/112/1 113/113/1 112/100/1
f 123/114/22 114/102/22 113/113/22
f 124/115/22 115/103/22 114/102/22
f 115/103/1 126/116/1 116/117/1
f 126/116/1 117/104/1 116/117/1
f 117/104/1 128/27/1 118/25/1
f 27/118/1 119/108/1 26/106/1
f 129/119/1 120/110/1 119/108/1
f 130/120/1 121/111/1 120/110/1
f 131/121/1 122/112/1 121/111/1
f 122/112/23 133/122/23 123/114/23
f 123/114/24 134/123/24 124/115/24
f 134/123/24 125/124/24 124/115/24
f 135/125/25 126/116/25 125/124/25
f 136/126/1 127/127/1 126/116/1
f 137/128/1 128/27/1 127/127/1
f 28/129/1 129/119/1 27/118/1
f 139/130/1 130/120/1 129/119/1
f 140/131/1 131/121/1 130/120/1
f 141/132/1 132/133/1 131/121/1
f 132/133/23 143/134/23 133/122/23
f 133/122/26 144/135/26 134/123/26
f 144/135/27 135/125/27 134/123/27
f 145/136/25 136/126/25 135/125/25
f 146/137/1 137/128/1 136/126/1
f 147/138/1 138/29/1 137/128/1
f 2/139/1 139/130/1 28/129/1
f 29/140/1 140/131/1 139/130/1
f 30/141/1 141/132/1 140/131/1
f 31/142/1 142/143/1 141/132/1
f 142/143/28 33/144/28 143/134/28
f 33/144/29 144/135/29 143/134/29
f 34/145/29 145/136/29 144/135/29
f 35/146/30 146/137/30 145/136/30
f 36/147/1 147/138/1 146/137/1
f 37/148/1 148/3/1 147/138/1
f 198/5/6 6/5/6 159/5/6
f 208/5/6 178/5/6 198/5/6
f 218/5/6 177/5/6 208/5/6
f 228/5/6 176/5/6 218/5/6
f 238/5/6 175/5/6 228/5/6
f 248/5/6 174/5/6 238/5/6
f 258/5/6 173/5/6 248/5/6
f 268/5/6 172/5/6 258/5/6
f 278/5/6 171/5/6 268/5/6
f 288/5/6 170/5/6 278/5/6
f 158/5/6 168/5/6 5/5/6
f 189/5/6 167/5/6 168/5/6
f 190/5/6 166/5/6 167/5/6
f 191/5/6 165/5/6 166/5/6
f 192/5/6 164/5/6 165/5/6
f 193/5/6 163/5/6 164/5/6
f 194/5/6 162/5/6 163/5/6
f 195/5/6 161/5/6 162/5/6
f 196/5/6 160/5/6 161/5/6
f 197/5/6 159/5/6 160/5/6
f 157/5/6 189/5/6 158/5/6
f 199/5/6 190/5/6 189/5/6
f 200/5/6 191/5/6 190/5/6
f 201/5/6 192/5/6 191/5/6
f 202/5/6 193/5/6 192/5/6
f 203/5/6 194/5/6 193/5/6
f 204/5/6 195/5/6 194/5/6
f 205/5/6 196/5/6 195/5/6
f 206/5/6 197/5/6 196/5/6
f 207/5/6 198/5/6 197/5/6
f 156/5/6 199/5/6 157/5/6
f 209/5/6 200/5/6 199/5/6
f 210/5/6 201/5/6 200/5/6
f 211/5/6 202/5/6 201/5/6
f 212/5/6 203/5/6 202/5/6
f 213/5/6 204/5/6 203/5/6
f 214/5/6 205/5/6 204/5/6
f 215/5/6 206/5/6 205/5/6
f 216/5/6 207/5/6 206/5/6
f 217/5/6 208/5/6 207/5/6
f 155/5/6 209/5/6 156/5/6
f 219/5/6 210/5/6 209/5/6
f 220/5/6 211/5/6 210/5/6
f 221/5/6 212/5/6 211/5/6
f 222/5/6 213/5/6 212/5/6
f 223/5/6 214/5/6 213/5/6
f 224/5/6 215/5/6 214/5/6
f 225/5/6 216/5/6 215/5/6
f 226/5/6 217/5/6 216/5/6
f 227/5/6 218/5/6 217/5/6
f 154/5/6 219/5/6 155/5/6
f 229/5/6 220/5/6 219/5/6
f 230/5/6 221/5/6 220/5/6
f 231/5/6 222/5/6 221/5/6
f 232/5/6 223/5/6 222/5/6
f 233/5/6 224/5/6 223/5/6
f 234/5/6 225/5/6 224/5/6
f 235/5/6 226/5/6 225/5/6
f 236/5/6 227/5/6 226/5/6
f 237/5/6 228/5/6 227/5/6
f 153/5/6 229/5/6 154/5/6
f 239/5/6 230/5/6 229/5/6
f 240/5/6 231/5/6 230/5/6
f 241/5/6 232/5/6 231/5/6
f 242/5/6 233/5/6 232/5/6
f 243/5/6 234/5/6 233/5/6
f 244/5/6 235/5/6 234/5/6
f 245/5/6 236/5/6 235/5/6
f 246/5/6 237/5/6 236/5/6
f 247/5/6 238/5/6 237/5/6
f 152/5/6 239/5/6 153/5/6
f 249/5/6 240/5/6 239/5/6
f 250/5/6 241/5/6 240/5/6
f 251/5/6 242/5/6 241/5/6
f 252/5/6 243/5/6 242/5/6
f 253/5/6 244/5/6 243/5/6
f 254/5/6 245/5/6 244/5/6
f 255/5/6 246/5/6 245/5/6
f 256/5/6 247/5/6 246/5/6
f 257/5/6 248/5/6 247/5/6
f 151/5/6 249/5/6 152/5/6
f 259/5/6 250/5/6 249/5/6
f 260/5/6 251/5/6 250/5/6
f 261/5/6 252/5/6 251/5/6
f 262/5/6 253/5/6 252/5/6
f 263/5/6 254/5/6 253/5/6
f 264/5/6 255/5/6 254/5/6
f 265/5/6 256/5/6 255/5/6
f 266/5/6 257/5/6 256/5/6
f 267/5/6 258/5/6 257/5/6
f 150/5/6 259/5/6 151/5/6
f 269/5/6 260/5/6 259/5/6
f 270/5/6 261/5/6 260/5/6
f 271/5/6 262/5/6 261/5/6
f 272/5/6 263/5/6 262/5/6
f 273/5/6 264/5/6 263/5/6
f 274/5/6 265/5/6 264/5/6
f 275/5/6 266/5/6 265/5/6
f 276/5/6 267/5/6 266/5/6
f 277/5/6 268/5/6 267/5/6
f 149/5/6 269/5/6 150/5/6
f 279/5/6 270/5/6 269/5/6
f 280/5/6 271/5/6 270/5/6
f 281/5/6 272/5/6 271/5/6
f 282/5/6 273/5/6 272/5/6
f 283/5/6 274/5/6 273/5/6
f 284/5/6 275/5/6 274/5/6
f 285/5/6 276/5/6 275/5/6
f 286/5/6 277/5/6 276/5/6
f 287/5/6 278/5/6 277/5/6
f 8/5/6 279/5/6 149/5/6
f 179/5/6 280/5/6 279/5/6
f 180/5/6 281/5/6 280/5/6
f 181/5/6 282/5/6 281/5/6
f 182/5/6 283/5/6 282/5/6
f 183/5/6 284/5/6 283/5/6
f 184/5/6 285/5/6 284/5/6
f 185/5/6 286/5/6 285/5/6
f 186/5/6 287/5/6 286/5/6
f 187/5/6 288/5/6 287/5/6
f 356/149/5 2/139/5 28/129/5
f 355/12/5 295/150/5 356/149/5
f 29/140/2 295/150/2 358/151/2
f 295/150/2 357/6/2 358/151/2
f 300/152/3 289/153/3 299/154/3
f 289/153/3 5/5/3 168/5/3
f 318/155/4 291/156/4 317/157/4
f 317/157/4 6/5/4 178/5/4
f 302/158/3 299/154/3 301/159/3
f 166/5/3 299/154/3 167/5/3
f 300/152/3 40/31/3 39/2/3
f 304/160/3 301/159/3 303/161/3
f 165/5/3 301/159/3 166/5/3
f 302/158/3 40/31/3 300/152/3
f 305/162/3 304/160/3 303/161/3
f 305/162/3 165/5/3 164/5/3
f 304/160/3 41/30/3 302/158/3
f 307/163/3 306/164/3 305/162/3
f 163/5/3 305/162/3 164/5/3
f 306/164/3 42/28/3 304/160/3
f 310/165/3 307/163/3 309/166/3
f 162/5/3 307/163/3 163/5/3
f 306/164/3 44/24/3 43/26/3
f 312/167/3 309/166/3 311/168/3
f 311/168/3 162/5/3 161/5/3
f 310/165/3 44/24/3 308/169/3
f 314/170/3 311/168/3 313/171/3
f 313/171/3 161/5/3 160/5/3
f 312/167/3 45/20/3 310/165/3
f 316/9/3 313/171/3 315/172/3
f 315/172/3 160/5/3 159/5/3
f 312/167/3 47/18/3 46/17/3
f 292/7/3 315/172/3 291/156/3
f 291/156/3 159/5/3 6/5/3
f 316/9/3 47/18/3 314/170/3
f 320/42/4 317/157/4 319/36/4
f 177/5/4 317/157/4 178/5/4
f 318/155/4 3/14/4 292/7/4
f 322/173/4 319/36/4 321/174/4
f 176/5/4 319/36/4 177/5/4
f 320/42/4 9/15/4 318/155/4
f 324/175/4 321/174/4 323/176/4
f 175/5/4 321/174/4 176/5/4
f 322/173/4 10/48/4 320/42/4
f 325/177/4 324/175/4 323/176/4
f 325/177/4 175/5/4 174/5/4
f 324/175/4 11/46/4 322/173/4
f 327/178/4 326/179/4 325/177/4
f 173/5/4 325/177/4 174/5/4
f 326/179/4 12/44/4 324/175/4
f 330/180/4 327/178/4 329/181/4
f 172/5/4 327/178/4 173/5/4
f 326/179/4 14/40/4 13/42/4
f 332/177/4 329/181/4 331/182/4
f 331/182/4 172/5/4 171/5/4
f 330/180/4 14/40/4 328/157/4
f 334/183/4 331/182/4 333/184/4
f 333/184/4 171/5/4 170/5/4
f 332/177/4 15/38/4 330/180/4
f 336/11/4 333/184/4 335/185/4
f 335/185/4 170/5/4 169/5/4
f 332/177/4 17/34/4 16/36/4
f 294/5/4 335/185/4 293/5/4
f 293/5/4 169/5/4 7/5/4
f 336/11/4 17/34/4 334/183/4
f 293/5/5 338/186/5 294/5/5
f 7/5/5 337/187/5 293/5/5
f 294/5/5 19/32/5 1/5/5
f 337/187/5 340/188/5 338/186/5
f 188/5/5 339/189/5 337/187/5
f 338/186/5 20/50/5 19/32/5
f 339/189/5 342/50/5 340/188/5
f 187/5/5 341/32/5 339/189/5
f 340/188/5 21/59/5 20/50/5
f 341/32/5 344/190/5 342/50/5
f 341/32/5 185/5/5 343/191/5
f 342/50/5 22/69/5 21/59/5
f 343/191/5 346/192/5 344/190/5
f 185/5/5 345/193/5 343/191/5
f 344/190/5 23/79/5 22/69/5
f 345/193/5 348/69/5 346/192/5
f 184/5/5 347/194/5 345/193/5
f 23/79/5 348/69/5 24/96/5
f 347/194/5 350/195/5 348/69/5
f 183/5/5 349/196/5 347/194/5
f 24/96/5 350/195/5 25/107/5
f 349/196/5 352/197/5 350/195/5
f 182/5/5 351/198/5 349/196/5
f 25/107/5 352/197/5 26/106/5
f 351/198/5 354/199/5 352/197/5
f 181/5/5 353/200/5 351/198/5
f 352/197/5 27/118/5 26/106/5
f 353/200/5 356/149/5 354/199/5
f 180/5/5 355/12/5 353/200/5
f 354/199/5 28/129/5 27/118/5
f 358/151/2 359/201/2 360/202/2
f 357/6/2 150/5/2 359/201/2
f 30/141/2 358/151/2 360/202/2
f 360/202/2 361/203/2 362/204/2
f 359/201/2 151/5/2 361/203/2
f 31/142/2 360/202/2 362/204/2
f 362/204/2 363/205/2 364/206/2
f 361/203/2 152/5/2 363/205/2
f 32/207/2 362/204/2 364/206/2
f 364/206/2 365/208/2 366/209/2
f 363/205/2 153/5/2 365/208/2
f 33/144/2 364/206/2 366/209/2
f 366/209/2 367/210/2 368/211/2
f 365/208/2 154/5/2 367/210/2
f 34/145/2 366/209/2 368/211/2
f 368/211/2 369/212/2 370/213/2
f 367/210/2 155/5/2 369/212/2
f 35/146/2 368/211/2 370/213/2
f 370/213/2 371/214/2 372/215/2
f 369/212/2 156/5/2 371/214/2
f 36/147/2 370/213/2 372/215/2
f 372/215/2 373/216/2 374/217/2
f 371/214/2 157/5/2 373/216/2
f 37/148/2 372/215/2 374/217/2
f 374/217/2 375/218/2 376/219/2
f 373/216/2 158/5/2 375/218/2
f 37/148/2 376/219/2 38/1/2
f 376/219/2 289/153/2 290/220/2
f 375/218/2 5/5/2 289/153/2
f 38/1/2 290/220/2 4/221/2
f 38/1/1 4/221/1 39/2/1
f 296/4/2 8/5/2 149/5/2
f 292/7/3 3/14/3 48/8/3
f 294/5/4 1/5/4 18/10/4
f 179/5/5 8/5/5 296/4/5
f 188/5/6 7/5/6 169/5/6
f 58/13/1 48/8/1 3/14/1
f 68/16/1 47/18/1 48/8/1
f 68/16/1 78/19/1 46/17/1
f 78/19/1 88/22/1 45/20/1
f 98/21/1 44/24/1 45/20/1
f 108/23/1 43/26/1 44/24/1
f 118/25/1 42/28/1 43/26/1
f 128/27/1 41/30/1 42/28/1
f 138/29/1 40/31/1 41/30/1
f 148/3/1 39/2/1 40/31/1
f 19/32/1 49/33/1 18/10/1
f 49/33/1 50/35/1 17/34/1
f 50/35/1 51/37/1 16/36/1
f 51/37/1 52/39/1 15/38/1
f 52/39/1 53/41/1 14/40/1
f 53/41/1 54/43/1 13/42/1
f 54/43/1 55/45/1 12/44/1
f 55/45/1 56/47/1 11/46/1
f 56/47/1 57/49/1 10/48/1
f 57/49/1 58/13/1 9/15/1
f 20/50/1 59/51/1 49/33/1
f 59/51/1 60/52/1 50/35/1
f 60/52/31 61/53/31 51/37/31
f 61/53/7 62/54/7 52/39/7
f 62/54/7 63/55/7 53/41/7
f 63/55/7 64/56/7 54/43/7
f 64/56/7 65/66/7 55/45/7
f 55/45/32 65/66/32 66/57/32
f 66/57/1 67/58/1 57/49/1
f 67/58/1 68/16/1 58/13/1
f 21/59/1 69/60/1 59/51/1
f 69/60/1 70/61/1 60/52/1
f 70/61/8 71/62/8 61/53/8
f 71/62/33 72/63/33 62/54/33
f 72/63/9 73/64/9 63/55/9
f 73/64/9 74/74/9 64/56/9
f 64/56/34 74/74/34 75/65/34
f 75/65/10 76/67/10 66/57/10
f 76/67/1 77/68/1 67/58/1
f 77/68/1 78/19/1 68/16/1
f 22/69/1 79/70/1 69/60/1
f 79/70/1 80/71/1 70/61/1
f 80/71/8 81/81/8 71/62/8
f 71/62/11 81/81/11 82/72/11
f 72/63/35 82/72/35 83/73/35
f 83/73/36 84/75/36 74/74/36
f 84/75/13 85/76/13 75/65/13
f 85/76/10 86/77/10 76/67/10
f 86/77/1 87/78/1 77/68/1
f 87/78/1 88/22/1 78/19/1
f 23/79/1 89/89/1 79/70/1
f 79/70/1 89/89/1 90/80/1
f 90/80/8 91/91/8 81/81/8
f 81/81/11 91/91/11 92/82/11
f 82/72/1 92/82/1 93/83/1
f 93/83/1 94/84/1 84/75/1
f 94/84/13 95/85/13 85/76/13
f 95/85/10 96/86/10 86/77/10
f 96/86/1 97/87/1 87/78/1
f 97/87/1 98/21/1 88/22/1
f 23/79/1 24/96/1 99/88/1
f 89/89/1 99/88/1 100/90/1
f 100/90/8 101/99/8 91/91/8
f 91/91/1 101/99/1 102/92/1
f 102/92/17 103/101/17 93/83/17
f 93/83/17 103/101/17 104/93/17
f 104/93/1 105/94/1 95/85/1
f 105/94/10 106/95/10 96/86/10
f 106/95/1 107/105/1 97/87/1
f 97/87/1 107/105/1 108/23/1
f 24/96/1 25/107/1 109/97/1
f 109/97/1 110/109/1 100/90/1
f 100/90/1 110/109/1 111/98/1
f 111/98/20 112/100/20 102/92/20
f 112/100/20 113/113/20 103/101/20
f 103/101/20 113/113/20 114/102/20
f 114/102/20 115/103/20 105/94/20
f 115/103/1 116/117/1 106/95/1
f 106/95/1 116/117/1 117/104/1
f 117/104/1 118/25/1 108/23/1
f 26/106/1 119/108/1 109/97/1
f 119/108/1 120/110/1 110/109/1
f 120/110/1 121/111/1 111/98/1
f 121/111/1 122/112/1 112/100/1
f 122/112/37 123/114/37 113/113/37
f 123/114/22 124/115/22 114/102/22
f 124/115/22 125/124/22 115/103/22
f 115/103/38 125/124/38 126/116/38
f 126/116/1 127/127/1 117/104/1
f 117/104/1 127/127/1 128/27/1
f 27/118/1 129/119/1 119/108/1
f 129/119/1 130/120/1 120/110/1
f 130/120/1 131/121/1 121/111/1
f 131/121/1 132/133/1 122/112/1
f 122/112/23 132/133/23 133/122/23
f 123/114/36 133/122/36 134/123/36
f 134/123/35 135/125/35 125/124/35
f 135/125/25 136/126/25 126/116/25
f 136/126/1 137/128/1 127/127/1
f 137/128/1 138/29/1 128/27/1
f 28/129/1 139/130/1 129/119/1
f 139/130/1 140/131/1 130/120/1
f 140/131/1 141/132/1 131/121/1
f 141/132/1 142/143/1 132/133/1
f 132/133/23 142/143/23 143/134/23
f 133/122/1 143/134/1 144/135/1
f 144/135/1 145/136/1 135/125/1
f 145/136/25 146/137/25 136/126/25
f 146/137/1 147/138/1 137/128/1
f 147/138/1 148/3/1 138/29/1
f 2/139/1 29/140/1 139/130/1
f 29/140/1 30/141/1 140/131/1
f 30/141/1 31/142/1 141/132/1
f 31/142/1 32/207/1 142/143/1
f 142/143/1 32/207/1 33/144/1
f 33/144/29 34/145/29 144/135/29
f 34/145/29 35/146/29 145/136/29
f 35/146/1 36/147/1 146/137/1
f 36/147/1 37/148/1 147/138/1
f 37/148/1 38/1/1 148/3/1
f 198/5/6 178/5/6 6/5/6
f 208/5/6 177/5/6 178/5/6
f 218/5/6 176/5/6 177/5/6
f 228/5/6 175/5/6 176/5/6
f 238/5/6 174/5/6 175/5/6
f 248/5/6 173/5/6 174/5/6
f 258/5/6 172/5/6 173/5/6
f 268/5/6 171/5/6 172/5/6
f 278/5/6 170/5/6 171/5/6
f 288/5/6 169/5/6 170/5/6
f 158/5/6 189/5/6 168/5/6
f 189/5/6 190/5/6 167/5/6
f 190/5/6 191/5/6 166/5/6
f 191/5/6 192/5/6 165/5/6
f 192/5/6 193/5/6 164/5/6
f 193/5/6 194/5/6 163/5/6
f 194/5/6 195/5/6 162/5/6
f 195/5/6 196/5/6 161/5/6
f 196/5/6 197/5/6 160/5/6
f 197/5/6 198/5/6 159/5/6
f 157/5/6 199/5/6 189/5/6
f 199/5/6 200/5/6 190/5/6
f 200/5/6 201/5/6 191/5/6
f 201/5/6 202/5/6 192/5/6
f 202/5/6 203/5/6 193/5/6
f 203/5/6 204/5/6 194/5/6
f 204/5/6 205/5/6 195/5/6
f 205/5/6 206/5/6 196/5/6
f 206/5/6 207/5/6 197/5/6
f 207/5/6 208/5/6 198/5/6
f 156/5/6 209/5/6 199/5/6
f 209/5/6 210/5/6 200/5/6
f 210/5/6 211/5/6 201/5/6
f 211/5/6 212/5/6 202/5/6
f 212/5/6 213/5/6 203/5/6
f 213/5/6 214/5/6 204/5/6
f 214/5/6 215/5/6 205/5/6
f 215/5/6 216/5/6 206/5/6
f 216/5/6 217/5/6 207/5/6
f 217/5/6 218/5/6 208/5/6
f 155/5/6 219/5/6 209/5/6
f 219/5/6 220/5/6 210/5/6
f 220/5/6 221/5/6 211/5/6
f 221/5/6 222/5/6 212/5/6
f 222/5/6 223/5/6 213/5/6
f 223/5/6 224/5/6 214/5/6
f 224/5/6 225/5/6 215/5/6
f 225/5/6 226/5/6 216/5/6
f 226/5/6 227/5/6 217/5/6
f 227/5/6 228/5/6 218/5/6
f 154/5/6 229/5/6 219/5/6
f 229/5/6 230/5/6 220/5/6
f 230/5/6 231/5/6 221/5/6
f 231/5/6 232/5/6 222/5/6
f 232/5/6 233/5/6 223/5/6
f 233/5/6 234/5/6 224/5/6
f 234/5/6 235/5/6 225/5/6
f 235/5/6 236/5/6 226/5/6
f 236/5/6 237/5/6 227/5/6
f 237/5/6 238/5/6 228/5/6
f 153/5/6 239/5/6 229/5/6
f 239/5/6 240/5/6 230/5/6
f 240/5/6 241/5/6 231/5/6
f 241/5/6 242/5/6 232/5/6
f 242/5/6 243/5/6 233/5/6
f 243/5/6 244/5/6 234/5/6
f 244/5/6 245/5/6 235/5/6
f 245/5/6 246/5/6 236/5/6
f 246/5/6 247/5/6 237/5/6
f 247/5/6 248/5/6 238/5/6
f 152/5/6 249/5/6 239/5/6
f 249/5/6 250/5/6 240/5/6
f 250/5/6 251/5/6 241/5/6
f 251/5/6 252/5/6 242/5/6
f 252/5/6 253/5/6 243/5/6
f 253/5/6 254/5/6 244/5/6
f 254/5/6 255/5/6 245/5/6
f 255/5/6 256/5/6 246/5/6
f 256/5/6 257/5/6 247/5/6
f 257/5/6 258/5/6 248/5/6
f 151/5/6 259/5/6 249/5/6
f 259/5/6 260/5/6 250/5/6
f 260/5/6 261/5/6 251/5/6
f 261/5/6 262/5/6 252/5/6
f 262/5/6 263/5/6 253/5/6
f 263/5/6 264/5/6 254/5/6
f 264/5/6 265/5/6 255/5/6
f 265/5/6 266/5/6 256/5/6
f 266/5/6 267/5/6 257/5/6
f 267/5/6 268/5/6 258/5/6
f 150/5/6 269/5/6 259/5/6
f 269/5/6 270/5/6 260/5/6
f 270/5/6 271/5/6 261/5/6
f 271/5/6 272/5/6 262/5/6
f 272/5/6 273/5/6 263/5/6
f 273/5/6 274/5/6 264/5/6
f 274/5/6 275/5/6 265/5/6
f 275/5/6 276/5/6 266/5/6
f 276/5/6 277/5/6 267/5/6
f 277/5/6 278/5/6 268/5/6
f 149/5/6 279/5/6 269/5/6
f 279/5/6 280/5/6 270/5/6
f 280/5/6 281/5/6 271/5/6
f 281/5/6 282/5/6 272/5/6
f 282/5/6 283/5/6 273/5/6
f 283/5/6 284/5/6 274/5/6
f 284/5/6 285/5/6 275/5/6
f 285/5/6 286/5/6 276/5/6
f 286/5/6 287/5/6 277/5/6
f 287/5/6 288/5/6 278/5/6
f 8/5/6 179/5/6 279/5/6
f 179/5/6 180/5/6 280/5/6
f 180/5/6 181/5/6 281/5/6
f 181/5/6 182/5/6 282/5/6
f 182/5/6 183/5/6 283/5/6
f 183/5/6 184/5/6 284/5/6
f 184/5/6 185/5/6 285/5/6
f 185/5/6 186/5/6 286/5/6
f 186/5/6 187/5/6 287/5/6
f 187/5/6 188/5/6 288/5/6
f 356/149/5 295/150/5 2/139/5
f 355/12/5 296/4/5 295/150/5
f 29/140/2 2/139/2 295/150/2
f 295/150/2 296/4/2 357/6/2
f 300/152/3 290/220/3 289/153/3
f 168/5/3 167/5/3 299/154/3
f 299/154/3 289/153/3 168/5/3
f 318/155/4 292/7/4 291/156/4
f 317/157/4 291/156/4 6/5/4
f 302/158/3 300/152/3 299/154/3
f 166/5/3 301/159/3 299/154/3
f 4/221/3 290/220/3 39/2/3
f 290/220/3 300/152/3 39/2/3
f 304/160/3 302/158/3 301/159/3
f 165/5/3 303/161/3 301/159/3
f 302/158/3 41/30/3 40/31/3
f 305/162/3 306/164/3 304/160/3
f 305/162/3 303/161/3 165/5/3
f 304/160/3 42/28/3 41/30/3
f 307/163/3 308/169/3 306/164/3
f 163/5/3 307/163/3 305/162/3
f 306/164/3 43/26/3 42/28/3
f 310/165/3 308/169/3 307/163/3
f 162/5/3 309/166/3 307/163/3
f 306/164/3 308/169/3 44/24/3
f 312/167/3 310/165/3 309/166/3
f 311/168/3 309/166/3 162/5/3
f 310/165/3 45/20/3 44/24/3
f 314/170/3 312/167/3 311/168/3
f 313/171/3 311/168/3 161/5/3
f 312/167/3 46/17/3 45/20/3
f 316/9/3 314/170/3 313/171/3
f 315/172/3 313/171/3 160/5/3
f 312/167/3 314/170/3 47/18/3
f 292/7/3 316/9/3 315/172/3
f 291/156/3 315/172/3 159/5/3
f 316/9/3 48/8/3 47/18/3
f 320/42/4 318/155/4 317/157/4
f 177/5/4 319/36/4 317/157/4
f 318/155/4 9/15/4 3/14/4
f 322/173/4 320/42/4 319/36/4
f 176/5/4 321/174/4 319/36/4
f 320/42/4 10/48/4 9/15/4
f 324/175/4 322/173/4 321/174/4
f 175/5/4 323/176/4 321/174/4
f 322/173/4 11/46/4 10/48/4
f 325/177/4 326/179/4 324/175/4
f 325/177/4 323/176/4 175/5/4
f 324/175/4 12/44/4 11/46/4
f 327/178/4 328/157/4 326/179/4
f 173/5/4 327/178/4 325/177/4
f 326/179/4 13/42/4 12/44/4
f 330/180/4 328/157/4 327/178/4
f 172/5/4 329/181/4 327/178/4
f 326/179/4 328/157/4 14/40/4
f 332/177/4 330/180/4 329/181/4
f 331/182/4 329/181/4 172/5/4
f 330/180/4 15/38/4 14/40/4
f 334/183/4 332/177/4 331/182/4
f 333/184/4 331/182/4 171/5/4
f 332/177/4 16/36/4 15/38/4
f 336/11/4 334/183/4 333/184/4
f 335/185/4 333/184/4 170/5/4
f 332/177/4 334/183/4 17/34/4
f 294/5/4 336/11/4 335/185/4
f 293/5/4 335/185/4 169/5/4
f 336/11/4 18/10/4 17/34/4
f 293/5/5 337/187/5 338/186/5
f 7/5/5 188/5/5 337/187/5
f 294/5/5 338/186/5 19/32/5
f 337/187/5 339/189/5 340/188/5
f 188/5/5 187/5/5 339/189/5
f 338/186/5 340/188/5 20/50/5
f 339/189/5 341/32/5 342/50/5
f 187/5/5 186/5/5 341/32/5
f 340/188/5 342/50/5 21/59/5
f 341/32/5 343/191/5 344/190/5
f 341/32/5 186/5/5 185/5/5
f 342/50/5 344/190/5 22/69/5
f 343/191/5 345/193/5 346/192/5
f 185/5/5 184/5/5 345/193/5
f 344/190/5 346/192/5 23/79/5
f 345/193/5 347/194/5 348/69/5
f 184/5/5 183/5/5 347/194/5
f 23/79/5 346/192/5 348/69/5
f 347/194/5 349/196/5 350/195/5
f 183/5/5 182/5/5 349/196/5
f 24/96/5 348/69/5 350/195/5
f 349/196/5 351/198/5 352/197/5
f 182/5/5 181/5/5 351/198/5
f 25/107/5 350/195/5 352/197/5
f 351/198/5 353/200/5 354/199/5
f 181/5/5 180/5/5 353/200/5
f 352/197/5 354/199/5 27/118/5
f 353/200/5 355/12/5 356/149/5
f 180/5/5 179/5/5 355/12/5
f 354/199/5 356/149/5 28/129/5
f 358/151/2 357/6/2 359/201/2
f 357/6/2 149/5/2 150/5/2
f 30/141/2 29/140/2 358/151/2
f 360/202/2 359/201/2 361/203/2
f 359/201/2 150/5/2 151/5/2
f 31/142/2 30/141/2 360/202/2
f 362/204/2 361/203/2 363/205/2
f 361/203/2 151/5/2 152/5/2
f 32/207/2 31/142/2 362/204/2
f 364/206/2 363/205/2 365/208/2
f 363/205/2 152/5/2 153/5/2
f 33/144/2 32/207/2 364/206/2
f 366/209/2 365/208/2 367/210/2
f 365/208/2 153/5/2 154/5/2
f 34/145/2 33/144/2 366/209/2
f 368/211/2 367/210/2 369/212/2
f 367/210/2 154/5/2 155/5/2
f 35/146/2 34/145/2 368/211/2
f 370/213/2 369/212/2 371/214/2
f 369/212/2 155/5/2 156/5/2
f 36/147/2 35/146/2 370/213/2
f 372/215/2 371/214/2 373/216/2
f 371/214/2 156/5/2 157/5/2
f 37/148/2 36/147/2 372/215/2
f 374/217/2 373/216/2 375/218/2
f 373/216/2 157/5/2 158/5/2
f 37/148/2 374/217/2 376/219/2
f 376/219/2 375/218/2 289/153/2
f 375/218/2 158/5/2 5/5/2
f 38/1/2 376/219/2 290/220/2
l 294 297
l 295 298
l 39 168
