# Blender 5.1.1
# www.blender.org
mtllib Cube.mtl
o Cube
v 1.000000 1.000000 -1.000000
v 1.000000 -1.000000 -1.000000
v 1.000000 1.000000 1.000000
v 1.000000 -1.000000 1.000000
v -1.000000 1.000000 -1.000000
v -1.000000 -1.000000 -1.000000
v -1.000000 1.000000 1.000000
v -1.000000 -1.000000 1.000000
v 0.818182 1.000000 -1.000000
v 0.636364 1.000000 -1.000000
v 0.454545 1.000000 -1.000000
v 0.272727 1.000000 -1.000000
v 0.090909 1.000000 -1.000000
v -0.090909 1.000000 -1.000000
v -0.272727 1.000000 -1.000000
v -0.454545 1.000000 -1.000000
v -0.636364 1.000000 -1.000000
v -0.818182 1.000000 -1.000000
v 1.000000 1.000000 -0.818182
v 1.000000 1.000000 -0.636364
v 1.000000 1.000000 -0.454546
v 1.000000 1.000000 -0.272727
v 1.000000 1.000000 -0.090909
v 1.000000 1.000000 0.090909
v 1.000000 1.000000 0.272727
v 1.000000 1.000000 0.454545
v 1.000000 1.000000 0.636364
v 1.000000 1.000000 0.818182
v 1.000000 0.818182 1.000000
v 1.000000 0.636364 1.000000
v 1.000000 0.454546 1.000000
v 1.000000 0.272727 1.000000
v 1.000000 0.090909 1.000000
v 1.000000 -0.090909 1.000000
v 1.000000 -0.272727 1.000000
v 1.000000 -0.454545 1.000000
v 1.000000 -0.636364 1.000000
v 1.000000 -0.818182 1.000000
v 0.818182 -1.000000 1.000000
v 0.636364 -1.000000 1.000000
v 0.454545 -1.000000 1.000000
v 0.272727 -1.000000 1.000000
v 0.090909 -1.000000 1.000000
v -0.090909 -1.000000 1.000000
v -0.272727 -1.000000 1.000000
v -0.454545 -1.000000 1.000000
v -0.636364 -1.000000 1.000000
v -0.818182 -1.000000 1.000000
v -1.000000 0.818182 1.000000
v -1.000000 0.636364 1.000000
v -1.000000 0.454546 1.000000
v -1.000000 0.272727 1.000000
v -1.000000 0.090909 1.000000
v -1.000000 -0.090909 1.000000
v -1.000000 -0.272727 1.000000
v -1.000000 -0.454545 1.000000
v -1.000000 -0.636364 1.000000
v -1.000000 -0.818182 1.000000
v -1.000000 -1.000000 -0.818182
v -1.000000 -1.000000 -0.636364
v -1.000000 -1.000000 -0.454545
v -1.000000 -1.000000 -0.272727
v -1.000000 -1.000000 -0.090909
v -1.000000 -1.000000 0.090909
v -1.000000 -1.000000 0.272727
v -1.000000 -1.000000 0.454546
v -1.000000 -1.000000 0.636364
v -1.000000 -1.000000 0.818182
v 0.818182 -1.000000 -1.000000
v 0.636364 -1.000000 -1.000000
v 0.454545 -1.000000 -1.000000
v 0.272727 -1.000000 -1.000000
v 0.090909 -1.000000 -1.000000
v -0.090909 -1.000000 -1.000000
v -0.272727 -1.000000 -1.000000
v -0.454545 -1.000000 -1.000000
v -0.636364 -1.000000 -1.000000
v -0.818182 -1.000000 -1.000000
v 1.000000 0.818182 -1.000000
v 1.000000 0.636364 -1.000000
v 1.000000 0.454545 -1.000000
v 1.000000 0.272727 -1.000000
v 1.000000 0.090909 -1.000000
v 1.000000 -0.090909 -1.000000
v 1.000000 -0.272727 -1.000000
v 1.000000 -0.454546 -1.000000
v 1.000000 -0.636364 -1.000000
v 1.000000 -0.818182 -1.000000
v 1.000000 -1.000000 -0.818182
v 1.000000 -1.000000 -0.636364
v 1.000000 -1.000000 -0.454545
v 1.000000 -1.000000 -0.272727
v 1.000000 -1.000000 -0.090909
v 1.000000 -1.000000 0.090909
v 1.000000 -1.000000 0.272727
v 1.000000 -1.000000 0.454546
v 1.000000 -1.000000 0.636364
v 1.000000 -1.000000 0.818182
v -1.000000 0.818182 -1.000000
v -1.000000 0.636364 -1.000000
v -1.000000 0.454545 -1.000000
v -1.000000 0.272727 -1.000000
v -1.000000 0.090909 -1.000000
v -1.000000 -0.090909 -1.000000
v -1.000000 -0.272727 -1.000000
v -1.000000 -0.454546 -1.000000
v -1.000000 -0.636364 -1.000000
v -1.000000 -0.818182 -1.000000
v -1.000000 1.000000 -0.818182
v -1.000000 1.000000 -0.636364
v -1.000000 1.000000 -0.454546
v -1.000000 1.000000 -0.272727
v -1.000000 1.000000 -0.090909
v -1.000000 1.000000 0.090909
v -1.000000 1.000000 0.272727
v -1.000000 1.000000 0.454545
v -1.000000 1.000000 0.636364
v -1.000000 1.000000 0.818182
v 0.818182 1.000000 1.000000
v 0.636364 1.000000 1.000000
v 0.454545 1.000000 1.000000
v 0.272727 1.000000 1.000000
v 0.090909 1.000000 1.000000
v -0.090909 1.000000 1.000000
v -0.272727 1.000000 1.000000
v -0.454545 1.000000 1.000000
v -0.636364 1.000000 1.000000
v -0.818182 1.000000 1.000000
v -0.818182 0.818182 -1.000000
v -0.818182 0.636364 -1.000000
v -0.818182 0.454545 -1.000000
v -0.818182 0.272727 -1.000000
v -0.818182 0.090909 -1.000000
v -0.818182 -0.090909 -1.000000
v -0.818182 -0.272727 -1.000000
v -0.818182 -0.454546 -1.000000
v -0.818182 -0.636364 -1.000000
v -0.818182 -0.818182 -1.000000
v -0.636364 0.818182 -1.000000
v -0.636364 0.636364 -1.000000
v -0.636364 0.454545 -1.000000
v -0.636364 0.272727 -1.000000
v -0.636364 0.090909 -1.000000
v -0.636364 -0.090909 -1.000000
v -0.636364 -0.272727 -1.000000
v -0.636364 -0.454546 -1.000000
v -0.636364 -0.636364 -1.000000
v -0.636364 -0.818182 -1.000000
v -0.454545 0.818182 -1.000000
v -0.454545 0.636364 -1.000000
v -0.454545 0.454545 -1.000000
v -0.454545 0.272727 -1.000000
v -0.454545 0.090909 -1.000000
v -0.454545 -0.090909 -1.000000
v -0.454545 -0.272727 -1.000000
v -0.454545 -0.454546 -1.000000
v -0.454545 -0.636364 -1.000000
v -0.454545 -0.818182 -1.000000
v -0.272727 0.818182 -1.000000
v -0.272727 0.636364 -1.000000
v -0.272727 0.454545 -1.000000
v -0.272727 0.272727 -1.000000
v -0.272727 0.090909 -1.000000
v -0.272727 -0.090909 -1.000000
v -0.272727 -0.272727 -1.000000
v -0.272727 -0.454546 -1.000000
v -0.272727 -0.636364 -1.000000
v -0.272727 -0.818182 -1.000000
v -0.090909 0.818182 -1.000000
v -0.090909 0.636364 -1.000000
v -0.090909 0.454545 -1.000000
v -0.090909 0.272727 -1.000000
v -0.090909 0.090909 -1.000000
v -0.090909 -0.090909 -1.000000
v -0.090909 -0.272727 -1.000000
v -0.090909 -0.454546 -1.000000
v -0.090909 -0.636364 -1.000000
v -0.090909 -0.818182 -1.000000
v 0.090909 0.818182 -1.000000
v 0.090909 0.636364 -1.000000
v 0.090909 0.454545 -1.000000
v 0.090909 0.272727 -1.000000
v 0.090909 0.090909 -1.000000
v 0.090909 -0.090909 -1.000000
v 0.090909 -0.272727 -1.000000
v 0.090909 -0.454546 -1.000000
v 0.090909 -0.636364 -1.000000
v 0.090909 -0.818182 -1.000000
v 0.272727 0.818182 -1.000000
v 0.272727 0.636364 -1.000000
v 0.272727 0.454545 -1.000000
v 0.272727 0.272727 -1.000000
v 0.272727 0.090909 -1.000000
v 0.272727 -0.090909 -1.000000
v 0.272727 -0.272727 -1.000000
v 0.272727 -0.454546 -1.000000
v 0.272727 -0.636364 -1.000000
v 0.272727 -0.818182 -1.000000
v 0.454545 0.818182 -1.000000
v 0.454545 0.636364 -1.000000
v 0.454545 0.454545 -1.000000
v 0.454545 0.272727 -1.000000
v 0.454545 0.090909 -1.000000
v 0.454545 -0.090909 -1.000000
v 0.454545 -0.272727 -1.000000
v 0.454545 -0.454546 -1.000000
v 0.454545 -0.636364 -1.000000
v 0.454545 -0.818182 -1.000000
v 0.636364 0.818182 -1.000000
v 0.636364 0.636364 -1.000000
v 0.636364 0.454545 -1.000000
v 0.636364 0.272727 -1.000000
v 0.636364 0.090909 -1.000000
v 0.636364 -0.090909 -1.000000
v 0.636364 -0.272727 -1.000000
v 0.636364 -0.454546 -1.000000
v 0.636364 -0.636364 -1.000000
v 0.636364 -0.818182 -1.000000
v 0.818182 0.818182 -1.000000
v 0.818182 0.636364 -1.000000
v 0.818182 0.454545 -1.000000
v 0.818182 0.272727 -1.000000
v 0.818182 0.090909 -1.000000
v 0.818182 -0.090909 -1.000000
v 0.818182 -0.272727 -1.000000
v 0.818182 -0.454546 -1.000000
v 0.818182 -0.636364 -1.000000
v 0.818182 -0.818182 -1.000000
v 0.818182 0.818182 1.000000
v 0.818182 0.636364 1.000000
v 0.818182 0.454546 1.000000
v 0.818182 0.272727 1.000000
v 0.818182 0.090909 1.000000
v 0.818182 -0.090909 1.000000
v 0.818182 -0.272727 1.000000
v 0.818182 -0.454545 1.000000
v 0.818182 -0.636364 1.000000
v 0.818182 -0.818182 1.000000
v 0.636364 0.818182 1.000000
v 0.636364 0.636364 1.000000
v 0.636364 0.454546 1.000000
v 0.636364 0.272727 1.000000
v 0.636364 0.090909 1.000000
v 0.636364 -0.090909 1.000000
v 0.636364 -0.272727 1.000000
v 0.636364 -0.454545 1.000000
v 0.636364 -0.636364 1.000000
v 0.636364 -0.818182 1.000000
v 0.454545 0.818182 1.000000
v 0.454545 0.636364 1.000000
v 0.454545 0.454546 1.000000
v 0.454545 0.272727 1.000000
v 0.454545 0.090909 1.000000
v 0.454545 -0.090909 1.000000
v 0.454545 -0.272727 1.000000
v 0.454545 -0.454545 1.000000
v 0.454545 -0.636364 1.000000
v 0.454545 -0.818182 1.000000
v 0.272727 0.818182 1.000000
v 0.272727 0.636364 1.000000
v 0.272727 0.454546 1.000000
v 0.272727 0.272727 1.000000
v 0.272727 0.090909 1.000000
v 0.272727 -0.090909 1.000000
v 0.272727 -0.272727 1.000000
v 0.272727 -0.454545 1.000000
v 0.272727 -0.636364 1.000000
v 0.272727 -0.818182 1.000000
v 0.090909 0.818182 1.000000
v 0.090909 0.636364 1.000000
v 0.090909 0.454546 1.000000
v 0.090909 0.272727 1.000000
v 0.090909 0.090909 1.000000
v 0.090909 -0.090909 1.000000
v 0.090909 -0.272727 1.000000
v 0.090909 -0.454545 1.000000
v 0.090909 -0.636364 1.000000
v 0.090909 -0.818182 1.000000
v -0.090909 0.818182 1.000000
v -0.090909 0.636364 1.000000
v -0.090909 0.454546 1.000000
v -0.090909 0.272727 1.000000
v -0.090909 0.090909 1.000000
v -0.090909 -0.090909 1.000000
v -0.090909 -0.272727 1.000000
v -0.090909 -0.454545 1.000000
v -0.090909 -0.636364 1.000000
v -0.090909 -0.818182 1.000000
v -0.272727 0.818182 1.000000
v -0.272727 0.636364 1.000000
v -0.272727 0.454546 1.000000
v -0.272727 0.272727 1.000000
v -0.272727 0.090909 1.000000
v -0.272727 -0.090909 1.000000
v -0.272727 -0.272727 1.000000
v -0.272727 -0.454545 1.000000
v -0.272727 -0.636364 1.000000
v -0.272727 -0.818182 1.000000
v -0.454545 0.818182 1.000000
v -0.454545 0.636364 1.000000
v -0.454545 0.454546 1.000000
v -0.454545 0.272727 1.000000
v -0.454545 0.090909 1.000000
v -0.454545 -0.090909 1.000000
v -0.454545 -0.272727 1.000000
v -0.454545 -0.454545 1.000000
v -0.454545 -0.636364 1.000000
v -0.454545 -0.818182 1.000000
v -0.636364 0.818182 1.000000
v -0.636364 0.636364 1.000000
v -0.636364 0.454546 1.000000
v -0.636364 0.272727 1.000000
v -0.636364 0.090909 1.000000
v -0.636364 -0.090909 1.000000
v -0.636364 -0.272727 1.000000
v -0.636364 -0.454545 1.000000
v -0.636364 -0.636364 1.000000
v -0.636364 -0.818182 1.000000
v -0.818182 0.818182 1.000000
v -0.818182 0.636364 1.000000
v -0.818182 0.454546 1.000000
v -0.818182 0.272727 1.000000
v -0.818182 0.090909 1.000000
v -0.818182 -0.090909 1.000000
v -0.818182 -0.272727 1.000000
v -0.818182 -0.454545 1.000000
v -0.818182 -0.636364 1.000000
v -0.818182 -0.818182 1.000000
v 0.818182 -1.000000 -0.818182
v 0.636364 -1.000000 -0.818182
v 0.454545 -1.000000 -0.818182
v 0.272727 -1.000000 -0.818182
v 0.090909 -1.000000 -0.818182
v -0.090909 -1.000000 -0.818182
v -0.272727 -1.000000 -0.818182
v -0.454545 -1.000000 -0.818182
v -0.636364 -1.000000 -0.818182
v -0.818182 -1.000000 -0.818182
v 0.818182 -1.000000 -0.636364
v 0.636364 -1.000000 -0.636364
v 0.454545 -1.000000 -0.636364
v 0.272727 -1.000000 -0.636364
v 0.090909 -1.000000 -0.636364
v -0.090909 -1.000000 -0.636364
v -0.272727 -1.000000 -0.636364
v -0.454545 -1.000000 -0.636364
v -0.636364 -1.000000 -0.636364
v -0.818182 -1.000000 -0.636364
v 0.818182 -1.000000 -0.454545
v 0.636364 -1.000000 -0.454545
v 0.454545 -1.000000 -0.454545
v 0.272727 -1.000000 -0.454545
v 0.090909 -1.000000 -0.454545
v -0.090909 -1.000000 -0.454545
v -0.272727 -1.000000 -0.454545
v -0.454545 -1.000000 -0.454545
v -0.636364 -1.000000 -0.454545
v -0.818182 -1.000000 -0.454545
v 0.818182 -1.000000 -0.272727
v 0.636364 -1.000000 -0.272727
v 0.454545 -1.000000 -0.272727
v 0.272727 -1.000000 -0.272727
v 0.090909 -1.000000 -0.272727
v -0.090909 -1.000000 -0.272727
v -0.272727 -1.000000 -0.272727
v -0.454545 -1.000000 -0.272727
v -0.636364 -1.000000 -0.272727
v -0.818182 -1.000000 -0.272727
v 0.818182 -1.000000 -0.090909
v 0.636364 -1.000000 -0.090909
v 0.454545 -1.000000 -0.090909
v 0.272727 -1.000000 -0.090909
v 0.090909 -1.000000 -0.090909
v -0.090909 -1.000000 -0.090909
v -0.272727 -1.000000 -0.090909
v -0.454545 -1.000000 -0.090909
v -0.636364 -1.000000 -0.090909
v -0.818182 -1.000000 -0.090909
v 0.818182 -1.000000 0.090909
v 0.636364 -1.000000 0.090909
v 0.454545 -1.000000 0.090909
v 0.272727 -1.000000 0.090909
v 0.090909 -1.000000 0.090909
v -0.090909 -1.000000 0.090909
v -0.272727 -1.000000 0.090909
v -0.454545 -1.000000 0.090909
v -0.636364 -1.000000 0.090909
v -0.818182 -1.000000 0.090909
v 0.818182 -1.000000 0.272727
v 0.636364 -1.000000 0.272727
v 0.454545 -1.000000 0.272727
v 0.272727 -1.000000 0.272727
v 0.090909 -1.000000 0.272727
v -0.090909 -1.000000 0.272727
v -0.272727 -1.000000 0.272727
v -0.454545 -1.000000 0.272727
v -0.636364 -1.000000 0.272727
v -0.818182 -1.000000 0.272727
v 0.818182 -1.000000 0.454546
v 0.636364 -1.000000 0.454546
v 0.454545 -1.000000 0.454546
v 0.272727 -1.000000 0.454546
v 0.090909 -1.000000 0.454546
v -0.090909 -1.000000 0.454546
v -0.272727 -1.000000 0.454546
v -0.454545 -1.000000 0.454546
v -0.636364 -1.000000 0.454546
v -0.818182 -1.000000 0.454546
v 0.818182 -1.000000 0.636364
v 0.636364 -1.000000 0.636364
v 0.454545 -1.000000 0.636364
v 0.272727 -1.000000 0.636364
v 0.090909 -1.000000 0.636364
v -0.090909 -1.000000 0.636364
v -0.272727 -1.000000 0.636364
v -0.454545 -1.000000 0.636364
v -0.636364 -1.000000 0.636364
v -0.818182 -1.000000 0.636364
v 0.818182 -1.000000 0.818182
v 0.636364 -1.000000 0.818182
v 0.454545 -1.000000 0.818182
v 0.272727 -1.000000 0.818182
v 0.090909 -1.000000 0.818182
v -0.090909 -1.000000 0.818182
v -0.272727 -1.000000 0.818182
v -0.454545 -1.000000 0.818182
v -0.636364 -1.000000 0.818182
v -0.818182 -1.000000 0.818182
v -0.818182 1.000000 -0.818182
v -0.636364 1.000000 -0.818182
v -0.454545 1.000000 -0.818182
v -0.272727 1.000000 -0.818182
v -0.090909 1.000000 -0.818182
v 0.090909 1.000000 -0.818182
v 0.272727 1.000000 -0.818182
v 0.454545 1.000000 -0.818182
v 0.636364 1.000000 -0.818182
v 0.818182 1.000000 -0.818182
v -0.818182 1.000000 -0.636364
v -0.636364 1.000000 -0.636364
v -0.454545 1.000000 -0.636364
v -0.272727 1.000000 -0.636364
v -0.090909 1.000000 -0.636364
v 0.090909 1.000000 -0.636364
v 0.272727 1.000000 -0.636364
v 0.454545 1.000000 -0.636364
v 0.636364 1.000000 -0.636364
v 0.818182 1.000000 -0.636364
v -0.818182 1.000000 -0.454546
v -0.636364 1.000000 -0.454546
v -0.454545 1.000000 -0.454546
v -0.272727 1.000000 -0.454546
v -0.090909 1.000000 -0.454546
v 0.090909 1.000000 -0.454546
v 0.272727 1.000000 -0.454546
v 0.454545 1.000000 -0.454546
v 0.636364 1.000000 -0.454546
v 0.818182 1.000000 -0.454546
v -0.818182 1.000000 -0.272727
v -0.636364 1.000000 -0.272727
v -0.454545 1.000000 -0.272727
v -0.272727 1.000000 -0.272727
v -0.090909 1.000000 -0.272727
v 0.090909 1.000000 -0.272727
v 0.272727 1.000000 -0.272727
v 0.454545 1.000000 -0.272727
v 0.636364 1.000000 -0.272727
v 0.818182 1.000000 -0.272727
v -0.818182 1.000000 -0.090909
v -0.636364 1.000000 -0.090909
v -0.454545 1.000000 -0.090909
v -0.272727 1.000000 -0.090909
v -0.090909 1.000000 -0.090909
v 0.090909 1.000000 -0.090909
v 0.272727 1.000000 -0.090909
v 0.454545 1.000000 -0.090909
v 0.636364 1.000000 -0.090909
v 0.818182 1.000000 -0.090909
v -0.818182 1.000000 0.090909
v -0.636364 1.000000 0.090909
v -0.454545 1.000000 0.090909
v -0.272727 1.000000 0.090909
v -0.090909 1.000000 0.090909
v 0.090909 1.000000 0.090909
v 0.272727 1.000000 0.090909
v 0.454545 1.000000 0.090909
v 0.636364 1.000000 0.090909
v 0.818182 1.000000 0.090909
v -0.818182 1.000000 0.272727
v -0.636364 1.000000 0.272727
v -0.454545 1.000000 0.272727
v -0.272727 1.000000 0.272727
v -0.090909 1.000000 0.272727
v 0.090909 1.000000 0.272727
v 0.272727 1.000000 0.272727
v 0.454545 1.000000 0.272727
v 0.636364 1.000000 0.272727
v 0.818182 1.000000 0.272727
v -0.818182 1.000000 0.454545
v -0.636364 1.000000 0.454545
v -0.454545 1.000000 0.454545
v -0.272727 1.000000 0.454545
v -0.090909 1.000000 0.454545
v 0.090909 1.000000 0.454545
v 0.272727 1.000000 0.454545
v 0.454545 1.000000 0.454545
v 0.636364 1.000000 0.454545
v 0.818182 1.000000 0.454545
v -0.818182 1.000000 0.636364
v -0.636364 1.000000 0.636364
v -0.454545 1.000000 0.636364
v -0.272727 1.000000 0.636364
v -0.090909 1.000000 0.636364
v 0.090909 1.000000 0.636364
v 0.272727 1.000000 0.636364
v 0.454545 1.000000 0.636364
v 0.636364 1.000000 0.636364
v 0.818182 1.000000 0.636364
v -0.818182 1.000000 0.818182
v -0.636364 1.000000 0.818182
v -0.454545 1.000000 0.818182
v -0.272727 1.000000 0.818182
v -0.090909 1.000000 0.818182
v 0.090909 1.000000 0.818182
v 0.272727 1.000000 0.818182
v 0.454545 1.000000 0.818182
v 0.636364 1.000000 0.818182
v 0.818182 1.000000 0.818182
v -1.000000 0.818182 0.818182
v -1.000000 0.636364 0.818182
v -1.000000 0.454545 0.818182
v -1.000000 0.272727 0.818182
v -1.000000 0.090909 0.818182
v -1.000000 -0.090909 0.818182
v -1.000000 -0.272727 0.818182
v -1.000000 -0.454545 0.818182
v -1.000000 -0.636364 0.818182
v -1.000000 -0.818182 0.818182
v -1.000000 0.818182 0.636364
v -1.000000 0.636364 0.636364
v -1.000000 0.454545 0.636364
v -1.000000 0.272727 0.636364
v -1.000000 0.090909 0.636364
v -1.000000 -0.090909 0.636364
v -1.000000 -0.272727 0.636364
v -1.000000 -0.454545 0.636364
v -1.000000 -0.636364 0.636364
v -1.000000 -0.818182 0.636364
v -1.000000 0.818182 0.454545
v -1.000000 0.636364 0.454545
v -1.000000 0.454545 0.454545
v -1.000000 0.272727 0.454545
v -1.000000 0.090909 0.454545
v -1.000000 -0.090909 0.454545
v -1.000000 -0.272727 0.454545
v -1.000000 -0.454545 0.454545
v -1.000000 -0.636364 0.454546
v -1.000000 -0.818182 0.454546
v -1.000000 0.818182 0.272727
v -1.000000 0.636364 0.272727
v -1.000000 0.454545 0.272727
v -1.000000 0.272727 0.272727
v -1.000000 0.090909 0.272727
v -1.000000 -0.090909 0.272727
v -1.000000 -0.272727 0.272727
v -1.000000 -0.454545 0.272727
v -1.000000 -0.636364 0.272727
v -1.000000 -0.818182 0.272727
v -1.000000 0.818182 0.090909
v -1.000000 0.636364 0.090909
v -1.000000 0.454545 0.090909
v -1.000000 0.272727 0.090909
v -1.000000 0.090909 0.090909
v -1.000000 -0.090909 0.090909
v -1.000000 -0.272727 0.090909
v -1.000000 -0.454545 0.090909
v -1.000000 -0.636364 0.090909
v -1.000000 -0.818182 0.090909
v -1.000000 0.818182 -0.090909
v -1.000000 0.636364 -0.090909
v -1.000000 0.454545 -0.090909
v -1.000000 0.272727 -0.090909
v -1.000000 0.090909 -0.090909
v -1.000000 -0.090909 -0.090909
v -1.000000 -0.272727 -0.090909
v -1.000000 -0.454545 -0.090909
v -1.000000 -0.636364 -0.090909
v -1.000000 -0.818182 -0.090909
v -1.000000 0.818182 -0.272727
v -1.000000 0.636364 -0.272727
v -1.000000 0.454545 -0.272727
v -1.000000 0.272727 -0.272727
v -1.000000 0.090909 -0.272727
v -1.000000 -0.090909 -0.272727
v -1.000000 -0.272727 -0.272727
v -1.000000 -0.454545 -0.272727
v -1.000000 -0.636364 -0.272727
v -1.000000 -0.818182 -0.272727
v -1.000000 0.818182 -0.454545
v -1.000000 0.636364 -0.454545
v -1.000000 0.454545 -0.454545
v -1.000000 0.272727 -0.454545
v -1.000000 0.090909 -0.454545
v -1.000000 -0.090909 -0.454545
v -1.000000 -0.272727 -0.454545
v -1.000000 -0.454545 -0.454545
v -1.000000 -0.636364 -0.454545
v -1.000000 -0.818182 -0.454545
v -1.000000 0.818182 -0.636364
v -1.000000 0.636364 -0.636364
v -1.000000 0.454545 -0.636364
v -1.000000 0.272727 -0.636364
v -1.000000 0.090909 -0.636364
v -1.000000 -0.090909 -0.636364
v -1.000000 -0.272727 -0.636364
v -1.000000 -0.454546 -0.636364
v -1.000000 -0.636364 -0.636364
v -1.000000 -0.818182 -0.636364
v -1.000000 0.818182 -0.818182
v -1.000000 0.636364 -0.818182
v -1.000000 0.454545 -0.818182
v -1.000000 0.272727 -0.818182
v -1.000000 0.090909 -0.818182
v -1.000000 -0.090909 -0.818182
v -1.000000 -0.272727 -0.818182
v -1.000000 -0.454546 -0.818182
v -1.000000 -0.636364 -0.818182
v -1.000000 -0.818182 -0.818182
v 1.000000 0.818182 -0.818182
v 1.000000 0.636364 -0.818182
v 1.000000 0.454545 -0.818182
v 1.000000 0.272727 -0.818182
v 1.000000 0.090909 -0.818182
v 1.000000 -0.090909 -0.818182
v 1.000000 -0.272727 -0.818182
v 1.000000 -0.454546 -0.818182
v 1.000000 -0.636364 -0.818182
v 1.000000 -0.818182 -0.818182
v 1.000000 0.818182 -0.636364
v 1.000000 0.636364 -0.636364
v 1.000000 0.454545 -0.636364
v 1.000000 0.272727 -0.636364
v 1.000000 0.090909 -0.636364
v 1.000000 -0.090909 -0.636364
v 1.000000 -0.272727 -0.636364
v 1.000000 -0.454546 -0.636364
v 1.000000 -0.636364 -0.636364
v 1.000000 -0.818182 -0.636364
v 1.000000 0.818182 -0.454545
v 1.000000 0.636364 -0.454545
v 1.000000 0.454545 -0.454545
v 1.000000 0.272727 -0.454545
v 1.000000 0.090909 -0.454545
v 1.000000 -0.090909 -0.454545
v 1.000000 -0.272727 -0.454545
v 1.000000 -0.454545 -0.454545
v 1.000000 -0.636364 -0.454545
v 1.000000 -0.818182 -0.454545
v 1.000000 0.818182 -0.272727
v 1.000000 0.636364 -0.272727
v 1.000000 0.454545 -0.272727
v 1.000000 0.272727 -0.272727
v 1.000000 0.090909 -0.272727
v 1.000000 -0.090909 -0.272727
v 1.000000 -0.272727 -0.272727
v 1.000000 -0.454545 -0.272727
v 1.000000 -0.636364 -0.272727
v 1.000000 -0.818182 -0.272727
v 1.000000 0.818182 -0.090909
v 1.000000 0.636364 -0.090909
v 1.000000 0.454545 -0.090909
v 1.000000 0.272727 -0.090909
v 1.000000 0.090909 -0.090909
v 1.000000 -0.090909 -0.090909
v 1.000000 -0.272727 -0.090909
v 1.000000 -0.454545 -0.090909
v 1.000000 -0.636364 -0.090909
v 1.000000 -0.818182 -0.090909
v 1.000000 0.818182 0.090909
v 1.000000 0.636364 0.090909
v 1.000000 0.454545 0.090909
v 1.000000 0.272727 0.090909
v 1.000000 0.090909 0.090909
v 1.000000 -0.090909 0.090909
v 1.000000 -0.272727 0.090909
v 1.000000 -0.454545 0.090909
v 1.000000 -0.636364 0.090909
v 1.000000 -0.818182 0.090909
v 1.000000 0.818182 0.272727
v 1.000000 0.636364 0.272727
v 1.000000 0.454545 0.272727
v 1.000000 0.272727 0.272727
v 1.000000 0.090909 0.272727
v 1.000000 -0.090909 0.272727
v 1.000000 -0.272727 0.272727
v 1.000000 -0.454545 0.272727
v 1.000000 -0.636364 0.272727
v 1.000000 -0.818182 0.272727
v 1.000000 0.818182 0.454545
v 1.000000 0.636364 0.454545
v 1.000000 0.454545 0.454545
v 1.000000 0.272727 0.454545
v 1.000000 0.090909 0.454545
v 1.000000 -0.090909 0.454545
v 1.000000 -0.272727 0.454545
v 1.000000 -0.454545 0.454545
v 1.000000 -0.636364 0.454546
v 1.000000 -0.818182 0.454546
v 1.000000 0.818182 0.636364
v 1.000000 0.636364 0.636364
v 1.000000 0.454545 0.636364
v 1.000000 0.272727 0.636364
v 1.000000 0.090909 0.636364
v 1.000000 -0.090909 0.636364
v 1.000000 -0.272727 0.636364
v 1.000000 -0.454545 0.636364
v 1.000000 -0.636364 0.636364
v 1.000000 -0.818182 0.636364
v 1.000000 0.818182 0.818182
v 1.000000 0.636364 0.818182
v 1.000000 0.454545 0.818182
v 1.000000 0.272727 0.818182
v 1.000000 0.090909 0.818182
v 1.000000 -0.090909 0.818182
v 1.000000 -0.272727 0.818182
v 1.000000 -0.454545 0.818182
v 1.000000 -0.636364 0.818182
v 1.000000 -0.818182 0.818182
vn 1.0000 -0.0000 -0.0000
vn -1.0000 -0.0000 -0.0000
vn -0.0000 1.0000 -0.0000
vn -0.0000 -1.0000 -0.0000
vn -0.0000 -0.0000 1.0000
vn -0.0000 -0.0000 -1.0000
vt 0.397727 0.750000
vt 0.375000 0.727273
vt 0.397727 0.727273
vt 0.397727 0.250000
vt 0.375000 0.227273
vt 0.397727 0.227273
vt 0.647727 0.750000
vt 0.625000 0.727273
vt 0.647727 0.727273
vt 0.147727 0.750000
vt 0.125000 0.727273
vt 0.147727 0.727273
vt 0.397727 1.000000
vt 0.375000 0.977273
vt 0.397727 0.977273
vt 0.397727 0.500000
vt 0.375000 0.477273
vt 0.397727 0.477273
vt 0.397727 0.272727
vt 0.375000 0.250000
vt 0.397727 0.295455
vt 0.375000 0.272727
vt 0.397727 0.318182
vt 0.375000 0.295455
vt 0.397727 0.340909
vt 0.375000 0.318182
vt 0.397727 0.363636
vt 0.375000 0.340909
vt 0.397727 0.386364
vt 0.375000 0.363636
vt 0.397727 0.409091
vt 0.375000 0.386364
vt 0.397727 0.431818
vt 0.375000 0.409091
vt 0.397727 0.454545
vt 0.375000 0.431818
vt 0.375000 0.454545
vt 0.625000 0.272727
vt 0.602273 0.250000
vt 0.625000 0.250000
vt 0.602273 0.272727
vt 0.579545 0.250000
vt 0.579545 0.272727
vt 0.556818 0.250000
vt 0.556818 0.272727
vt 0.534091 0.250000
vt 0.534091 0.272727
vt 0.511364 0.250000
vt 0.511364 0.272727
vt 0.488636 0.250000
vt 0.488636 0.272727
vt 0.465909 0.250000
vt 0.465909 0.272727
vt 0.443182 0.250000
vt 0.443182 0.272727
vt 0.420455 0.250000
vt 0.420455 0.272727
vt 0.625000 0.295455
vt 0.602273 0.295455
vt 0.579545 0.295455
vt 0.556818 0.295455
vt 0.534091 0.295455
vt 0.511364 0.295455
vt 0.488636 0.295455
vt 0.465909 0.295455
vt 0.443182 0.295455
vt 0.420455 0.295455
vt 0.625000 0.318182
vt 0.602273 0.318182
vt 0.579545 0.318182
vt 0.556818 0.318182
vt 0.534091 0.318182
vt 0.511364 0.318182
vt 0.488636 0.318182
vt 0.465909 0.318182
vt 0.443182 0.318182
vt 0.420455 0.318182
vt 0.625000 0.340909
vt 0.602273 0.340909
vt 0.579545 0.340909
vt 0.556818 0.340909
vt 0.534091 0.340909
vt 0.511364 0.340909
vt 0.488636 0.340909
vt 0.465909 0.340909
vt 0.443182 0.340909
vt 0.420455 0.340909
vt 0.625000 0.363636
vt 0.602273 0.363636
vt 0.579545 0.363636
vt 0.556818 0.363636
vt 0.534091 0.363636
vt 0.511364 0.363636
vt 0.488636 0.363636
vt 0.465909 0.363636
vt 0.443182 0.363636
vt 0.420455 0.363636
vt 0.625000 0.386364
vt 0.602273 0.386364
vt 0.579545 0.386364
vt 0.556818 0.386364
vt 0.534091 0.386364
vt 0.511364 0.386364
vt 0.488636 0.386364
vt 0.465909 0.386364
vt 0.443182 0.386364
vt 0.420455 0.386364
vt 0.625000 0.409091
vt 0.602273 0.409091
vt 0.579545 0.409091
vt 0.556818 0.409091
vt 0.534091 0.409091
vt 0.511364 0.409091
vt 0.488636 0.409091
vt 0.465909 0.409091
vt 0.443182 0.409091
vt 0.420455 0.409091
vt 0.625000 0.431818
vt 0.602273 0.431818
vt 0.579545 0.431818
vt 0.556818 0.431818
vt 0.534091 0.431818
vt 0.511364 0.431818
vt 0.488636 0.431818
vt 0.465909 0.431818
vt 0.443182 0.431818
vt 0.420455 0.431818
vt 0.625000 0.454545
vt 0.602273 0.454545
vt 0.579545 0.454545
vt 0.556818 0.454545
vt 0.534091 0.454545
vt 0.511364 0.454545
vt 0.488636 0.454545
vt 0.465909 0.454545
vt 0.443182 0.454545
vt 0.420455 0.454545
vt 0.625000 0.477273
vt 0.602273 0.477273
vt 0.579545 0.477273
vt 0.556818 0.477273
vt 0.534091 0.477273
vt 0.511364 0.477273
vt 0.488636 0.477273
vt 0.465909 0.477273
vt 0.443182 0.477273
vt 0.420455 0.477273
vt 0.625000 0.500000
vt 0.602273 0.500000
vt 0.579545 0.500000
vt 0.556818 0.500000
vt 0.534091 0.500000
vt 0.511364 0.500000
vt 0.488636 0.500000
vt 0.465909 0.500000
vt 0.443182 0.500000
vt 0.420455 0.500000
vt 0.397727 0.772727
vt 0.375000 0.750000
vt 0.397727 0.795455
vt 0.375000 0.772727
vt 0.397727 0.818182
vt 0.375000 0.795455
vt 0.397727 0.840909
vt 0.375000 0.818182
vt 0.397727 0.863636
vt 0.375000 0.840909
vt 0.397727 0.886364
vt 0.375000 0.863636
vt 0.397727 0.909091
vt 0.375000 0.886364
vt 0.397727 0.931818
vt 0.375000 0.909091
vt 0.397727 0.954545
vt 0.375000 0.931818
vt 0.375000 0.954545
vt 0.625000 0.772727
vt 0.602273 0.750000
vt 0.625000 0.750000
vt 0.602273 0.772727
vt 0.579545 0.750000
vt 0.579545 0.772727
vt 0.556818 0.750000
vt 0.556818 0.772727
vt 0.534091 0.750000
vt 0.534091 0.772727
vt 0.511364 0.750000
vt 0.511364 0.772727
vt 0.488636 0.750000
vt 0.488636 0.772727
vt 0.465909 0.750000
vt 0.465909 0.772727
vt 0.443182 0.750000
vt 0.443182 0.772727
vt 0.420455 0.750000
vt 0.420455 0.772727
vt 0.625000 0.795455
vt 0.602273 0.795454
vt 0.579545 0.795454
vt 0.556818 0.795455
vt 0.534091 0.795455
vt 0.511364 0.795455
vt 0.488636 0.795455
vt 0.465909 0.795455
vt 0.443182 0.795455
vt 0.420455 0.795454
vt 0.625000 0.818182
vt 0.602273 0.818182
vt 0.579545 0.818182
vt 0.556818 0.818182
vt 0.534091 0.818182
vt 0.511364 0.818182
vt 0.488636 0.818182
vt 0.465909 0.818182
vt 0.443182 0.818182
vt 0.420455 0.818182
vt 0.625000 0.840909
vt 0.602273 0.840909
vt 0.579545 0.840909
vt 0.556818 0.840909
vt 0.534091 0.840909
vt 0.511364 0.840909
vt 0.488636 0.840909
vt 0.465909 0.840909
vt 0.443182 0.840909
vt 0.420455 0.840909
vt 0.625000 0.863636
vt 0.602273 0.863636
vt 0.579545 0.863636
vt 0.556818 0.863636
vt 0.534091 0.863636
vt 0.511364 0.863636
vt 0.488636 0.863636
vt 0.465909 0.863636
vt 0.443182 0.863636
vt 0.420455 0.863636
vt 0.625000 0.886364
vt 0.602273 0.886364
vt 0.579545 0.886364
vt 0.556818 0.886364
vt 0.534091 0.886364
vt 0.511364 0.886364
vt 0.488636 0.886364
vt 0.465909 0.886364
vt 0.443182 0.886364
vt 0.420455 0.886364
vt 0.625000 0.909091
vt 0.602273 0.909091
vt 0.579545 0.909091
vt 0.556818 0.909091
vt 0.534091 0.909091
vt 0.511364 0.909091
vt 0.488636 0.909091
vt 0.465909 0.909091
vt 0.443182 0.909091
vt 0.420455 0.909091
vt 0.625000 0.931818
vt 0.602273 0.931818
vt 0.579545 0.931818
vt 0.556818 0.931818
vt 0.534091 0.931818
vt 0.511364 0.931818
vt 0.488636 0.931818
vt 0.465909 0.931818
vt 0.443182 0.931818
vt 0.420455 0.931818
vt 0.625000 0.954545
vt 0.602273 0.954545
vt 0.579545 0.954545
vt 0.556818 0.954545
vt 0.534091 0.954545
vt 0.511364 0.954545
vt 0.488636 0.954545
vt 0.465909 0.954545
vt 0.443182 0.954545
vt 0.420455 0.954545
vt 0.625000 0.977273
vt 0.602273 0.977273
vt 0.579545 0.977273
vt 0.556818 0.977273
vt 0.534091 0.977273
vt 0.511364 0.977273
vt 0.488636 0.977273
vt 0.465909 0.977273
vt 0.443182 0.977273
vt 0.420455 0.977273
vt 0.625000 1.000000
vt 0.602273 1.000000
vt 0.579545 1.000000
vt 0.556818 1.000000
vt 0.534091 1.000000
vt 0.511364 1.000000
vt 0.488636 1.000000
vt 0.465909 1.000000
vt 0.443182 1.000000
vt 0.420455 1.000000
vt 0.147727 0.522727
vt 0.125000 0.500000
vt 0.147727 0.500000
vt 0.147727 0.545455
vt 0.125000 0.522727
vt 0.147727 0.568182
vt 0.125000 0.545455
vt 0.147727 0.590909
vt 0.125000 0.568182
vt 0.147727 0.613636
vt 0.125000 0.590909
vt 0.147727 0.636364
vt 0.125000 0.613636
vt 0.147727 0.659091
vt 0.125000 0.636364
vt 0.147727 0.681818
vt 0.125000 0.659091
vt 0.147727 0.704545
vt 0.125000 0.681818
vt 0.125000 0.704545
vt 0.375000 0.522727
vt 0.352273 0.500000
vt 0.375000 0.500000
vt 0.352273 0.522727
vt 0.329545 0.500000
vt 0.329545 0.522727
vt 0.306818 0.500000
vt 0.306818 0.522727
vt 0.284091 0.500000
vt 0.284091 0.522727
vt 0.261364 0.500000
vt 0.261364 0.522727
vt 0.238636 0.500000
vt 0.238636 0.522727
vt 0.215909 0.500000
vt 0.215909 0.522727
vt 0.193182 0.500000
vt 0.193182 0.522727
vt 0.170455 0.500000
vt 0.170455 0.522727
vt 0.375000 0.545455
vt 0.352273 0.545455
vt 0.329545 0.545455
vt 0.306818 0.545455
vt 0.284091 0.545455
vt 0.261364 0.545455
vt 0.238636 0.545455
vt 0.215909 0.545455
vt 0.193182 0.545455
vt 0.170455 0.545455
vt 0.375000 0.568182
vt 0.352273 0.568182
vt 0.329545 0.568182
vt 0.306818 0.568182
vt 0.284091 0.568182
vt 0.261364 0.568182
vt 0.238636 0.568182
vt 0.215909 0.568182
vt 0.193182 0.568182
vt 0.170455 0.568182
vt 0.375000 0.590909
vt 0.352273 0.590909
vt 0.329545 0.590909
vt 0.306818 0.590909
vt 0.284091 0.590909
vt 0.261364 0.590909
vt 0.238636 0.590909
vt 0.215909 0.590909
vt 0.193182 0.590909
vt 0.170455 0.590909
vt 0.375000 0.613636
vt 0.352273 0.613636
vt 0.329545 0.613636
vt 0.306818 0.613636
vt 0.284091 0.613636
vt 0.261364 0.613636
vt 0.238636 0.613636
vt 0.215909 0.613636
vt 0.193182 0.613636
vt 0.170455 0.613636
vt 0.375000 0.636364
vt 0.352273 0.636364
vt 0.329545 0.636364
vt 0.306818 0.636364
vt 0.284091 0.636364
vt 0.261364 0.636364
vt 0.238636 0.636364
vt 0.215909 0.636364
vt 0.193182 0.636364
vt 0.170455 0.636364
vt 0.375000 0.659091
vt 0.352273 0.659091
vt 0.329545 0.659091
vt 0.306818 0.659091
vt 0.284091 0.659091
vt 0.261364 0.659091
vt 0.238636 0.659091
vt 0.215909 0.659091
vt 0.193182 0.659091
vt 0.170455 0.659091
vt 0.375000 0.681818
vt 0.352273 0.681818
vt 0.329545 0.681818
vt 0.306818 0.681818
vt 0.284091 0.681818
vt 0.261364 0.681818
vt 0.238636 0.681818
vt 0.215909 0.681818
vt 0.193182 0.681818
vt 0.170455 0.681818
vt 0.375000 0.704545
vt 0.352273 0.704545
vt 0.329545 0.704545
vt 0.306818 0.704545
vt 0.284091 0.704545
vt 0.261364 0.704545
vt 0.238636 0.704545
vt 0.215909 0.704545
vt 0.193182 0.704545
vt 0.170455 0.704545
vt 0.352273 0.727273
vt 0.329545 0.727273
vt 0.306818 0.727273
vt 0.284091 0.727273
vt 0.261364 0.727273
vt 0.238636 0.727273
vt 0.215909 0.727273
vt 0.193182 0.727273
vt 0.170455 0.727273
vt 0.352273 0.750000
vt 0.329545 0.750000
vt 0.306818 0.750000
vt 0.284091 0.750000
vt 0.261364 0.750000
vt 0.238636 0.750000
vt 0.215909 0.750000
vt 0.193182 0.750000
vt 0.170455 0.750000
vt 0.647727 0.522727
vt 0.647727 0.500000
vt 0.647727 0.545455
vt 0.625000 0.522727
vt 0.647727 0.568182
vt 0.625000 0.545455
vt 0.647727 0.590909
vt 0.625000 0.568182
vt 0.647727 0.613636
vt 0.625000 0.590909
vt 0.647727 0.636364
vt 0.625000 0.613636
vt 0.647727 0.659091
vt 0.625000 0.636364
vt 0.647727 0.681818
vt 0.625000 0.659091
vt 0.647727 0.704545
vt 0.625000 0.681818
vt 0.625000 0.704545
vt 0.875000 0.522727
vt 0.852273 0.500000
vt 0.875000 0.500000
vt 0.852273 0.522727
vt 0.829545 0.500000
vt 0.829545 0.522727
vt 0.806818 0.500000
vt 0.806818 0.522727
vt 0.784091 0.500000
vt 0.784091 0.522727
vt 0.761364 0.500000
vt 0.761364 0.522727
vt 0.738636 0.500000
vt 0.738636 0.522727
vt 0.715909 0.500000
vt 0.715909 0.522727
vt 0.693182 0.500000
vt 0.693182 0.522727
vt 0.670455 0.500000
vt 0.670455 0.522727
vt 0.875000 0.545455
vt 0.852273 0.545455
vt 0.829545 0.545455
vt 0.806818 0.545455
vt 0.784091 0.545455
vt 0.761364 0.545455
vt 0.738636 0.545455
vt 0.715909 0.545455
vt 0.693182 0.545455
vt 0.670455 0.545455
vt 0.875000 0.568182
vt 0.852273 0.568182
vt 0.829545 0.568182
vt 0.806818 0.568182
vt 0.784091 0.568182
vt 0.761364 0.568182
vt 0.738636 0.568182
vt 0.715909 0.568182
vt 0.693182 0.568182
vt 0.670455 0.568182
vt 0.875000 0.590909
vt 0.852273 0.590909
vt 0.829545 0.590909
vt 0.806818 0.590909
vt 0.784091 0.590909
vt 0.761364 0.590909
vt 0.738636 0.590909
vt 0.715909 0.590909
vt 0.693182 0.590909
vt 0.670455 0.590909
vt 0.875000 0.613636
vt 0.852273 0.613636
vt 0.829545 0.613636
vt 0.806818 0.613636
vt 0.784091 0.613636
vt 0.761364 0.613636
vt 0.738636 0.613636
vt 0.715909 0.613636
vt 0.693182 0.613636
vt 0.670455 0.613636
vt 0.875000 0.636364
vt 0.852273 0.636364
vt 0.829545 0.636364
vt 0.806818 0.636364
vt 0.784091 0.636364
vt 0.761364 0.636364
vt 0.738636 0.636364
vt 0.715909 0.636364
vt 0.693182 0.636364
vt 0.670455 0.636364
vt 0.875000 0.659091
vt 0.852273 0.659091
vt 0.829545 0.659091
vt 0.806818 0.659091
vt 0.784091 0.659091
vt 0.761364 0.659091
vt 0.738636 0.659091
vt 0.715909 0.659091
vt 0.693182 0.659091
vt 0.670455 0.659091
vt 0.875000 0.681818
vt 0.852273 0.681818
vt 0.829545 0.681818
vt 0.806818 0.681818
vt 0.784091 0.681818
vt 0.761364 0.681818
vt 0.738636 0.681818
vt 0.715909 0.681818
vt 0.693182 0.681818
vt 0.670455 0.681818
vt 0.875000 0.704545
vt 0.852273 0.704545
vt 0.829545 0.704545
vt 0.806818 0.704545
vt 0.784091 0.704545
vt 0.761364 0.704545
vt 0.738636 0.704545
vt 0.715909 0.704545
vt 0.693182 0.704545
vt 0.670455 0.704545
vt 0.875000 0.727273
vt 0.852273 0.727273
vt 0.829545 0.727273
vt 0.806818 0.727273
vt 0.784091 0.727273
vt 0.761364 0.727273
vt 0.738636 0.727273
vt 0.715909 0.727273
vt 0.693182 0.727273
vt 0.670455 0.727273
vt 0.875000 0.750000
vt 0.852273 0.750000
vt 0.806818 0.750000
vt 0.784091 0.750000
vt 0.761364 0.750000
vt 0.738636 0.750000
vt 0.715909 0.750000
vt 0.693182 0.750000
vt 0.670455 0.750000
vt 0.397727 0.022727
vt 0.375000 0.000000
vt 0.397727 0.000000
vt 0.397727 0.045455
vt 0.375000 0.022727
vt 0.397727 0.068182
vt 0.375000 0.045455
vt 0.397727 0.090909
vt 0.375000 0.068182
vt 0.397727 0.113636
vt 0.375000 0.090909
vt 0.397727 0.136364
vt 0.375000 0.113636
vt 0.397727 0.159091
vt 0.375000 0.136364
vt 0.397727 0.181818
vt 0.375000 0.159091
vt 0.397727 0.204545
vt 0.375000 0.181818
vt 0.375000 0.204545
vt 0.625000 0.022727
vt 0.602273 0.000000
vt 0.625000 0.000000
vt 0.602273 0.022727
vt 0.579545 0.000000
vt 0.579545 0.022727
vt 0.556818 0.000000
vt 0.556818 0.022727
vt 0.534091 0.000000
vt 0.534091 0.022727
vt 0.511364 0.000000
vt 0.511364 0.022727
vt 0.488636 0.000000
vt 0.488636 0.022727
vt 0.465909 0.000000
vt 0.465909 0.022727
vt 0.443182 0.000000
vt 0.443182 0.022727
vt 0.420455 0.000000
vt 0.420455 0.022727
vt 0.625000 0.045455
vt 0.602273 0.045455
vt 0.579545 0.045455
vt 0.556818 0.045455
vt 0.534091 0.045455
vt 0.511364 0.045455
vt 0.488636 0.045455
vt 0.465909 0.045455
vt 0.443182 0.045455
vt 0.420455 0.045455
vt 0.625000 0.068182
vt 0.602273 0.068182
vt 0.579545 0.068182
vt 0.556818 0.068182
vt 0.534091 0.068182
vt 0.511364 0.068182
vt 0.488636 0.068182
vt 0.465909 0.068182
vt 0.443182 0.068182
vt 0.420455 0.068182
vt 0.625000 0.090909
vt 0.602273 0.090909
vt 0.579545 0.090909
vt 0.556818 0.090909
vt 0.534091 0.090909
vt 0.511364 0.090909
vt 0.488636 0.090909
vt 0.465909 0.090909
vt 0.443182 0.090909
vt 0.420455 0.090909
vt 0.625000 0.113636
vt 0.602273 0.113636
vt 0.579545 0.113636
vt 0.556818 0.113636
vt 0.534091 0.113636
vt 0.511364 0.113636
vt 0.488636 0.113636
vt 0.465909 0.113636
vt 0.443182 0.113636
vt 0.420455 0.113636
vt 0.625000 0.136364
vt 0.602273 0.136364
vt 0.579545 0.136364
vt 0.556818 0.136364
vt 0.534091 0.136364
vt 0.511364 0.136364
vt 0.488636 0.136364
vt 0.465909 0.136364
vt 0.443182 0.136364
vt 0.420455 0.136364
vt 0.625000 0.159091
vt 0.602273 0.159091
vt 0.579545 0.159091
vt 0.556818 0.159091
vt 0.534091 0.159091
vt 0.511364 0.159091
vt 0.488636 0.159091
vt 0.465909 0.159091
vt 0.443182 0.159091
vt 0.420455 0.159091
vt 0.625000 0.181818
vt 0.602273 0.181818
vt 0.579545 0.181818
vt 0.556818 0.181818
vt 0.534091 0.181818
vt 0.511364 0.181818
vt 0.488636 0.181818
vt 0.465909 0.181818
vt 0.443182 0.181818
vt 0.420455 0.181818
vt 0.625000 0.204545
vt 0.602273 0.204545
vt 0.579545 0.204545
vt 0.556818 0.204545
vt 0.534091 0.204545
vt 0.511364 0.204545
vt 0.488636 0.204545
vt 0.465909 0.204545
vt 0.443182 0.204545
vt 0.420455 0.204545
vt 0.625000 0.227273
vt 0.602273 0.227273
vt 0.579545 0.227273
vt 0.556818 0.227273
vt 0.534091 0.227273
vt 0.511364 0.227273
vt 0.488636 0.227273
vt 0.465909 0.227273
vt 0.443182 0.227273
vt 0.420455 0.227273
vt 0.397727 0.522727
vt 0.397727 0.545455
vt 0.397727 0.568182
vt 0.397727 0.590909
vt 0.397727 0.613636
vt 0.397727 0.636364
vt 0.397727 0.659091
vt 0.397727 0.681818
vt 0.397727 0.704545
vt 0.602273 0.522727
vt 0.579545 0.522727
vt 0.556818 0.522727
vt 0.534091 0.522727
vt 0.511364 0.522727
vt 0.488636 0.522727
vt 0.465909 0.522727
vt 0.443182 0.522727
vt 0.420455 0.522727
vt 0.602273 0.545455
vt 0.579545 0.545455
vt 0.556818 0.545455
vt 0.534091 0.545455
vt 0.511364 0.545455
vt 0.488636 0.545455
vt 0.465909 0.545455
vt 0.443182 0.545455
vt 0.420455 0.545455
vt 0.602273 0.568182
vt 0.579545 0.568182
vt 0.556818 0.568182
vt 0.534091 0.568182
vt 0.511364 0.568182
vt 0.488636 0.568182
vt 0.465909 0.568182
vt 0.443182 0.568182
vt 0.420455 0.568182
vt 0.602273 0.590909
vt 0.579545 0.590909
vt 0.556818 0.590909
vt 0.534091 0.590909
vt 0.511364 0.590909
vt 0.488636 0.590909
vt 0.465909 0.590909
vt 0.443182 0.590909
vt 0.420455 0.590909
vt 0.602273 0.613636
vt 0.579545 0.613636
vt 0.556818 0.613636
vt 0.534091 0.613636
vt 0.511364 0.613636
vt 0.488636 0.613636
vt 0.465909 0.613636
vt 0.443182 0.613636
vt 0.420455 0.613636
vt 0.602273 0.636364
vt 0.579545 0.636364
vt 0.556818 0.636364
vt 0.534091 0.636364
vt 0.511364 0.636364
vt 0.488636 0.636364
vt 0.465909 0.636364
vt 0.443182 0.636364
vt 0.420455 0.636364
vt 0.602273 0.659091
vt 0.579545 0.659091
vt 0.556818 0.659091
vt 0.534091 0.659091
vt 0.511364 0.659091
vt 0.488636 0.659091
vt 0.465909 0.659091
vt 0.443182 0.659091
vt 0.420455 0.659091
vt 0.602273 0.681818
vt 0.579545 0.681818
vt 0.556818 0.681818
vt 0.534091 0.681818
vt 0.511364 0.681818
vt 0.488636 0.681818
vt 0.465909 0.681818
vt 0.443182 0.681818
vt 0.420455 0.681818
vt 0.602273 0.704545
vt 0.579545 0.704545
vt 0.556818 0.704545
vt 0.534091 0.704545
vt 0.511364 0.704545
vt 0.488636 0.704545
vt 0.465909 0.704545
vt 0.443182 0.704545
vt 0.420455 0.704545
vt 0.602273 0.727273
vt 0.579545 0.727273
vt 0.556818 0.727273
vt 0.534091 0.727273
vt 0.511364 0.727273
vt 0.488636 0.727273
vt 0.465909 0.727273
vt 0.443182 0.727273
vt 0.420455 0.727273
vt 0.125000 0.750000
vt 0.375000 1.000000
vt 0.829545 0.750000
s 1
usemtl Material.001
f 38/1/1 98/2/1 728/3/1
f 108/4/2 59/5/2 628/6/2
f 119/7/3 28/8/3 528/9/3
f 48/10/4 68/11/4 428/12/4
f 58/13/5 48/14/5 328/15/5
f 88/16/6 69/17/6 228/18/6
f 138/19/6 6/20/6 108/4/6
f 148/21/6 78/22/6 138/19/6
f 158/23/6 77/24/6 148/21/6
f 168/25/6 76/26/6 158/23/6
f 178/27/6 75/28/6 168/25/6
f 188/29/6 74/30/6 178/27/6
f 198/31/6 73/32/6 188/29/6
f 208/33/6 72/34/6 198/31/6
f 218/35/6 71/36/6 208/33/6
f 228/18/6 70/37/6 218/35/6
f 18/38/6 99/39/6 5/40/6
f 129/41/6 100/42/6 99/39/6
f 130/43/6 101/44/6 100/42/6
f 131/45/6 102/46/6 101/44/6
f 132/47/6 103/48/6 102/46/6
f 133/49/6 104/50/6 103/48/6
f 134/51/6 105/52/6 104/50/6
f 135/53/6 106/54/6 105/52/6
f 136/55/6 107/56/6 106/54/6
f 137/57/6 108/4/6 107/56/6
f 17/58/6 129/41/6 18/38/6
f 139/59/6 130/43/6 129/41/6
f 140/60/6 131/45/6 130/43/6
f 141/61/6 132/47/6 131/45/6
f 142/62/6 133/49/6 132/47/6
f 143/63/6 134/51/6 133/49/6
f 144/64/6 135/53/6 134/51/6
f 145/65/6 136/55/6 135/53/6
f 146/66/6 137/57/6 136/55/6
f 147/67/6 138/19/6 137/57/6
f 16/68/6 139/59/6 17/58/6
f 149/69/6 140/60/6 139/59/6
f 150/70/6 141/61/6 140/60/6
f 151/71/6 142/62/6 141/61/6
f 152/72/6 143/63/6 142/62/6
f 153/73/6 144/64/6 143/63/6
f 154/74/6 145/65/6 144/64/6
f 155/75/6 146/66/6 145/65/6
f 156/76/6 147/67/6 146/66/6
f 157/77/6 148/21/6 147/67/6
f 15/78/6 149/69/6 16/68/6
f 159/79/6 150/70/6 149/69/6
f 160/80/6 151/71/6 150/70/6
f 161/81/6 152/72/6 151/71/6
f 162/82/6 153/73/6 152/72/6
f 163/83/6 154/74/6 153/73/6
f 164/84/6 155/75/6 154/74/6
f 165/85/6 156/76/6 155/75/6
f 166/86/6 157/77/6 156/76/6
f 167/87/6 158/23/6 157/77/6
f 14/88/6 159/79/6 15/78/6
f 169/89/6 160/80/6 159/79/6
f 170/90/6 161/81/6 160/80/6
f 171/91/6 162/82/6 161/81/6
f 172/92/6 163/83/6 162/82/6
f 173/93/6 164/84/6 163/83/6
f 174/94/6 165/85/6 164/84/6
f 175/95/6 166/86/6 165/85/6
f 176/96/6 167/87/6 166/86/6
f 177/97/6 168/25/6 167/87/6
f 13/98/6 169/89/6 14/88/6
f 179/99/6 170/90/6 169/89/6
f 180/100/6 171/91/6 170/90/6
f 181/101/6 172/92/6 171/91/6
f 182/102/6 173/93/6 172/92/6
f 183/103/6 174/94/6 173/93/6
f 184/104/6 175/95/6 174/94/6
f 185/105/6 176/96/6 175/95/6
f 186/106/6 177/97/6 176/96/6
f 187/107/6 178/27/6 177/97/6
f 12/108/6 179/99/6 13/98/6
f 189/109/6 180/100/6 179/99/6
f 190/110/6 181/101/6 180/100/6
f 191/111/6 182/102/6 181/101/6
f 192/112/6 183/103/6 182/102/6
f 193/113/6 184/104/6 183/103/6
f 194/114/6 185/105/6 184/104/6
f 195/115/6 186/106/6 185/105/6
f 196/116/6 187/107/6 186/106/6
f 197/117/6 188/29/6 187/107/6
f 11/118/6 189/109/6 12/108/6
f 199/119/6 190/110/6 189/109/6
f 200/120/6 191/111/6 190/110/6
f 201/121/6 192/112/6 191/111/6
f 202/122/6 193/113/6 192/112/6
f 203/123/6 194/114/6 193/113/6
f 204/124/6 195/115/6 194/114/6
f 205/125/6 196/116/6 195/115/6
f 206/126/6 197/117/6 196/116/6
f 207/127/6 198/31/6 197/117/6
f 10/128/6 199/119/6 11/118/6
f 209/129/6 200/120/6 199/119/6
f 210/130/6 201/121/6 200/120/6
f 211/131/6 202/122/6 201/121/6
f 212/132/6 203/123/6 202/122/6
f 213/133/6 204/124/6 203/123/6
f 214/134/6 205/125/6 204/124/6
f 215/135/6 206/126/6 205/125/6
f 216/136/6 207/127/6 206/126/6
f 217/137/6 208/33/6 207/127/6
f 9/138/6 209/129/6 10/128/6
f 219/139/6 210/130/6 209/129/6
f 220/140/6 211/131/6 210/130/6
f 221/141/6 212/132/6 211/131/6
f 222/142/6 213/133/6 212/132/6
f 223/143/6 214/134/6 213/133/6
f 224/144/6 215/135/6 214/134/6
f 225/145/6 216/136/6 215/135/6
f 226/146/6 217/137/6 216/136/6
f 227/147/6 218/35/6 217/137/6
f 1/148/6 219/139/6 9/138/6
f 79/149/6 220/140/6 219/139/6
f 80/150/6 221/141/6 220/140/6
f 81/151/6 222/142/6 221/141/6
f 82/152/6 223/143/6 222/142/6
f 83/153/6 224/144/6 223/143/6
f 84/154/6 225/145/6 224/144/6
f 85/155/6 226/146/6 225/145/6
f 86/156/6 227/147/6 226/146/6
f 87/157/6 228/18/6 227/147/6
f 238/158/5 4/159/5 38/1/5
f 248/160/5 39/161/5 238/158/5
f 258/162/5 40/163/5 248/160/5
f 268/164/5 41/165/5 258/162/5
f 278/166/5 42/167/5 268/164/5
f 288/168/5 43/169/5 278/166/5
f 298/170/5 44/171/5 288/168/5
f 308/172/5 45/173/5 298/170/5
f 318/174/5 46/175/5 308/172/5
f 328/15/5 47/176/5 318/174/5
f 119/177/5 29/178/5 3/179/5
f 229/180/5 30/181/5 29/178/5
f 230/182/5 31/183/5 30/181/5
f 231/184/5 32/185/5 31/183/5
f 232/186/5 33/187/5 32/185/5
f 233/188/5 34/189/5 33/187/5
f 234/190/5 35/191/5 34/189/5
f 235/192/5 36/193/5 35/191/5
f 236/194/5 37/195/5 36/193/5
f 237/196/5 38/1/5 37/195/5
f 120/197/5 229/180/5 119/177/5
f 239/198/5 230/182/5 229/180/5
f 240/199/5 231/184/5 230/182/5
f 241/200/5 232/186/5 231/184/5
f 242/201/5 233/188/5 232/186/5
f 243/202/5 234/190/5 233/188/5
f 244/203/5 235/192/5 234/190/5
f 245/204/5 236/194/5 235/192/5
f 246/205/5 237/196/5 236/194/5
f 247/206/5 238/158/5 237/196/5
f 121/207/5 239/198/5 120/197/5
f 249/208/5 240/199/5 239/198/5
f 250/209/5 241/200/5 240/199/5
f 251/210/5 242/201/5 241/200/5
f 252/211/5 243/202/5 242/201/5
f 253/212/5 244/203/5 243/202/5
f 254/213/5 245/204/5 244/203/5
f 255/214/5 246/205/5 245/204/5
f 256/215/5 247/206/5 246/205/5
f 257/216/5 248/160/5 247/206/5
f 122/217/5 249/208/5 121/207/5
f 259/218/5 250/209/5 249/208/5
f 260/219/5 251/210/5 250/209/5
f 261/220/5 252/211/5 251/210/5
f 262/221/5 253/212/5 252/211/5
f 263/222/5 254/213/5 253/212/5
f 264/223/5 255/214/5 254/213/5
f 265/224/5 256/215/5 255/214/5
f 266/225/5 257/216/5 256/215/5
f 267/226/5 258/162/5 257/216/5
f 123/227/5 259/218/5 122/217/5
f 269/228/5 260/219/5 259/218/5
f 270/229/5 261/220/5 260/219/5
f 271/230/5 262/221/5 261/220/5
f 272/231/5 263/222/5 262/221/5
f 273/232/5 264/223/5 263/222/5
f 274/233/5 265/224/5 264/223/5
f 275/234/5 266/225/5 265/224/5
f 276/235/5 267/226/5 266/225/5
f 277/236/5 268/164/5 267/226/5
f 124/237/5 269/228/5 123/227/5
f 279/238/5 270/229/5 269/228/5
f 280/239/5 271/230/5 270/229/5
f 281/240/5 272/231/5 271/230/5
f 282/241/5 273/232/5 272/231/5
f 283/242/5 274/233/5 273/232/5
f 284/243/5 275/234/5 274/233/5
f 285/244/5 276/235/5 275/234/5
f 286/245/5 277/236/5 276/235/5
f 287/246/5 278/166/5 277/236/5
f 125/247/5 279/238/5 124/237/5
f 289/248/5 280/239/5 279/238/5
f 290/249/5 281/240/5 280/239/5
f 291/250/5 282/241/5 281/240/5
f 292/251/5 283/242/5 282/241/5
f 293/252/5 284/243/5 283/242/5
f 294/253/5 285/244/5 284/243/5
f 295/254/5 286/245/5 285/244/5
f 296/255/5 287/246/5 286/245/5
f 297/256/5 288/168/5 287/246/5
f 126/257/5 289/248/5 125/247/5
f 299/258/5 290/249/5 289/248/5
f 300/259/5 291/250/5 290/249/5
f 301/260/5 292/251/5 291/250/5
f 302/261/5 293/252/5 292/251/5
f 303/262/5 294/253/5 293/252/5
f 304/263/5 295/254/5 294/253/5
f 305/264/5 296/255/5 295/254/5
f 306/265/5 297/256/5 296/255/5
f 307/266/5 298/170/5 297/256/5
f 127/267/5 299/258/5 126/257/5
f 309/268/5 300/259/5 299/258/5
f 310/269/5 301/260/5 300/259/5
f 311/270/5 302/261/5 301/260/5
f 312/271/5 303/262/5 302/261/5
f 313/272/5 304/263/5 303/262/5
f 314/273/5 305/264/5 304/263/5
f 315/274/5 306/265/5 305/264/5
f 316/275/5 307/266/5 306/265/5
f 317/276/5 308/172/5 307/266/5
f 128/277/5 309/268/5 127/267/5
f 319/278/5 310/269/5 309/268/5
f 320/279/5 311/270/5 310/269/5
f 321/280/5 312/271/5 311/270/5
f 322/281/5 313/272/5 312/271/5
f 323/282/5 314/273/5 313/272/5
f 324/283/5 315/274/5 314/273/5
f 325/284/5 316/275/5 315/274/5
f 326/285/5 317/276/5 316/275/5
f 327/286/5 318/174/5 317/276/5
f 7/287/5 319/278/5 128/277/5
f 49/288/5 320/279/5 319/278/5
f 50/289/5 321/280/5 320/279/5
f 51/290/5 322/281/5 321/280/5
f 52/291/5 323/282/5 322/281/5
f 53/292/5 324/283/5 323/282/5
f 54/293/5 325/284/5 324/283/5
f 55/294/5 326/285/5 325/284/5
f 56/295/5 327/286/5 326/285/5
f 57/296/5 328/15/5 327/286/5
f 338/297/4 6/298/4 78/299/4
f 348/300/4 59/301/4 338/297/4
f 358/302/4 60/303/4 348/300/4
f 368/304/4 61/305/4 358/302/4
f 378/306/4 62/307/4 368/304/4
f 388/308/4 63/309/4 378/306/4
f 398/310/4 64/311/4 388/308/4
f 408/312/4 65/313/4 398/310/4
f 418/314/4 66/315/4 408/312/4
f 428/12/4 67/316/4 418/314/4
f 89/317/4 69/318/4 2/319/4
f 329/320/4 70/321/4 69/318/4
f 330/322/4 71/323/4 70/321/4
f 331/324/4 72/325/4 71/323/4
f 332/326/4 73/327/4 72/325/4
f 333/328/4 74/329/4 73/327/4
f 334/330/4 75/331/4 74/329/4
f 335/332/4 76/333/4 75/331/4
f 336/334/4 77/335/4 76/333/4
f 337/336/4 78/299/4 77/335/4
f 90/337/4 329/320/4 89/317/4
f 339/338/4 330/322/4 329/320/4
f 340/339/4 331/324/4 330/322/4
f 341/340/4 332/326/4 331/324/4
f 342/341/4 333/328/4 332/326/4
f 343/342/4 334/330/4 333/328/4
f 344/343/4 335/332/4 334/330/4
f 345/344/4 336/334/4 335/332/4
f 346/345/4 337/336/4 336/334/4
f 347/346/4 338/297/4 337/336/4
f 91/347/4 339/338/4 90/337/4
f 349/348/4 340/339/4 339/338/4
f 350/349/4 341/340/4 340/339/4
f 351/350/4 342/341/4 341/340/4
f 352/351/4 343/342/4 342/341/4
f 353/352/4 344/343/4 343/342/4
f 354/353/4 345/344/4 344/343/4
f 355/354/4 346/345/4 345/344/4
f 356/355/4 347/346/4 346/345/4
f 357/356/4 348/300/4 347/346/4
f 92/357/4 349/348/4 91/347/4
f 359/358/4 350/349/4 349/348/4
f 360/359/4 351/350/4 350/349/4
f 361/360/4 352/351/4 351/350/4
f 362/361/4 353/352/4 352/351/4
f 363/362/4 354/353/4 353/352/4
f 364/363/4 355/354/4 354/353/4
f 365/364/4 356/355/4 355/354/4
f 366/365/4 357/356/4 356/355/4
f 367/366/4 358/302/4 357/356/4
f 93/367/4 359/358/4 92/357/4
f 369/368/4 360/359/4 359/358/4
f 370/369/4 361/360/4 360/359/4
f 371/370/4 362/361/4 361/360/4
f 372/371/4 363/362/4 362/361/4
f 373/372/4 364/363/4 363/362/4
f 374/373/4 365/364/4 364/363/4
f 375/374/4 366/365/4 365/364/4
f 376/375/4 367/366/4 366/365/4
f 377/376/4 368/304/4 367/366/4
f 94/377/4 369/368/4 93/367/4
f 379/378/4 370/369/4 369/368/4
f 380/379/4 371/370/4 370/369/4
f 381/380/4 372/371/4 371/370/4
f 382/381/4 373/372/4 372/371/4
f 383/382/4 374/373/4 373/372/4
f 384/383/4 375/374/4 374/373/4
f 385/384/4 376/375/4 375/374/4
f 386/385/4 377/376/4 376/375/4
f 387/386/4 378/306/4 377/376/4
f 95/387/4 379/378/4 94/377/4
f 389/388/4 380/379/4 379/378/4
f 390/389/4 381/380/4 380/379/4
f 391/390/4 382/381/4 381/380/4
f 392/391/4 383/382/4 382/381/4
f 393/392/4 384/383/4 383/382/4
f 394/393/4 385/384/4 384/383/4
f 395/394/4 386/385/4 385/384/4
f 396/395/4 387/386/4 386/385/4
f 397/396/4 388/308/4 387/386/4
f 96/397/4 389/388/4 95/387/4
f 399/398/4 390/389/4 389/388/4
f 400/399/4 391/390/4 390/389/4
f 401/400/4 392/391/4 391/390/4
f 402/401/4 393/392/4 392/391/4
f 403/402/4 394/393/4 393/392/4
f 404/403/4 395/394/4 394/393/4
f 405/404/4 396/395/4 395/394/4
f 406/405/4 397/396/4 396/395/4
f 407/406/4 398/310/4 397/396/4
f 97/407/4 399/398/4 96/397/4
f 409/408/4 400/399/4 399/398/4
f 410/409/4 401/400/4 400/399/4
f 411/410/4 402/401/4 401/400/4
f 412/411/4 403/402/4 402/401/4
f 413/412/4 404/403/4 403/402/4
f 414/413/4 405/404/4 404/403/4
f 415/414/4 406/405/4 405/404/4
f 416/415/4 407/406/4 406/405/4
f 417/416/4 408/312/4 407/406/4
f 98/2/4 409/408/4 97/407/4
f 419/417/4 410/409/4 409/408/4
f 420/418/4 411/410/4 410/409/4
f 421/419/4 412/411/4 411/410/4
f 422/420/4 413/412/4 412/411/4
f 423/421/4 414/413/4 413/412/4
f 424/422/4 415/414/4 414/413/4
f 425/423/4 416/415/4 415/414/4
f 426/424/4 417/416/4 416/415/4
f 427/425/4 418/314/4 417/416/4
f 4/159/4 419/417/4 98/2/4
f 39/426/4 420/418/4 419/417/4
f 40/427/4 421/419/4 420/418/4
f 41/428/4 422/420/4 421/419/4
f 42/429/4 423/421/4 422/420/4
f 43/430/4 424/422/4 423/421/4
f 44/431/4 425/423/4 424/422/4
f 45/432/4 426/424/4 425/423/4
f 46/433/4 427/425/4 426/424/4
f 47/434/4 428/12/4 427/425/4
f 438/435/3 1/148/3 9/436/3
f 448/437/3 19/438/3 438/435/3
f 458/439/3 20/440/3 448/437/3
f 468/441/3 21/442/3 458/439/3
f 478/443/3 22/444/3 468/441/3
f 488/445/3 23/446/3 478/443/3
f 498/447/3 24/448/3 488/445/3
f 508/449/3 25/450/3 498/447/3
f 518/451/3 26/452/3 508/449/3
f 528/9/3 27/453/3 518/451/3
f 109/454/3 18/455/3 5/456/3
f 429/457/3 17/458/3 18/455/3
f 430/459/3 16/460/3 17/458/3
f 431/461/3 15/462/3 16/460/3
f 432/463/3 14/464/3 15/462/3
f 433/465/3 13/466/3 14/464/3
f 434/467/3 12/468/3 13/466/3
f 435/469/3 11/470/3 12/468/3
f 436/471/3 10/472/3 11/470/3
f 437/473/3 9/436/3 10/472/3
f 110/474/3 429/457/3 109/454/3
f 439/475/3 430/459/3 429/457/3
f 440/476/3 431/461/3 430/459/3
f 441/477/3 432/463/3 431/461/3
f 442/478/3 433/465/3 432/463/3
f 443/479/3 434/467/3 433/465/3
f 444/480/3 435/469/3 434/467/3
f 445/481/3 436/471/3 435/469/3
f 446/482/3 437/473/3 436/471/3
f 447/483/3 438/435/3 437/473/3
f 111/484/3 439/475/3 110/474/3
f 449/485/3 440/476/3 439/475/3
f 450/486/3 441/477/3 440/476/3
f 451/487/3 442/478/3 441/477/3
f 452/488/3 443/479/3 442/478/3
f 453/489/3 444/480/3 443/479/3
f 454/490/3 445/481/3 444/480/3
f 455/491/3 446/482/3 445/481/3
f 456/492/3 447/483/3 446/482/3
f 457/493/3 448/437/3 447/483/3
f 112/494/3 449/485/3 111/484/3
f 459/495/3 450/486/3 449/485/3
f 460/496/3 451/487/3 450/486/3
f 461/497/3 452/488/3 451/487/3
f 462/498/3 453/489/3 452/488/3
f 463/499/3 454/490/3 453/489/3
f 464/500/3 455/491/3 454/490/3
f 465/501/3 456/492/3 455/491/3
f 466/502/3 457/493/3 456/492/3
f 467/503/3 458/439/3 457/493/3
f 113/504/3 459/495/3 112/494/3
f 469/505/3 460/496/3 459/495/3
f 470/506/3 461/497/3 460/496/3
f 471/507/3 462/498/3 461/497/3
f 472/508/3 463/499/3 462/498/3
f 473/509/3 464/500/3 463/499/3
f 474/510/3 465/501/3 464/500/3
f 475/511/3 466/502/3 465/501/3
f 476/512/3 467/503/3 466/502/3
f 477/513/3 468/441/3 467/503/3
f 114/514/3 469/505/3 113/504/3
f 479/515/3 470/506/3 469/505/3
f 480/516/3 471/507/3 470/506/3
f 481/517/3 472/508/3 471/507/3
f 482/518/3 473/509/3 472/508/3
f 483/519/3 474/510/3 473/509/3
f 484/520/3 475/511/3 474/510/3
f 485/521/3 476/512/3 475/511/3
f 486/522/3 477/513/3 476/512/3
f 487/523/3 478/443/3 477/513/3
f 115/524/3 479/515/3 114/514/3
f 489/525/3 480/516/3 479/515/3
f 490/526/3 481/517/3 480/516/3
f 491/527/3 482/518/3 481/517/3
f 492/528/3 483/519/3 482/518/3
f 493/529/3 484/520/3 483/519/3
f 494/530/3 485/521/3 484/520/3
f 495/531/3 486/522/3 485/521/3
f 496/532/3 487/523/3 486/522/3
f 497/533/3 488/445/3 487/523/3
f 116/534/3 489/525/3 115/524/3
f 499/535/3 490/526/3 489/525/3
f 500/536/3 491/527/3 490/526/3
f 501/537/3 492/528/3 491/527/3
f 502/538/3 493/529/3 492/528/3
f 503/539/3 494/530/3 493/529/3
f 504/540/3 495/531/3 494/530/3
f 505/541/3 496/532/3 495/531/3
f 506/542/3 497/533/3 496/532/3
f 507/543/3 498/447/3 497/533/3
f 117/544/3 499/535/3 116/534/3
f 509/545/3 500/536/3 499/535/3
f 510/546/3 501/537/3 500/536/3
f 511/547/3 502/538/3 501/537/3
f 512/548/3 503/539/3 502/538/3
f 513/549/3 504/540/3 503/539/3
f 514/550/3 505/541/3 504/540/3
f 515/551/3 506/542/3 505/541/3
f 516/552/3 507/543/3 506/542/3
f 517/553/3 508/449/3 507/543/3
f 118/554/3 509/545/3 117/544/3
f 519/555/3 510/546/3 509/545/3
f 520/556/3 511/547/3 510/546/3
f 521/557/3 512/548/3 511/547/3
f 522/558/3 513/549/3 512/548/3
f 523/559/3 514/550/3 513/549/3
f 524/560/3 515/551/3 514/550/3
f 525/561/3 516/552/3 515/551/3
f 526/562/3 517/553/3 516/552/3
f 527/563/3 518/451/3 517/553/3
f 7/564/3 519/555/3 118/554/3
f 128/565/3 520/556/3 519/555/3
f 520/556/3 126/566/3 521/557/3
f 521/557/3 125/567/3 522/558/3
f 522/558/3 124/568/3 523/559/3
f 523/559/3 123/569/3 524/560/3
f 524/560/3 122/570/3 525/561/3
f 525/561/3 121/571/3 526/562/3
f 121/571/3 527/563/3 526/562/3
f 120/572/3 528/9/3 527/563/3
f 538/573/2 8/574/2 58/575/2
f 548/576/2 68/577/2 538/573/2
f 558/578/2 67/579/2 548/576/2
f 568/580/2 66/581/2 558/578/2
f 578/582/2 65/583/2 568/580/2
f 588/584/2 64/585/2 578/582/2
f 598/586/2 63/587/2 588/584/2
f 608/588/2 62/589/2 598/586/2
f 618/590/2 61/591/2 608/588/2
f 628/6/2 60/592/2 618/590/2
f 118/593/2 49/594/2 7/595/2
f 529/596/2 50/597/2 49/594/2
f 530/598/2 51/599/2 50/597/2
f 531/600/2 52/601/2 51/599/2
f 532/602/2 53/603/2 52/601/2
f 533/604/2 54/605/2 53/603/2
f 534/606/2 55/607/2 54/605/2
f 535/608/2 56/609/2 55/607/2
f 536/610/2 57/611/2 56/609/2
f 537/612/2 58/575/2 57/611/2
f 117/613/2 529/596/2 118/593/2
f 539/614/2 530/598/2 529/596/2
f 540/615/2 531/600/2 530/598/2
f 541/616/2 532/602/2 531/600/2
f 542/617/2 533/604/2 532/602/2
f 543/618/2 534/606/2 533/604/2
f 544/619/2 535/608/2 534/606/2
f 545/620/2 536/610/2 535/608/2
f 546/621/2 537/612/2 536/610/2
f 547/622/2 538/573/2 537/612/2
f 116/623/2 539/614/2 117/613/2
f 549/624/2 540/615/2 539/614/2
f 550/625/2 541/616/2 540/615/2
f 551/626/2 542/617/2 541/616/2
f 552/627/2 543/618/2 542/617/2
f 553/628/2 544/619/2 543/618/2
f 554/629/2 545/620/2 544/619/2
f 555/630/2 546/621/2 545/620/2
f 556/631/2 547/622/2 546/621/2
f 557/632/2 548/576/2 547/622/2
f 115/633/2 549/624/2 116/623/2
f 559/634/2 550/625/2 549/624/2
f 560/635/2 551/626/2 550/625/2
f 561/636/2 552/627/2 551/626/2
f 562/637/2 553/628/2 552/627/2
f 563/638/2 554/629/2 553/628/2
f 564/639/2 555/630/2 554/629/2
f 565/640/2 556/631/2 555/630/2
f 566/641/2 557/632/2 556/631/2
f 567/642/2 558/578/2 557/632/2
f 114/643/2 559/634/2 115/633/2
f 569/644/2 560/635/2 559/634/2
f 570/645/2 561/636/2 560/635/2
f 571/646/2 562/637/2 561/636/2
f 572/647/2 563/638/2 562/637/2
f 573/648/2 564/639/2 563/638/2
f 574/649/2 565/640/2 564/639/2
f 575/650/2 566/641/2 565/640/2
f 576/651/2 567/642/2 566/641/2
f 577/652/2 568/580/2 567/642/2
f 113/653/2 569/644/2 114/643/2
f 579/654/2 570/645/2 569/644/2
f 580/655/2 571/646/2 570/645/2
f 581/656/2 572/647/2 571/646/2
f 582/657/2 573/648/2 572/647/2
f 583/658/2 574/649/2 573/648/2
f 584/659/2 575/650/2 574/649/2
f 585/660/2 576/651/2 575/650/2
f 586/661/2 577/652/2 576/651/2
f 587/662/2 578/582/2 577/652/2
f 112/663/2 579/654/2 113/653/2
f 589/664/2 580/655/2 579/654/2
f 590/665/2 581/656/2 580/655/2
f 591/666/2 582/657/2 581/656/2
f 592/667/2 583/658/2 582/657/2
f 593/668/2 584/659/2 583/658/2
f 594/669/2 585/660/2 584/659/2
f 595/670/2 586/661/2 585/660/2
f 596/671/2 587/662/2 586/661/2
f 597/672/2 588/584/2 587/662/2
f 111/673/2 589/664/2 112/663/2
f 599/674/2 590/665/2 589/664/2
f 600/675/2 591/666/2 590/665/2
f 601/676/2 592/667/2 591/666/2
f 602/677/2 593/668/2 592/667/2
f 603/678/2 594/669/2 593/668/2
f 604/679/2 595/670/2 594/669/2
f 605/680/2 596/671/2 595/670/2
f 606/681/2 597/672/2 596/671/2
f 607/682/2 598/586/2 597/672/2
f 110/683/2 599/674/2 111/673/2
f 609/684/2 600/675/2 599/674/2
f 610/685/2 601/676/2 600/675/2
f 611/686/2 602/677/2 601/676/2
f 612/687/2 603/678/2 602/677/2
f 613/688/2 604/679/2 603/678/2
f 614/689/2 605/680/2 604/679/2
f 615/690/2 606/681/2 605/680/2
f 616/691/2 607/682/2 606/681/2
f 617/692/2 608/588/2 607/682/2
f 109/693/2 609/684/2 110/683/2
f 619/694/2 610/685/2 609/684/2
f 620/695/2 611/686/2 610/685/2
f 621/696/2 612/687/2 611/686/2
f 622/697/2 613/688/2 612/687/2
f 623/698/2 614/689/2 613/688/2
f 624/699/2 615/690/2 614/689/2
f 625/700/2 616/691/2 615/690/2
f 626/701/2 617/692/2 616/691/2
f 627/702/2 618/590/2 617/692/2
f 5/40/2 619/694/2 109/693/2
f 99/39/2 620/695/2 619/694/2
f 100/42/2 621/696/2 620/695/2
f 101/44/2 622/697/2 621/696/2
f 102/46/2 623/698/2 622/697/2
f 103/48/2 624/699/2 623/698/2
f 104/50/2 625/700/2 624/699/2
f 105/52/2 626/701/2 625/700/2
f 106/54/2 627/702/2 626/701/2
f 107/56/2 628/6/2 627/702/2
f 638/703/1 2/319/1 88/16/1
f 648/704/1 89/317/1 638/703/1
f 658/705/1 90/337/1 648/704/1
f 668/706/1 91/347/1 658/705/1
f 678/707/1 92/357/1 668/706/1
f 688/708/1 93/367/1 678/707/1
f 698/709/1 94/377/1 688/708/1
f 708/710/1 95/387/1 698/709/1
f 718/711/1 96/397/1 708/710/1
f 728/3/1 97/407/1 718/711/1
f 19/438/1 79/149/1 1/148/1
f 629/712/1 80/150/1 79/149/1
f 630/713/1 81/151/1 80/150/1
f 631/714/1 82/152/1 81/151/1
f 632/715/1 83/153/1 82/152/1
f 633/716/1 84/154/1 83/153/1
f 634/717/1 85/155/1 84/154/1
f 635/718/1 86/156/1 85/155/1
f 636/719/1 87/157/1 86/156/1
f 637/720/1 88/16/1 87/157/1
f 20/440/1 629/712/1 19/438/1
f 639/721/1 630/713/1 629/712/1
f 640/722/1 631/714/1 630/713/1
f 641/723/1 632/715/1 631/714/1
f 642/724/1 633/716/1 632/715/1
f 643/725/1 634/717/1 633/716/1
f 644/726/1 635/718/1 634/717/1
f 645/727/1 636/719/1 635/718/1
f 646/728/1 637/720/1 636/719/1
f 647/729/1 638/703/1 637/720/1
f 21/442/1 639/721/1 20/440/1
f 649/730/1 640/722/1 639/721/1
f 650/731/1 641/723/1 640/722/1
f 651/732/1 642/724/1 641/723/1
f 652/733/1 643/725/1 642/724/1
f 653/734/1 644/726/1 643/725/1
f 654/735/1 645/727/1 644/726/1
f 655/736/1 646/728/1 645/727/1
f 656/737/1 647/729/1 646/728/1
f 657/738/1 648/704/1 647/729/1
f 22/444/1 649/730/1 21/442/1
f 659/739/1 650/731/1 649/730/1
f 660/740/1 651/732/1 650/731/1
f 661/741/1 652/733/1 651/732/1
f 662/742/1 653/734/1 652/733/1
f 663/743/1 654/735/1 653/734/1
f 664/744/1 655/736/1 654/735/1
f 665/745/1 656/737/1 655/736/1
f 666/746/1 657/738/1 656/737/1
f 667/747/1 658/705/1 657/738/1
f 23/446/1 659/739/1 22/444/1
f 669/748/1 660/740/1 659/739/1
f 670/749/1 661/741/1 660/740/1
f 671/750/1 662/742/1 661/741/1
f 672/751/1 663/743/1 662/742/1
f 673/752/1 664/744/1 663/743/1
f 674/753/1 665/745/1 664/744/1
f 675/754/1 666/746/1 665/745/1
f 676/755/1 667/747/1 666/746/1
f 677/756/1 668/706/1 667/747/1
f 24/448/1 669/748/1 23/446/1
f 679/757/1 670/749/1 669/748/1
f 680/758/1 671/750/1 670/749/1
f 681/759/1 672/751/1 671/750/1
f 682/760/1 673/752/1 672/751/1
f 683/761/1 674/753/1 673/752/1
f 684/762/1 675/754/1 674/753/1
f 685/763/1 676/755/1 675/754/1
f 686/764/1 677/756/1 676/755/1
f 687/765/1 678/707/1 677/756/1
f 25/450/1 679/757/1 24/448/1
f 689/766/1 680/758/1 679/757/1
f 690/767/1 681/759/1 680/758/1
f 691/768/1 682/760/1 681/759/1
f 692/769/1 683/761/1 682/760/1
f 693/770/1 684/762/1 683/761/1
f 694/771/1 685/763/1 684/762/1
f 695/772/1 686/764/1 685/763/1
f 696/773/1 687/765/1 686/764/1
f 697/774/1 688/708/1 687/765/1
f 26/452/1 689/766/1 25/450/1
f 699/775/1 690/767/1 689/766/1
f 700/776/1 691/768/1 690/767/1
f 701/777/1 692/769/1 691/768/1
f 702/778/1 693/770/1 692/769/1
f 703/779/1 694/771/1 693/770/1
f 704/780/1 695/772/1 694/771/1
f 705/781/1 696/773/1 695/772/1
f 706/782/1 697/774/1 696/773/1
f 707/783/1 698/709/1 697/774/1
f 27/453/1 699/775/1 26/452/1
f 709/784/1 700/776/1 699/775/1
f 710/785/1 701/777/1 700/776/1
f 711/786/1 702/778/1 701/777/1
f 712/787/1 703/779/1 702/778/1
f 713/788/1 704/780/1 703/779/1
f 714/789/1 705/781/1 704/780/1
f 715/790/1 706/782/1 705/781/1
f 716/791/1 707/783/1 706/782/1
f 717/792/1 708/710/1 707/783/1
f 28/8/1 709/784/1 27/453/1
f 719/793/1 710/785/1 709/784/1
f 720/794/1 711/786/1 710/785/1
f 721/795/1 712/787/1 711/786/1
f 722/796/1 713/788/1 712/787/1
f 723/797/1 714/789/1 713/788/1
f 724/798/1 715/790/1 714/789/1
f 725/799/1 716/791/1 715/790/1
f 726/800/1 717/792/1 716/791/1
f 727/801/1 718/711/1 717/792/1
f 3/179/1 719/793/1 28/8/1
f 29/178/1 720/794/1 719/793/1
f 30/181/1 721/795/1 720/794/1
f 31/183/1 722/796/1 721/795/1
f 32/185/1 723/797/1 722/796/1
f 33/187/1 724/798/1 723/797/1
f 34/189/1 725/799/1 724/798/1
f 35/191/1 726/800/1 725/799/1
f 36/193/1 727/801/1 726/800/1
f 37/195/1 728/3/1 727/801/1
f 38/1/1 4/159/1 98/2/1
f 108/4/2 6/20/2 59/5/2
f 119/7/3 3/179/3 28/8/3
f 48/10/4 8/802/4 68/11/4
f 58/13/5 8/803/5 48/14/5
f 88/16/6 2/319/6 69/17/6
f 138/19/6 78/22/6 6/20/6
f 148/21/6 77/24/6 78/22/6
f 158/23/6 76/26/6 77/24/6
f 168/25/6 75/28/6 76/26/6
f 178/27/6 74/30/6 75/28/6
f 188/29/6 73/32/6 74/30/6
f 198/31/6 72/34/6 73/32/6
f 208/33/6 71/36/6 72/34/6
f 218/35/6 70/37/6 71/36/6
f 228/18/6 69/17/6 70/37/6
f 18/38/6 129/41/6 99/39/6
f 129/41/6 130/43/6 100/42/6
f 130/43/6 131/45/6 101/44/6
f 131/45/6 132/47/6 102/46/6
f 132/47/6 133/49/6 103/48/6
f 133/49/6 134/51/6 104/50/6
f 134/51/6 135/53/6 105/52/6
f 135/53/6 136/55/6 106/54/6
f 136/55/6 137/57/6 107/56/6
f 137/57/6 138/19/6 108/4/6
f 17/58/6 139/59/6 129/41/6
f 139/59/6 140/60/6 130/43/6
f 140/60/6 141/61/6 131/45/6
f 141/61/6 142/62/6 132/47/6
f 142/62/6 143/63/6 133/49/6
f 143/63/6 144/64/6 134/51/6
f 144/64/6 145/65/6 135/53/6
f 145/65/6 146/66/6 136/55/6
f 146/66/6 147/67/6 137/57/6
f 147/67/6 148/21/6 138/19/6
f 16/68/6 149/69/6 139/59/6
f 149/69/6 150/70/6 140/60/6
f 150/70/6 151/71/6 141/61/6
f 151/71/6 152/72/6 142/62/6
f 152/72/6 153/73/6 143/63/6
f 153/73/6 154/74/6 144/64/6
f 154/74/6 155/75/6 145/65/6
f 155/75/6 156/76/6 146/66/6
f 156/76/6 157/77/6 147/67/6
f 157/77/6 158/23/6 148/21/6
f 15/78/6 159/79/6 149/69/6
f 159/79/6 160/80/6 150/70/6
f 160/80/6 161/81/6 151/71/6
f 161/81/6 162/82/6 152/72/6
f 162/82/6 163/83/6 153/73/6
f 163/83/6 164/84/6 154/74/6
f 164/84/6 165/85/6 155/75/6
f 165/85/6 166/86/6 156/76/6
f 166/86/6 167/87/6 157/77/6
f 167/87/6 168/25/6 158/23/6
f 14/88/6 169/89/6 159/79/6
f 169/89/6 170/90/6 160/80/6
f 170/90/6 171/91/6 161/81/6
f 171/91/6 172/92/6 162/82/6
f 172/92/6 173/93/6 163/83/6
f 173/93/6 174/94/6 164/84/6
f 174/94/6 175/95/6 165/85/6
f 175/95/6 176/96/6 166/86/6
f 176/96/6 177/97/6 167/87/6
f 177/97/6 178/27/6 168/25/6
f 13/98/6 179/99/6 169/89/6
f 179/99/6 180/100/6 170/90/6
f 180/100/6 181/101/6 171/91/6
f 181/101/6 182/102/6 172/92/6
f 182/102/6 183/103/6 173/93/6
f 183/103/6 184/104/6 174/94/6
f 184/104/6 185/105/6 175/95/6
f 185/105/6 186/106/6 176/96/6
f 186/106/6 187/107/6 177/97/6
f 187/107/6 188/29/6 178/27/6
f 12/108/6 189/109/6 179/99/6
f 189/109/6 190/110/6 180/100/6
f 190/110/6 191/111/6 181/101/6
f 191/111/6 192/112/6 182/102/6
f 192/112/6 193/113/6 183/103/6
f 193/113/6 194/114/6 184/104/6
f 194/114/6 195/115/6 185/105/6
f 195/115/6 196/116/6 186/106/6
f 196/116/6 197/117/6 187/107/6
f 197/117/6 198/31/6 188/29/6
f 11/118/6 199/119/6 189/109/6
f 199/119/6 200/120/6 190/110/6
f 200/120/6 201/121/6 191/111/6
f 201/121/6 202/122/6 192/112/6
f 202/122/6 203/123/6 193/113/6
f 203/123/6 204/124/6 194/114/6
f 204/124/6 205/125/6 195/115/6
f 205/125/6 206/126/6 196/116/6
f 206/126/6 207/127/6 197/117/6
f 207/127/6 208/33/6 198/31/6
f 10/128/6 209/129/6 199/119/6
f 209/129/6 210/130/6 200/120/6
f 210/130/6 211/131/6 201/121/6
f 211/131/6 212/132/6 202/122/6
f 212/132/6 213/133/6 203/123/6
f 213/133/6 214/134/6 204/124/6
f 214/134/6 215/135/6 205/125/6
f 215/135/6 216/136/6 206/126/6
f 216/136/6 217/137/6 207/127/6
f 217/137/6 218/35/6 208/33/6
f 9/138/6 219/139/6 209/129/6
f 219/139/6 220/140/6 210/130/6
f 220/140/6 221/141/6 211/131/6
f 221/141/6 222/142/6 212/132/6
f 222/142/6 223/143/6 213/133/6
f 223/143/6 224/144/6 214/134/6
f 224/144/6 225/145/6 215/135/6
f 225/145/6 226/146/6 216/136/6
f 226/146/6 227/147/6 217/137/6
f 227/147/6 228/18/6 218/35/6
f 1/148/6 79/149/6 219/139/6
f 79/149/6 80/150/6 220/140/6
f 80/150/6 81/151/6 221/141/6
f 81/151/6 82/152/6 222/142/6
f 82/152/6 83/153/6 223/143/6
f 83/153/6 84/154/6 224/144/6
f 84/154/6 85/155/6 225/145/6
f 85/155/6 86/156/6 226/146/6
f 86/156/6 87/157/6 227/147/6
f 87/157/6 88/16/6 228/18/6
f 238/158/5 39/161/5 4/159/5
f 248/160/5 40/163/5 39/161/5
f 258/162/5 41/165/5 40/163/5
f 268/164/5 42/167/5 41/165/5
f 278/166/5 43/169/5 42/167/5
f 288/168/5 44/171/5 43/169/5
f 298/170/5 45/173/5 44/171/5
f 308/172/5 46/175/5 45/173/5
f 318/174/5 47/176/5 46/175/5
f 328/15/5 48/14/5 47/176/5
f 119/177/5 229/180/5 29/178/5
f 229/180/5 230/182/5 30/181/5
f 230/182/5 231/184/5 31/183/5
f 231/184/5 232/186/5 32/185/5
f 232/186/5 233/188/5 33/187/5
f 233/188/5 234/190/5 34/189/5
f 234/190/5 235/192/5 35/191/5
f 235/192/5 236/194/5 36/193/5
f 236/194/5 237/196/5 37/195/5
f 237/196/5 238/158/5 38/1/5
f 120/197/5 239/198/5 229/180/5
f 239/198/5 240/199/5 230/182/5
f 240/199/5 241/200/5 231/184/5
f 241/200/5 242/201/5 232/186/5
f 242/201/5 243/202/5 233/188/5
f 243/202/5 244/203/5 234/190/5
f 244/203/5 245/204/5 235/192/5
f 245/204/5 246/205/5 236/194/5
f 246/205/5 247/206/5 237/196/5
f 247/206/5 248/160/5 238/158/5
f 121/207/5 249/208/5 239/198/5
f 249/208/5 250/209/5 240/199/5
f 250/209/5 251/210/5 241/200/5
f 251/210/5 252/211/5 242/201/5
f 252/211/5 253/212/5 243/202/5
f 253/212/5 254/213/5 244/203/5
f 254/213/5 255/214/5 245/204/5
f 255/214/5 256/215/5 246/205/5
f 256/215/5 257/216/5 247/206/5
f 257/216/5 258/162/5 248/160/5
f 122/217/5 259/218/5 249/208/5
f 259/218/5 260/219/5 250/209/5
f 260/219/5 261/220/5 251/210/5
f 261/220/5 262/221/5 252/211/5
f 262/221/5 263/222/5 253/212/5
f 263/222/5 264/223/5 254/213/5
f 264/223/5 265/224/5 255/214/5
f 265/224/5 266/225/5 256/215/5
f 266/225/5 267/226/5 257/216/5
f 267/226/5 268/164/5 258/162/5
f 123/227/5 269/228/5 259/218/5
f 269/228/5 270/229/5 260/219/5
f 270/229/5 271/230/5 261/220/5
f 271/230/5 272/231/5 262/221/5
f 272/231/5 273/232/5 263/222/5
f 273/232/5 274/233/5 264/223/5
f 274/233/5 275/234/5 265/224/5
f 275/234/5 276/235/5 266/225/5
f 276/235/5 277/236/5 267/226/5
f 277/236/5 278/166/5 268/164/5
f 124/237/5 279/238/5 269/228/5
f 279/238/5 280/239/5 270/229/5
f 280/239/5 281/240/5 271/230/5
f 281/240/5 282/241/5 272/231/5
f 282/241/5 283/242/5 273/232/5
f 283/242/5 284/243/5 274/233/5
f 284/243/5 285/244/5 275/234/5
f 285/244/5 286/245/5 276/235/5
f 286/245/5 287/246/5 277/236/5
f 287/246/5 288/168/5 278/166/5
f 125/247/5 289/248/5 279/238/5
f 289/248/5 290/249/5 280/239/5
f 290/249/5 291/250/5 281/240/5
f 291/250/5 292/251/5 282/241/5
f 292/251/5 293/252/5 283/242/5
f 293/252/5 294/253/5 284/243/5
f 294/253/5 295/254/5 285/244/5
f 295/254/5 296/255/5 286/245/5
f 296/255/5 297/256/5 287/246/5
f 297/256/5 298/170/5 288/168/5
f 126/257/5 299/258/5 289/248/5
f 299/258/5 300/259/5 290/249/5
f 300/259/5 301/260/5 291/250/5
f 301/260/5 302/261/5 292/251/5
f 302/261/5 303/262/5 293/252/5
f 303/262/5 304/263/5 294/253/5
f 304/263/5 305/264/5 295/254/5
f 305/264/5 306/265/5 296/255/5
f 306/265/5 307/266/5 297/256/5
f 307/266/5 308/172/5 298/170/5
f 127/267/5 309/268/5 299/258/5
f 309/268/5 310/269/5 300/259/5
f 310/269/5 311/270/5 301/260/5
f 311/270/5 312/271/5 302/261/5
f 312/271/5 313/272/5 303/262/5
f 313/272/5 314/273/5 304/263/5
f 314/273/5 315/274/5 305/264/5
f 315/274/5 316/275/5 306/265/5
f 316/275/5 317/276/5 307/266/5
f 317/276/5 318/174/5 308/172/5
f 128/277/5 319/278/5 309/268/5
f 319/278/5 320/279/5 310/269/5
f 320/279/5 321/280/5 311/270/5
f 321/280/5 322/281/5 312/271/5
f 322/281/5 323/282/5 313/272/5
f 323/282/5 324/283/5 314/273/5
f 324/283/5 325/284/5 315/274/5
f 325/284/5 326/285/5 316/275/5
f 326/285/5 327/286/5 317/276/5
f 327/286/5 328/15/5 318/174/5
f 7/287/5 49/288/5 319/278/5
f 49/288/5 50/289/5 320/279/5
f 50/289/5 51/290/5 321/280/5
f 51/290/5 52/291/5 322/281/5
f 52/291/5 53/292/5 323/282/5
f 53/292/5 54/293/5 324/283/5
f 54/293/5 55/294/5 325/284/5
f 55/294/5 56/295/5 326/285/5
f 56/295/5 57/296/5 327/286/5
f 57/296/5 58/13/5 328/15/5
f 338/297/4 59/301/4 6/298/4
f 348/300/4 60/303/4 59/301/4
f 358/302/4 61/305/4 60/303/4
f 368/304/4 62/307/4 61/305/4
f 378/306/4 63/309/4 62/307/4
f 388/308/4 64/311/4 63/309/4
f 398/310/4 65/313/4 64/311/4
f 408/312/4 66/315/4 65/313/4
f 418/314/4 67/316/4 66/315/4
f 428/12/4 68/11/4 67/316/4
f 89/317/4 329/320/4 69/318/4
f 329/320/4 330/322/4 70/321/4
f 330/322/4 331/324/4 71/323/4
f 331/324/4 332/326/4 72/325/4
f 332/326/4 333/328/4 73/327/4
f 333/328/4 334/330/4 74/329/4
f 334/330/4 335/332/4 75/331/4
f 335/332/4 336/334/4 76/333/4
f 336/334/4 337/336/4 77/335/4
f 337/336/4 338/297/4 78/299/4
f 90/337/4 339/338/4 329/320/4
f 339/338/4 340/339/4 330/322/4
f 340/339/4 341/340/4 331/324/4
f 341/340/4 342/341/4 332/326/4
f 342/341/4 343/342/4 333/328/4
f 343/342/4 344/343/4 334/330/4
f 344/343/4 345/344/4 335/332/4
f 345/344/4 346/345/4 336/334/4
f 346/345/4 347/346/4 337/336/4
f 347/346/4 348/300/4 338/297/4
f 91/347/4 349/348/4 339/338/4
f 349/348/4 350/349/4 340/339/4
f 350/349/4 351/350/4 341/340/4
f 351/350/4 352/351/4 342/341/4
f 352/351/4 353/352/4 343/342/4
f 353/352/4 354/353/4 344/343/4
f 354/353/4 355/354/4 345/344/4
f 355/354/4 356/355/4 346/345/4
f 356/355/4 357/356/4 347/346/4
f 357/356/4 358/302/4 348/300/4
f 92/357/4 359/358/4 349/348/4
f 359/358/4 360/359/4 350/349/4
f 360/359/4 361/360/4 351/350/4
f 361/360/4 362/361/4 352/351/4
f 362/361/4 363/362/4 353/352/4
f 363/362/4 364/363/4 354/353/4
f 364/363/4 365/364/4 355/354/4
f 365/364/4 366/365/4 356/355/4
f 366/365/4 367/366/4 357/356/4
f 367/366/4 368/304/4 358/302/4
f 93/367/4 369/368/4 359/358/4
f 369/368/4 370/369/4 360/359/4
f 370/369/4 371/370/4 361/360/4
f 371/370/4 372/371/4 362/361/4
f 372/371/4 373/372/4 363/362/4
f 373/372/4 374/373/4 364/363/4
f 374/373/4 375/374/4 365/364/4
f 375/374/4 376/375/4 366/365/4
f 376/375/4 377/376/4 367/366/4
f 377/376/4 378/306/4 368/304/4
f 94/377/4 379/378/4 369/368/4
f 379/378/4 380/379/4 370/369/4
f 380/379/4 381/380/4 371/370/4
f 381/380/4 382/381/4 372/371/4
f 382/381/4 383/382/4 373/372/4
f 383/382/4 384/383/4 374/373/4
f 384/383/4 385/384/4 375/374/4
f 385/384/4 386/385/4 376/375/4
f 386/385/4 387/386/4 377/376/4
f 387/386/4 388/308/4 378/306/4
f 95/387/4 389/388/4 379/378/4
f 389/388/4 390/389/4 380/379/4
f 390/389/4 391/390/4 381/380/4
f 391/390/4 392/391/4 382/381/4
f 392/391/4 393/392/4 383/382/4
f 393/392/4 394/393/4 384/383/4
f 394/393/4 395/394/4 385/384/4
f 395/394/4 396/395/4 386/385/4
f 396/395/4 397/396/4 387/386/4
f 397/396/4 398/310/4 388/308/4
f 96/397/4 399/398/4 389/388/4
f 399/398/4 400/399/4 390/389/4
f 400/399/4 401/400/4 391/390/4
f 401/400/4 402/401/4 392/391/4
f 402/401/4 403/402/4 393/392/4
f 403/402/4 404/403/4 394/393/4
f 404/403/4 405/404/4 395/394/4
f 405/404/4 406/405/4 396/395/4
f 406/405/4 407/406/4 397/396/4
f 407/406/4 408/312/4 398/310/4
f 97/407/4 409/408/4 399/398/4
f 409/408/4 410/409/4 400/399/4
f 410/409/4 411/410/4 401/400/4
f 411/410/4 412/411/4 402/401/4
f 412/411/4 413/412/4 403/402/4
f 413/412/4 414/413/4 404/403/4
f 414/413/4 415/414/4 405/404/4
f 415/414/4 416/415/4 406/405/4
f 416/415/4 417/416/4 407/406/4
f 417/416/4 418/314/4 408/312/4
f 98/2/4 419/417/4 409/408/4
f 419/417/4 420/418/4 410/409/4
f 420/418/4 421/419/4 411/410/4
f 421/419/4 422/420/4 412/411/4
f 422/420/4 423/421/4 413/412/4
f 423/421/4 424/422/4 414/413/4
f 424/422/4 425/423/4 415/414/4
f 425/423/4 426/424/4 416/415/4
f 426/424/4 427/425/4 417/416/4
f 427/425/4 428/12/4 418/314/4
f 4/159/4 39/426/4 419/417/4
f 39/426/4 40/427/4 420/418/4
f 40/427/4 41/428/4 421/419/4
f 41/428/4 42/429/4 422/420/4
f 42/429/4 43/430/4 423/421/4
f 43/430/4 44/431/4 424/422/4
f 44/431/4 45/432/4 425/423/4
f 45/432/4 46/433/4 426/424/4
f 46/433/4 47/434/4 427/425/4
f 47/434/4 48/10/4 428/12/4
f 438/435/3 19/438/3 1/148/3
f 448/437/3 20/440/3 19/438/3
f 458/439/3 21/442/3 20/440/3
f 468/441/3 22/444/3 21/442/3
f 478/443/3 23/446/3 22/444/3
f 488/445/3 24/448/3 23/446/3
f 498/447/3 25/450/3 24/448/3
f 508/449/3 26/452/3 25/450/3
f 518/451/3 27/453/3 26/452/3
f 528/9/3 28/8/3 27/453/3
f 109/454/3 429/457/3 18/455/3
f 429/457/3 430/459/3 17/458/3
f 430/459/3 431/461/3 16/460/3
f 431/461/3 432/463/3 15/462/3
f 432/463/3 433/465/3 14/464/3
f 433/465/3 434/467/3 13/466/3
f 434/467/3 435/469/3 12/468/3
f 435/469/3 436/471/3 11/470/3
f 436/471/3 437/473/3 10/472/3
f 437/473/3 438/435/3 9/436/3
f 110/474/3 439/475/3 429/457/3
f 439/475/3 440/476/3 430/459/3
f 440/476/3 441/477/3 431/461/3
f 441/477/3 442/478/3 432/463/3
f 442/478/3 443/479/3 433/465/3
f 443/479/3 444/480/3 434/467/3
f 444/480/3 445/481/3 435/469/3
f 445/481/3 446/482/3 436/471/3
f 446/482/3 447/483/3 437/473/3
f 447/483/3 448/437/3 438/435/3
f 111/484/3 449/485/3 439/475/3
f 449/485/3 450/486/3 440/476/3
f 450/486/3 451/487/3 441/477/3
f 451/487/3 452/488/3 442/478/3
f 452/488/3 453/489/3 443/479/3
f 453/489/3 454/490/3 444/480/3
f 454/490/3 455/491/3 445/481/3
f 455/491/3 456/492/3 446/482/3
f 456/492/3 457/493/3 447/483/3
f 457/493/3 458/439/3 448/437/3
f 112/494/3 459/495/3 449/485/3
f 459/495/3 460/496/3 450/486/3
f 460/496/3 461/497/3 451/487/3
f 461/497/3 462/498/3 452/488/3
f 462/498/3 463/499/3 453/489/3
f 463/499/3 464/500/3 454/490/3
f 464/500/3 465/501/3 455/491/3
f 465/501/3 466/502/3 456/492/3
f 466/502/3 467/503/3 457/493/3
f 467/503/3 468/441/3 458/439/3
f 113/504/3 469/505/3 459/495/3
f 469/505/3 470/506/3 460/496/3
f 470/506/3 471/507/3 461/497/3
f 471/507/3 472/508/3 462/498/3
f 472/508/3 473/509/3 463/499/3
f 473/509/3 474/510/3 464/500/3
f 474/510/3 475/511/3 465/501/3
f 475/511/3 476/512/3 466/502/3
f 476/512/3 477/513/3 467/503/3
f 477/513/3 478/443/3 468/441/3
f 114/514/3 479/515/3 469/505/3
f 479/515/3 480/516/3 470/506/3
f 480/516/3 481/517/3 471/507/3
f 481/517/3 482/518/3 472/508/3
f 482/518/3 483/519/3 473/509/3
f 483/519/3 484/520/3 474/510/3
f 484/520/3 485/521/3 475/511/3
f 485/521/3 486/522/3 476/512/3
f 486/522/3 487/523/3 477/513/3
f 487/523/3 488/445/3 478/443/3
f 115/524/3 489/525/3 479/515/3
f 489/525/3 490/526/3 480/516/3
f 490/526/3 491/527/3 481/517/3
f 491/527/3 492/528/3 482/518/3
f 492/528/3 493/529/3 483/519/3
f 493/529/3 494/530/3 484/520/3
f 494/530/3 495/531/3 485/521/3
f 495/531/3 496/532/3 486/522/3
f 496/532/3 497/533/3 487/523/3
f 497/533/3 498/447/3 488/445/3
f 116/534/3 499/535/3 489/525/3
f 499/535/3 500/536/3 490/526/3
f 500/536/3 501/537/3 491/527/3
f 501/537/3 502/538/3 492/528/3
f 502/538/3 503/539/3 493/529/3
f 503/539/3 504/540/3 494/530/3
f 504/540/3 505/541/3 495/531/3
f 505/541/3 506/542/3 496/532/3
f 506/542/3 507/543/3 497/533/3
f 507/543/3 508/449/3 498/447/3
f 117/544/3 509/545/3 499/535/3
f 509/545/3 510/546/3 500/536/3
f 510/546/3 511/547/3 501/537/3
f 511/547/3 512/548/3 502/538/3
f 512/548/3 513/549/3 503/539/3
f 513/549/3 514/550/3 504/540/3
f 514/550/3 515/551/3 505/541/3
f 515/551/3 516/552/3 506/542/3
f 516/552/3 517/553/3 507/543/3
f 517/553/3 518/451/3 508/449/3
f 118/554/3 519/555/3 509/545/3
f 519/555/3 520/556/3 510/546/3
f 520/556/3 521/557/3 511/547/3
f 521/557/3 522/558/3 512/548/3
f 522/558/3 523/559/3 513/549/3
f 523/559/3 524/560/3 514/550/3
f 524/560/3 525/561/3 515/551/3
f 525/561/3 526/562/3 516/552/3
f 526/562/3 527/563/3 517/553/3
f 527/563/3 528/9/3 518/451/3
f 7/564/3 128/565/3 519/555/3
f 128/565/3 127/804/3 520/556/3
f 520/556/3 127/804/3 126/566/3
f 521/557/3 126/566/3 125/567/3
f 522/558/3 125/567/3 124/568/3
f 523/559/3 124/568/3 123/569/3
f 524/560/3 123/569/3 122/570/3
f 525/561/3 122/570/3 121/571/3
f 121/571/3 120/572/3 527/563/3
f 120/572/3 119/7/3 528/9/3
f 538/573/2 68/577/2 8/574/2
f 548/576/2 67/579/2 68/577/2
f 558/578/2 66/581/2 67/579/2
f 568/580/2 65/583/2 66/581/2
f 578/582/2 64/585/2 65/583/2
f 588/584/2 63/587/2 64/585/2
f 598/586/2 62/589/2 63/587/2
f 608/588/2 61/591/2 62/589/2
f 618/590/2 60/592/2 61/591/2
f 628/6/2 59/5/2 60/592/2
f 118/593/2 529/596/2 49/594/2
f 529/596/2 530/598/2 50/597/2
f 530/598/2 531/600/2 51/599/2
f 531/600/2 532/602/2 52/601/2
f 532/602/2 533/604/2 53/603/2
f 533/604/2 534/606/2 54/605/2
f 534/606/2 535/608/2 55/607/2
f 535/608/2 536/610/2 56/609/2
f 536/610/2 537/612/2 57/611/2
f 537/612/2 538/573/2 58/575/2
f 117/613/2 539/614/2 529/596/2
f 539/614/2 540/615/2 530/598/2
f 540/615/2 541/616/2 531/600/2
f 541/616/2 542/617/2 532/602/2
f 542/617/2 543/618/2 533/604/2
f 543/618/2 544/619/2 534/606/2
f 544/619/2 545/620/2 535/608/2
f 545/620/2 546/621/2 536/610/2
f 546/621/2 547/622/2 537/612/2
f 547/622/2 548/576/2 538/573/2
f 116/623/2 549/624/2 539/614/2
f 549/624/2 550/625/2 540/615/2
f 550/625/2 551/626/2 541/616/2
f 551/626/2 552/627/2 542/617/2
f 552/627/2 553/628/2 543/618/2
f 553/628/2 554/629/2 544/619/2
f 554/629/2 555/630/2 545/620/2
f 555/630/2 556/631/2 546/621/2
f 556/631/2 557/632/2 547/622/2
f 557/632/2 558/578/2 548/576/2
f 115/633/2 559/634/2 549/624/2
f 559/634/2 560/635/2 550/625/2
f 560/635/2 561/636/2 551/626/2
f 561/636/2 562/637/2 552/627/2
f 562/637/2 563/638/2 553/628/2
f 563/638/2 564/639/2 554/629/2
f 564/639/2 565/640/2 555/630/2
f 565/640/2 566/641/2 556/631/2
f 566/641/2 567/642/2 557/632/2
f 567/642/2 568/580/2 558/578/2
f 114/643/2 569/644/2 559/634/2
f 569/644/2 570/645/2 560/635/2
f 570/645/2 571/646/2 561/636/2
f 571/646/2 572/647/2 562/637/2
f 572/647/2 573/648/2 563/638/2
f 573/648/2 574/649/2 564/639/2
f 574/649/2 575/650/2 565/640/2
f 575/650/2 576/651/2 566/641/2
f 576/651/2 577/652/2 567/642/2
f 577/652/2 578/582/2 568/580/2
f 113/653/2 579/654/2 569/644/2
f 579/654/2 580/655/2 570/645/2
f 580/655/2 581/656/2 571/646/2
f 581/656/2 582/657/2 572/647/2
f 582/657/2 583/658/2 573/648/2
f 583/658/2 584/659/2 574/649/2
f 584/659/2 585/660/2 575/650/2
f 585/660/2 586/661/2 576/651/2
f 586/661/2 587/662/2 577/652/2
f 587/662/2 588/584/2 578/582/2
f 112/663/2 589/664/2 579/654/2
f 589/664/2 590/665/2 580/655/2
f 590/665/2 591/666/2 581/656/2
f 591/666/2 592/667/2 582/657/2
f 592/667/2 593/668/2 583/658/2
f 593/668/2 594/669/2 584/659/2
f 594/669/2 595/670/2 585/660/2
f 595/670/2 596/671/2 586/661/2
f 596/671/2 597/672/2 587/662/2
f 597/672/2 598/586/2 588/584/2
f 111/673/2 599/674/2 589/664/2
f 599/674/2 600/675/2 590/665/2
f 600/675/2 601/676/2 591/666/2
f 601/676/2 602/677/2 592/667/2
f 602/677/2 603/678/2 593/668/2
f 603/678/2 604/679/2 594/669/2
f 604/679/2 605/680/2 595/670/2
f 605/680/2 606/681/2 596/671/2
f 606/681/2 607/682/2 597/672/2
f 607/682/2 608/588/2 598/586/2
f 110/683/2 609/684/2 599/674/2
f 609/684/2 610/685/2 600/675/2
f 610/685/2 611/686/2 601/676/2
f 611/686/2 612/687/2 602/677/2
f 612/687/2 613/688/2 603/678/2
f 613/688/2 614/689/2 604/679/2
f 614/689/2 615/690/2 605/680/2
f 615/690/2 616/691/2 606/681/2
f 616/691/2 617/692/2 607/682/2
f 617/692/2 618/590/2 608/588/2
f 109/693/2 619/694/2 609/684/2
f 619/694/2 620/695/2 610/685/2
f 620/695/2 621/696/2 611/686/2
f 621/696/2 622/697/2 612/687/2
f 622/697/2 623/698/2 613/688/2
f 623/698/2 624/699/2 614/689/2
f 624/699/2 625/700/2 615/690/2
f 625/700/2 626/701/2 616/691/2
f 626/701/2 627/702/2 617/692/2
f 627/702/2 628/6/2 618/590/2
f 5/40/2 99/39/2 619/694/2
f 99/39/2 100/42/2 620/695/2
f 100/42/2 101/44/2 621/696/2
f 101/44/2 102/46/2 622/697/2
f 102/46/2 103/48/2 623/698/2
f 103/48/2 104/50/2 624/699/2
f 104/50/2 105/52/2 625/700/2
f 105/52/2 106/54/2 626/701/2
f 106/54/2 107/56/2 627/702/2
f 107/56/2 108/4/2 628/6/2
f 638/703/1 89/317/1 2/319/1
f 648/704/1 90/337/1 89/317/1
f 658/705/1 91/347/1 90/337/1
f 668/706/1 92/357/1 91/347/1
f 678/707/1 93/367/1 92/357/1
f 688/708/1 94/377/1 93/367/1
f 698/709/1 95/387/1 94/377/1
f 708/710/1 96/397/1 95/387/1
f 718/711/1 97/407/1 96/397/1
f 728/3/1 98/2/1 97/407/1
f 19/438/1 629/712/1 79/149/1
f 629/712/1 630/713/1 80/150/1
f 630/713/1 631/714/1 81/151/1
f 631/714/1 632/715/1 82/152/1
f 632/715/1 633/716/1 83/153/1
f 633/716/1 634/717/1 84/154/1
f 634/717/1 635/718/1 85/155/1
f 635/718/1 636/719/1 86/156/1
f 636/719/1 637/720/1 87/157/1
f 637/720/1 638/703/1 88/16/1
f 20/440/1 639/721/1 629/712/1
f 639/721/1 640/722/1 630/713/1
f 640/722/1 641/723/1 631/714/1
f 641/723/1 642/724/1 632/715/1
f 642/724/1 643/725/1 633/716/1
f 643/725/1 644/726/1 634/717/1
f 644/726/1 645/727/1 635/718/1
f 645/727/1 646/728/1 636/719/1
f 646/728/1 647/729/1 637/720/1
f 647/729/1 648/704/1 638/703/1
f 21/442/1 649/730/1 639/721/1
f 649/730/1 650/731/1 640/722/1
f 650/731/1 651/732/1 641/723/1
f 651/732/1 652/733/1 642/724/1
f 652/733/1 653/734/1 643/725/1
f 653/734/1 654/735/1 644/726/1
f 654/735/1 655/736/1 645/727/1
f 655/736/1 656/737/1 646/728/1
f 656/737/1 657/738/1 647/729/1
f 657/738/1 658/705/1 648/704/1
f 22/444/1 659/739/1 649/730/1
f 659/739/1 660/740/1 650/731/1
f 660/740/1 661/741/1 651/732/1
f 661/741/1 662/742/1 652/733/1
f 662/742/1 663/743/1 653/734/1
f 663/743/1 664/744/1 654/735/1
f 664/744/1 665/745/1 655/736/1
f 665/745/1 666/746/1 656/737/1
f 666/746/1 667/747/1 657/738/1
f 667/747/1 668/706/1 658/705/1
f 23/446/1 669/748/1 659/739/1
f 669/748/1 670/749/1 660/740/1
f 670/749/1 671/750/1 661/741/1
f 671/750/1 672/751/1 662/742/1
f 672/751/1 673/752/1 663/743/1
f 673/752/1 674/753/1 664/744/1
f 674/753/1 675/754/1 665/745/1
f 675/754/1 676/755/1 666/746/1
f 676/755/1 677/756/1 667/747/1
f 677/756/1 678/707/1 668/706/1
f 24/448/1 679/757/1 669/748/1
f 679/757/1 680/758/1 670/749/1
f 680/758/1 681/759/1 671/750/1
f 681/759/1 682/760/1 672/751/1
f 682/760/1 683/761/1 673/752/1
f 683/761/1 684/762/1 674/753/1
f 684/762/1 685/763/1 675/754/1
f 685/763/1 686/764/1 676/755/1
f 686/764/1 687/765/1 677/756/1
f 687/765/1 688/708/1 678/707/1
f 25/450/1 689/766/1 679/757/1
f 689/766/1 690/767/1 680/758/1
f 690/767/1 691/768/1 681/759/1
f 691/768/1 692/769/1 682/760/1
f 692/769/1 693/770/1 683/761/1
f 693/770/1 694/771/1 684/762/1
f 694/771/1 695/772/1 685/763/1
f 695/772/1 696/773/1 686/764/1
f 696/773/1 697/774/1 687/765/1
f 697/774/1 698/709/1 688/708/1
f 26/452/1 699/775/1 689/766/1
f 699/775/1 700/776/1 690/767/1
f 700/776/1 701/777/1 691/768/1
f 701/777/1 702/778/1 692/769/1
f 702/778/1 703/779/1 693/770/1
f 703/779/1 704/780/1 694/771/1
f 704/780/1 705/781/1 695/772/1
f 705/781/1 706/782/1 696/773/1
f 706/782/1 707/783/1 697/774/1
f 707/783/1 708/710/1 698/709/1
f 27/453/1 709/784/1 699/775/1
f 709/784/1 710/785/1 700/776/1
f 710/785/1 711/786/1 701/777/1
f 711/786/1 712/787/1 702/778/1
f 712/787/1 713/788/1 703/779/1
f 713/788/1 714/789/1 704/780/1
f 714/789/1 715/790/1 705/781/1
f 715/790/1 716/791/1 706/782/1
f 716/791/1 717/792/1 707/783/1
f 717/792/1 718/711/1 708/710/1
f 28/8/1 719/793/1 709/784/1
f 719/793/1 720/794/1 710/785/1
f 720/794/1 721/795/1 711/786/1
f 721/795/1 722/796/1 712/787/1
f 722/796/1 723/797/1 713/788/1
f 723/797/1 724/798/1 714/789/1
f 724/798/1 725/799/1 715/790/1
f 725/799/1 726/800/1 716/791/1
f 726/800/1 727/801/1 717/792/1
f 727/801/1 728/3/1 718/711/1
f 3/179/1 29/178/1 719/793/1
f 29/178/1 30/181/1 720/794/1
f 30/181/1 31/183/1 721/795/1
f 31/183/1 32/185/1 722/796/1
f 32/185/1 33/187/1 723/797/1
f 33/187/1 34/189/1 724/798/1
f 34/189/1 35/191/1 725/799/1
f 35/191/1 36/193/1 726/800/1
f 36/193/1 37/195/1 727/801/1
f 37/195/1 38/1/1 728/3/1
